v 0.109886 -0.00500661 0.25
v 0.11 0 0.25
l 1 2
v 0.109544 -0.0100028 0.25
v 0.109886 -0.00500661 0.25
l 3 4
v 0.108976 -0.0149783 0.25
v 0.109544 -0.0100028 0.25
l 5 6
v 0.108181 -0.0199228 0.25
v 0.108976 -0.0149783 0.25
l 7 8
v 0.107162 -0.024825901 0.25
v 0.108181 -0.0199228 0.25
l 9 10
v 0.105921 -0.0296776 0.25
v 0.107162 -0.024825901 0.25
l 11 12
v 0.10446 -0.034467801 0.25
v 0.105921 -0.0296776 0.25
l 13 14
v 0.102783 -0.039186601 0.25
v 0.10446 -0.034467801 0.25
l 15 16
v 0.100893 -0.043824099 0.25
v 0.102783 -0.039186601 0.25
l 17 18
v 0.098794103 -0.048370801 0.25
v 0.100893 -0.043824099 0.25
l 19 20
v 0.0964901 -0.0528173 0.25
v 0.098794103 -0.048370801 0.25
l 21 22
v 0.093986101 -0.057154201 0.25
v 0.0964901 -0.0528173 0.25
l 23 24
v 0.091287397 -0.061372701 0.25
v 0.093986101 -0.057154201 0.25
l 25 26
v 0.088399403 -0.065464102 0.25
v 0.091287397 -0.061372701 0.25
l 27 28
v 0.085328199 -0.069419697 0.25
v 0.088399403 -0.065464102 0.25
l 29 30
v 0.0820802 -0.073231399 0.25
v 0.085328199 -0.069419697 0.25
l 31 32
v 0.078662001 -0.0768914 0.25
v 0.0820802 -0.073231399 0.25
l 33 34
v 0.075080797 -0.080392003 0.25
v 0.078662001 -0.0768914 0.25
l 35 36
v 0.071344003 -0.083725899 0.25
v 0.075080797 -0.080392003 0.25
l 37 38
v 0.0674593 -0.086886398 0.25
v 0.071344003 -0.083725899 0.25
l 39 40
v 0.063434802 -0.089866698 0.25
v 0.0674593 -0.086886398 0.25
l 41 42
v 0.059278902 -0.0926608 0.25
v 0.063434802 -0.089866698 0.25
l 43 44
v 0.055 -0.095262803 0.25
v 0.059278902 -0.0926608 0.25
l 45 46
v 0.050607201 -0.097667404 0.25
v 0.055 -0.095262803 0.25
l 47 48
v 0.046109401 -0.099869497 0.25
v 0.050607201 -0.097667404 0.25
l 49 50
v 0.041516099 -0.101865 0.25
v 0.046109401 -0.099869497 0.25
l 51 52
v 0.036836799 -0.103649 0.25
v 0.041516099 -0.101865 0.25
l 53 54
v 0.032081101 -0.105218 0.25
v 0.036836799 -0.103649 0.25
l 55 56
v 0.027258901 -0.106569 0.25
v 0.032081101 -0.105218 0.25
l 57 58
v 0.022380199 -0.107699 0.25
v 0.027258901 -0.106569 0.25
l 59 60
v 0.017455099 -0.108606 0.25
v 0.022380199 -0.107699 0.25
l 61 62
v 0.0124938 -0.109288 0.25
v 0.017455099 -0.108606 0.25
l 63 64
v 0.00750667 -0.109744 0.25
v 0.0124938 -0.109288 0.25
l 65 66
v 0.0025039499 -0.109971 0.25
v 0.00750667 -0.109744 0.25
l 67 68
v -0.0025039499 -0.109971 0.25
v 0.0025039499 -0.109971 0.25
l 69 70
v -0.00750667 -0.109744 0.25
v -0.0025039499 -0.109971 0.25
l 71 72
v -0.0124938 -0.109288 0.25
v -0.00750667 -0.109744 0.25
l 73 74
v -0.017455099 -0.108606 0.25
v -0.0124938 -0.109288 0.25
l 75 76
v -0.022380199 -0.107699 0.25
v -0.017455099 -0.108606 0.25
l 77 78
v -0.027258901 -0.106569 0.25
v -0.022380199 -0.107699 0.25
l 79 80
v -0.032081101 -0.105218 0.25
v -0.027258901 -0.106569 0.25
l 81 82
v -0.036836799 -0.103649 0.25
v -0.032081101 -0.105218 0.25
l 83 84
v -0.041516099 -0.101865 0.25
v -0.036836799 -0.103649 0.25
l 85 86
v -0.046109401 -0.099869497 0.25
v -0.041516099 -0.101865 0.25
l 87 88
v -0.050607201 -0.097667404 0.25
v -0.046109401 -0.099869497 0.25
l 89 90
v -0.055 -0.095262803 0.25
v -0.050607201 -0.097667404 0.25
l 91 92
v -0.059278902 -0.0926608 0.25
v -0.055 -0.095262803 0.25
l 93 94
v -0.063434802 -0.089866698 0.25
v -0.059278902 -0.0926608 0.25
l 95 96
v -0.0674593 -0.086886398 0.25
v -0.063434802 -0.089866698 0.25
l 97 98
v -0.071344003 -0.083725899 0.25
v -0.0674593 -0.086886398 0.25
l 99 100
v -0.075080797 -0.080392003 0.25
v -0.071344003 -0.083725899 0.25
l 101 102
v -0.078662001 -0.0768914 0.25
v -0.075080797 -0.080392003 0.25
l 103 104
v -0.0820802 -0.073231399 0.25
v -0.078662001 -0.0768914 0.25
l 105 106
v -0.085328199 -0.069419697 0.25
v -0.0820802 -0.073231399 0.25
l 107 108
v -0.088399403 -0.065464102 0.25
v -0.085328199 -0.069419697 0.25
l 109 110
v -0.091287397 -0.061372701 0.25
v -0.088399403 -0.065464102 0.25
l 111 112
v -0.093986101 -0.057154201 0.25
v -0.091287397 -0.061372701 0.25
l 113 114
v -0.0964901 -0.0528173 0.25
v -0.093986101 -0.057154201 0.25
l 115 116
v -0.098794103 -0.048370801 0.25
v -0.0964901 -0.0528173 0.25
l 117 118
v -0.100893 -0.043824099 0.25
v -0.098794103 -0.048370801 0.25
l 119 120
v -0.102783 -0.039186601 0.25
v -0.100893 -0.043824099 0.25
l 121 122
v -0.10446 -0.034467801 0.25
v -0.102783 -0.039186601 0.25
l 123 124
v -0.105921 -0.0296776 0.25
v -0.10446 -0.034467801 0.25
l 125 126
v -0.107162 -0.024825901 0.25
v -0.105921 -0.0296776 0.25
l 127 128
v -0.108181 -0.0199228 0.25
v -0.107162 -0.024825901 0.25
l 129 130
v -0.108976 -0.0149783 0.25
v -0.108181 -0.0199228 0.25
l 131 132
v -0.109544 -0.0100028 0.25
v -0.108976 -0.0149783 0.25
l 133 134
v -0.109886 -0.00500661 0.25
v -0.109544 -0.0100028 0.25
l 135 136
v -0.11 2.79628e-16 0.25
v -0.109886 -0.00500661 0.25
l 137 138
v -0.109886 0.00500661 0.25
v -0.11 2.79628e-16 0.25
l 139 140
v -0.109544 0.0100028 0.25
v -0.109886 0.00500661 0.25
l 141 142
v -0.108976 0.0149783 0.25
v -0.109544 0.0100028 0.25
l 143 144
v -0.108181 0.0199228 0.25
v -0.108976 0.0149783 0.25
l 145 146
v -0.107162 0.024825901 0.25
v -0.108181 0.0199228 0.25
l 147 148
v -0.105921 0.0296776 0.25
v -0.107162 0.024825901 0.25
l 149 150
v -0.10446 0.034467801 0.25
v -0.105921 0.0296776 0.25
l 151 152
v -0.102783 0.039186601 0.25
v -0.10446 0.034467801 0.25
l 153 154
v -0.100893 0.043824099 0.25
v -0.102783 0.039186601 0.25
l 155 156
v -0.098794103 0.048370801 0.25
v -0.100893 0.043824099 0.25
l 157 158
v -0.0964901 0.0528173 0.25
v -0.098794103 0.048370801 0.25
l 159 160
v -0.093986101 0.057154201 0.25
v -0.0964901 0.0528173 0.25
l 161 162
v -0.091287397 0.061372701 0.25
v -0.093986101 0.057154201 0.25
l 163 164
v -0.088399403 0.065464102 0.25
v -0.091287397 0.061372701 0.25
l 165 166
v -0.085328199 0.069419697 0.25
v -0.088399403 0.065464102 0.25
l 167 168
v -0.0820802 0.073231399 0.25
v -0.085328199 0.069419697 0.25
l 169 170
v -0.078662001 0.0768914 0.25
v -0.0820802 0.073231399 0.25
l 171 172
v -0.075080797 0.080392003 0.25
v -0.078662001 0.0768914 0.25
l 173 174
v -0.071344003 0.083725899 0.25
v -0.075080797 0.080392003 0.25
l 175 176
v -0.0674593 0.086886398 0.25
v -0.071344003 0.083725899 0.25
l 177 178
v -0.063434802 0.089866698 0.25
v -0.0674593 0.086886398 0.25
l 179 180
v -0.059278902 0.0926608 0.25
v -0.063434802 0.089866698 0.25
l 181 182
v -0.055 0.095262803 0.25
v -0.059278902 0.0926608 0.25
l 183 184
v -0.050607201 0.097667404 0.25
v -0.055 0.095262803 0.25
l 185 186
v -0.046109401 0.099869497 0.25
v -0.050607201 0.097667404 0.25
l 187 188
v -0.041516099 0.101865 0.25
v -0.046109401 0.099869497 0.25
l 189 190
v -0.036836799 0.103649 0.25
v -0.041516099 0.101865 0.25
l 191 192
v -0.032081101 0.105218 0.25
v -0.036836799 0.103649 0.25
l 193 194
v -0.027258901 0.106569 0.25
v -0.032081101 0.105218 0.25
l 195 196
v -0.022380199 0.107699 0.25
v -0.027258901 0.106569 0.25
l 197 198
v -0.017455099 0.108606 0.25
v -0.022380199 0.107699 0.25
l 199 200
v -0.0124938 0.109288 0.25
v -0.017455099 0.108606 0.25
l 201 202
v -0.00750667 0.109744 0.25
v -0.0124938 0.109288 0.25
l 203 204
v -0.0025039499 0.109971 0.25
v -0.00750667 0.109744 0.25
l 205 206
v 0.0025039499 0.109971 0.25
v -0.0025039499 0.109971 0.25
l 207 208
v 0.00750667 0.109744 0.25
v 0.0025039499 0.109971 0.25
l 209 210
v 0.0124938 0.109288 0.25
v 0.00750667 0.109744 0.25
l 211 212
v 0.017455099 0.108606 0.25
v 0.0124938 0.109288 0.25
l 213 214
v 0.022380199 0.107699 0.25
v 0.017455099 0.108606 0.25
l 215 216
v 0.027258901 0.106569 0.25
v 0.022380199 0.107699 0.25
l 217 218
v 0.032081101 0.105218 0.25
v 0.027258901 0.106569 0.25
l 219 220
v 0.036836799 0.103649 0.25
v 0.032081101 0.105218 0.25
l 221 222
v 0.041516099 0.101865 0.25
v 0.036836799 0.103649 0.25
l 223 224
v 0.046109401 0.099869497 0.25
v 0.041516099 0.101865 0.25
l 225 226
v 0.050607201 0.097667404 0.25
v 0.046109401 0.099869497 0.25
l 227 228
v 0.055 0.095262803 0.25
v 0.050607201 0.097667404 0.25
l 229 230
v 0.059278902 0.0926608 0.25
v 0.055 0.095262803 0.25
l 231 232
v 0.063434802 0.089866698 0.25
v 0.059278902 0.0926608 0.25
l 233 234
v 0.0674593 0.086886398 0.25
v 0.063434802 0.089866698 0.25
l 235 236
v 0.071344003 0.083725899 0.25
v 0.0674593 0.086886398 0.25
l 237 238
v 0.075080797 0.080392003 0.25
v 0.071344003 0.083725899 0.25
l 239 240
v 0.078662001 0.0768914 0.25
v 0.075080797 0.080392003 0.25
l 241 242
v 0.0820802 0.073231399 0.25
v 0.078662001 0.0768914 0.25
l 243 244
v 0.085328199 0.069419697 0.25
v 0.0820802 0.073231399 0.25
l 245 246
v 0.088399403 0.065464102 0.25
v 0.085328199 0.069419697 0.25
l 247 248
v 0.091287397 0.061372701 0.25
v 0.088399403 0.065464102 0.25
l 249 250
v 0.093986101 0.057154201 0.25
v 0.091287397 0.061372701 0.25
l 251 252
v 0.0964901 0.0528173 0.25
v 0.093986101 0.057154201 0.25
l 253 254
v 0.098794103 0.048370801 0.25
v 0.0964901 0.0528173 0.25
l 255 256
v 0.100893 0.043824099 0.25
v 0.098794103 0.048370801 0.25
l 257 258
v 0.102783 0.039186601 0.25
v 0.100893 0.043824099 0.25
l 259 260
v 0.10446 0.034467801 0.25
v 0.102783 0.039186601 0.25
l 261 262
v 0.105921 0.0296776 0.25
v 0.10446 0.034467801 0.25
l 263 264
v 0.107162 0.024825901 0.25
v 0.105921 0.0296776 0.25
l 265 266
v 0.108181 0.0199228 0.25
v 0.107162 0.024825901 0.25
l 267 268
v 0.108976 0.0149783 0.25
v 0.108181 0.0199228 0.25
l 269 270
v 0.109544 0.0100028 0.25
v 0.108976 0.0149783 0.25
l 271 272
v 0.109886 0.00500661 0.25
v 0.109544 0.0100028 0.25
l 273 274
v 0.11 0 0.25
v 0.109886 0.00500661 0.25
l 275 276
v 0.119896 -0.0049918201 0.25
v 0.12 0 0.25
l 277 278
v 0.119585 -0.0099750003 0.25
v 0.119896 -0.0049918201 0.25
l 279 280
v 0.119066 -0.0149409 0.25
v 0.119585 -0.0099750003 0.25
l 281 282
v 0.118342 -0.019881001 0.25
v 0.119066 -0.0149409 0.25
l 283 284
v 0.117412 -0.024786601 0.25
v 0.118342 -0.019881001 0.25
l 285 286
v 0.11628 -0.029649301 0.25
v 0.117412 -0.024786601 0.25
l 287 288
v 0.114946 -0.034460701 0.25
v 0.11628 -0.029649301 0.25
l 289 290
v 0.113412 -0.039212398 0.25
v 0.114946 -0.034460701 0.25
l 291 292
v 0.111683 -0.043896299 0.25
v 0.113412 -0.039212398 0.25
l 293 294
v 0.10976 -0.048504099 0.25
v 0.111683 -0.043896299 0.25
l 295 296
v 0.107648 -0.053027999 0.25
v 0.10976 -0.048504099 0.25
l 297 298
v 0.105349 -0.057460099 0.25
v 0.107648 -0.053027999 0.25
l 299 300
v 0.102867 -0.061792701 0.25
v 0.105349 -0.057460099 0.25
l 301 302
v 0.100208 -0.066018298 0.25
v 0.102867 -0.061792701 0.25
l 303 304
v 0.0973747 -0.0701297 0.25
v 0.100208 -0.066018298 0.25
l 305 306
v 0.0943731 -0.074119598 0.25
v 0.0973747 -0.0701297 0.25
l 307 308
v 0.091208197 -0.077981196 0.25
v 0.0943731 -0.074119598 0.25
l 309 310
v 0.087885298 -0.081707798 0.25
v 0.091208197 -0.077981196 0.25
l 311 312
v 0.084410302 -0.085293002 0.25
v 0.087885298 -0.081707798 0.25
l 313 314
v 0.080789201 -0.088730499 0.25
v 0.084410302 -0.085293002 0.25
l 315 316
v 0.0770282 -0.092014402 0.25
v 0.080789201 -0.088730499 0.25
l 317 318
v 0.073133901 -0.095138997 0.25
v 0.0770282 -0.092014402 0.25
l 319 320
v 0.069112897 -0.098099001 0.25
v 0.073133901 -0.095138997 0.25
l 321 322
v 0.064972296 -0.100889 0.25
v 0.069112897 -0.098099001 0.25
l 323 324
v 0.0607193 -0.103504 0.25
v 0.064972296 -0.100889 0.25
l 325 326
v 0.056361102 -0.105941 0.25
v 0.0607193 -0.103504 0.25
l 327 328
v 0.0519053 -0.108193 0.25
v 0.056361102 -0.105941 0.25
l 329 330
v 0.047359701 -0.110259 0.25
v 0.0519053 -0.108193 0.25
l 331 332
v 0.042732101 -0.112134 0.25
v 0.047359701 -0.110259 0.25
l 333 334
v 0.038030501 -0.113814 0.25
v 0.042732101 -0.112134 0.25
l 335 336
v 0.033263098 -0.115298 0.25
v 0.038030501 -0.113814 0.25
l 337 338
v 0.028438101 -0.116582 0.25
v 0.033263098 -0.115298 0.25
l 339 340
v 0.023563899 -0.117664 0.25
v 0.028438101 -0.116582 0.25
l 341 342
v 0.0186488 -0.118542 0.25
v 0.023563899 -0.117664 0.25
l 343 344
v 0.0137015 -0.119215 0.25
v 0.0186488 -0.118542 0.25
l 345 346
v 0.0087304804 -0.119682 0.25
v 0.0137015 -0.119215 0.25
l 347 348
v 0.00374434 -0.119942 0.25
v 0.0087304804 -0.119682 0.25
l 349 350
v -0.0012482899 -0.119993 0.25
v 0.00374434 -0.119942 0.25
l 351 352
v -0.00623876 -0.119838 0.25
v -0.0012482899 -0.119993 0.25
l 353 354
v -0.0112184 -0.119475 0.25
v -0.00623876 -0.119838 0.25
l 355 356
v -0.016178699 -0.118904 0.25
v -0.0112184 -0.119475 0.25
l 357 358
v -0.0211109 -0.118128 0.25
v -0.016178699 -0.118904 0.25
l 359 360
v -0.0260066 -0.117148 0.25
v -0.0211109 -0.118128 0.25
l 361 362
v -0.0308573 -0.115965 0.25
v -0.0260066 -0.117148 0.25
l 363 364
v -0.0356545 -0.114581 0.25
v -0.0308573 -0.115965 0.25
l 365 366
v -0.04039 -0.112998 0.25
v -0.0356545 -0.114581 0.25
l 367 368
v -0.045055602 -0.11122 0.25
v -0.04039 -0.112998 0.25
l 369 370
v -0.0496433 -0.10925 0.25
v -0.045055602 -0.11122 0.25
l 371 372
v -0.0541449 -0.10709 0.25
v -0.0496433 -0.10925 0.25
l 373 374
v -0.058552802 -0.104745 0.25
v -0.0541449 -0.10709 0.25
l 375 376
v -0.062859401 -0.102219 0.25
v -0.058552802 -0.104745 0.25
l 377 378
v -0.0670572 -0.099515498 0.25
v -0.062859401 -0.102219 0.25
l 379 380
v -0.071138799 -0.096639901 0.25
v -0.0670572 -0.099515498 0.25
l 381 382
v -0.0750973 -0.093597002 0.25
v -0.071138799 -0.096639901 0.25
l 383 384
v -0.078925803 -0.090392001 0.25
v -0.0750973 -0.093597002 0.25
l 385 386
v -0.082617603 -0.087030597 0.25
v -0.078925803 -0.090392001 0.25
l 387 388
v -0.086166501 -0.083518498 0.25
v -0.082617603 -0.087030597 0.25
l 389 390
v -0.089566097 -0.079861797 0.25
v -0.086166501 -0.083518498 0.25
l 391 392
v -0.092810698 -0.076066896 0.25
v -0.089566097 -0.079861797 0.25
l 393 394
v -0.095894702 -0.072140202 0.25
v -0.092810698 -0.076066896 0.25
l 395 396
v -0.098812602 -0.068088703 0.25
v -0.095894702 -0.072140202 0.25
l 397 398
v -0.101559 -0.063919298 0.25
v -0.098812602 -0.068088703 0.25
l 399 400
v -0.104131 -0.059639301 0.25
v -0.101559 -0.063919298 0.25
l 401 402
v -0.106521 -0.055256002 0.25
v -0.104131 -0.059639301 0.25
l 403 404
v -0.108728 -0.050776999 0.25
v -0.106521 -0.055256002 0.25
l 405 406
v -0.110746 -0.0462102 0.25
v -0.108728 -0.050776999 0.25
l 407 408
v -0.112572 -0.041563299 0.25
v -0.110746 -0.0462102 0.25
l 409 410
v -0.114204 -0.036844499 0.25
v -0.112572 -0.041563299 0.25
l 411 412
v -0.115637 -0.032061901 0.25
v -0.114204 -0.036844499 0.25
l 413 414
v -0.116871 -0.027223799 0.25
v -0.115637 -0.032061901 0.25
l 415 416
v -0.117902 -0.022338601 0.25
v -0.116871 -0.027223799 0.25
l 417 418
v -0.11873 -0.0174147 0.25
v -0.117902 -0.022338601 0.25
l 419 420
v -0.119351 -0.0124607 0.25
v -0.11873 -0.0174147 0.25
l 421 422
v -0.119766 -0.0074850302 0.25
v -0.119351 -0.0124607 0.25
l 423 424
v -0.119974 -0.00249645 0.25
v -0.119766 -0.0074850302 0.25
l 425 426
v -0.119974 0.00249645 0.25
v -0.119974 -0.00249645 0.25
l 427 428
v -0.119766 0.0074850302 0.25
v -0.119974 0.00249645 0.25
l 429 430
v -0.119351 0.0124607 0.25
v -0.119766 0.0074850302 0.25
l 431 432
v -0.11873 0.0174147 0.25
v -0.119351 0.0124607 0.25
l 433 434
v -0.117902 0.022338601 0.25
v -0.11873 0.0174147 0.25
l 435 436
v -0.116871 0.027223799 0.25
v -0.117902 0.022338601 0.25
l 437 438
v -0.115637 0.032061901 0.25
v -0.116871 0.027223799 0.25
l 439 440
v -0.114204 0.036844499 0.25
v -0.115637 0.032061901 0.25
l 441 442
v -0.112572 0.041563299 0.25
v -0.114204 0.036844499 0.25
l 443 444
v -0.110746 0.0462102 0.25
v -0.112572 0.041563299 0.25
l 445 446
v -0.108728 0.050776999 0.25
v -0.110746 0.0462102 0.25
l 447 448
v -0.106521 0.055256002 0.25
v -0.108728 0.050776999 0.25
l 449 450
v -0.104131 0.059639301 0.25
v -0.106521 0.055256002 0.25
l 451 452
v -0.101559 0.063919298 0.25
v -0.104131 0.059639301 0.25
l 453 454
v -0.098812602 0.068088703 0.25
v -0.101559 0.063919298 0.25
l 455 456
v -0.095894702 0.072140202 0.25
v -0.098812602 0.068088703 0.25
l 457 458
v -0.092810698 0.076066896 0.25
v -0.095894702 0.072140202 0.25
l 459 460
v -0.089566097 0.079861797 0.25
v -0.092810698 0.076066896 0.25
l 461 462
v -0.086166501 0.083518498 0.25
v -0.089566097 0.079861797 0.25
l 463 464
v -0.082617603 0.087030597 0.25
v -0.086166501 0.083518498 0.25
l 465 466
v -0.078925803 0.090392001 0.25
v -0.082617603 0.087030597 0.25
l 467 468
v -0.0750973 0.093597002 0.25
v -0.078925803 0.090392001 0.25
l 469 470
v -0.071138799 0.096639901 0.25
v -0.0750973 0.093597002 0.25
l 471 472
v -0.0670572 0.099515498 0.25
v -0.071138799 0.096639901 0.25
l 473 474
v -0.062859401 0.102219 0.25
v -0.0670572 0.099515498 0.25
l 475 476
v -0.058552802 0.104745 0.25
v -0.062859401 0.102219 0.25
l 477 478
v -0.0541449 0.10709 0.25
v -0.058552802 0.104745 0.25
l 479 480
v -0.0496433 0.10925 0.25
v -0.0541449 0.10709 0.25
l 481 482
v -0.045055602 0.11122 0.25
v -0.0496433 0.10925 0.25
l 483 484
v -0.04039 0.112998 0.25
v -0.045055602 0.11122 0.25
l 485 486
v -0.0356545 0.114581 0.25
v -0.04039 0.112998 0.25
l 487 488
v -0.0308573 0.115965 0.25
v -0.0356545 0.114581 0.25
l 489 490
v -0.0260066 0.117148 0.25
v -0.0308573 0.115965 0.25
l 491 492
v -0.0211109 0.118128 0.25
v -0.0260066 0.117148 0.25
l 493 494
v -0.016178699 0.118904 0.25
v -0.0211109 0.118128 0.25
l 495 496
v -0.0112184 0.119475 0.25
v -0.016178699 0.118904 0.25
l 497 498
v -0.00623876 0.119838 0.25
v -0.0112184 0.119475 0.25
l 499 500
v -0.0012482899 0.119993 0.25
v -0.00623876 0.119838 0.25
l 501 502
v 0.00374434 0.119942 0.25
v -0.0012482899 0.119993 0.25
l 503 504
v 0.0087304804 0.119682 0.25
v 0.00374434 0.119942 0.25
l 505 506
v 0.0137015 0.119215 0.25
v 0.0087304804 0.119682 0.25
l 507 508
v 0.0186488 0.118542 0.25
v 0.0137015 0.119215 0.25
l 509 510
v 0.023563899 0.117664 0.25
v 0.0186488 0.118542 0.25
l 511 512
v 0.028438101 0.116582 0.25
v 0.023563899 0.117664 0.25
l 513 514
v 0.033263098 0.115298 0.25
v 0.028438101 0.116582 0.25
l 515 516
v 0.038030501 0.113814 0.25
v 0.033263098 0.115298 0.25
l 517 518
v 0.042732101 0.112134 0.25
v 0.038030501 0.113814 0.25
l 519 520
v 0.047359701 0.110259 0.25
v 0.042732101 0.112134 0.25
l 521 522
v 0.0519053 0.108193 0.25
v 0.047359701 0.110259 0.25
l 523 524
v 0.056361102 0.105941 0.25
v 0.0519053 0.108193 0.25
l 525 526
v 0.0607193 0.103504 0.25
v 0.056361102 0.105941 0.25
l 527 528
v 0.064972296 0.100889 0.25
v 0.0607193 0.103504 0.25
l 529 530
v 0.069112897 0.098099001 0.25
v 0.064972296 0.100889 0.25
l 531 532
v 0.073133901 0.095138997 0.25
v 0.069112897 0.098099001 0.25
l 533 534
v 0.0770282 0.092014402 0.25
v 0.073133901 0.095138997 0.25
l 535 536
v 0.080789201 0.088730499 0.25
v 0.0770282 0.092014402 0.25
l 537 538
v 0.084410302 0.085293002 0.25
v 0.080789201 0.088730499 0.25
l 539 540
v 0.087885298 0.081707798 0.25
v 0.084410302 0.085293002 0.25
l 541 542
v 0.091208197 0.077981196 0.25
v 0.087885298 0.081707798 0.25
l 543 544
v 0.0943731 0.074119598 0.25
v 0.091208197 0.077981196 0.25
l 545 546
v 0.0973747 0.0701297 0.25
v 0.0943731 0.074119598 0.25
l 547 548
v 0.100208 0.066018298 0.25
v 0.0973747 0.0701297 0.25
l 549 550
v 0.102867 0.061792701 0.25
v 0.100208 0.066018298 0.25
l 551 552
v 0.105349 0.057460099 0.25
v 0.102867 0.061792701 0.25
l 553 554
v 0.107648 0.053027999 0.25
v 0.105349 0.057460099 0.25
l 555 556
v 0.10976 0.048504099 0.25
v 0.107648 0.053027999 0.25
l 557 558
v 0.111683 0.043896299 0.25
v 0.10976 0.048504099 0.25
l 559 560
v 0.113412 0.039212398 0.25
v 0.111683 0.043896299 0.25
l 561 562
v 0.114946 0.034460701 0.25
v 0.113412 0.039212398 0.25
l 563 564
v 0.11628 0.029649301 0.25
v 0.114946 0.034460701 0.25
l 565 566
v 0.117412 0.024786601 0.25
v 0.11628 0.029649301 0.25
l 567 568
v 0.118342 0.019881001 0.25
v 0.117412 0.024786601 0.25
l 569 570
v 0.119066 0.0149409 0.25
v 0.118342 0.019881001 0.25
l 571 572
v 0.119585 0.0099750003 0.25
v 0.119066 0.0149409 0.25
l 573 574
v 0.119896 0.0049918201 0.25
v 0.119585 0.0099750003 0.25
l 575 576
v 0.12 0 0.25
v 0.119896 0.0049918201 0.25
l 577 578
