v 0.0096249999 0 0.00233333
v 0.0096150199 -0.00043807799 0.00233333
l 1 2
v 0.0096150199 -0.00043807799 0.00233333
v 0.0095851002 -0.00087524502 0.00233333
l 3 4
v 0.0095851002 -0.00087524502 0.00233333
v 0.0095354002 -0.0013106 0.00233333
l 5 6
v 0.0095354002 -0.0013106 0.00233333
v 0.0094658397 -0.0017432499 0.00233333
l 7 8
v 0.0094658397 -0.0017432499 0.00233333
v 0.0093766702 -0.0021722701 0.00233333
l 9 10
v 0.0093766702 -0.0021722701 0.00233333
v 0.0092680901 -0.00259679 0.00233333
l 11 12
v 0.0092680901 -0.00259679 0.00233333
v 0.0091402503 -0.0030159301 0.00233333
l 13 14
v 0.0091402503 -0.0030159301 0.00233333
v 0.0089935102 -0.0034288301 0.00233333
l 15 16
v 0.0089935102 -0.0034288301 0.00233333
v 0.0088281399 -0.0038346101 0.00233333
l 17 18
v 0.0088281399 -0.0038346101 0.00233333
v 0.0086444803 -0.0042324499 0.00233333
l 19 20
v 0.0086444803 -0.0042324499 0.00233333
v 0.0084428797 -0.0046215099 0.00233333
l 21 22
v 0.0084428797 -0.0046215099 0.00233333
v 0.0082237804 -0.0050009899 0.00233333
l 23 24
v 0.0082237804 -0.0050009899 0.00233333
v 0.0079876501 -0.0053701098 0.00233333
l 25 26
v 0.0079876501 -0.0053701098 0.00233333
v 0.0077349502 -0.0057281102 0.00233333
l 27 28
v 0.0077349502 -0.0057281102 0.00233333
v 0.0074662198 -0.0060742199 0.00233333
l 29 30
v 0.0074662198 -0.0060742199 0.00233333
v 0.0071820202 -0.0064077498 0.00233333
l 31 32
v 0.0071820202 -0.0064077498 0.00233333
v 0.0068829302 -0.006728 0.00233333
l 33 34
v 0.0068829302 -0.006728 0.00233333
v 0.0065695699 -0.0070342999 0.00233333
l 35 36
v 0.0065695699 -0.0070342999 0.00233333
v 0.0062425998 -0.0073260199 0.00233333
l 37 38
v 0.0062425998 -0.0073260199 0.00233333
v 0.0059026899 -0.0076025599 0.00233333
l 39 40
v 0.0059026899 -0.0076025599 0.00233333
v 0.0055505498 -0.00786334 0.00233333
l 41 42
v 0.0055505498 -0.00786334 0.00233333
v 0.0051869 -0.0081078196 0.00233333
l 43 44
v 0.0051869 -0.0081078196 0.00233333
v 0.0048125 -0.0083355 0.00233333
l 45 46
v 0.0048125 -0.0083355 0.00233333
v 0.0044281301 -0.0085458998 0.00233333
l 47 48
v 0.0044281301 -0.0085458998 0.00233333
v 0.00403457 -0.0087385802 0.00233333
l 49 50
v 0.00403457 -0.0087385802 0.00233333
v 0.00363266 -0.0089131901 0.00233333
l 51 52
v 0.00363266 -0.0089131901 0.00233333
v 0.0032232199 -0.00906929 0.00233333
l 53 54
v 0.0032232199 -0.00906929 0.00233333
v 0.0028071001 -0.00920658 0.00233333
l 55 56
v 0.0028071001 -0.00920658 0.00233333
v 0.0023851499 -0.00932479 0.00233333
l 57 58
v 0.0023851499 -0.00932479 0.00233333
v 0.0019582701 -0.0094236601 0.00233333
l 59 60
v 0.0019582701 -0.0094236601 0.00233333
v 0.00152732 -0.0095030302 0.00233333
l 61 62
v 0.00152732 -0.0095030302 0.00233333
v 0.00109321 -0.0095627001 0.00233333
l 63 64
v 0.00109321 -0.0095627001 0.00233333
v 0.00065683399 -0.0096025998 0.00233333
l 65 66
v 0.00065683399 -0.0096025998 0.00233333
v 0.00021909599 -0.0096224602 0.00233333
l 67 68
v 0.00021909599 -0.0096224602 0.00233333
v -0.00021909599 -0.0096224602 0.00233333
l 69 70
v -0.00021909599 -0.0096224602 0.00233333
v -0.00065683399 -0.0096025998 0.00233333
l 71 72
v -0.00065683399 -0.0096025998 0.00233333
v -0.00109321 -0.0095627001 0.00233333
l 73 74
v -0.00109321 -0.0095627001 0.00233333
v -0.00152732 -0.0095030302 0.00233333
l 75 76
v -0.00152732 -0.0095030302 0.00233333
v -0.0019582701 -0.0094236601 0.00233333
l 77 78
v -0.0019582701 -0.0094236601 0.00233333
v -0.0023851499 -0.00932479 0.00233333
l 79 80
v -0.0023851499 -0.00932479 0.00233333
v -0.0028071001 -0.00920658 0.00233333
l 81 82
v -0.0028071001 -0.00920658 0.00233333
v -0.0032232199 -0.00906929 0.00233333
l 83 84
v -0.0032232199 -0.00906929 0.00233333
v -0.00363266 -0.0089131901 0.00233333
l 85 86
v -0.00363266 -0.0089131901 0.00233333
v -0.00403457 -0.0087385802 0.00233333
l 87 88
v -0.00403457 -0.0087385802 0.00233333
v -0.0044281301 -0.0085458998 0.00233333
l 89 90
v -0.0044281301 -0.0085458998 0.00233333
v -0.0048125 -0.0083355 0.00233333
l 91 92
v -0.0048125 -0.0083355 0.00233333
v -0.0051869 -0.0081078196 0.00233333
l 93 94
v -0.0051869 -0.0081078196 0.00233333
v -0.0055505498 -0.00786334 0.00233333
l 95 96
v -0.0055505498 -0.00786334 0.00233333
v -0.0059026899 -0.0076025599 0.00233333
l 97 98
v -0.0059026899 -0.0076025599 0.00233333
v -0.0062425998 -0.0073260199 0.00233333
l 99 100
v -0.0062425998 -0.0073260199 0.00233333
v -0.0065695699 -0.0070342999 0.00233333
l 101 102
v -0.0065695699 -0.0070342999 0.00233333
v -0.0068829302 -0.006728 0.00233333
l 103 104
v -0.0068829302 -0.006728 0.00233333
v -0.0071820202 -0.0064077498 0.00233333
l 105 106
v -0.0071820202 -0.0064077498 0.00233333
v -0.0074662198 -0.0060742199 0.00233333
l 107 108
v -0.0074662198 -0.0060742199 0.00233333
v -0.0077349502 -0.0057281102 0.00233333
l 109 110
v -0.0077349502 -0.0057281102 0.00233333
v -0.0079876501 -0.0053701098 0.00233333
l 111 112
v -0.0079876501 -0.0053701098 0.00233333
v -0.0082237804 -0.0050009899 0.00233333
l 113 114
v -0.0082237804 -0.0050009899 0.00233333
v -0.0084428797 -0.0046215099 0.00233333
l 115 116
v -0.0084428797 -0.0046215099 0.00233333
v -0.0086444803 -0.0042324499 0.00233333
l 117 118
v -0.0086444803 -0.0042324499 0.00233333
v -0.0088281399 -0.0038346101 0.00233333
l 119 120
v -0.0088281399 -0.0038346101 0.00233333
v -0.0089935102 -0.0034288301 0.00233333
l 121 122
v -0.0089935102 -0.0034288301 0.00233333
v -0.0091402503 -0.0030159301 0.00233333
l 123 124
v -0.0091402503 -0.0030159301 0.00233333
v -0.0092680901 -0.00259679 0.00233333
l 125 126
v -0.0092680901 -0.00259679 0.00233333
v -0.0093766702 -0.0021722701 0.00233333
l 127 128
v -0.0093766702 -0.0021722701 0.00233333
v -0.0094658397 -0.0017432499 0.00233333
l 129 130
v -0.0094658397 -0.0017432499 0.00233333
v -0.0095354002 -0.0013106 0.00233333
l 131 132
v -0.0095354002 -0.0013106 0.00233333
v -0.0095851002 -0.00087524502 0.00233333
l 133 134
v -0.0095851002 -0.00087524502 0.00233333
v -0.0096150199 -0.00043807799 0.00233333
l 135 136
v -0.0096150199 -0.00043807799 0.00233333
v -0.0096249999 2.44674e-17 0.00233333
l 137 138
v -0.0096249999 2.44674e-17 0.00233333
v -0.0096150199 0.00043807799 0.00233333
l 139 140
v -0.0096150199 0.00043807799 0.00233333
v -0.0095851002 0.00087524502 0.00233333
l 141 142
v -0.0095851002 0.00087524502 0.00233333
v -0.0095354002 0.0013106 0.00233333
l 143 144
v -0.0095354002 0.0013106 0.00233333
v -0.0094658397 0.0017432499 0.00233333
l 145 146
v -0.0094658397 0.0017432499 0.00233333
v -0.0093766702 0.0021722701 0.00233333
l 147 148
v -0.0093766702 0.0021722701 0.00233333
v -0.0092680901 0.00259679 0.00233333
l 149 150
v -0.0092680901 0.00259679 0.00233333
v -0.0091402503 0.0030159301 0.00233333
l 151 152
v -0.0091402503 0.0030159301 0.00233333
v -0.0089935102 0.0034288301 0.00233333
l 153 154
v -0.0089935102 0.0034288301 0.00233333
v -0.0088281399 0.0038346101 0.00233333
l 155 156
v -0.0088281399 0.0038346101 0.00233333
v -0.0086444803 0.0042324499 0.00233333
l 157 158
v -0.0086444803 0.0042324499 0.00233333
v -0.0084428797 0.0046215099 0.00233333
l 159 160
v -0.0084428797 0.0046215099 0.00233333
v -0.0082237804 0.0050009899 0.00233333
l 161 162
v -0.0082237804 0.0050009899 0.00233333
v -0.0079876501 0.0053701098 0.00233333
l 163 164
v -0.0079876501 0.0053701098 0.00233333
v -0.0077349502 0.0057281102 0.00233333
l 165 166
v -0.0077349502 0.0057281102 0.00233333
v -0.0074662198 0.0060742199 0.00233333
l 167 168
v -0.0074662198 0.0060742199 0.00233333
v -0.0071820202 0.0064077498 0.00233333
l 169 170
v -0.0071820202 0.0064077498 0.00233333
v -0.0068829302 0.006728 0.00233333
l 171 172
v -0.0068829302 0.006728 0.00233333
v -0.0065695699 0.0070342999 0.00233333
l 173 174
v -0.0065695699 0.0070342999 0.00233333
v -0.0062425998 0.0073260199 0.00233333
l 175 176
v -0.0062425998 0.0073260199 0.00233333
v -0.0059026899 0.0076025599 0.00233333
l 177 178
v -0.0059026899 0.0076025599 0.00233333
v -0.0055505498 0.00786334 0.00233333
l 179 180
v -0.0055505498 0.00786334 0.00233333
v -0.0051869 0.0081078196 0.00233333
l 181 182
v -0.0051869 0.0081078196 0.00233333
v -0.0048125 0.0083355 0.00233333
l 183 184
v -0.0048125 0.0083355 0.00233333
v -0.0044281301 0.0085458998 0.00233333
l 185 186
v -0.0044281301 0.0085458998 0.00233333
v -0.00403457 0.0087385802 0.00233333
l 187 188
v -0.00403457 0.0087385802 0.00233333
v -0.00363266 0.0089131901 0.00233333
l 189 190
v -0.00363266 0.0089131901 0.00233333
v -0.0032232199 0.00906929 0.00233333
l 191 192
v -0.0032232199 0.00906929 0.00233333
v -0.0028071001 0.00920658 0.00233333
l 193 194
v -0.0028071001 0.00920658 0.00233333
v -0.0023851499 0.00932479 0.00233333
l 195 196
v -0.0023851499 0.00932479 0.00233333
v -0.0019582701 0.0094236601 0.00233333
l 197 198
v -0.0019582701 0.0094236601 0.00233333
v -0.00152732 0.0095030302 0.00233333
l 199 200
v -0.00152732 0.0095030302 0.00233333
v -0.00109321 0.0095627001 0.00233333
l 201 202
v -0.00109321 0.0095627001 0.00233333
v -0.00065683399 0.0096025998 0.00233333
l 203 204
v -0.00065683399 0.0096025998 0.00233333
v -0.00021909599 0.0096224602 0.00233333
l 205 206
v -0.00021909599 0.0096224602 0.00233333
v 0.00021909599 0.0096224602 0.00233333
l 207 208
v 0.00021909599 0.0096224602 0.00233333
v 0.00065683399 0.0096025998 0.00233333
l 209 210
v 0.00065683399 0.0096025998 0.00233333
v 0.00109321 0.0095627001 0.00233333
l 211 212
v 0.00109321 0.0095627001 0.00233333
v 0.00152732 0.0095030302 0.00233333
l 213 214
v 0.00152732 0.0095030302 0.00233333
v 0.0019582701 0.0094236601 0.00233333
l 215 216
v 0.0019582701 0.0094236601 0.00233333
v 0.0023851499 0.00932479 0.00233333
l 217 218
v 0.0023851499 0.00932479 0.00233333
v 0.0028071001 0.00920658 0.00233333
l 219 220
v 0.0028071001 0.00920658 0.00233333
v 0.0032232199 0.00906929 0.00233333
l 221 222
v 0.0032232199 0.00906929 0.00233333
v 0.00363266 0.0089131901 0.00233333
l 223 224
v 0.00363266 0.0089131901 0.00233333
v 0.00403457 0.0087385802 0.00233333
l 225 226
v 0.00403457 0.0087385802 0.00233333
v 0.0044281301 0.0085458998 0.00233333
l 227 228
v 0.0044281301 0.0085458998 0.00233333
v 0.0048125 0.0083355 0.00233333
l 229 230
v 0.0048125 0.0083355 0.00233333
v 0.0051869 0.0081078196 0.00233333
l 231 232
v 0.0051869 0.0081078196 0.00233333
v 0.0055505498 0.00786334 0.00233333
l 233 234
v 0.0055505498 0.00786334 0.00233333
v 0.0059026899 0.0076025599 0.00233333
l 235 236
v 0.0059026899 0.0076025599 0.00233333
v 0.0062425998 0.0073260199 0.00233333
l 237 238
v 0.0062425998 0.0073260199 0.00233333
v 0.0065695699 0.0070342999 0.00233333
l 239 240
v 0.0065695699 0.0070342999 0.00233333
v 0.0068829302 0.006728 0.00233333
l 241 242
v 0.0068829302 0.006728 0.00233333
v 0.0071820202 0.0064077498 0.00233333
l 243 244
v 0.0071820202 0.0064077498 0.00233333
v 0.0074662198 0.0060742199 0.00233333
l 245 246
v 0.0074662198 0.0060742199 0.00233333
v 0.0077349502 0.0057281102 0.00233333
l 247 248
v 0.0077349502 0.0057281102 0.00233333
v 0.0079876501 0.0053701098 0.00233333
l 249 250
v 0.0079876501 0.0053701098 0.00233333
v 0.0082237804 0.0050009899 0.00233333
l 251 252
v 0.0082237804 0.0050009899 0.00233333
v 0.0084428797 0.0046215099 0.00233333
l 253 254
v 0.0084428797 0.0046215099 0.00233333
v 0.0086444803 0.0042324499 0.00233333
l 255 256
v 0.0086444803 0.0042324499 0.00233333
v 0.0088281399 0.0038346101 0.00233333
l 257 258
v 0.0088281399 0.0038346101 0.00233333
v 0.0089935102 0.0034288301 0.00233333
l 259 260
v 0.0089935102 0.0034288301 0.00233333
v 0.0091402503 0.0030159301 0.00233333
l 261 262
v 0.0091402503 0.0030159301 0.00233333
v 0.0092680901 0.00259679 0.00233333
l 263 264
v 0.0092680901 0.00259679 0.00233333
v 0.0093766702 0.0021722701 0.00233333
l 265 266
v 0.0093766702 0.0021722701 0.00233333
v 0.0094658397 0.0017432499 0.00233333
l 267 268
v 0.0094658397 0.0017432499 0.00233333
v 0.0095354002 0.0013106 0.00233333
l 269 270
v 0.0095354002 0.0013106 0.00233333
v 0.0095851002 0.00087524502 0.00233333
l 271 272
v 0.0095851002 0.00087524502 0.00233333
v 0.0096150199 0.00043807799 0.00233333
l 273 274
v 0.0096150199 0.00043807799 0.00233333
v 0.0096249999 0 0.00233333
l 275 276
v 0.00332767 0.0099587198 0.07
v 0.0037390599 0.0098117301 0.07
l 277 278
v 0.0037390599 0.0098117301 0.07
v 0.0041439701 0.00964766 0.07
l 279 280
v -0.0051233699 0.0091651902 0.07
v -0.0047376798 0.0093703698 0.07
l 281 282
v -0.0102262 -0.0023820801 0.07
v -0.0103164 -0.00195463 0.07
l 283 284
v -0.0051233699 -0.0091651902 0.07
v -0.0055002002 -0.0089441603 0.07
l 285 286
v -0.0103164 -0.00195463 0.07
v -0.0103889 -0.0015237899 0.07
l 287 288
v 0.0104909 0.000436784 0.07
v 0.0105 0 0.07
l 289 290
v 0.0073858998 -0.0074631399 0.07
v 0.0070690601 -0.0077639199 0.07
l 291 292
v 0.0041439701 0.00964766 0.07
v 0.00454171 0.0094668902 0.07
l 293 294
v 0.0070690601 -0.0077639199 0.07
v 0.0067399698 -0.0080512604 0.07
l 295 296
v -0.0103889 -0.0015237899 0.07
v -0.0104432 -0.00109031 0.07
l 297 298
v 0.0067399698 -0.0080512604 0.07
v 0.0063992199 -0.0083246604 0.07
l 299 300
v 0.00076391699 0.0104722 -1.46166e-33
v 0.00032763 0.0104949 -6.2687998e-34
l 301 302
v 0.00119888 0.0104313 -2.2939199e-33
v 0.00076391699 0.0104722 -1.46166e-33
l 303 304
v -0.0098500503 0.00363679 1.8846899e-32
v -0.00999285 0.00322389 1.91201e-32
l 305 306
v -0.0096902801 0.00404339 1.85411e-32
v -0.0098500503 0.00363679 1.8846899e-32
l 307 308
v -0.0096902801 -0.00404339 1.85411e-32
v -0.0095137004 -0.0044429898 1.82032e-32
l 309 310
v 0.00032763 0.0104949 -6.2687998e-34
v -0.000109225 0.0104994 2.0898999e-34
l 311 312
v -0.0095137004 -0.0044429898 1.82032e-32
v -0.0093205897 -0.0048349001 1.7833899e-32
l 313 314
v 0.0104909 -0.000436784 -2.00731e-32
v 0.0105 0 0
l 315 316
v 0.0104183 -0.00130733 -1.9934099e-32
v 0.0104637 -0.00087281299 -2.0020899e-32
l 317 318
v 0.0102736 -0.00216883 -1.96572e-32
v 0.0103549 -0.00173959 -1.98128e-32
l 319 320
v 0.0101745 -0.0025943101 -1.94676e-32
v 0.0102736 -0.00216883 -1.96572e-32
l 321 322
v 0.0100578 -0.00301531 -1.92442e-32
v 0.0101745 -0.0025943101 -1.94676e-32
l 323 324
v 0.0099235503 -0.0034310799 -1.89876e-32
v 0.0100578 -0.00301531 -1.92442e-32
l 325 326
v 0.0097722597 -0.0038409301 -1.8698099e-32
v 0.0099235503 -0.0034310799 -1.89876e-32
l 327 328
v 0.0096039996 -0.0042441101 -1.83762e-32
v 0.0097722597 -0.0038409301 -1.8698099e-32
l 329 330
v 0.0094192 -0.0046399501 -1.80225e-32
v 0.0096039996 -0.0042441101 -1.83762e-32
l 331 332
v 0.0092180399 -0.0050277598 -1.7637601e-32
v 0.0094192 -0.0046399501 -1.80225e-32
l 333 334
v 0.0090008602 -0.0054068598 -1.72221e-32
v 0.0092180399 -0.0050277598 -1.7637601e-32
l 335 336
v 0.0087681999 -0.0057766 -1.6776799e-32
v 0.0090008602 -0.0054068598 -1.72221e-32
l 337 338
v 0.0085202903 -0.0061363499 -1.6302501e-32
v 0.0087681999 -0.0057766 -1.6776799e-32
l 339 340
v 0.0082576498 -0.0064854599 -1.58e-32
v 0.0085202903 -0.0061363499 -1.6302501e-32
l 341 342
v 0.0079807201 -0.0068233502 -1.5270101e-32
v 0.0082576498 -0.0064854599 -1.58e-32
l 343 344
v 0.0076899598 -0.00714943 -1.4713799e-32
v 0.0079807201 -0.0068233502 -1.5270101e-32
l 345 346
v 0.0073858998 -0.0074631399 -1.4132e-32
v 0.0076899598 -0.00714943 -1.4713799e-32
l 347 348
v 0.0070690601 -0.0077639199 -1.3525799e-32
v 0.0073858998 -0.0074631399 -1.4132e-32
l 349 350
v 0.0067399698 -0.0080512604 -1.28961e-32
v 0.0070690601 -0.0077639199 -1.3525799e-32
l 351 352
v 0.0063992199 -0.0083246604 -1.22441e-32
v 0.0067399698 -0.0080512604 -1.28961e-32
l 353 354
v 0.0060473802 -0.0085836602 -1.15709e-32
v 0.0063992199 -0.0083246604 -1.22441e-32
l 355 356
v 0.0056850798 -0.0088277897 -1.08777e-32
v 0.0060473802 -0.0085836602 -1.15709e-32
l 357 358
v 0.0053129401 -0.0090565998 -1.01657e-32
v 0.0056850798 -0.0088277897 -1.08777e-32
l 359 360
v -0.000109225 0.0104994 2.0898999e-34
v -0.000545891 0.0104858 1.0445e-33
l 361 362
v 0.0041439701 -0.00964766 -7.92899e-33
v 0.00454171 -0.0094668902 -8.6900301e-33
l 363 364
v 0.0037390599 -0.0098117301 -7.1542298e-33
v 0.0041439701 -0.00964766 -7.92899e-33
l 365 366
v 0.00332767 -0.0099587198 -6.3670798e-33
v 0.0037390599 -0.0098117301 -7.1542298e-33
l 367 368
v 0.00291052 -0.0100886 -5.5689199e-33
v 0.00332767 -0.0099587198 -6.3670798e-33
l 369 370
v 0.00248833 -0.0102009 -4.7611198e-33
v 0.00291052 -0.0100886 -5.5689199e-33
l 371 372
v 0.0020618399 -0.0102956 -3.9450799e-33
v 0.00248833 -0.0102009 -4.7611198e-33
l 373 374
v 0.0016317701 -0.0103724 -3.1221901e-33
v 0.0020618399 -0.0102956 -3.9450799e-33
l 375 376
v 0.00119888 -0.0104313 -2.2939199e-33
v 0.0016317701 -0.0103724 -3.1221901e-33
l 377 378
v 0.00076391699 -0.0104722 -1.46166e-33
v 0.00119888 -0.0104313 -2.2939199e-33
l 379 380
v 0.00032763 -0.0104949 -6.2687998e-34
v 0.00076391699 -0.0104722 -1.46166e-33
l 381 382
v -0.000109225 -0.0104994 2.0898999e-34
v 0.00032763 -0.0104949 -6.2687998e-34
l 383 384
v -0.00098161004 -0.0104541 1.8781999e-33
v -0.000545891 -0.0104858 1.0445e-33
l 385 386
v -0.0018472 -0.0103362 3.5343901e-33
v -0.00141564 -0.0104041 2.7086499e-33
l 387 388
v -0.0022755801 -0.0102504 4.3540502e-33
v -0.0018472 -0.0103362 3.5343901e-33
l 389 390
v -0.0027000101 -0.0101469 5.1661401e-33
v -0.0022755801 -0.0102504 4.3540502e-33
l 391 392
v -0.00311977 -0.0100258 5.9692999e-33
v -0.0027000101 -0.0101469 5.1661401e-33
l 393 394
v -0.00353412 -0.0098873302 6.76214e-33
v -0.00311977 -0.0100258 5.9692999e-33
l 395 396
v -0.0039423699 -0.00973175 7.5432501e-33
v -0.00353412 -0.0098873302 6.76214e-33
l 397 398
v -0.00434379 -0.0095593799 8.31131e-33
v -0.0039423699 -0.00973175 7.5432501e-33
l 399 400
v -0.0047376798 -0.0093703698 9.0649797e-33
v -0.00434379 -0.0095593799 8.31131e-33
l 401 402
v -0.0051233699 -0.0091651902 9.8029602e-33
v -0.0047376798 -0.0093703698 9.0649797e-33
l 403 404
v -0.0055002002 -0.0089441603 1.0524e-32
v -0.0051233699 -0.0091651902 9.8029602e-33
l 405 406
v -0.0058674999 -0.00870761 1.12267e-32
v -0.0055002002 -0.0089441603 1.0524e-32
l 407 408
v -0.0062246402 -0.0084559899 1.19101e-32
v -0.0058674999 -0.00870761 1.12267e-32
l 409 410
v -0.0065710102 -0.0081897397 1.25728e-32
v -0.0062246402 -0.0084559899 1.19101e-32
l 411 412
v -0.0069060102 -0.0079092998 1.32138e-32
v -0.0065710102 -0.0081897397 1.25728e-32
l 413 414
v -0.0072290399 -0.0076151802 1.3831899e-32
v -0.0069060102 -0.0079092998 1.32138e-32
l 415 416
v -0.0075395699 -0.0073078698 1.4426e-32
v -0.0072290399 -0.0076151802 1.3831899e-32
l 417 418
v -0.0078370301 -0.0069879098 1.49952e-32
v -0.0075395699 -0.0073078698 1.4426e-32
l 419 420
v -0.0081209401 -0.00665585 1.55384e-32
v -0.0078370301 -0.0069879098 1.49952e-32
l 421 422
v -0.0083907899 -0.0063122702 1.60548e-32
v -0.0081209401 -0.00665585 1.55384e-32
l 423 424
v -0.0091114603 -0.0052184402 1.7433599e-32
v -0.0088864099 -0.0055929399 1.70031e-32
l 425 426
v -0.0093205897 -0.0048349001 1.7833899e-32
v -0.0091114603 -0.0052184402 1.7433599e-32
l 427 428
v -0.0104432 0.00109031 1.9981899e-32
v -0.0104795 0.00065494003 2.00514e-32
l 429 430
v -0.0098500503 -0.00363679 1.8846899e-32
v -0.0096902801 -0.00404339 1.85411e-32
l 431 432
v -0.00999285 -0.00322389 1.91201e-32
v -0.0098500503 -0.00363679 1.8846899e-32
l 433 434
v -0.0101182 -0.00280542 1.93601e-32
v -0.00999285 -0.00322389 1.91201e-32
l 435 436
v -0.0103889 0.0015237899 1.98778e-32
v -0.0104432 0.00109031 1.9981899e-32
l 437 438
v -0.0103889 -0.0015237899 1.98778e-32
v -0.0103164 -0.00195463 1.9739299e-32
l 439 440
v -0.0104432 -0.00109031 1.9981899e-32
v -0.0103889 -0.0015237899 1.98778e-32
l 441 442
v -0.0104795 -0.00065494003 2.00514e-32
v -0.0104432 -0.00109031 1.9981899e-32
l 443 444
v -0.0104977 -0.000218439 2.00861e-32
v -0.0104795 -0.00065494003 2.00514e-32
l 445 446
v -0.0104795 0.00065494003 2.00514e-32
v -0.0104977 0.000218439 2.00861e-32
l 447 448
v 0.0070690601 0.0077639199 -1.3525799e-32
v 0.0067399698 0.0080512604 -1.28961e-32
l 449 450
v -0.0103164 0.00195463 1.9739299e-32
v -0.0103889 0.0015237899 1.98778e-32
l 451 452
v -0.0102262 0.0023820801 1.95666e-32
v -0.0103164 0.00195463 1.9739299e-32
l 453 454
v -0.0101182 0.00280542 1.93601e-32
v -0.0102262 0.0023820801 1.95666e-32
l 455 456
v -0.00999285 0.00322389 1.91201e-32
v -0.0101182 0.00280542 1.93601e-32
l 457 458
v -0.0095137004 0.0044429898 1.82032e-32
v -0.0096902801 0.00404339 1.85411e-32
l 459 460
v -0.0093205897 0.0048349001 1.7833899e-32
v -0.0095137004 0.0044429898 1.82032e-32
l 461 462
v -0.0091114603 0.0052184402 1.7433599e-32
v -0.0093205897 0.0048349001 1.7833899e-32
l 463 464
v -0.0088864099 0.0055929399 1.70031e-32
v -0.0091114603 0.0052184402 1.7433599e-32
l 465 466
v -0.0086460998 0.0059577599 1.6543301e-32
v -0.0088864099 0.0055929399 1.70031e-32
l 467 468
v -0.0083907899 0.0063122702 1.60548e-32
v -0.0086460998 0.0059577599 1.6543301e-32
l 469 470
v -0.0081209401 0.00665585 1.55384e-32
v -0.0083907899 0.0063122702 1.60548e-32
l 471 472
v -0.0078370301 0.0069879098 1.49952e-32
v -0.0081209401 0.00665585 1.55384e-32
l 473 474
v -0.0075395699 0.0073078698 1.4426e-32
v -0.0078370301 0.0069879098 1.49952e-32
l 475 476
v -0.0072290399 0.0076151802 1.3831899e-32
v -0.0075395699 0.0073078698 1.4426e-32
l 477 478
v -0.00353412 0.0098873302 6.76214e-33
v -0.0039423699 0.00973175 7.5432501e-33
l 479 480
v -0.0062246402 0.0084559899 1.19101e-32
v -0.0065710102 0.0081897397 1.25728e-32
l 481 482
v -0.0058674999 0.00870761 1.12267e-32
v -0.0062246402 0.0084559899 1.19101e-32
l 483 484
v -0.0055002002 0.0089441603 1.0524e-32
v -0.0058674999 0.00870761 1.12267e-32
l 485 486
v -0.0051233699 0.0091651902 9.8029602e-33
v -0.0055002002 0.0089441603 1.0524e-32
l 487 488
v -0.00434379 0.0095593799 8.31131e-33
v -0.0047376798 0.0093703698 9.0649797e-33
l 489 490
v -0.0039423699 0.00973175 7.5432501e-33
v -0.00434379 0.0095593799 8.31131e-33
l 491 492
v -0.0027000101 0.0101469 5.1661401e-33
v -0.00311977 0.0100258 5.9692999e-33
l 493 494
v -0.0022755801 0.0102504 4.3540502e-33
v -0.0027000101 0.0101469 5.1661401e-33
l 495 496
v -0.0018472 0.0103362 3.5343901e-33
v -0.0022755801 0.0102504 4.3540502e-33
l 497 498
v -0.00141564 0.0104041 2.7086499e-33
v -0.0018472 0.0103362 3.5343901e-33
l 499 500
v -0.00098161004 0.0104541 1.8781999e-33
v -0.00141564 0.0104041 2.7086499e-33
l 501 502
v -0.000545891 0.0104858 1.0445e-33
v -0.00098161004 0.0104541 1.8781999e-33
l 503 504
v -0.0069060102 0.0079092998 1.32138e-32
v -0.0072290399 0.0076151802 1.3831899e-32
l 505 506
v 0.0016317701 0.0103724 -3.1221901e-33
v 0.00119888 0.0104313 -2.2939199e-33
l 507 508
v 0.0020618399 0.0102956 -3.9450799e-33
v 0.0016317701 0.0103724 -3.1221901e-33
l 509 510
v 0.00248833 0.0102009 -4.7611198e-33
v 0.0020618399 0.0102956 -3.9450799e-33
l 511 512
v 0.00291052 0.0100886 -5.5689199e-33
v 0.00248833 0.0102009 -4.7611198e-33
l 513 514
v 0.00332767 0.0099587198 -6.3670798e-33
v 0.00291052 0.0100886 -5.5689199e-33
l 515 516
v 0.0037390599 0.0098117301 -7.1542298e-33
v 0.00332767 0.0099587198 -6.3670798e-33
l 517 518
v 0.0041439701 0.00964766 -7.92899e-33
v 0.0037390599 0.0098117301 -7.1542298e-33
l 519 520
v 0.00454171 0.0094668902 -8.6900301e-33
v 0.0041439701 0.00964766 -7.92899e-33
l 521 522
v 0.0049315998 0.0092698401 -9.4360003e-33
v 0.00454171 0.0094668902 -8.6900301e-33
l 523 524
v 0.0053129401 0.0090565998 -1.01657e-32
v 0.0049315998 0.0092698401 -9.4360003e-33
l 525 526
v 0.0056850798 0.0088277897 -1.08777e-32
v 0.0053129401 0.0090565998 -1.01657e-32
l 527 528
v 0.0060473802 0.0085836602 -1.15709e-32
v 0.0056850798 0.0088277897 -1.08777e-32
l 529 530
v 0.0063992199 0.0083246604 -1.22441e-32
v 0.0060473802 0.0085836602 -1.15709e-32
l 531 532
v 0.0067399698 0.0080512604 -1.28961e-32
v 0.0063992199 0.0083246604 -1.22441e-32
l 533 534
v -0.0102262 -0.0023820801 1.95666e-32
v -0.0101182 -0.00280542 1.93601e-32
l 535 536
v 0.0076899598 0.00714943 -1.4713799e-32
v 0.0073858998 0.0074631399 -1.4132e-32
l 537 538
v 0.0079807201 0.0068233502 -1.5270101e-32
v 0.0076899598 0.00714943 -1.4713799e-32
l 539 540
v 0.0082576498 0.0064854599 -1.58e-32
v 0.0079807201 0.0068233502 -1.5270101e-32
l 541 542
v 0.0085202903 0.0061363499 -1.6302501e-32
v 0.0082576498 0.0064854599 -1.58e-32
l 543 544
v 0.0087681999 0.0057766 -1.6776799e-32
v 0.0085202903 0.0061363499 -1.6302501e-32
l 545 546
v 0.0090008602 0.0054068598 -1.72221e-32
v 0.0087681999 0.0057766 -1.6776799e-32
l 547 548
v 0.0092180399 0.0050277598 -1.7637601e-32
v 0.0090008602 0.0054068598 -1.72221e-32
l 549 550
v 0.0094192 0.0046399501 -1.80225e-32
v 0.0092180399 0.0050277598 -1.7637601e-32
l 551 552
v 0.0096039996 0.0042441101 -1.83762e-32
v 0.0094192 0.0046399501 -1.80225e-32
l 553 554
v 0.0097722597 0.0038409301 -1.8698099e-32
v 0.0096039996 0.0042441101 -1.83762e-32
l 555 556
v 0.0099235503 0.0034310799 -1.89876e-32
v 0.0097722597 0.0038409301 -1.8698099e-32
l 557 558
v 0.0100578 0.00301531 -1.92442e-32
v 0.0099235503 0.0034310799 -1.89876e-32
l 559 560
v 0.0101745 0.0025943101 -1.94676e-32
v 0.0100578 0.00301531 -1.92442e-32
l 561 562
v 0.0102736 0.00216883 -1.96572e-32
v 0.0101745 0.0025943101 -1.94676e-32
l 563 564
v 0.0103549 0.00173959 -1.98128e-32
v 0.0102736 0.00216883 -1.96572e-32
l 565 566
v 0.0104183 0.00130733 -1.9934099e-32
v 0.0103549 0.00173959 -1.98128e-32
l 567 568
v 0.0104637 0.00087281299 -2.0020899e-32
v 0.0104183 0.00130733 -1.9934099e-32
l 569 570
v 0.0104909 0.000436784 -2.00731e-32
v 0.0104637 0.00087281299 -2.0020899e-32
l 571 572
v 0.0105 0 0
v 0.0104909 0.000436784 -2.00731e-32
l 573 574
v -0.00141564 -0.0104041 2.7086499e-33
v -0.00098161004 -0.0104541 1.8781999e-33
l 575 576
v -0.000545891 -0.0104858 1.0445e-33
v -0.000109225 -0.0104994 2.0898999e-34
l 577 578
v -0.0104977 0.000218439 2.00861e-32
v -0.0104977 -0.000218439 2.00861e-32
l 579 580
v 0.0104637 -0.00087281299 -2.0020899e-32
v 0.0104909 -0.000436784 -2.00731e-32
l 581 582
v 0.0103549 -0.00173959 -1.98128e-32
v 0.0104183 -0.00130733 -1.9934099e-32
l 583 584
v 0.00454171 -0.0094668902 -8.6900301e-33
v 0.0049315998 -0.0092698401 -9.4360003e-33
l 585 586
v -0.0088864099 -0.0055929399 1.70031e-32
v -0.0086460998 -0.0059577599 1.6543301e-32
l 587 588
v -0.0103164 -0.00195463 1.9739299e-32
v -0.0102262 -0.0023820801 1.95666e-32
l 589 590
v -0.0065710102 0.0081897397 1.25728e-32
v -0.0069060102 0.0079092998 1.32138e-32
l 591 592
v -0.00311977 0.0100258 5.9692999e-33
v -0.00353412 0.0098873302 6.76214e-33
l 593 594
v 0.0073858998 0.0074631399 -1.4132e-32
v 0.0070690601 0.0077639199 -1.3525799e-32
l 595 596
v -0.0086460998 -0.0059577599 1.6543301e-32
v -0.0083907899 -0.0063122702 1.60548e-32
l 597 598
v 0.0049315998 -0.0092698401 -9.4360003e-33
v 0.0053129401 -0.0090565998 -1.01657e-32
l 599 600
v -0.0047376798 0.0093703698 9.0649797e-33
v -0.0051233699 0.0091651902 9.8029602e-33
l 601 602
v 0.0104909 -0.000436784 0.07
v 0.0105 0 0.07
l 603 604
v 0.0104637 -0.00087281299 0.07
v 0.0104909 -0.000436784 0.07
l 605 606
v 0.0104183 -0.00130733 0.07
v 0.0104637 -0.00087281299 0.07
l 607 608
v 0.0103549 -0.00173959 0.07
v 0.0104183 -0.00130733 0.07
l 609 610
v 0.0102736 -0.00216883 0.07
v 0.0103549 -0.00173959 0.07
l 611 612
v 0.0101745 -0.0025943101 0.07
v 0.0102736 -0.00216883 0.07
l 613 614
v 0.0100578 -0.00301531 0.07
v 0.0101745 -0.0025943101 0.07
l 615 616
v 0.0099235503 -0.0034310799 0.07
v 0.0100578 -0.00301531 0.07
l 617 618
v 0.0097722597 -0.0038409301 0.07
v 0.0099235503 -0.0034310799 0.07
l 619 620
v 0.0096039996 -0.0042441101 0.07
v 0.0097722597 -0.0038409301 0.07
l 621 622
v 0.0094192 -0.0046399501 0.07
v 0.0096039996 -0.0042441101 0.07
l 623 624
v 0.0092180399 -0.0050277598 0.07
v 0.0094192 -0.0046399501 0.07
l 625 626
v 0.0090008602 -0.0054068598 0.07
v 0.0092180399 -0.0050277598 0.07
l 627 628
v 0.0087681999 -0.0057766 0.07
v 0.0090008602 -0.0054068598 0.07
l 629 630
v 0.0085202903 -0.0061363499 0.07
v 0.0087681999 -0.0057766 0.07
l 631 632
v 0.0082576498 -0.0064854599 0.07
v 0.0085202903 -0.0061363499 0.07
l 633 634
v 0.0079807201 -0.0068233502 0.07
v 0.0082576498 -0.0064854599 0.07
l 635 636
v 0.0076899598 -0.00714943 0.07
v 0.0079807201 -0.0068233502 0.07
l 637 638
v 0.0073858998 -0.0074631399 0.07
v 0.0076899598 -0.00714943 0.07
l 639 640
v 0.0060473802 -0.0085836602 0.07
v 0.0063992199 -0.0083246604 0.07
l 641 642
v 0.0056850798 -0.0088277897 0.07
v 0.0060473802 -0.0085836602 0.07
l 643 644
v 0.0053129401 -0.0090565998 0.07
v 0.0056850798 -0.0088277897 0.07
l 645 646
v 0.0049315998 -0.0092698401 0.07
v 0.0053129401 -0.0090565998 0.07
l 647 648
v 0.00454171 -0.0094668902 0.07
v 0.0049315998 -0.0092698401 0.07
l 649 650
v 0.0041439701 -0.00964766 0.07
v 0.00454171 -0.0094668902 0.07
l 651 652
v 0.0037390599 -0.0098117301 0.07
v 0.0041439701 -0.00964766 0.07
l 653 654
v 0.00332767 -0.0099587198 0.07
v 0.0037390599 -0.0098117301 0.07
l 655 656
v 0.00291052 -0.0100886 0.07
v 0.00332767 -0.0099587198 0.07
l 657 658
v 0.00248833 -0.0102009 0.07
v 0.00291052 -0.0100886 0.07
l 659 660
v 0.0020618399 -0.0102956 0.07
v 0.00248833 -0.0102009 0.07
l 661 662
v 0.0016317701 -0.0103724 0.07
v 0.0020618399 -0.0102956 0.07
l 663 664
v 0.00119888 -0.0104313 0.07
v 0.0016317701 -0.0103724 0.07
l 665 666
v 0.00076391699 -0.0104722 0.07
v 0.00119888 -0.0104313 0.07
l 667 668
v 0.00032763 -0.0104949 0.07
v 0.00076391699 -0.0104722 0.07
l 669 670
v -0.000109225 -0.0104994 0.07
v 0.00032763 -0.0104949 0.07
l 671 672
v -0.000545891 -0.0104858 0.07
v -0.000109225 -0.0104994 0.07
l 673 674
v -0.00098161004 -0.0104541 0.07
v -0.000545891 -0.0104858 0.07
l 675 676
v -0.00141564 -0.0104041 0.07
v -0.00098161004 -0.0104541 0.07
l 677 678
v -0.0018472 -0.0103362 0.07
v -0.00141564 -0.0104041 0.07
l 679 680
v -0.0022755801 -0.0102504 0.07
v -0.0018472 -0.0103362 0.07
l 681 682
v -0.0027000101 -0.0101469 0.07
v -0.0022755801 -0.0102504 0.07
l 683 684
v -0.00311977 -0.0100258 0.07
v -0.0027000101 -0.0101469 0.07
l 685 686
v -0.00353412 -0.0098873302 0.07
v -0.00311977 -0.0100258 0.07
l 687 688
v -0.0039423699 -0.00973175 0.07
v -0.00353412 -0.0098873302 0.07
l 689 690
v -0.00434379 -0.0095593799 0.07
v -0.0039423699 -0.00973175 0.07
l 691 692
v -0.0047376798 -0.0093703698 0.07
v -0.00434379 -0.0095593799 0.07
l 693 694
v -0.0051233699 -0.0091651902 0.07
v -0.0047376798 -0.0093703698 0.07
l 695 696
v -0.0058674999 -0.00870761 0.07
v -0.0055002002 -0.0089441603 0.07
l 697 698
v -0.0062246402 -0.0084559899 0.07
v -0.0058674999 -0.00870761 0.07
l 699 700
v -0.0065710102 -0.0081897397 0.07
v -0.0062246402 -0.0084559899 0.07
l 701 702
v -0.0069060102 -0.0079092998 0.07
v -0.0065710102 -0.0081897397 0.07
l 703 704
v -0.0072290399 -0.0076151802 0.07
v -0.0069060102 -0.0079092998 0.07
l 705 706
v -0.0075395699 -0.0073078698 0.07
v -0.0072290399 -0.0076151802 0.07
l 707 708
v -0.0078370301 -0.0069879098 0.07
v -0.0075395699 -0.0073078698 0.07
l 709 710
v -0.0081209401 -0.00665585 0.07
v -0.0078370301 -0.0069879098 0.07
l 711 712
v -0.0083907899 -0.0063122702 0.07
v -0.0081209401 -0.00665585 0.07
l 713 714
v -0.0086460998 -0.0059577599 0.07
v -0.0083907899 -0.0063122702 0.07
l 715 716
v -0.0088864099 -0.0055929399 0.07
v -0.0086460998 -0.0059577599 0.07
l 717 718
v -0.0091114603 -0.0052184402 0.07
v -0.0088864099 -0.0055929399 0.07
l 719 720
v -0.0093205897 -0.0048349001 0.07
v -0.0091114603 -0.0052184402 0.07
l 721 722
v -0.0095137004 -0.0044429898 0.07
v -0.0093205897 -0.0048349001 0.07
l 723 724
v -0.0096902801 -0.00404339 0.07
v -0.0095137004 -0.0044429898 0.07
l 725 726
v -0.0098500503 -0.00363679 0.07
v -0.0096902801 -0.00404339 0.07
l 727 728
v -0.00999285 -0.00322389 0.07
v -0.0098500503 -0.00363679 0.07
l 729 730
v -0.0101182 -0.00280542 0.07
v -0.00999285 -0.00322389 0.07
l 731 732
v -0.0102262 -0.0023820801 0.07
v -0.0101182 -0.00280542 0.07
l 733 734
v -0.0104795 -0.00065494003 0.07
v -0.0104432 -0.00109031 0.07
l 735 736
v -0.0104977 -0.000218439 0.07
v -0.0104795 -0.00065494003 0.07
l 737 738
v -0.0104977 0.000218439 0.07
v -0.0104977 -0.000218439 0.07
l 739 740
v -0.0104795 0.00065494003 0.07
v -0.0104977 0.000218439 0.07
l 741 742
v -0.0104432 0.00109031 0.07
v -0.0104795 0.00065494003 0.07
l 743 744
v -0.0103889 0.0015237899 0.07
v -0.0104432 0.00109031 0.07
l 745 746
v -0.0103164 0.00195463 0.07
v -0.0103889 0.0015237899 0.07
l 747 748
v -0.0102262 0.0023820801 0.07
v -0.0103164 0.00195463 0.07
l 749 750
v -0.0101182 0.00280542 0.07
v -0.0102262 0.0023820801 0.07
l 751 752
v -0.00999285 0.00322389 0.07
v -0.0101182 0.00280542 0.07
l 753 754
v -0.0098500503 0.00363679 0.07
v -0.00999285 0.00322389 0.07
l 755 756
v -0.0096902801 0.00404339 0.07
v -0.0098500503 0.00363679 0.07
l 757 758
v -0.0095137004 0.0044429898 0.07
v -0.0096902801 0.00404339 0.07
l 759 760
v -0.0093205897 0.0048349001 0.07
v -0.0095137004 0.0044429898 0.07
l 761 762
v -0.0091114603 0.0052184402 0.07
v -0.0093205897 0.0048349001 0.07
l 763 764
v -0.0088864099 0.0055929399 0.07
v -0.0091114603 0.0052184402 0.07
l 765 766
v -0.0086460998 0.0059577599 0.07
v -0.0088864099 0.0055929399 0.07
l 767 768
v -0.0083907899 0.0063122702 0.07
v -0.0086460998 0.0059577599 0.07
l 769 770
v -0.0081209401 0.00665585 0.07
v -0.0083907899 0.0063122702 0.07
l 771 772
v -0.0078370301 0.0069879098 0.07
v -0.0081209401 0.00665585 0.07
l 773 774
v -0.0075395699 0.0073078698 0.07
v -0.0078370301 0.0069879098 0.07
l 775 776
v -0.0072290399 0.0076151802 0.07
v -0.0075395699 0.0073078698 0.07
l 777 778
v -0.0069060102 0.0079092998 0.07
v -0.0072290399 0.0076151802 0.07
l 779 780
v -0.0065710102 0.0081897397 0.07
v -0.0069060102 0.0079092998 0.07
l 781 782
v -0.0062246402 0.0084559899 0.07
v -0.0065710102 0.0081897397 0.07
l 783 784
v -0.0058674999 0.00870761 0.07
v -0.0062246402 0.0084559899 0.07
l 785 786
v -0.0055002002 0.0089441603 0.07
v -0.0058674999 0.00870761 0.07
l 787 788
v -0.0051233699 0.0091651902 0.07
v -0.0055002002 0.0089441603 0.07
l 789 790
v -0.00434379 0.0095593799 0.07
v -0.0047376798 0.0093703698 0.07
l 791 792
v -0.0039423699 0.00973175 0.07
v -0.00434379 0.0095593799 0.07
l 793 794
v -0.00353412 0.0098873302 0.07
v -0.0039423699 0.00973175 0.07
l 795 796
v -0.00311977 0.0100258 0.07
v -0.00353412 0.0098873302 0.07
l 797 798
v -0.0027000101 0.0101469 0.07
v -0.00311977 0.0100258 0.07
l 799 800
v -0.0022755801 0.0102504 0.07
v -0.0027000101 0.0101469 0.07
l 801 802
v -0.0018472 0.0103362 0.07
v -0.0022755801 0.0102504 0.07
l 803 804
v -0.00141564 0.0104041 0.07
v -0.0018472 0.0103362 0.07
l 805 806
v -0.00098161004 0.0104541 0.07
v -0.00141564 0.0104041 0.07
l 807 808
v -0.000545891 0.0104858 0.07
v -0.00098161004 0.0104541 0.07
l 809 810
v -0.000109225 0.0104994 0.07
v -0.000545891 0.0104858 0.07
l 811 812
v 0.00032763 0.0104949 0.07
v -0.000109225 0.0104994 0.07
l 813 814
v 0.00076391699 0.0104722 0.07
v 0.00032763 0.0104949 0.07
l 815 816
v 0.00119888 0.0104313 0.07
v 0.00076391699 0.0104722 0.07
l 817 818
v 0.0016317701 0.0103724 0.07
v 0.00119888 0.0104313 0.07
l 819 820
v 0.0020618399 0.0102956 0.07
v 0.0016317701 0.0103724 0.07
l 821 822
v 0.00248833 0.0102009 0.07
v 0.0020618399 0.0102956 0.07
l 823 824
v 0.00291052 0.0100886 0.07
v 0.00248833 0.0102009 0.07
l 825 826
v 0.00332767 0.0099587198 0.07
v 0.00291052 0.0100886 0.07
l 827 828
v 0.0049315998 0.0092698401 0.07
v 0.00454171 0.0094668902 0.07
l 829 830
v 0.0053129401 0.0090565998 0.07
v 0.0049315998 0.0092698401 0.07
l 831 832
v 0.0056850798 0.0088277897 0.07
v 0.0053129401 0.0090565998 0.07
l 833 834
v 0.0060473802 0.0085836602 0.07
v 0.0056850798 0.0088277897 0.07
l 835 836
v 0.0063992199 0.0083246604 0.07
v 0.0060473802 0.0085836602 0.07
l 837 838
v 0.0067399698 0.0080512604 0.07
v 0.0063992199 0.0083246604 0.07
l 839 840
v 0.0070690601 0.0077639199 0.07
v 0.0067399698 0.0080512604 0.07
l 841 842
v 0.0073858998 0.0074631399 0.07
v 0.0070690601 0.0077639199 0.07
l 843 844
v 0.0076899598 0.00714943 0.07
v 0.0073858998 0.0074631399 0.07
l 845 846
v 0.0079807201 0.0068233502 0.07
v 0.0076899598 0.00714943 0.07
l 847 848
v 0.0082576498 0.0064854599 0.07
v 0.0079807201 0.0068233502 0.07
l 849 850
v 0.0085202903 0.0061363499 0.07
v 0.0082576498 0.0064854599 0.07
l 851 852
v 0.0087681999 0.0057766 0.07
v 0.0085202903 0.0061363499 0.07
l 853 854
v 0.0090008602 0.0054068598 0.07
v 0.0087681999 0.0057766 0.07
l 855 856
v 0.0092180399 0.0050277598 0.07
v 0.0090008602 0.0054068598 0.07
l 857 858
v 0.0094192 0.0046399501 0.07
v 0.0092180399 0.0050277598 0.07
l 859 860
v 0.0096039996 0.0042441101 0.07
v 0.0094192 0.0046399501 0.07
l 861 862
v 0.0097722597 0.0038409301 0.07
v 0.0096039996 0.0042441101 0.07
l 863 864
v 0.0099235503 0.0034310799 0.07
v 0.0097722597 0.0038409301 0.07
l 865 866
v 0.0100578 0.00301531 0.07
v 0.0099235503 0.0034310799 0.07
l 867 868
v 0.0101745 0.0025943101 0.07
v 0.0100578 0.00301531 0.07
l 869 870
v 0.0102736 0.00216883 0.07
v 0.0101745 0.0025943101 0.07
l 871 872
v 0.0103549 0.00173959 0.07
v 0.0102736 0.00216883 0.07
l 873 874
v 0.0104183 0.00130733 0.07
v 0.0103549 0.00173959 0.07
l 875 876
v 0.0104637 0.00087281299 0.07
v 0.0104183 0.00130733 0.07
l 877 878
v 0.0104909 0.000436784 0.07
v 0.0104637 0.00087281299 0.07
l 879 880
