# Wavefront OBJ file written 2026-03-21T12:04:06
o cellFull_m_edgeMesh

# points : 729
# lines  : 729

# <points count="729">
v 0.109886 -0.00500661 0.25
v 0.11 0 0.25
v 0.109544 -0.0100028 0.25
v 0.108976 -0.0149783 0.25
v 0.108181 -0.0199228 0.25
v 0.107162 -0.024825901 0.25
v 0.105921 -0.0296776 0.25
v 0.10446 -0.034467801 0.25
v 0.102783 -0.039186601 0.25
v 0.100893 -0.043824099 0.25
v 0.098794103 -0.048370801 0.25
v 0.0964901 -0.0528173 0.25
v 0.093986101 -0.057154201 0.25
v 0.091287397 -0.061372701 0.25
v 0.088399403 -0.065464102 0.25
v 0.085328199 -0.069419697 0.25
v 0.0820802 -0.073231399 0.25
v 0.078662001 -0.0768914 0.25
v 0.075080797 -0.080392003 0.25
v 0.071344003 -0.083725899 0.25
v 0.0674593 -0.086886398 0.25
v 0.063434802 -0.089866698 0.25
v 0.059278902 -0.0926608 0.25
v 0.055 -0.095262803 0.25
v 0.050607201 -0.097667404 0.25
v 0.046109401 -0.099869497 0.25
v 0.041516099 -0.101865 0.25
v 0.036836799 -0.103649 0.25
v 0.032081101 -0.105218 0.25
v 0.027258901 -0.106569 0.25
v 0.022380199 -0.107699 0.25
v 0.017455099 -0.108606 0.25
v 0.0124938 -0.109288 0.25
v 0.00750667 -0.109744 0.25
v 0.0025039499 -0.109971 0.25
v -0.0025039499 -0.109971 0.25
v -0.00750667 -0.109744 0.25
v -0.0124938 -0.109288 0.25
v -0.017455099 -0.108606 0.25
v -0.022380199 -0.107699 0.25
v -0.027258901 -0.106569 0.25
v -0.032081101 -0.105218 0.25
v -0.036836799 -0.103649 0.25
v -0.041516099 -0.101865 0.25
v -0.046109401 -0.099869497 0.25
v -0.050607201 -0.097667404 0.25
v -0.055 -0.095262803 0.25
v -0.059278902 -0.0926608 0.25
v -0.063434802 -0.089866698 0.25
v -0.0674593 -0.086886398 0.25
v -0.071344003 -0.083725899 0.25
v -0.075080797 -0.080392003 0.25
v -0.078662001 -0.0768914 0.25
v -0.0820802 -0.073231399 0.25
v -0.085328199 -0.069419697 0.25
v -0.088399403 -0.065464102 0.25
v -0.091287397 -0.061372701 0.25
v -0.093986101 -0.057154201 0.25
v -0.0964901 -0.0528173 0.25
v -0.098794103 -0.048370801 0.25
v -0.100893 -0.043824099 0.25
v -0.102783 -0.039186601 0.25
v -0.10446 -0.034467801 0.25
v -0.105921 -0.0296776 0.25
v -0.107162 -0.024825901 0.25
v -0.108181 -0.0199228 0.25
v -0.108976 -0.0149783 0.25
v -0.109544 -0.0100028 0.25
v -0.109886 -0.00500661 0.25
v -0.11 2.79628e-16 0.25
v -0.109886 0.00500661 0.25
v -0.109544 0.0100028 0.25
v -0.108976 0.0149783 0.25
v -0.108181 0.0199228 0.25
v -0.107162 0.024825901 0.25
v -0.105921 0.0296776 0.25
v -0.10446 0.034467801 0.25
v -0.102783 0.039186601 0.25
v -0.100893 0.043824099 0.25
v -0.098794103 0.048370801 0.25
v -0.0964901 0.0528173 0.25
v -0.093986101 0.057154201 0.25
v -0.091287397 0.061372701 0.25
v -0.088399403 0.065464102 0.25
v -0.085328199 0.069419697 0.25
v -0.0820802 0.073231399 0.25
v -0.078662001 0.0768914 0.25
v -0.075080797 0.080392003 0.25
v -0.071344003 0.083725899 0.25
v -0.0674593 0.086886398 0.25
v -0.063434802 0.089866698 0.25
v -0.059278902 0.0926608 0.25
v -0.055 0.095262803 0.25
v -0.050607201 0.097667404 0.25
v -0.046109401 0.099869497 0.25
v -0.041516099 0.101865 0.25
v -0.036836799 0.103649 0.25
v -0.032081101 0.105218 0.25
v -0.027258901 0.106569 0.25
v -0.022380199 0.107699 0.25
v -0.017455099 0.108606 0.25
v -0.0124938 0.109288 0.25
v -0.00750667 0.109744 0.25
v -0.0025039499 0.109971 0.25
v 0.0025039499 0.109971 0.25
v 0.00750667 0.109744 0.25
v 0.0124938 0.109288 0.25
v 0.017455099 0.108606 0.25
v 0.022380199 0.107699 0.25
v 0.027258901 0.106569 0.25
v 0.032081101 0.105218 0.25
v 0.036836799 0.103649 0.25
v 0.041516099 0.101865 0.25
v 0.046109401 0.099869497 0.25
v 0.050607201 0.097667404 0.25
v 0.055 0.095262803 0.25
v 0.059278902 0.0926608 0.25
v 0.063434802 0.089866698 0.25
v 0.0674593 0.086886398 0.25
v 0.071344003 0.083725899 0.25
v 0.075080797 0.080392003 0.25
v 0.078662001 0.0768914 0.25
v 0.0820802 0.073231399 0.25
v 0.085328199 0.069419697 0.25
v 0.088399403 0.065464102 0.25
v 0.091287397 0.061372701 0.25
v 0.093986101 0.057154201 0.25
v 0.0964901 0.0528173 0.25
v 0.098794103 0.048370801 0.25
v 0.100893 0.043824099 0.25
v 0.102783 0.039186601 0.25
v 0.10446 0.034467801 0.25
v 0.105921 0.0296776 0.25
v 0.107162 0.024825901 0.25
v 0.108181 0.0199228 0.25
v 0.108976 0.0149783 0.25
v 0.109544 0.0100028 0.25
v 0.109886 0.00500661 0.25
v 0.119896 -0.0049918201 0.25
v 0.12 0 0.25
v 0.119585 -0.0099750003 0.25
v 0.119066 -0.0149409 0.25
v 0.118342 -0.019881001 0.25
v 0.117412 -0.024786601 0.25
v 0.11628 -0.029649301 0.25
v 0.114946 -0.034460701 0.25
v 0.113412 -0.039212398 0.25
v 0.111683 -0.043896299 0.25
v 0.10976 -0.048504099 0.25
v 0.107648 -0.053027999 0.25
v 0.105349 -0.057460099 0.25
v 0.102867 -0.061792701 0.25
v 0.100208 -0.066018298 0.25
v 0.0973747 -0.0701297 0.25
v 0.0943731 -0.074119598 0.25
v 0.091208197 -0.077981196 0.25
v 0.087885298 -0.081707798 0.25
v 0.084410302 -0.085293002 0.25
v 0.080789201 -0.088730499 0.25
v 0.0770282 -0.092014402 0.25
v 0.073133901 -0.095138997 0.25
v 0.069112897 -0.098099001 0.25
v 0.064972296 -0.100889 0.25
v 0.0607193 -0.103504 0.25
v 0.056361102 -0.105941 0.25
v 0.0519053 -0.108193 0.25
v 0.047359701 -0.110259 0.25
v 0.042732101 -0.112134 0.25
v 0.038030501 -0.113814 0.25
v 0.033263098 -0.115298 0.25
v 0.028438101 -0.116582 0.25
v 0.023563899 -0.117664 0.25
v 0.0186488 -0.118542 0.25
v 0.0137015 -0.119215 0.25
v 0.0087304804 -0.119682 0.25
v 0.00374434 -0.119942 0.25
v -0.0012482899 -0.119993 0.25
v -0.00623876 -0.119838 0.25
v -0.0112184 -0.119475 0.25
v -0.016178699 -0.118904 0.25
v -0.0211109 -0.118128 0.25
v -0.0260066 -0.117148 0.25
v -0.0308573 -0.115965 0.25
v -0.0356545 -0.114581 0.25
v -0.04039 -0.112998 0.25
v -0.045055602 -0.11122 0.25
v -0.0496433 -0.10925 0.25
v -0.0541449 -0.10709 0.25
v -0.058552802 -0.104745 0.25
v -0.062859401 -0.102219 0.25
v -0.0670572 -0.099515498 0.25
v -0.071138799 -0.096639901 0.25
v -0.0750973 -0.093597002 0.25
v -0.078925803 -0.090392001 0.25
v -0.082617603 -0.087030597 0.25
v -0.086166501 -0.083518498 0.25
v -0.089566097 -0.079861797 0.25
v -0.092810698 -0.076066896 0.25
v -0.095894702 -0.072140202 0.25
v -0.098812602 -0.068088703 0.25
v -0.101559 -0.063919298 0.25
v -0.104131 -0.059639301 0.25
v -0.106521 -0.055256002 0.25
v -0.108728 -0.050776999 0.25
v -0.110746 -0.0462102 0.25
v -0.112572 -0.041563299 0.25
v -0.114204 -0.036844499 0.25
v -0.115637 -0.032061901 0.25
v -0.116871 -0.027223799 0.25
v -0.117902 -0.022338601 0.25
v -0.11873 -0.0174147 0.25
v -0.119351 -0.0124607 0.25
v -0.119766 -0.0074850302 0.25
v -0.119974 -0.00249645 0.25
v -0.119974 0.00249645 0.25
v -0.119766 0.0074850302 0.25
v -0.119351 0.0124607 0.25
v -0.11873 0.0174147 0.25
v -0.117902 0.022338601 0.25
v -0.116871 0.027223799 0.25
v -0.115637 0.032061901 0.25
v -0.114204 0.036844499 0.25
v -0.112572 0.041563299 0.25
v -0.110746 0.0462102 0.25
v -0.108728 0.050776999 0.25
v -0.106521 0.055256002 0.25
v -0.104131 0.059639301 0.25
v -0.101559 0.063919298 0.25
v -0.098812602 0.068088703 0.25
v -0.095894702 0.072140202 0.25
v -0.092810698 0.076066896 0.25
v -0.089566097 0.079861797 0.25
v -0.086166501 0.083518498 0.25
v -0.082617603 0.087030597 0.25
v -0.078925803 0.090392001 0.25
v -0.0750973 0.093597002 0.25
v -0.071138799 0.096639901 0.25
v -0.0670572 0.099515498 0.25
v -0.062859401 0.102219 0.25
v -0.058552802 0.104745 0.25
v -0.0541449 0.10709 0.25
v -0.0496433 0.10925 0.25
v -0.045055602 0.11122 0.25
v -0.04039 0.112998 0.25
v -0.0356545 0.114581 0.25
v -0.0308573 0.115965 0.25
v -0.0260066 0.117148 0.25
v -0.0211109 0.118128 0.25
v -0.016178699 0.118904 0.25
v -0.0112184 0.119475 0.25
v -0.00623876 0.119838 0.25
v -0.0012482899 0.119993 0.25
v 0.00374434 0.119942 0.25
v 0.0087304804 0.119682 0.25
v 0.0137015 0.119215 0.25
v 0.0186488 0.118542 0.25
v 0.023563899 0.117664 0.25
v 0.028438101 0.116582 0.25
v 0.033263098 0.115298 0.25
v 0.038030501 0.113814 0.25
v 0.042732101 0.112134 0.25
v 0.047359701 0.110259 0.25
v 0.0519053 0.108193 0.25
v 0.056361102 0.105941 0.25
v 0.0607193 0.103504 0.25
v 0.064972296 0.100889 0.25
v 0.069112897 0.098099001 0.25
v 0.073133901 0.095138997 0.25
v 0.0770282 0.092014402 0.25
v 0.080789201 0.088730499 0.25
v 0.084410302 0.085293002 0.25
v 0.087885298 0.081707798 0.25
v 0.091208197 0.077981196 0.25
v 0.0943731 0.074119598 0.25
v 0.0973747 0.0701297 0.25
v 0.100208 0.066018298 0.25
v 0.102867 0.061792701 0.25
v 0.105349 0.057460099 0.25
v 0.107648 0.053027999 0.25
v 0.10976 0.048504099 0.25
v 0.111683 0.043896299 0.25
v 0.113412 0.039212398 0.25
v 0.114946 0.034460701 0.25
v 0.11628 0.029649301 0.25
v 0.117412 0.024786601 0.25
v 0.118342 0.019881001 0.25
v 0.119066 0.0149409 0.25
v 0.119585 0.0099750003 0.25
v 0.119896 0.0049918201 0.25
v 0.11 0 0.0099999998
v 0.109886 -0.00500661 0.0099999998
v 0.109544 -0.0100028 0.0099999998
v 0.108976 -0.0149783 0.0099999998
v 0.108181 -0.0199228 0.0099999998
v 0.107162 -0.024825901 0.0099999998
v 0.105921 -0.0296776 0.0099999998
v 0.10446 -0.034467801 0.0099999998
v 0.102783 -0.039186601 0.0099999998
v 0.100893 -0.043824099 0.0099999998
v 0.098794103 -0.048370801 0.0099999998
v 0.0964901 -0.0528173 0.0099999998
v 0.093986101 -0.057154201 0.0099999998
v 0.091287397 -0.061372701 0.0099999998
v 0.088399403 -0.065464102 0.0099999998
v 0.085328199 -0.069419697 0.0099999998
v 0.0820802 -0.073231399 0.0099999998
v 0.078662001 -0.0768914 0.0099999998
v 0.075080797 -0.080392003 0.0099999998
v 0.071344003 -0.083725899 0.0099999998
v 0.0674593 -0.086886398 0.0099999998
v 0.063434802 -0.089866698 0.0099999998
v 0.059278902 -0.0926608 0.0099999998
v 0.055 -0.095262803 0.0099999998
v 0.050607201 -0.097667404 0.0099999998
v 0.046109401 -0.099869497 0.0099999998
v 0.041516099 -0.101865 0.0099999998
v 0.036836799 -0.103649 0.0099999998
v 0.032081101 -0.105218 0.0099999998
v 0.027258901 -0.106569 0.0099999998
v 0.022380199 -0.107699 0.0099999998
v 0.017455099 -0.108606 0.0099999998
v 0.0124938 -0.109288 0.0099999998
v 0.00750667 -0.109744 0.0099999998
v 0.0025039499 -0.109971 0.0099999998
v -0.0025039499 -0.109971 0.0099999998
v -0.00750667 -0.109744 0.0099999998
v -0.0124938 -0.109288 0.0099999998
v -0.017455099 -0.108606 0.0099999998
v -0.022380199 -0.107699 0.0099999998
v -0.027258901 -0.106569 0.0099999998
v -0.032081101 -0.105218 0.0099999998
v -0.036836799 -0.103649 0.0099999998
v -0.041516099 -0.101865 0.0099999998
v -0.046109401 -0.099869497 0.0099999998
v -0.050607201 -0.097667404 0.0099999998
v -0.055 -0.095262803 0.0099999998
v -0.059278902 -0.0926608 0.0099999998
v -0.063434802 -0.089866698 0.0099999998
v -0.0674593 -0.086886398 0.0099999998
v -0.071344003 -0.083725899 0.0099999998
v -0.075080797 -0.080392003 0.0099999998
v -0.078662001 -0.0768914 0.0099999998
v -0.0820802 -0.073231399 0.0099999998
v -0.085328199 -0.069419697 0.0099999998
v -0.088399403 -0.065464102 0.0099999998
v -0.091287397 -0.061372701 0.0099999998
v -0.093986101 -0.057154201 0.0099999998
v -0.0964901 -0.0528173 0.0099999998
v -0.098794103 -0.048370801 0.0099999998
v -0.100893 -0.043824099 0.0099999998
v -0.102783 -0.039186601 0.0099999998
v -0.10446 -0.034467801 0.0099999998
v -0.105921 -0.0296776 0.0099999998
v -0.107162 -0.024825901 0.0099999998
v -0.108181 -0.0199228 0.0099999998
v -0.108976 -0.0149783 0.0099999998
v -0.109544 -0.0100028 0.0099999998
v -0.109886 -0.00500661 0.0099999998
v -0.11 2.79628e-16 0.0099999998
v -0.109886 0.00500661 0.0099999998
v -0.109544 0.0100028 0.0099999998
v -0.108976 0.0149783 0.0099999998
v -0.108181 0.0199228 0.0099999998
v -0.107162 0.024825901 0.0099999998
v -0.105921 0.0296776 0.0099999998
v -0.10446 0.034467801 0.0099999998
v -0.102783 0.039186601 0.0099999998
v -0.100893 0.043824099 0.0099999998
v -0.098794103 0.048370801 0.0099999998
v -0.0964901 0.0528173 0.0099999998
v -0.093986101 0.057154201 0.0099999998
v -0.091287397 0.061372701 0.0099999998
v -0.088399403 0.065464102 0.0099999998
v -0.085328199 0.069419697 0.0099999998
v -0.0820802 0.073231399 0.0099999998
v -0.078662001 0.0768914 0.0099999998
v -0.075080797 0.080392003 0.0099999998
v -0.071344003 0.083725899 0.0099999998
v -0.0674593 0.086886398 0.0099999998
v -0.063434802 0.089866698 0.0099999998
v -0.059278902 0.0926608 0.0099999998
v -0.055 0.095262803 0.0099999998
v -0.050607201 0.097667404 0.0099999998
v -0.046109401 0.099869497 0.0099999998
v -0.041516099 0.101865 0.0099999998
v -0.036836799 0.103649 0.0099999998
v -0.032081101 0.105218 0.0099999998
v -0.027258901 0.106569 0.0099999998
v -0.022380199 0.107699 0.0099999998
v -0.017455099 0.108606 0.0099999998
v -0.0124938 0.109288 0.0099999998
v -0.00750667 0.109744 0.0099999998
v -0.0025039499 0.109971 0.0099999998
v 0.0025039499 0.109971 0.0099999998
v 0.00750667 0.109744 0.0099999998
v 0.0124938 0.109288 0.0099999998
v 0.017455099 0.108606 0.0099999998
v 0.022380199 0.107699 0.0099999998
v 0.027258901 0.106569 0.0099999998
v 0.032081101 0.105218 0.0099999998
v 0.036836799 0.103649 0.0099999998
v 0.041516099 0.101865 0.0099999998
v 0.046109401 0.099869497 0.0099999998
v 0.050607201 0.097667404 0.0099999998
v 0.055 0.095262803 0.0099999998
v 0.059278902 0.0926608 0.0099999998
v 0.063434802 0.089866698 0.0099999998
v 0.0674593 0.086886398 0.0099999998
v 0.071344003 0.083725899 0.0099999998
v 0.075080797 0.080392003 0.0099999998
v 0.078662001 0.0768914 0.0099999998
v 0.0820802 0.073231399 0.0099999998
v 0.085328199 0.069419697 0.0099999998
v 0.088399403 0.065464102 0.0099999998
v 0.091287397 0.061372701 0.0099999998
v 0.093986101 0.057154201 0.0099999998
v 0.0964901 0.0528173 0.0099999998
v 0.098794103 0.048370801 0.0099999998
v 0.100893 0.043824099 0.0099999998
v 0.102783 0.039186601 0.0099999998
v 0.10446 0.034467801 0.0099999998
v 0.105921 0.0296776 0.0099999998
v 0.107162 0.024825901 0.0099999998
v 0.108181 0.0199228 0.0099999998
v 0.108976 0.0149783 0.0099999998
v 0.109544 0.0100028 0.0099999998
v 0.109886 0.00500661 0.0099999998
v 0.038030501 0.113814 0.30000001
v 0.042732101 0.112134 0.30000001
v 0.047359701 0.110259 0.30000001
v -0.058552802 0.104745 0.30000001
v -0.0541449 0.10709 0.30000001
v -0.116871 -0.027223799 0.30000001
v -0.117902 -0.022338601 0.30000001
v -0.058552802 -0.104745 0.30000001
v -0.062859401 -0.102219 0.30000001
v -0.11873 -0.0174147 0.30000001
v 0.119896 0.0049918201 0.30000001
v 0.12 0 0.30000001
v 0.084410302 -0.085293002 0.30000001
v 0.080789201 -0.088730499 0.30000001
v 0.0519053 0.108193 0.30000001
v 0.0770282 -0.092014402 0.30000001
v -0.119351 -0.0124607 0.30000001
v 0.073133901 -0.095138997 0.30000001
v 0.0087304804 0.119682 -6.2642696e-33
v 0.00374434 0.119942 -2.68663e-33
v 0.0137015 0.119215 -9.8310699e-33
v -0.112572 0.041563299 8.0772402e-32
v -0.114204 0.036844499 8.19431e-32
v -0.110746 0.0462102 7.9461902e-32
v -0.110746 -0.0462102 7.9461902e-32
v -0.108728 -0.050776999 7.8013898e-32
v -0.0012482899 0.119993 8.9567104e-34
v -0.106521 -0.055256002 7.6430801e-32
v 0.119896 -0.0049918201 -8.6027502e-32
v 0.12 0 0
v 0.119066 -0.0149409 -8.5432002e-32
v 0.119585 -0.0099750003 -8.5803999e-32
v 0.117412 -0.024786601 -8.42452e-32
v 0.118342 -0.019881001 -8.4912199e-32
v 0.11628 -0.029649301 -8.3432498e-32
v 0.114946 -0.034460701 -8.2475299e-32
v 0.113412 -0.039212398 -8.1375401e-32
v 0.111683 -0.043896299 -8.0134502e-32
v 0.10976 -0.048504099 -7.8755001e-32
v 0.107648 -0.053027999 -7.7239101e-32
v 0.105349 -0.057460099 -7.55895e-32
v 0.102867 -0.061792701 -7.3809002e-32
v 0.100208 -0.066018298 -7.1900699e-32
v 0.0973747 -0.0701297 -6.9867999e-32
v 0.0943731 -0.074119598 -6.7714299e-32
v 0.091208197 -0.077981196 -6.5443403e-32
v 0.087885298 -0.081707798 -6.30592e-32
v 0.084410302 -0.085293002 -6.0565801e-32
v 0.080789201 -0.088730499 -5.79676e-32
v 0.0770282 -0.092014402 -5.5269e-32
v 0.073133901 -0.095138997 -5.2474803e-32
v 0.069112897 -0.098099001 -4.9589699e-32
v 0.064972296 -0.100889 -4.6618801e-32
v 0.0607193 -0.103504 -4.35671e-32
v -0.00623876 0.119838 4.4764199e-33
v 0.047359701 -0.110259 -3.3981399e-32
v 0.0519053 -0.108193 -3.7242999e-32
v 0.042732101 -0.112134 -3.0661001e-32
v 0.038030501 -0.113814 -2.72875e-32
v 0.033263098 -0.115298 -2.3866799e-32
v 0.028438101 -0.116582 -2.04048e-32
v 0.023563899 -0.117664 -1.69075e-32
v 0.0186488 -0.118542 -1.3380801e-32
v 0.0137015 -0.119215 -9.8310699e-33
v 0.0087304804 -0.119682 -6.2642696e-33
v 0.00374434 -0.119942 -2.68663e-33
v -0.0012482899 -0.119993 8.9567104e-34
v -0.0112184 -0.119475 8.0494099e-33
v -0.00623876 -0.119838 4.4764199e-33
v -0.0211109 -0.118128 1.51474e-32
v -0.016178699 -0.118904 1.16085e-32
v -0.0260066 -0.117148 1.86602e-32
v -0.0308573 -0.115965 2.2140601e-32
v -0.0356545 -0.114581 2.5582701e-32
v -0.04039 -0.112998 2.89806e-32
v -0.045055602 -0.11122 3.2328199e-32
v -0.0496433 -0.10925 3.56199e-32
v -0.0541449 -0.10709 3.88499e-32
v -0.058552802 -0.104745 4.20127e-32
v -0.062859401 -0.102219 4.5102701e-32
v -0.0670572 -0.099515498 4.81146e-32
v -0.071138799 -0.096639901 5.1043297e-32
v -0.0750973 -0.093597002 5.3883597e-32
v -0.078925803 -0.090392001 5.6630598e-32
v -0.082617603 -0.087030597 5.9279598e-32
v -0.086166501 -0.083518498 6.1825901e-32
v -0.089566097 -0.079861797 6.4265199e-32
v -0.092810698 -0.076066896 6.6593301e-32
v -0.095894702 -0.072140202 6.8806098e-32
v -0.104131 -0.059639301 7.4715402e-32
v -0.101559 -0.063919298 7.2870599e-32
v -0.119351 0.0124607 8.5636597e-32
v -0.119766 0.0074850302 8.5934403e-32
v -0.112572 -0.041563299 8.0772402e-32
v -0.114204 -0.036844499 8.19431e-32
v -0.115637 -0.032061901 8.2971898e-32
v -0.11873 0.0174147 8.5190497e-32
v -0.11873 -0.0174147 8.5190497e-32
v -0.117902 -0.022338601 8.4597002e-32
v -0.119351 -0.0124607 8.5636597e-32
v -0.119766 -0.0074850302 8.5934403e-32
v -0.119974 -0.00249645 8.6083403e-32
v -0.119974 0.00249645 8.6083403e-32
v 0.080789201 0.088730499 -5.79676e-32
v 0.0770282 0.092014402 -5.5269e-32
v -0.117902 0.022338601 8.4597002e-32
v -0.116871 0.027223799 8.3856999e-32
v -0.115637 0.032061901 8.2971898e-32
v -0.108728 0.050776999 7.8013898e-32
v -0.106521 0.055256002 7.6430801e-32
v -0.104131 0.059639301 7.4715402e-32
v -0.101559 0.063919298 7.2870599e-32
v -0.098812602 0.068088703 7.0899701e-32
v -0.095894702 0.072140202 6.8806098e-32
v -0.092810698 0.076066896 6.6593301e-32
v -0.089566097 0.079861797 6.4265199e-32
v -0.086166501 0.083518498 6.1825901e-32
v -0.082617603 0.087030597 5.9279598e-32
v -0.04039 0.112998 2.89806e-32
v -0.045055602 0.11122 3.2328199e-32
v -0.071138799 0.096639901 5.1043297e-32
v -0.0750973 0.093597002 5.3883597e-32
v -0.0670572 0.099515498 4.81146e-32
v -0.062859401 0.102219 4.5102701e-32
v -0.058552802 0.104745 4.20127e-32
v -0.0496433 0.10925 3.56199e-32
v -0.0541449 0.10709 3.88499e-32
v -0.0308573 0.115965 2.2140601e-32
v -0.0356545 0.114581 2.5582701e-32
v -0.0260066 0.117148 1.86602e-32
v -0.0211109 0.118128 1.51474e-32
v -0.016178699 0.118904 1.16085e-32
v -0.0112184 0.119475 8.0494099e-33
v -0.078925803 0.090392001 5.6630598e-32
v 0.0186488 0.118542 -1.3380801e-32
v 0.023563899 0.117664 -1.69075e-32
v 0.028438101 0.116582 -2.04048e-32
v 0.033263098 0.115298 -2.3866799e-32
v 0.038030501 0.113814 -2.72875e-32
v 0.042732101 0.112134 -3.0661001e-32
v 0.047359701 0.110259 -3.3981399e-32
v 0.0519053 0.108193 -3.7242999e-32
v 0.056361102 0.105941 -4.044e-32
v 0.0607193 0.103504 -4.35671e-32
v 0.064972296 0.100889 -4.6618801e-32
v 0.069112897 0.098099001 -4.9589699e-32
v 0.073133901 0.095138997 -5.2474803e-32
v -0.116871 -0.027223799 8.3856999e-32
v 0.087885298 0.081707798 -6.30592e-32
v 0.084410302 0.085293002 -6.0565801e-32
v 0.091208197 0.077981196 -6.5443403e-32
v 0.0943731 0.074119598 -6.7714299e-32
v 0.0973747 0.0701297 -6.9867999e-32
v 0.100208 0.066018298 -7.1900699e-32
v 0.102867 0.061792701 -7.3809002e-32
v 0.105349 0.057460099 -7.55895e-32
v 0.107648 0.053027999 -7.7239101e-32
v 0.10976 0.048504099 -7.8755001e-32
v 0.111683 0.043896299 -8.0134502e-32
v 0.113412 0.039212398 -8.1375401e-32
v 0.114946 0.034460701 -8.2475299e-32
v 0.11628 0.029649301 -8.3432498e-32
v 0.117412 0.024786601 -8.42452e-32
v 0.118342 0.019881001 -8.4912199e-32
v 0.119066 0.0149409 -8.5432002e-32
v 0.119585 0.0099750003 -8.5803999e-32
v 0.119896 0.0049918201 -8.6027502e-32
v 0.056361102 -0.105941 -4.044e-32
v -0.098812602 -0.068088703 7.0899701e-32
v 0.119896 -0.0049918201 0.30000001
v 0.119585 -0.0099750003 0.30000001
v 0.119066 -0.0149409 0.30000001
v 0.118342 -0.019881001 0.30000001
v 0.117412 -0.024786601 0.30000001
v 0.11628 -0.029649301 0.30000001
v 0.114946 -0.034460701 0.30000001
v 0.113412 -0.039212398 0.30000001
v 0.111683 -0.043896299 0.30000001
v 0.10976 -0.048504099 0.30000001
v 0.107648 -0.053027999 0.30000001
v 0.105349 -0.057460099 0.30000001
v 0.102867 -0.061792701 0.30000001
v 0.100208 -0.066018298 0.30000001
v 0.0973747 -0.0701297 0.30000001
v 0.0943731 -0.074119598 0.30000001
v 0.091208197 -0.077981196 0.30000001
v 0.087885298 -0.081707798 0.30000001
v 0.069112897 -0.098099001 0.30000001
v 0.064972296 -0.100889 0.30000001
v 0.0607193 -0.103504 0.30000001
v 0.056361102 -0.105941 0.30000001
v 0.0519053 -0.108193 0.30000001
v 0.047359701 -0.110259 0.30000001
v 0.042732101 -0.112134 0.30000001
v 0.038030501 -0.113814 0.30000001
v 0.033263098 -0.115298 0.30000001
v 0.028438101 -0.116582 0.30000001
v 0.023563899 -0.117664 0.30000001
v 0.0186488 -0.118542 0.30000001
v 0.0137015 -0.119215 0.30000001
v 0.0087304804 -0.119682 0.30000001
v 0.00374434 -0.119942 0.30000001
v -0.0012482899 -0.119993 0.30000001
v -0.00623876 -0.119838 0.30000001
v -0.0112184 -0.119475 0.30000001
v -0.016178699 -0.118904 0.30000001
v -0.0211109 -0.118128 0.30000001
v -0.0260066 -0.117148 0.30000001
v -0.0308573 -0.115965 0.30000001
v -0.0356545 -0.114581 0.30000001
v -0.04039 -0.112998 0.30000001
v -0.045055602 -0.11122 0.30000001
v -0.0496433 -0.10925 0.30000001
v -0.0541449 -0.10709 0.30000001
v -0.0670572 -0.099515498 0.30000001
v -0.071138799 -0.096639901 0.30000001
v -0.0750973 -0.093597002 0.30000001
v -0.078925803 -0.090392001 0.30000001
v -0.082617603 -0.087030597 0.30000001
v -0.086166501 -0.083518498 0.30000001
v -0.089566097 -0.079861797 0.30000001
v -0.092810698 -0.076066896 0.30000001
v -0.095894702 -0.072140202 0.30000001
v -0.098812602 -0.068088703 0.30000001
v -0.101559 -0.063919298 0.30000001
v -0.104131 -0.059639301 0.30000001
v -0.106521 -0.055256002 0.30000001
v -0.108728 -0.050776999 0.30000001
v -0.110746 -0.0462102 0.30000001
v -0.112572 -0.041563299 0.30000001
v -0.114204 -0.036844499 0.30000001
v -0.115637 -0.032061901 0.30000001
v -0.119766 -0.0074850302 0.30000001
v -0.119974 -0.00249645 0.30000001
v -0.119974 0.00249645 0.30000001
v -0.119766 0.0074850302 0.30000001
v -0.119351 0.0124607 0.30000001
v -0.11873 0.0174147 0.30000001
v -0.117902 0.022338601 0.30000001
v -0.116871 0.027223799 0.30000001
v -0.115637 0.032061901 0.30000001
v -0.114204 0.036844499 0.30000001
v -0.112572 0.041563299 0.30000001
v -0.110746 0.0462102 0.30000001
v -0.108728 0.050776999 0.30000001
v -0.106521 0.055256002 0.30000001
v -0.104131 0.059639301 0.30000001
v -0.101559 0.063919298 0.30000001
v -0.098812602 0.068088703 0.30000001
v -0.095894702 0.072140202 0.30000001
v -0.092810698 0.076066896 0.30000001
v -0.089566097 0.079861797 0.30000001
v -0.086166501 0.083518498 0.30000001
v -0.082617603 0.087030597 0.30000001
v -0.078925803 0.090392001 0.30000001
v -0.0750973 0.093597002 0.30000001
v -0.071138799 0.096639901 0.30000001
v -0.0670572 0.099515498 0.30000001
v -0.062859401 0.102219 0.30000001
v -0.0496433 0.10925 0.30000001
v -0.045055602 0.11122 0.30000001
v -0.04039 0.112998 0.30000001
v -0.0356545 0.114581 0.30000001
v -0.0308573 0.115965 0.30000001
v -0.0260066 0.117148 0.30000001
v -0.0211109 0.118128 0.30000001
v -0.016178699 0.118904 0.30000001
v -0.0112184 0.119475 0.30000001
v -0.00623876 0.119838 0.30000001
v -0.0012482899 0.119993 0.30000001
v 0.00374434 0.119942 0.30000001
v 0.0087304804 0.119682 0.30000001
v 0.0137015 0.119215 0.30000001
v 0.0186488 0.118542 0.30000001
v 0.023563899 0.117664 0.30000001
v 0.028438101 0.116582 0.30000001
v 0.033263098 0.115298 0.30000001
v 0.056361102 0.105941 0.30000001
v 0.0607193 0.103504 0.30000001
v 0.064972296 0.100889 0.30000001
v 0.069112897 0.098099001 0.30000001
v 0.073133901 0.095138997 0.30000001
v 0.0770282 0.092014402 0.30000001
v 0.080789201 0.088730499 0.30000001
v 0.084410302 0.085293002 0.30000001
v 0.087885298 0.081707798 0.30000001
v 0.091208197 0.077981196 0.30000001
v 0.0943731 0.074119598 0.30000001
v 0.0973747 0.0701297 0.30000001
v 0.100208 0.066018298 0.30000001
v 0.102867 0.061792701 0.30000001
v 0.105349 0.057460099 0.30000001
v 0.107648 0.053027999 0.30000001
v 0.10976 0.048504099 0.30000001
v 0.111683 0.043896299 0.30000001
v 0.113412 0.039212398 0.30000001
v 0.114946 0.034460701 0.30000001
v 0.11628 0.029649301 0.30000001
v 0.117412 0.024786601 0.30000001
v 0.118342 0.019881001 0.30000001
v 0.119066 0.0149409 0.30000001
v 0.119585 0.0099750003 0.30000001
# </points>

# <edges count="729">
l 290 291
l 291 292
l 292 293
l 293 294
l 294 295
l 295 296
l 296 297
l 297 298
l 298 299
l 299 300
l 300 301
l 301 302
l 302 303
l 303 304
l 304 305
l 305 306
l 306 307
l 307 308
l 308 309
l 309 310
l 310 311
l 311 312
l 312 313
l 313 314
l 314 315
l 315 316
l 316 317
l 317 318
l 318 319
l 319 320
l 320 321
l 321 322
l 322 323
l 323 324
l 324 325
l 325 326
l 326 327
l 327 328
l 328 329
l 329 330
l 330 331
l 331 332
l 332 333
l 333 334
l 334 335
l 335 336
l 336 337
l 337 338
l 338 339
l 339 340
l 340 341
l 341 342
l 342 343
l 343 344
l 344 345
l 345 346
l 346 347
l 347 348
l 348 349
l 349 350
l 350 351
l 351 352
l 352 353
l 353 354
l 354 355
l 355 356
l 356 357
l 357 358
l 358 359
l 359 360
l 360 361
l 361 362
l 362 363
l 363 364
l 364 365
l 365 366
l 366 367
l 367 368
l 368 369
l 369 370
l 370 371
l 371 372
l 372 373
l 373 374
l 374 375
l 375 376
l 376 377
l 377 378
l 378 379
l 379 380
l 380 381
l 381 382
l 382 383
l 383 384
l 384 385
l 385 386
l 386 387
l 387 388
l 388 389
l 389 390
l 390 391
l 391 392
l 392 393
l 393 394
l 394 395
l 395 396
l 396 397
l 397 398
l 398 399
l 399 400
l 400 401
l 401 402
l 402 403
l 403 404
l 404 405
l 405 406
l 406 407
l 407 408
l 408 409
l 409 410
l 410 411
l 411 412
l 412 413
l 413 414
l 414 415
l 415 416
l 416 417
l 417 418
l 418 419
l 419 420
l 420 421
l 421 422
l 422 423
l 423 424
l 424 425
l 425 426
l 426 427
l 427 290
l 428 429
l 429 430
l 431 432
l 433 434
l 435 436
l 434 437
l 438 439
l 440 441
l 430 442
l 441 443
l 437 444
l 443 445
l 446 447
l 448 446
l 449 450
l 451 449
l 452 453
l 447 454
l 453 455
l 456 457
l 458 459
l 460 461
l 462 460
l 463 462
l 464 463
l 465 464
l 466 465
l 467 466
l 468 467
l 469 468
l 470 469
l 471 470
l 472 471
l 473 472
l 474 473
l 475 474
l 476 475
l 477 476
l 478 477
l 479 478
l 480 479
l 481 480
l 454 482
l 483 484
l 485 483
l 486 485
l 487 486
l 488 487
l 489 488
l 490 489
l 491 490
l 492 491
l 493 492
l 494 493
l 495 496
l 497 498
l 499 497
l 500 499
l 501 500
l 502 501
l 503 502
l 504 503
l 505 504
l 506 505
l 507 506
l 508 507
l 509 508
l 510 509
l 511 510
l 512 511
l 513 512
l 514 513
l 515 514
l 516 515
l 517 518
l 455 517
l 519 520
l 521 452
l 522 521
l 523 522
l 524 519
l 525 526
l 527 525
l 528 527
l 529 528
l 520 530
l 531 532
l 533 524
l 534 533
l 535 534
l 450 535
l 536 451
l 537 536
l 538 537
l 539 538
l 540 539
l 541 540
l 542 541
l 543 542
l 544 543
l 545 544
l 546 547
l 548 549
l 550 548
l 551 550
l 552 551
l 553 554
l 547 553
l 555 556
l 557 555
l 558 557
l 559 558
l 560 559
l 482 560
l 561 545
l 562 448
l 563 562
l 564 563
l 565 564
l 566 565
l 567 566
l 568 567
l 569 568
l 570 569
l 571 570
l 572 571
l 573 572
l 574 573
l 532 574
l 575 523
l 576 577
l 578 576
l 579 578
l 580 579
l 581 580
l 582 581
l 583 582
l 584 583
l 585 584
l 586 585
l 587 586
l 588 587
l 589 588
l 590 589
l 591 590
l 592 591
l 593 592
l 594 593
l 457 594
l 498 495
l 496 494
l 530 529
l 459 456
l 461 458
l 484 595
l 518 596
l 526 575
l 549 561
l 556 546
l 577 531
l 596 516
l 595 481
l 554 552
l 597 439
l 598 597
l 599 598
l 600 599
l 601 600
l 602 601
l 603 602
l 604 603
l 605 604
l 606 605
l 607 606
l 608 607
l 609 608
l 610 609
l 611 610
l 612 611
l 613 612
l 614 613
l 440 614
l 615 445
l 616 615
l 617 616
l 618 617
l 619 618
l 620 619
l 621 620
l 622 621
l 623 622
l 624 623
l 625 624
l 626 625
l 627 626
l 628 627
l 629 628
l 630 629
l 631 630
l 632 631
l 633 632
l 634 633
l 635 634
l 636 635
l 637 636
l 638 637
l 639 638
l 640 639
l 641 640
l 435 641
l 642 436
l 643 642
l 644 643
l 645 644
l 646 645
l 647 646
l 648 647
l 649 648
l 650 649
l 651 650
l 652 651
l 653 652
l 654 653
l 655 654
l 656 655
l 657 656
l 658 657
l 659 658
l 433 659
l 660 444
l 661 660
l 662 661
l 663 662
l 664 663
l 665 664
l 666 665
l 667 666
l 668 667
l 669 668
l 670 669
l 671 670
l 672 671
l 673 672
l 674 673
l 675 674
l 676 675
l 677 676
l 678 677
l 679 678
l 680 679
l 681 680
l 682 681
l 683 682
l 684 683
l 685 684
l 686 685
l 431 686
l 687 432
l 688 687
l 689 688
l 690 689
l 691 690
l 692 691
l 693 692
l 694 693
l 695 694
l 696 695
l 697 696
l 698 697
l 699 698
l 700 699
l 701 700
l 702 701
l 703 702
l 704 703
l 428 704
l 705 442
l 706 705
l 707 706
l 708 707
l 709 708
l 710 709
l 711 710
l 712 711
l 713 712
l 714 713
l 715 714
l 716 715
l 717 716
l 718 717
l 719 718
l 720 719
l 721 720
l 722 721
l 723 722
l 724 723
l 725 724
l 726 725
l 727 726
l 728 727
l 729 728
l 438 729
l 1 2
l 3 1
l 4 3
l 5 4
l 6 5
l 7 6
l 8 7
l 9 8
l 10 9
l 11 10
l 12 11
l 13 12
l 14 13
l 15 14
l 16 15
l 17 16
l 18 17
l 19 18
l 20 19
l 21 20
l 22 21
l 23 22
l 24 23
l 25 24
l 26 25
l 27 26
l 28 27
l 29 28
l 30 29
l 31 30
l 32 31
l 33 32
l 34 33
l 35 34
l 36 35
l 37 36
l 38 37
l 39 38
l 40 39
l 41 40
l 42 41
l 43 42
l 44 43
l 45 44
l 46 45
l 47 46
l 48 47
l 49 48
l 50 49
l 51 50
l 52 51
l 53 52
l 54 53
l 55 54
l 56 55
l 57 56
l 58 57
l 59 58
l 60 59
l 61 60
l 62 61
l 63 62
l 64 63
l 65 64
l 66 65
l 67 66
l 68 67
l 69 68
l 70 69
l 71 70
l 72 71
l 73 72
l 74 73
l 75 74
l 76 75
l 77 76
l 78 77
l 79 78
l 80 79
l 81 80
l 82 81
l 83 82
l 84 83
l 85 84
l 86 85
l 87 86
l 88 87
l 89 88
l 90 89
l 91 90
l 92 91
l 93 92
l 94 93
l 95 94
l 96 95
l 97 96
l 98 97
l 99 98
l 100 99
l 101 100
l 102 101
l 103 102
l 104 103
l 105 104
l 106 105
l 107 106
l 108 107
l 109 108
l 110 109
l 111 110
l 112 111
l 113 112
l 114 113
l 115 114
l 116 115
l 117 116
l 118 117
l 119 118
l 120 119
l 121 120
l 122 121
l 123 122
l 124 123
l 125 124
l 126 125
l 127 126
l 128 127
l 129 128
l 130 129
l 131 130
l 132 131
l 133 132
l 134 133
l 135 134
l 136 135
l 137 136
l 138 137
l 2 138
l 139 140
l 141 139
l 142 141
l 143 142
l 144 143
l 145 144
l 146 145
l 147 146
l 148 147
l 149 148
l 150 149
l 151 150
l 152 151
l 153 152
l 154 153
l 155 154
l 156 155
l 157 156
l 158 157
l 159 158
l 160 159
l 161 160
l 162 161
l 163 162
l 164 163
l 165 164
l 166 165
l 167 166
l 168 167
l 169 168
l 170 169
l 171 170
l 172 171
l 173 172
l 174 173
l 175 174
l 176 175
l 177 176
l 178 177
l 179 178
l 180 179
l 181 180
l 182 181
l 183 182
l 184 183
l 185 184
l 186 185
l 187 186
l 188 187
l 189 188
l 190 189
l 191 190
l 192 191
l 193 192
l 194 193
l 195 194
l 196 195
l 197 196
l 198 197
l 199 198
l 200 199
l 201 200
l 202 201
l 203 202
l 204 203
l 205 204
l 206 205
l 207 206
l 208 207
l 209 208
l 210 209
l 211 210
l 212 211
l 213 212
l 214 213
l 215 214
l 216 215
l 217 216
l 218 217
l 219 218
l 220 219
l 221 220
l 222 221
l 223 222
l 224 223
l 225 224
l 226 225
l 227 226
l 228 227
l 229 228
l 230 229
l 231 230
l 232 231
l 233 232
l 234 233
l 235 234
l 236 235
l 237 236
l 238 237
l 239 238
l 240 239
l 241 240
l 242 241
l 243 242
l 244 243
l 245 244
l 246 245
l 247 246
l 248 247
l 249 248
l 250 249
l 251 250
l 252 251
l 253 252
l 254 253
l 255 254
l 256 255
l 257 256
l 258 257
l 259 258
l 260 259
l 261 260
l 262 261
l 263 262
l 264 263
l 265 264
l 266 265
l 267 266
l 268 267
l 269 268
l 270 269
l 271 270
l 272 271
l 273 272
l 274 273
l 275 274
l 276 275
l 277 276
l 278 277
l 279 278
l 280 279
l 281 280
l 282 281
l 283 282
l 284 283
l 285 284
l 286 285
l 287 286
l 288 287
l 289 288
l 140 289
# </edges>
