# Wavefront OBJ file written 2026-03-23T20:24:20
o cellFull_m_normal_4

# points : 438
# faces  : 587
# zones  : 1
#   0  Mesh_2  (nFaces: 587)

# <points count="438">
v 0.109886 -0.00500661 0.25
v 0.11 0 0.25
v 0.109544 -0.0100028 0.25
v 0.108976 -0.0149783 0.25
v 0.108181 -0.0199228 0.25
v 0.107162 -0.0248259 0.25
v 0.105921 -0.0296776 0.25
v 0.10446 -0.0344678 0.25
v 0.102783 -0.0391866 0.25
v 0.100893 -0.0438241 0.25
v 0.0987941 -0.0483708 0.25
v 0.0964901 -0.0528173 0.25
v 0.0939861 -0.0571542 0.25
v 0.0912874 -0.0613727 0.25
v 0.0883994 -0.0654641 0.25
v 0.0853282 -0.0694197 0.25
v 0.0820802 -0.0732314 0.25
v 0.078662 -0.0768914 0.25
v 0.0750808 -0.080392 0.25
v 0.071344 -0.0837259 0.25
v 0.0674593 -0.0868864 0.25
v 0.0634348 -0.0898667 0.25
v 0.0592789 -0.0926608 0.25
v 0.055 -0.0952628 0.25
v 0.0506072 -0.0976674 0.25
v 0.0461094 -0.0998695 0.25
v 0.0415161 -0.101865 0.25
v 0.0368368 -0.103649 0.25
v 0.0320811 -0.105218 0.25
v 0.0272589 -0.106569 0.25
v 0.0223802 -0.107699 0.25
v 0.0174551 -0.108606 0.25
v 0.0124938 -0.109288 0.25
v 0.00750667 -0.109744 0.25
v 0.00250395 -0.109971 0.25
v -0.00250395 -0.109971 0.25
v -0.00750667 -0.109744 0.25
v -0.0124938 -0.109288 0.25
v -0.0174551 -0.108606 0.25
v -0.0223802 -0.107699 0.25
v -0.0272589 -0.106569 0.25
v -0.0320811 -0.105218 0.25
v -0.0368368 -0.103649 0.25
v -0.0415161 -0.101865 0.25
v -0.0461094 -0.0998695 0.25
v -0.0506072 -0.0976674 0.25
v -0.055 -0.0952628 0.25
v -0.0592789 -0.0926608 0.25
v -0.0634348 -0.0898667 0.25
v -0.0674593 -0.0868864 0.25
v -0.071344 -0.0837259 0.25
v -0.0750808 -0.080392 0.25
v -0.078662 -0.0768914 0.25
v -0.0820802 -0.0732314 0.25
v -0.0853282 -0.0694197 0.25
v -0.0883994 -0.0654641 0.25
v -0.0912874 -0.0613727 0.25
v -0.0939861 -0.0571542 0.25
v -0.0964901 -0.0528173 0.25
v -0.0987941 -0.0483708 0.25
v -0.100893 -0.0438241 0.25
v -0.102783 -0.0391866 0.25
v -0.10446 -0.0344678 0.25
v -0.105921 -0.0296776 0.25
v -0.107162 -0.0248259 0.25
v -0.108181 -0.0199228 0.25
v -0.108976 -0.0149783 0.25
v -0.109544 -0.0100028 0.25
v -0.109886 -0.00500661 0.25
v -0.11 2.79628e-16 0.25
v -0.109886 0.00500661 0.25
v -0.109544 0.0100028 0.25
v -0.108976 0.0149783 0.25
v -0.108181 0.0199228 0.25
v -0.107162 0.0248259 0.25
v -0.105921 0.0296776 0.25
v -0.10446 0.0344678 0.25
v -0.102783 0.0391866 0.25
v -0.100893 0.0438241 0.25
v -0.0987941 0.0483708 0.25
v -0.0964901 0.0528173 0.25
v -0.0939861 0.0571542 0.25
v -0.0912874 0.0613727 0.25
v -0.0883994 0.0654641 0.25
v -0.0853282 0.0694197 0.25
v -0.0820802 0.0732314 0.25
v -0.078662 0.0768914 0.25
v -0.0750808 0.080392 0.25
v -0.071344 0.0837259 0.25
v -0.0674593 0.0868864 0.25
v -0.0634348 0.0898667 0.25
v -0.0592789 0.0926608 0.25
v -0.055 0.0952628 0.25
v -0.0506072 0.0976674 0.25
v -0.0461094 0.0998695 0.25
v -0.0415161 0.101865 0.25
v -0.0368368 0.103649 0.25
v -0.0320811 0.105218 0.25
v -0.0272589 0.106569 0.25
v -0.0223802 0.107699 0.25
v -0.0174551 0.108606 0.25
v -0.0124938 0.109288 0.25
v -0.00750667 0.109744 0.25
v -0.00250395 0.109971 0.25
v 0.00250395 0.109971 0.25
v 0.00750667 0.109744 0.25
v 0.0124938 0.109288 0.25
v 0.0174551 0.108606 0.25
v 0.0223802 0.107699 0.25
v 0.0272589 0.106569 0.25
v 0.0320811 0.105218 0.25
v 0.0368368 0.103649 0.25
v 0.0415161 0.101865 0.25
v 0.0461094 0.0998695 0.25
v 0.0506072 0.0976674 0.25
v 0.055 0.0952628 0.25
v 0.0592789 0.0926608 0.25
v 0.0634348 0.0898667 0.25
v 0.0674593 0.0868864 0.25
v 0.071344 0.0837259 0.25
v 0.0750808 0.080392 0.25
v 0.078662 0.0768914 0.25
v 0.0820802 0.0732314 0.25
v 0.0853282 0.0694197 0.25
v 0.0883994 0.0654641 0.25
v 0.0912874 0.0613727 0.25
v 0.0939861 0.0571542 0.25
v 0.0964901 0.0528173 0.25
v 0.0987941 0.0483708 0.25
v 0.100893 0.0438241 0.25
v 0.102783 0.0391866 0.25
v 0.10446 0.0344678 0.25
v 0.105921 0.0296776 0.25
v 0.107162 0.0248259 0.25
v 0.108181 0.0199228 0.25
v 0.108976 0.0149783 0.25
v 0.109544 0.0100028 0.25
v 0.109886 0.00500661 0.25
v 0.119896 -0.00499182 0.25
v 0.12 0 0.25
v 0.119585 -0.009975 0.25
v 0.119066 -0.0149409 0.25
v 0.118342 -0.019881 0.25
v 0.117412 -0.0247866 0.25
v 0.11628 -0.0296493 0.25
v 0.114946 -0.0344607 0.25
v 0.113412 -0.0392124 0.25
v 0.111683 -0.0438963 0.25
v 0.10976 -0.0485041 0.25
v 0.107648 -0.053028 0.25
v 0.105349 -0.0574601 0.25
v 0.102867 -0.0617927 0.25
v 0.100208 -0.0660183 0.25
v 0.0973747 -0.0701297 0.25
v 0.0943731 -0.0741196 0.25
v 0.0912082 -0.0779812 0.25
v 0.0878853 -0.0817078 0.25
v 0.0844103 -0.085293 0.25
v 0.0807892 -0.0887305 0.25
v 0.0770282 -0.0920144 0.25
v 0.0731339 -0.095139 0.25
v 0.0691129 -0.098099 0.25
v 0.0649723 -0.100889 0.25
v 0.0607193 -0.103504 0.25
v 0.0563611 -0.105941 0.25
v 0.0519053 -0.108193 0.25
v 0.0473597 -0.110259 0.25
v 0.0427321 -0.112134 0.25
v 0.0380305 -0.113814 0.25
v 0.0332631 -0.115298 0.25
v 0.0284381 -0.116582 0.25
v 0.0235639 -0.117664 0.25
v 0.0186488 -0.118542 0.25
v 0.0137015 -0.119215 0.25
v 0.00873048 -0.119682 0.25
v 0.00374434 -0.119942 0.25
v -0.00124829 -0.119993 0.25
v -0.00623876 -0.119838 0.25
v -0.0112184 -0.119475 0.25
v -0.0161787 -0.118904 0.25
v -0.0211109 -0.118128 0.25
v -0.0260066 -0.117148 0.25
v -0.0308573 -0.115965 0.25
v -0.0356545 -0.114581 0.25
v -0.04039 -0.112998 0.25
v -0.0450556 -0.11122 0.25
v -0.0496433 -0.10925 0.25
v -0.0541449 -0.10709 0.25
v -0.0585528 -0.104745 0.25
v -0.0628594 -0.102219 0.25
v -0.0670572 -0.0995155 0.25
v -0.0711388 -0.0966399 0.25
v -0.0750973 -0.093597 0.25
v -0.0789258 -0.090392 0.25
v -0.0826176 -0.0870306 0.25
v -0.0861665 -0.0835185 0.25
v -0.0895661 -0.0798618 0.25
v -0.0928107 -0.0760669 0.25
v -0.0958947 -0.0721402 0.25
v -0.0988126 -0.0680887 0.25
v -0.101559 -0.0639193 0.25
v -0.104131 -0.0596393 0.25
v -0.106521 -0.055256 0.25
v -0.108728 -0.050777 0.25
v -0.110746 -0.0462102 0.25
v -0.112572 -0.0415633 0.25
v -0.114204 -0.0368445 0.25
v -0.115637 -0.0320619 0.25
v -0.116871 -0.0272238 0.25
v -0.117902 -0.0223386 0.25
v -0.11873 -0.0174147 0.25
v -0.119351 -0.0124607 0.25
v -0.119766 -0.00748503 0.25
v -0.119974 -0.00249645 0.25
v -0.119974 0.00249645 0.25
v -0.119766 0.00748503 0.25
v -0.119351 0.0124607 0.25
v -0.11873 0.0174147 0.25
v -0.117902 0.0223386 0.25
v -0.116871 0.0272238 0.25
v -0.115637 0.0320619 0.25
v -0.114204 0.0368445 0.25
v -0.112572 0.0415633 0.25
v -0.110746 0.0462102 0.25
v -0.108728 0.050777 0.25
v -0.106521 0.055256 0.25
v -0.104131 0.0596393 0.25
v -0.101559 0.0639193 0.25
v -0.0988126 0.0680887 0.25
v -0.0958947 0.0721402 0.25
v -0.0928107 0.0760669 0.25
v -0.0895661 0.0798618 0.25
v -0.0861665 0.0835185 0.25
v -0.0826176 0.0870306 0.25
v -0.0789258 0.090392 0.25
v -0.0750973 0.093597 0.25
v -0.0711388 0.0966399 0.25
v -0.0670572 0.0995155 0.25
v -0.0628594 0.102219 0.25
v -0.0585528 0.104745 0.25
v -0.0541449 0.10709 0.25
v -0.0496433 0.10925 0.25
v -0.0450556 0.11122 0.25
v -0.04039 0.112998 0.25
v -0.0356545 0.114581 0.25
v -0.0308573 0.115965 0.25
v -0.0260066 0.117148 0.25
v -0.0211109 0.118128 0.25
v -0.0161787 0.118904 0.25
v -0.0112184 0.119475 0.25
v -0.00623876 0.119838 0.25
v -0.00124829 0.119993 0.25
v 0.00374434 0.119942 0.25
v 0.00873048 0.119682 0.25
v 0.0137015 0.119215 0.25
v 0.0186488 0.118542 0.25
v 0.0235639 0.117664 0.25
v 0.0284381 0.116582 0.25
v 0.0332631 0.115298 0.25
v 0.0380305 0.113814 0.25
v 0.0427321 0.112134 0.25
v 0.0473597 0.110259 0.25
v 0.0519053 0.108193 0.25
v 0.0563611 0.105941 0.25
v 0.0607193 0.103504 0.25
v 0.0649723 0.100889 0.25
v 0.0691129 0.098099 0.25
v 0.0731339 0.095139 0.25
v 0.0770282 0.0920144 0.25
v 0.0807892 0.0887305 0.25
v 0.0844103 0.085293 0.25
v 0.0878853 0.0817078 0.25
v 0.0912082 0.0779812 0.25
v 0.0943731 0.0741196 0.25
v 0.0973747 0.0701297 0.25
v 0.100208 0.0660183 0.25
v 0.102867 0.0617927 0.25
v 0.105349 0.0574601 0.25
v 0.107648 0.053028 0.25
v 0.10976 0.0485041 0.25
v 0.111683 0.0438963 0.25
v 0.113412 0.0392124 0.25
v 0.114946 0.0344607 0.25
v 0.11628 0.0296493 0.25
v 0.117412 0.0247866 0.25
v 0.118342 0.019881 0.25
v 0.119066 0.0149409 0.25
v 0.119585 0.009975 0.25
v 0.119896 0.00499182 0.25
v 0.114987 -7.64106e-05 0.25
v 0.114807 -0.00501377 0.25
v 0.114463 -0.00998427 0.25
v 0.113916 -0.0149446 0.25
v 0.113158 -0.0198778 0.25
v 0.112188 -0.0247699 0.25
v 0.111012 -0.0295991 0.25
v 0.109649 -0.0343167 0.25
v 0.108159 -0.0387987 0.25
v 0.107712 -0.0428258 0.25
v 0.105415 -0.0465315 0.25
v 0.103174 -0.0507648 0.25
v 0.100838 -0.0551139 0.25
v 0.0983401 -0.0594188 0.25
v 0.0956677 -0.063625 0.25
v 0.0928308 -0.0677033 0.25
v 0.0898718 -0.0716127 0.25
v 0.0869211 -0.0752588 0.25
v 0.0848803 -0.0788759 0.25
v 0.0814535 -0.081479 0.25
v 0.0778588 -0.0846113 0.25
v 0.074115 -0.0878224 0.25
v 0.0702297 -0.0909362 0.25
v 0.066211 -0.0938966 0.25
v 0.0620669 -0.0966842 0.25
v 0.0578055 -0.0992904 0.25
v 0.00944458 0.114601 0.25
v 0.00428511 0.114776 0.25
v 0.0534348 -0.101709 0.25
v 0.0489624 -0.103936 0.25
v 0.044398 -0.105966 0.25
v 0.0397505 -0.107795 0.25
v 0.0350296 -0.109419 0.25
v 0.0302472 -0.110835 0.25
v 0.0254232 -0.112036 0.25
v 0.0206025 -0.11301 0.25
v 0.0158992 -0.113735 0.25
v 0.0122858 -0.11531 0.25
v 0.00787032 -0.114985 0.25
v 0.00305488 -0.114954 0.25
v -0.00189016 -0.114903 0.25
v -0.00686532 -0.114692 0.25
v -0.0118326 -0.114281 0.25
v -0.0167634 -0.113661 0.25
v -0.0216056 -0.112843 0.25
v -0.0262295 -0.111869 0.25
v -0.0302752 -0.111893 0.25
v -0.0342214 -0.11003 0.25
v -0.0386833 -0.108285 0.25
v -0.0432705 -0.106459 0.25
v -0.0478319 -0.104467 0.25
v -0.0523152 -0.102291 0.25
v -0.0566901 -0.0999373 0.25
v -0.0609109 -0.0974418 0.25
v -0.0648693 -0.0949221 0.25
v -0.0686929 -0.0933162 0.25
v -0.0716709 -0.0902051 0.25
v -0.0751928 -0.0869893 0.25
v -0.0788096 -0.0836352 0.25
v -0.0823458 -0.0801297 0.25
v -0.0857446 -0.0764743 0.25
v -0.0889863 -0.0726745 0.25
v -0.0920618 -0.0687367 0.25
v 0.0135188 0.114141 0.25
v -0.0949662 -0.0646657 0.25
v -0.0976999 -0.0604607 0.25
v -0.10028 -0.0560944 0.25
v -0.102788 -0.0514362 0.25
v -0.1058 -0.0456494 0.25
v -0.1076 -0.0405034 0.25
v -0.109237 -0.0356666 0.25
v -0.110677 -0.0308524 0.25
v -0.109648 0.0387076 0.25
v -0.111911 -0.0260035 0.25
v -0.112935 -0.0211118 0.25
v -0.113747 -0.0161806 0.25
v -0.114345 -0.011216 0.25
v -0.114724 -0.00623413 0.25
v -0.114845 -0.00124187 0.25
v -0.114643 0.00389922 0.25
v -0.113886 0.00910048 0.25
v -0.112697 0.0142715 0.25
v -0.112788 0.0190484 0.25
v -0.112284 0.0237288 0.25
v -0.111345 0.0285479 0.25
v -0.110265 0.0334762 0.25
v -0.106151 0.0446382 0.25
v -0.103852 0.0493435 0.25
v -0.101713 0.05362 0.25
v -0.100548 0.0576097 0.25
v -0.097786 0.0609273 0.25
v -0.0949887 0.0647949 0.25
v -0.0920673 0.068771 0.25
v -0.088987 0.0726837 0.25
v -0.0857424 0.0764768 0.25
v -0.0823367 0.08013 0.25
v -0.0787755 0.0836331 0.25
v -0.0750646 0.0869793 0.25
v -0.0712088 0.0901639 0.25
v -0.0672062 0.0931882 0.25
v -0.0630318 0.0960707 0.25
v -0.0585626 0.0989014 0.25
v -0.0530575 0.10229 0.25
v -0.0480089 0.104467 0.25
v -0.043292 0.106445 0.25
v -0.0385897 0.108223 0.25
v -0.0338395 0.109796 0.25
v -0.029031 0.111164 0.25
v -0.0241663 0.112324 0.25
v -0.019261 0.113266 0.25
v -0.0143137 0.11396 0.25
v -0.00937699 0.114349 0.25
v -0.00453122 0.114667 0.25
v 0.000146718 0.114824 0.25
v -0.116283 0.0134761 0.25
v 0.0181523 0.113465 0.25
v 0.0229749 0.112575 0.25
v 0.0278156 0.111475 0.25
v 0.032605 0.110173 0.25
v 0.0372802 0.108695 0.25
v 0.0417075 0.10713 0.25
v 0.0457862 0.106449 0.25
v 0.0493952 0.104087 0.25
v 0.0535551 0.10175 0.25
v 0.0578378 0.0993005 0.25
v 0.0620758 0.096686 0.25
v 0.0662137 0.0938946 0.25
v 0.070231 0.0909272 0.25
v 0.0741167 0.0877882 0.25
v 0.0778626 0.0844834 0.25
v 0.081462 0.0810183 0.25
v 0.0849068 0.0774005 0.25
v 0.0881897 0.0736367 0.25
v 0.0913045 0.0697352 0.25
v 0.0942438 0.0657056 0.25
v 0.0969946 0.0615646 0.25
v 0.0995297 0.0573488 0.25
v 0.101788 0.0531532 0.25
v 0.10449 0.0503094 0.25
v 0.105669 0.0460293 0.25
v 0.107256 0.0414779 0.25
v 0.108868 0.0368011 0.25
v 0.110339 0.0320432 0.25
v 0.111619 0.0272258 0.25
v 0.11269 0.0223728 0.25
v 0.113543 0.0175352 0.25
v 0.114171 0.0128457 0.25
v 0.115569 0.00906853 0.25
v 0.115136 0.00471513 0.25
# </points>

# <faces count="587">
g Mesh_2
f 290 2 1
f 290 1 291
f 291 1 3
f 291 3 292
f 292 3 4
f 292 4 293
f 293 4 5
f 293 5 294
f 294 5 6
f 294 6 295
f 295 6 7
f 295 7 296
f 296 7 8
f 296 8 297
f 297 8 9
f 297 9 298
f 299 9 10
f 299 10 300
f 300 10 11
f 300 11 301
f 301 11 12
f 301 12 302
f 302 12 13
f 302 13 303
f 303 13 14
f 303 14 304
f 304 14 15
f 304 15 305
f 305 15 16
f 305 16 306
f 306 16 17
f 306 17 307
f 308 17 18
f 308 18 309
f 309 18 19
f 309 19 310
f 310 19 20
f 310 20 311
f 311 20 21
f 311 21 312
f 312 21 22
f 312 22 313
f 313 22 23
f 313 23 314
f 314 23 24
f 314 24 315
f 106 316 317
f 318 25 26
f 318 26 319
f 319 26 27
f 319 27 320
f 320 27 28
f 320 28 321
f 321 28 29
f 321 29 322
f 322 29 30
f 322 30 323
f 323 30 31
f 323 31 324
f 324 31 32
f 324 32 325
f 325 32 33
f 325 33 326
f 327 33 34
f 327 34 328
f 328 34 35
f 328 35 329
f 329 35 36
f 329 36 330
f 330 36 37
f 330 37 331
f 331 37 38
f 331 38 332
f 332 38 39
f 332 39 333
f 333 39 40
f 333 40 334
f 334 40 41
f 334 41 335
f 336 41 42
f 336 42 337
f 337 42 43
f 337 43 338
f 338 43 44
f 338 44 339
f 339 44 45
f 339 45 340
f 340 45 46
f 340 46 341
f 341 46 47
f 341 47 342
f 342 47 48
f 342 48 343
f 343 48 49
f 343 49 344
f 345 49 50
f 345 50 346
f 346 50 51
f 346 51 347
f 347 51 52
f 347 52 348
f 348 52 53
f 348 53 349
f 349 53 54
f 349 54 350
f 350 54 55
f 350 55 351
f 351 55 56
f 351 56 352
f 254 316 353
f 254 353 255
f 354 57 58
f 354 58 355
f 355 58 59
f 355 59 356
f 356 59 60
f 356 60 357
f 357 60 61
f 357 61 358
f 358 61 62
f 358 62 359
f 359 62 63
f 359 63 360
f 360 63 64
f 360 64 361
f 362 223 222
f 363 65 66
f 363 66 364
f 364 66 67
f 364 67 365
f 365 67 68
f 365 68 366
f 366 68 69
f 366 69 367
f 367 69 70
f 367 70 368
f 368 70 71
f 368 71 369
f 369 71 72
f 369 72 370
f 317 316 254
f 317 254 253
f 371 73 74
f 371 74 372
f 372 74 75
f 372 75 373
f 373 75 76
f 373 76 374
f 374 76 77
f 374 77 375
f 375 77 78
f 375 78 362
f 362 78 79
f 362 79 376
f 376 79 80
f 376 80 377
f 377 80 81
f 377 81 378
f 379 81 82
f 379 82 380
f 380 82 83
f 380 83 381
f 381 83 84
f 381 84 382
f 382 84 85
f 382 85 383
f 383 85 86
f 383 86 384
f 384 86 87
f 384 87 385
f 385 87 88
f 385 88 386
f 223 362 376
f 223 376 224
f 387 89 90
f 387 90 388
f 388 90 91
f 388 91 389
f 389 91 92
f 389 92 390
f 390 92 93
f 390 93 391
f 391 93 94
f 391 94 392
f 392 94 95
f 392 95 393
f 393 95 96
f 393 96 394
f 205 204 358
f 395 97 98
f 395 98 396
f 396 98 99
f 396 99 397
f 397 99 100
f 397 100 398
f 398 100 101
f 398 101 399
f 399 101 102
f 399 102 400
f 400 102 103
f 400 103 401
f 401 103 104
f 401 104 402
f 402 104 105
f 402 105 403
f 216 370 371
f 216 371 404
f 316 106 107
f 316 107 353
f 353 107 108
f 353 108 405
f 405 108 109
f 405 109 406
f 406 109 110
f 406 110 407
f 407 110 111
f 407 111 408
f 408 111 112
f 408 112 409
f 409 112 113
f 409 113 410
f 411 113 114
f 411 114 412
f 412 114 115
f 412 115 413
f 413 115 116
f 413 116 414
f 414 116 117
f 414 117 415
f 415 117 118
f 415 118 416
f 416 118 119
f 416 119 417
f 417 119 120
f 417 120 418
f 358 204 203
f 358 203 357
f 419 121 122
f 419 122 420
f 420 122 123
f 420 123 421
f 421 123 124
f 421 124 422
f 422 124 125
f 422 125 423
f 423 125 126
f 423 126 424
f 424 126 127
f 424 127 425
f 425 127 128
f 425 128 426
f 426 128 129
f 426 129 427
f 428 129 130
f 428 130 429
f 429 130 131
f 429 131 430
f 430 131 132
f 430 132 431
f 431 132 133
f 431 133 432
f 432 133 134
f 432 134 433
f 433 134 135
f 433 135 434
f 434 135 136
f 434 136 435
f 435 136 137
f 435 137 436
f 437 137 138
f 437 138 438
f 438 138 2
f 438 2 290
f 291 139 140
f 291 140 290
f 293 142 141
f 293 141 292
f 295 144 143
f 295 143 294
f 296 145 144
f 296 144 295
f 297 146 145
f 297 145 296
f 298 147 146
f 298 146 297
f 299 148 147
f 299 147 298
f 300 149 148
f 300 148 299
f 301 150 149
f 301 149 300
f 302 151 150
f 302 150 301
f 303 152 151
f 303 151 302
f 304 153 152
f 304 152 303
f 305 154 153
f 305 153 304
f 306 155 154
f 306 154 305
f 307 156 155
f 307 155 306
f 308 157 156
f 308 156 307
f 309 158 157
f 309 157 308
f 310 159 158
f 310 158 309
f 311 160 159
f 311 159 310
f 312 161 160
f 312 160 311
f 313 162 161
f 313 161 312
f 314 163 162
f 314 162 313
f 315 164 163
f 315 163 314
f 317 403 105
f 317 105 106
f 320 167 166
f 320 166 319
f 321 168 167
f 321 167 320
f 322 169 168
f 322 168 321
f 323 170 169
f 323 169 322
f 324 171 170
f 324 170 323
f 325 172 171
f 325 171 324
f 326 173 172
f 326 172 325
f 327 174 173
f 327 173 326
f 328 175 174
f 328 174 327
f 329 176 175
f 329 175 328
f 330 177 176
f 330 176 329
f 332 179 178
f 332 178 331
f 334 181 180
f 334 180 333
f 335 182 181
f 335 181 334
f 336 183 182
f 336 182 335
f 337 184 183
f 337 183 336
f 338 185 184
f 338 184 337
f 339 186 185
f 339 185 338
f 340 187 186
f 340 186 339
f 341 188 187
f 341 187 340
f 342 189 188
f 342 188 341
f 343 190 189
f 343 189 342
f 344 191 190
f 344 190 343
f 345 192 191
f 345 191 344
f 346 193 192
f 346 192 345
f 347 194 193
f 347 193 346
f 348 195 194
f 348 194 347
f 349 196 195
f 349 195 348
f 350 197 196
f 350 196 349
f 351 198 197
f 351 197 350
f 352 199 198
f 352 198 351
f 370 72 73
f 370 73 371
f 356 202 201
f 356 201 355
f 357 203 202
f 357 202 356
f 217 216 404
f 217 404 218
f 359 206 205
f 359 205 358
f 360 207 206
f 360 206 359
f 361 208 207
f 361 207 360
f 252 403 317
f 252 317 253
f 365 211 210
f 365 210 364
f 366 212 211
f 366 211 365
f 367 213 212
f 367 212 366
f 368 214 213
f 368 213 367
f 370 216 215
f 370 215 369
f 269 418 419
f 269 419 270
f 373 219 218
f 373 218 372
f 374 220 219
f 374 219 373
f 375 221 220
f 375 220 374
f 362 222 221
f 362 221 375
f 418 120 121
f 418 121 419
f 377 225 224
f 377 224 376
f 378 226 225
f 378 225 377
f 379 227 226
f 379 226 378
f 380 228 227
f 380 227 379
f 381 229 228
f 381 228 380
f 382 230 229
f 382 229 381
f 383 231 230
f 383 230 382
f 384 232 231
f 384 231 383
f 385 233 232
f 385 232 384
f 386 234 233
f 386 233 385
f 243 394 395
f 243 395 244
f 389 237 236
f 389 236 388
f 390 238 237
f 390 237 389
f 391 239 238
f 391 238 390
f 392 240 239
f 392 239 391
f 393 242 241
f 393 241 392
f 394 243 242
f 394 242 393
f 394 96 97
f 394 97 395
f 397 246 245
f 397 245 396
f 398 247 246
f 398 246 397
f 399 248 247
f 399 247 398
f 400 249 248
f 400 248 399
f 401 250 249
f 401 249 400
f 402 251 250
f 402 250 401
f 234 386 387
f 234 387 235
f 386 88 89
f 386 89 387
f 405 256 255
f 405 255 353
f 406 257 256
f 406 256 405
f 407 258 257
f 407 257 406
f 408 259 258
f 408 258 407
f 409 260 259
f 409 259 408
f 410 261 260
f 410 260 409
f 411 262 261
f 411 261 410
f 412 263 262
f 412 262 411
f 413 264 263
f 413 263 412
f 414 265 264
f 414 264 413
f 415 266 265
f 415 265 414
f 416 267 266
f 416 266 415
f 417 268 267
f 417 267 416
f 418 269 268
f 418 268 417
f 208 361 363
f 208 363 209
f 421 272 271
f 421 271 420
f 422 273 272
f 422 272 421
f 423 274 273
f 423 273 422
f 424 275 274
f 424 274 423
f 425 276 275
f 425 275 424
f 426 277 276
f 426 276 425
f 427 278 277
f 427 277 426
f 428 279 278
f 428 278 427
f 429 280 279
f 429 279 428
f 430 281 280
f 430 280 429
f 431 282 281
f 431 281 430
f 432 283 282
f 432 282 431
f 433 284 283
f 433 283 432
f 434 285 284
f 434 284 433
f 435 286 285
f 435 285 434
f 436 287 286
f 436 286 435
f 437 288 287
f 437 287 436
f 438 289 288
f 438 288 437
f 290 140 289
f 290 289 438
f 180 179 332
f 180 332 333
f 330 331 178
f 330 178 177
f 368 369 215
f 368 215 214
f 141 139 291
f 141 291 292
f 293 294 143
f 293 143 142
f 319 166 165
f 319 165 318
f 355 201 200
f 355 200 354
f 364 210 209
f 364 209 363
f 388 236 235
f 388 235 387
f 396 245 244
f 396 244 395
f 420 271 270
f 420 270 419
f 361 64 65
f 361 65 363
f 199 352 354
f 199 354 200
f 352 56 57
f 352 57 354
f 164 315 318
f 164 318 165
f 315 24 25
f 315 25 318
f 402 403 252
f 402 252 251
f 404 371 372
f 404 372 218
f 241 240 392
f 298 9 299
f 307 17 308
f 326 33 327
f 335 41 336
f 344 49 345
f 378 81 379
f 410 113 411
f 427 129 428
f 436 137 437
# </faces>
