# Wavefront OBJ file written 2026-03-18T16:43:22
o cellFull_normal_4

# points : 438
# faces  : 587
# zones  : 1
#   0  Mesh_2  (nFaces: 587)

# <points count="438">
v 109.886 -5.00661 250
v 110 0 250
v 109.544 -10.0028 250
v 108.976 -14.9783 250
v 108.181 -19.9228 250
v 107.162 -24.8259 250
v 105.921 -29.6776 250
v 104.46 -34.4678 250
v 102.783 -39.1866 250
v 100.893 -43.8241 250
v 98.7941 -48.3708 250
v 96.4901 -52.8173 250
v 93.9861 -57.1542 250
v 91.2874 -61.3727 250
v 88.3994 -65.4641 250
v 85.3282 -69.4197 250
v 82.0802 -73.2314 250
v 78.662 -76.8914 250
v 75.0808 -80.392 250
v 71.344 -83.7259 250
v 67.4593 -86.8864 250
v 63.4348 -89.8667 250
v 59.2789 -92.6608 250
v 55 -95.2628 250
v 50.6072 -97.6674 250
v 46.1094 -99.8695 250
v 41.5161 -101.865 250
v 36.8368 -103.649 250
v 32.0811 -105.218 250
v 27.2589 -106.569 250
v 22.3802 -107.699 250
v 17.4551 -108.606 250
v 12.4938 -109.288 250
v 7.50667 -109.744 250
v 2.50395 -109.971 250
v -2.50395 -109.971 250
v -7.50667 -109.744 250
v -12.4938 -109.288 250
v -17.4551 -108.606 250
v -22.3802 -107.699 250
v -27.2589 -106.569 250
v -32.0811 -105.218 250
v -36.8368 -103.649 250
v -41.5161 -101.865 250
v -46.1094 -99.8695 250
v -50.6072 -97.6674 250
v -55 -95.2628 250
v -59.2789 -92.6608 250
v -63.4348 -89.8667 250
v -67.4593 -86.8864 250
v -71.344 -83.7259 250
v -75.0808 -80.392 250
v -78.662 -76.8914 250
v -82.0802 -73.2314 250
v -85.3282 -69.4197 250
v -88.3994 -65.4641 250
v -91.2874 -61.3727 250
v -93.9861 -57.1542 250
v -96.4901 -52.8173 250
v -98.7941 -48.3708 250
v -100.893 -43.8241 250
v -102.783 -39.1866 250
v -104.46 -34.4678 250
v -105.921 -29.6776 250
v -107.162 -24.8259 250
v -108.181 -19.9228 250
v -108.976 -14.9783 250
v -109.544 -10.0028 250
v -109.886 -5.00661 250
v -110 2.79628e-13 250
v -109.886 5.00661 250
v -109.544 10.0028 250
v -108.976 14.9783 250
v -108.181 19.9228 250
v -107.162 24.8259 250
v -105.921 29.6776 250
v -104.46 34.4678 250
v -102.783 39.1866 250
v -100.893 43.8241 250
v -98.7941 48.3708 250
v -96.4901 52.8173 250
v -93.9861 57.1542 250
v -91.2874 61.3727 250
v -88.3994 65.4641 250
v -85.3282 69.4197 250
v -82.0802 73.2314 250
v -78.662 76.8914 250
v -75.0808 80.392 250
v -71.344 83.7259 250
v -67.4593 86.8864 250
v -63.4348 89.8667 250
v -59.2789 92.6608 250
v -55 95.2628 250
v -50.6072 97.6674 250
v -46.1094 99.8695 250
v -41.5161 101.865 250
v -36.8368 103.649 250
v -32.0811 105.218 250
v -27.2589 106.569 250
v -22.3802 107.699 250
v -17.4551 108.606 250
v -12.4938 109.288 250
v -7.50667 109.744 250
v -2.50395 109.971 250
v 2.50395 109.971 250
v 7.50667 109.744 250
v 12.4938 109.288 250
v 17.4551 108.606 250
v 22.3802 107.699 250
v 27.2589 106.569 250
v 32.0811 105.218 250
v 36.8368 103.649 250
v 41.5161 101.865 250
v 46.1094 99.8695 250
v 50.6072 97.6674 250
v 55 95.2628 250
v 59.2789 92.6608 250
v 63.4348 89.8667 250
v 67.4593 86.8864 250
v 71.344 83.7259 250
v 75.0808 80.392 250
v 78.662 76.8914 250
v 82.0802 73.2314 250
v 85.3282 69.4197 250
v 88.3994 65.4641 250
v 91.2874 61.3727 250
v 93.9861 57.1542 250
v 96.4901 52.8173 250
v 98.7941 48.3708 250
v 100.893 43.8241 250
v 102.783 39.1866 250
v 104.46 34.4678 250
v 105.921 29.6776 250
v 107.162 24.8259 250
v 108.181 19.9228 250
v 108.976 14.9783 250
v 109.544 10.0028 250
v 109.886 5.00661 250
v 119.896 -4.99182 250
v 120 0 250
v 119.585 -9.975 250
v 119.066 -14.9409 250
v 118.342 -19.881 250
v 117.412 -24.7866 250
v 116.28 -29.6493 250
v 114.946 -34.4607 250
v 113.412 -39.2124 250
v 111.683 -43.8963 250
v 109.76 -48.5041 250
v 107.648 -53.028 250
v 105.349 -57.4601 250
v 102.867 -61.7927 250
v 100.208 -66.0183 250
v 97.3747 -70.1297 250
v 94.3731 -74.1196 250
v 91.2082 -77.9812 250
v 87.8853 -81.7078 250
v 84.4103 -85.293 250
v 80.7892 -88.7305 250
v 77.0282 -92.0144 250
v 73.1339 -95.139 250
v 69.1129 -98.099 250
v 64.9723 -100.889 250
v 60.7193 -103.504 250
v 56.3611 -105.941 250
v 51.9053 -108.193 250
v 47.3597 -110.259 250
v 42.7321 -112.134 250
v 38.0305 -113.814 250
v 33.2631 -115.298 250
v 28.4381 -116.582 250
v 23.5639 -117.664 250
v 18.6488 -118.542 250
v 13.7015 -119.215 250
v 8.73048 -119.682 250
v 3.74434 -119.942 250
v -1.24829 -119.993 250
v -6.23876 -119.838 250
v -11.2184 -119.475 250
v -16.1787 -118.904 250
v -21.1109 -118.128 250
v -26.0066 -117.148 250
v -30.8573 -115.965 250
v -35.6545 -114.581 250
v -40.39 -112.998 250
v -45.0556 -111.22 250
v -49.6433 -109.25 250
v -54.1449 -107.09 250
v -58.5528 -104.745 250
v -62.8594 -102.219 250
v -67.0572 -99.5155 250
v -71.1388 -96.6399 250
v -75.0973 -93.597 250
v -78.9258 -90.392 250
v -82.6176 -87.0306 250
v -86.1665 -83.5185 250
v -89.5661 -79.8618 250
v -92.8107 -76.0669 250
v -95.8947 -72.1402 250
v -98.8126 -68.0887 250
v -101.559 -63.9193 250
v -104.131 -59.6393 250
v -106.521 -55.256 250
v -108.728 -50.777 250
v -110.746 -46.2102 250
v -112.572 -41.5633 250
v -114.204 -36.8445 250
v -115.637 -32.0619 250
v -116.871 -27.2238 250
v -117.902 -22.3386 250
v -118.73 -17.4147 250
v -119.351 -12.4607 250
v -119.766 -7.48503 250
v -119.974 -2.49645 250
v -119.974 2.49645 250
v -119.766 7.48503 250
v -119.351 12.4607 250
v -118.73 17.4147 250
v -117.902 22.3386 250
v -116.871 27.2238 250
v -115.637 32.0619 250
v -114.204 36.8445 250
v -112.572 41.5633 250
v -110.746 46.2102 250
v -108.728 50.777 250
v -106.521 55.256 250
v -104.131 59.6393 250
v -101.559 63.9193 250
v -98.8126 68.0887 250
v -95.8947 72.1402 250
v -92.8107 76.0669 250
v -89.5661 79.8618 250
v -86.1665 83.5185 250
v -82.6176 87.0306 250
v -78.9258 90.392 250
v -75.0973 93.597 250
v -71.1388 96.6399 250
v -67.0572 99.5155 250
v -62.8594 102.219 250
v -58.5528 104.745 250
v -54.1449 107.09 250
v -49.6433 109.25 250
v -45.0556 111.22 250
v -40.39 112.998 250
v -35.6545 114.581 250
v -30.8573 115.965 250
v -26.0066 117.148 250
v -21.1109 118.128 250
v -16.1787 118.904 250
v -11.2184 119.475 250
v -6.23876 119.838 250
v -1.24829 119.993 250
v 3.74434 119.942 250
v 8.73048 119.682 250
v 13.7015 119.215 250
v 18.6488 118.542 250
v 23.5639 117.664 250
v 28.4381 116.582 250
v 33.2631 115.298 250
v 38.0305 113.814 250
v 42.7321 112.134 250
v 47.3597 110.259 250
v 51.9053 108.193 250
v 56.3611 105.941 250
v 60.7193 103.504 250
v 64.9723 100.889 250
v 69.1129 98.099 250
v 73.1339 95.139 250
v 77.0282 92.0144 250
v 80.7892 88.7305 250
v 84.4103 85.293 250
v 87.8853 81.7078 250
v 91.2082 77.9812 250
v 94.3731 74.1196 250
v 97.3747 70.1297 250
v 100.208 66.0183 250
v 102.867 61.7927 250
v 105.349 57.4601 250
v 107.648 53.028 250
v 109.76 48.5041 250
v 111.683 43.8963 250
v 113.412 39.2124 250
v 114.946 34.4607 250
v 116.28 29.6493 250
v 117.412 24.7866 250
v 118.342 19.881 250
v 119.066 14.9409 250
v 119.585 9.975 250
v 119.896 4.99182 250
v 114.987 -0.0764106 250
v 114.807 -5.01377 250
v 114.463 -9.98427 250
v 113.916 -14.9446 250
v 113.158 -19.8778 250
v 112.188 -24.7699 250
v 111.012 -29.5991 250
v 109.649 -34.3167 250
v 108.159 -38.7987 250
v 107.712 -42.8258 250
v 105.415 -46.5315 250
v 103.174 -50.7648 250
v 100.838 -55.1139 250
v 98.3401 -59.4188 250
v 95.6677 -63.625 250
v 92.8308 -67.7033 250
v 89.8718 -71.6127 250
v 86.9211 -75.2588 250
v 84.8803 -78.8759 250
v 81.4535 -81.479 250
v 77.8588 -84.6113 250
v 74.115 -87.8224 250
v 70.2297 -90.9362 250
v 66.211 -93.8966 250
v 62.0669 -96.6842 250
v 57.8055 -99.2904 250
v 9.44458 114.601 250
v 4.28511 114.776 250
v 53.4348 -101.709 250
v 48.9624 -103.936 250
v 44.398 -105.966 250
v 39.7505 -107.795 250
v 35.0296 -109.419 250
v 30.2472 -110.835 250
v 25.4232 -112.036 250
v 20.6025 -113.01 250
v 15.8992 -113.735 250
v 12.2858 -115.31 250
v 7.87032 -114.985 250
v 3.05488 -114.954 250
v -1.89016 -114.903 250
v -6.86532 -114.692 250
v -11.8326 -114.281 250
v -16.7634 -113.661 250
v -21.6056 -112.843 250
v -26.2295 -111.869 250
v -30.2752 -111.893 250
v -34.2214 -110.03 250
v -38.6833 -108.285 250
v -43.2705 -106.459 250
v -47.8319 -104.467 250
v -52.3152 -102.291 250
v -56.6901 -99.9373 250
v -60.9109 -97.4418 250
v -64.8693 -94.9221 250
v -68.6929 -93.3162 250
v -71.6709 -90.2051 250
v -75.1928 -86.9893 250
v -78.8096 -83.6352 250
v -82.3458 -80.1297 250
v -85.7446 -76.4743 250
v -88.9863 -72.6745 250
v -92.0618 -68.7367 250
v 13.5188 114.141 250
v -94.9662 -64.6657 250
v -97.6999 -60.4607 250
v -100.28 -56.0944 250
v -102.788 -51.4362 250
v -105.8 -45.6494 250
v -107.6 -40.5034 250
v -109.237 -35.6666 250
v -110.677 -30.8524 250
v -109.648 38.7076 250
v -111.911 -26.0035 250
v -112.935 -21.1118 250
v -113.747 -16.1806 250
v -114.345 -11.216 250
v -114.724 -6.23413 250
v -114.845 -1.24187 250
v -114.643 3.89922 250
v -113.886 9.10048 250
v -112.697 14.2715 250
v -112.788 19.0484 250
v -112.284 23.7288 250
v -111.345 28.5479 250
v -110.265 33.4762 250
v -106.151 44.6382 250
v -103.852 49.3435 250
v -101.713 53.62 250
v -100.548 57.6097 250
v -97.786 60.9273 250
v -94.9887 64.7949 250
v -92.0673 68.771 250
v -88.987 72.6837 250
v -85.7424 76.4768 250
v -82.3367 80.13 250
v -78.7755 83.6331 250
v -75.0646 86.9793 250
v -71.2088 90.1639 250
v -67.2062 93.1882 250
v -63.0318 96.0707 250
v -58.5626 98.9014 250
v -53.0575 102.29 250
v -48.0089 104.467 250
v -43.292 106.445 250
v -38.5897 108.223 250
v -33.8395 109.796 250
v -29.031 111.164 250
v -24.1663 112.324 250
v -19.261 113.266 250
v -14.3137 113.96 250
v -9.37699 114.349 250
v -4.53122 114.667 250
v 0.146718 114.824 250
v -116.283 13.4761 250
v 18.1523 113.465 250
v 22.9749 112.575 250
v 27.8156 111.475 250
v 32.605 110.173 250
v 37.2802 108.695 250
v 41.7075 107.13 250
v 45.7862 106.449 250
v 49.3952 104.087 250
v 53.5551 101.75 250
v 57.8378 99.3005 250
v 62.0758 96.686 250
v 66.2137 93.8946 250
v 70.231 90.9272 250
v 74.1167 87.7882 250
v 77.8626 84.4834 250
v 81.462 81.0183 250
v 84.9068 77.4005 250
v 88.1897 73.6367 250
v 91.3045 69.7352 250
v 94.2438 65.7056 250
v 96.9946 61.5646 250
v 99.5297 57.3488 250
v 101.788 53.1532 250
v 104.49 50.3094 250
v 105.669 46.0293 250
v 107.256 41.4779 250
v 108.868 36.8011 250
v 110.339 32.0432 250
v 111.619 27.2258 250
v 112.69 22.3728 250
v 113.543 17.5352 250
v 114.171 12.8457 250
v 115.569 9.06853 250
v 115.136 4.71513 250
# </points>

# <faces count="587">
g Mesh_2
f 290 2 1
f 290 1 291
f 291 1 3
f 291 3 292
f 292 3 4
f 292 4 293
f 293 4 5
f 293 5 294
f 294 5 6
f 294 6 295
f 295 6 7
f 295 7 296
f 296 7 8
f 296 8 297
f 297 8 9
f 297 9 298
f 299 9 10
f 299 10 300
f 300 10 11
f 300 11 301
f 301 11 12
f 301 12 302
f 302 12 13
f 302 13 303
f 303 13 14
f 303 14 304
f 304 14 15
f 304 15 305
f 305 15 16
f 305 16 306
f 306 16 17
f 306 17 307
f 308 17 18
f 308 18 309
f 309 18 19
f 309 19 310
f 310 19 20
f 310 20 311
f 311 20 21
f 311 21 312
f 312 21 22
f 312 22 313
f 313 22 23
f 313 23 314
f 314 23 24
f 314 24 315
f 106 316 317
f 318 25 26
f 318 26 319
f 319 26 27
f 319 27 320
f 320 27 28
f 320 28 321
f 321 28 29
f 321 29 322
f 322 29 30
f 322 30 323
f 323 30 31
f 323 31 324
f 324 31 32
f 324 32 325
f 325 32 33
f 325 33 326
f 327 33 34
f 327 34 328
f 328 34 35
f 328 35 329
f 329 35 36
f 329 36 330
f 330 36 37
f 330 37 331
f 331 37 38
f 331 38 332
f 332 38 39
f 332 39 333
f 333 39 40
f 333 40 334
f 334 40 41
f 334 41 335
f 336 41 42
f 336 42 337
f 337 42 43
f 337 43 338
f 338 43 44
f 338 44 339
f 339 44 45
f 339 45 340
f 340 45 46
f 340 46 341
f 341 46 47
f 341 47 342
f 342 47 48
f 342 48 343
f 343 48 49
f 343 49 344
f 345 49 50
f 345 50 346
f 346 50 51
f 346 51 347
f 347 51 52
f 347 52 348
f 348 52 53
f 348 53 349
f 349 53 54
f 349 54 350
f 350 54 55
f 350 55 351
f 351 55 56
f 351 56 352
f 254 316 353
f 254 353 255
f 354 57 58
f 354 58 355
f 355 58 59
f 355 59 356
f 356 59 60
f 356 60 357
f 357 60 61
f 357 61 358
f 358 61 62
f 358 62 359
f 359 62 63
f 359 63 360
f 360 63 64
f 360 64 361
f 362 223 222
f 363 65 66
f 363 66 364
f 364 66 67
f 364 67 365
f 365 67 68
f 365 68 366
f 366 68 69
f 366 69 367
f 367 69 70
f 367 70 368
f 368 70 71
f 368 71 369
f 369 71 72
f 369 72 370
f 317 316 254
f 317 254 253
f 371 73 74
f 371 74 372
f 372 74 75
f 372 75 373
f 373 75 76
f 373 76 374
f 374 76 77
f 374 77 375
f 375 77 78
f 375 78 362
f 362 78 79
f 362 79 376
f 376 79 80
f 376 80 377
f 377 80 81
f 377 81 378
f 379 81 82
f 379 82 380
f 380 82 83
f 380 83 381
f 381 83 84
f 381 84 382
f 382 84 85
f 382 85 383
f 383 85 86
f 383 86 384
f 384 86 87
f 384 87 385
f 385 87 88
f 385 88 386
f 223 362 376
f 223 376 224
f 387 89 90
f 387 90 388
f 388 90 91
f 388 91 389
f 389 91 92
f 389 92 390
f 390 92 93
f 390 93 391
f 391 93 94
f 391 94 392
f 392 94 95
f 392 95 393
f 393 95 96
f 393 96 394
f 205 204 358
f 395 97 98
f 395 98 396
f 396 98 99
f 396 99 397
f 397 99 100
f 397 100 398
f 398 100 101
f 398 101 399
f 399 101 102
f 399 102 400
f 400 102 103
f 400 103 401
f 401 103 104
f 401 104 402
f 402 104 105
f 402 105 403
f 216 370 371
f 216 371 404
f 316 106 107
f 316 107 353
f 353 107 108
f 353 108 405
f 405 108 109
f 405 109 406
f 406 109 110
f 406 110 407
f 407 110 111
f 407 111 408
f 408 111 112
f 408 112 409
f 409 112 113
f 409 113 410
f 411 113 114
f 411 114 412
f 412 114 115
f 412 115 413
f 413 115 116
f 413 116 414
f 414 116 117
f 414 117 415
f 415 117 118
f 415 118 416
f 416 118 119
f 416 119 417
f 417 119 120
f 417 120 418
f 358 204 203
f 358 203 357
f 419 121 122
f 419 122 420
f 420 122 123
f 420 123 421
f 421 123 124
f 421 124 422
f 422 124 125
f 422 125 423
f 423 125 126
f 423 126 424
f 424 126 127
f 424 127 425
f 425 127 128
f 425 128 426
f 426 128 129
f 426 129 427
f 428 129 130
f 428 130 429
f 429 130 131
f 429 131 430
f 430 131 132
f 430 132 431
f 431 132 133
f 431 133 432
f 432 133 134
f 432 134 433
f 433 134 135
f 433 135 434
f 434 135 136
f 434 136 435
f 435 136 137
f 435 137 436
f 437 137 138
f 437 138 438
f 438 138 2
f 438 2 290
f 291 139 140
f 291 140 290
f 293 142 141
f 293 141 292
f 295 144 143
f 295 143 294
f 296 145 144
f 296 144 295
f 297 146 145
f 297 145 296
f 298 147 146
f 298 146 297
f 299 148 147
f 299 147 298
f 300 149 148
f 300 148 299
f 301 150 149
f 301 149 300
f 302 151 150
f 302 150 301
f 303 152 151
f 303 151 302
f 304 153 152
f 304 152 303
f 305 154 153
f 305 153 304
f 306 155 154
f 306 154 305
f 307 156 155
f 307 155 306
f 308 157 156
f 308 156 307
f 309 158 157
f 309 157 308
f 310 159 158
f 310 158 309
f 311 160 159
f 311 159 310
f 312 161 160
f 312 160 311
f 313 162 161
f 313 161 312
f 314 163 162
f 314 162 313
f 315 164 163
f 315 163 314
f 317 403 105
f 317 105 106
f 320 167 166
f 320 166 319
f 321 168 167
f 321 167 320
f 322 169 168
f 322 168 321
f 323 170 169
f 323 169 322
f 324 171 170
f 324 170 323
f 325 172 171
f 325 171 324
f 326 173 172
f 326 172 325
f 327 174 173
f 327 173 326
f 328 175 174
f 328 174 327
f 329 176 175
f 329 175 328
f 330 177 176
f 330 176 329
f 332 179 178
f 332 178 331
f 334 181 180
f 334 180 333
f 335 182 181
f 335 181 334
f 336 183 182
f 336 182 335
f 337 184 183
f 337 183 336
f 338 185 184
f 338 184 337
f 339 186 185
f 339 185 338
f 340 187 186
f 340 186 339
f 341 188 187
f 341 187 340
f 342 189 188
f 342 188 341
f 343 190 189
f 343 189 342
f 344 191 190
f 344 190 343
f 345 192 191
f 345 191 344
f 346 193 192
f 346 192 345
f 347 194 193
f 347 193 346
f 348 195 194
f 348 194 347
f 349 196 195
f 349 195 348
f 350 197 196
f 350 196 349
f 351 198 197
f 351 197 350
f 352 199 198
f 352 198 351
f 370 72 73
f 370 73 371
f 356 202 201
f 356 201 355
f 357 203 202
f 357 202 356
f 217 216 404
f 217 404 218
f 359 206 205
f 359 205 358
f 360 207 206
f 360 206 359
f 361 208 207
f 361 207 360
f 252 403 317
f 252 317 253
f 365 211 210
f 365 210 364
f 366 212 211
f 366 211 365
f 367 213 212
f 367 212 366
f 368 214 213
f 368 213 367
f 370 216 215
f 370 215 369
f 269 418 419
f 269 419 270
f 373 219 218
f 373 218 372
f 374 220 219
f 374 219 373
f 375 221 220
f 375 220 374
f 362 222 221
f 362 221 375
f 418 120 121
f 418 121 419
f 377 225 224
f 377 224 376
f 378 226 225
f 378 225 377
f 379 227 226
f 379 226 378
f 380 228 227
f 380 227 379
f 381 229 228
f 381 228 380
f 382 230 229
f 382 229 381
f 383 231 230
f 383 230 382
f 384 232 231
f 384 231 383
f 385 233 232
f 385 232 384
f 386 234 233
f 386 233 385
f 243 394 395
f 243 395 244
f 389 237 236
f 389 236 388
f 390 238 237
f 390 237 389
f 391 239 238
f 391 238 390
f 392 240 239
f 392 239 391
f 393 242 241
f 393 241 392
f 394 243 242
f 394 242 393
f 394 96 97
f 394 97 395
f 397 246 245
f 397 245 396
f 398 247 246
f 398 246 397
f 399 248 247
f 399 247 398
f 400 249 248
f 400 248 399
f 401 250 249
f 401 249 400
f 402 251 250
f 402 250 401
f 234 386 387
f 234 387 235
f 386 88 89
f 386 89 387
f 405 256 255
f 405 255 353
f 406 257 256
f 406 256 405
f 407 258 257
f 407 257 406
f 408 259 258
f 408 258 407
f 409 260 259
f 409 259 408
f 410 261 260
f 410 260 409
f 411 262 261
f 411 261 410
f 412 263 262
f 412 262 411
f 413 264 263
f 413 263 412
f 414 265 264
f 414 264 413
f 415 266 265
f 415 265 414
f 416 267 266
f 416 266 415
f 417 268 267
f 417 267 416
f 418 269 268
f 418 268 417
f 208 361 363
f 208 363 209
f 421 272 271
f 421 271 420
f 422 273 272
f 422 272 421
f 423 274 273
f 423 273 422
f 424 275 274
f 424 274 423
f 425 276 275
f 425 275 424
f 426 277 276
f 426 276 425
f 427 278 277
f 427 277 426
f 428 279 278
f 428 278 427
f 429 280 279
f 429 279 428
f 430 281 280
f 430 280 429
f 431 282 281
f 431 281 430
f 432 283 282
f 432 282 431
f 433 284 283
f 433 283 432
f 434 285 284
f 434 284 433
f 435 286 285
f 435 285 434
f 436 287 286
f 436 286 435
f 437 288 287
f 437 287 436
f 438 289 288
f 438 288 437
f 290 140 289
f 290 289 438
f 180 179 332
f 180 332 333
f 330 331 178
f 330 178 177
f 368 369 215
f 368 215 214
f 141 139 291
f 141 291 292
f 293 294 143
f 293 143 142
f 319 166 165
f 319 165 318
f 355 201 200
f 355 200 354
f 364 210 209
f 364 209 363
f 388 236 235
f 388 235 387
f 396 245 244
f 396 244 395
f 420 271 270
f 420 270 419
f 361 64 65
f 361 65 363
f 199 352 354
f 199 354 200
f 352 56 57
f 352 57 354
f 164 315 318
f 164 318 165
f 315 24 25
f 315 25 318
f 402 403 252
f 402 252 251
f 404 371 372
f 404 372 218
f 241 240 392
f 298 9 299
f 307 17 308
f 326 33 327
f 335 41 336
f 344 49 345
f 378 81 379
f 410 113 411
f 427 129 428
f 436 137 437
# </faces>
