# Wavefront OBJ file written 2026-03-25T11:44:02
o cellFull_2170_edgeMesh

# points : 729
# lines  : 729

# <points count="729">
v 0.0096150199 -0.00043807799 0.0583333
v 0.0096249999 0 0.0583333
v 0.0095851002 -0.00087524502 0.0583333
v 0.0095354002 -0.0013106 0.0583333
v 0.0094658397 -0.0017432499 0.0583333
v 0.0093766702 -0.0021722701 0.0583333
v 0.0092680901 -0.00259679 0.0583333
v 0.0091402503 -0.0030159301 0.0583333
v 0.0089935102 -0.0034288301 0.0583333
v 0.0088281399 -0.0038346101 0.0583333
v 0.0086444803 -0.0042324499 0.0583333
v 0.0084428797 -0.0046215099 0.0583333
v 0.0082237804 -0.0050009899 0.0583333
v 0.0079876501 -0.0053701098 0.0583333
v 0.0077349502 -0.0057281102 0.0583333
v 0.0074662198 -0.0060742199 0.0583333
v 0.0071820202 -0.0064077498 0.0583333
v 0.0068829302 -0.006728 0.0583333
v 0.0065695699 -0.0070342999 0.0583333
v 0.0062425998 -0.0073260199 0.0583333
v 0.0059026899 -0.0076025599 0.0583333
v 0.0055505498 -0.00786334 0.0583333
v 0.0051869 -0.0081078196 0.0583333
v 0.0048125 -0.0083355 0.0583333
v 0.0044281301 -0.0085458998 0.0583333
v 0.00403457 -0.0087385802 0.0583333
v 0.00363266 -0.0089131901 0.0583333
v 0.0032232199 -0.00906929 0.0583333
v 0.0028071001 -0.00920658 0.0583333
v 0.0023851499 -0.00932479 0.0583333
v 0.0019582701 -0.0094236601 0.0583333
v 0.00152732 -0.0095030302 0.0583333
v 0.00109321 -0.0095627001 0.0583333
v 0.00065683399 -0.0096025998 0.0583333
v 0.00021909599 -0.0096224602 0.0583333
v -0.00021909599 -0.0096224602 0.0583333
v -0.00065683399 -0.0096025998 0.0583333
v -0.00109321 -0.0095627001 0.0583333
v -0.00152732 -0.0095030302 0.0583333
v -0.0019582701 -0.0094236601 0.0583333
v -0.0023851499 -0.00932479 0.0583333
v -0.0028071001 -0.00920658 0.0583333
v -0.0032232199 -0.00906929 0.0583333
v -0.00363266 -0.0089131901 0.0583333
v -0.00403457 -0.0087385802 0.0583333
v -0.0044281301 -0.0085458998 0.0583333
v -0.0048125 -0.0083355 0.0583333
v -0.0051869 -0.0081078196 0.0583333
v -0.0055505498 -0.00786334 0.0583333
v -0.0059026899 -0.0076025599 0.0583333
v -0.0062425998 -0.0073260199 0.0583333
v -0.0065695699 -0.0070342999 0.0583333
v -0.0068829302 -0.006728 0.0583333
v -0.0071820202 -0.0064077498 0.0583333
v -0.0074662198 -0.0060742199 0.0583333
v -0.0077349502 -0.0057281102 0.0583333
v -0.0079876501 -0.0053701098 0.0583333
v -0.0082237804 -0.0050009899 0.0583333
v -0.0084428797 -0.0046215099 0.0583333
v -0.0086444803 -0.0042324499 0.0583333
v -0.0088281399 -0.0038346101 0.0583333
v -0.0089935102 -0.0034288301 0.0583333
v -0.0091402503 -0.0030159301 0.0583333
v -0.0092680901 -0.00259679 0.0583333
v -0.0093766702 -0.0021722701 0.0583333
v -0.0094658397 -0.0017432499 0.0583333
v -0.0095354002 -0.0013106 0.0583333
v -0.0095851002 -0.00087524502 0.0583333
v -0.0096150199 -0.00043807799 0.0583333
v -0.0096249999 2.44674e-17 0.0583333
v -0.0096150199 0.00043807799 0.0583333
v -0.0095851002 0.00087524502 0.0583333
v -0.0095354002 0.0013106 0.0583333
v -0.0094658397 0.0017432499 0.0583333
v -0.0093766702 0.0021722701 0.0583333
v -0.0092680901 0.00259679 0.0583333
v -0.0091402503 0.0030159301 0.0583333
v -0.0089935102 0.0034288301 0.0583333
v -0.0088281399 0.0038346101 0.0583333
v -0.0086444803 0.0042324499 0.0583333
v -0.0084428797 0.0046215099 0.0583333
v -0.0082237804 0.0050009899 0.0583333
v -0.0079876501 0.0053701098 0.0583333
v -0.0077349502 0.0057281102 0.0583333
v -0.0074662198 0.0060742199 0.0583333
v -0.0071820202 0.0064077498 0.0583333
v -0.0068829302 0.006728 0.0583333
v -0.0065695699 0.0070342999 0.0583333
v -0.0062425998 0.0073260199 0.0583333
v -0.0059026899 0.0076025599 0.0583333
v -0.0055505498 0.00786334 0.0583333
v -0.0051869 0.0081078196 0.0583333
v -0.0048125 0.0083355 0.0583333
v -0.0044281301 0.0085458998 0.0583333
v -0.00403457 0.0087385802 0.0583333
v -0.00363266 0.0089131901 0.0583333
v -0.0032232199 0.00906929 0.0583333
v -0.0028071001 0.00920658 0.0583333
v -0.0023851499 0.00932479 0.0583333
v -0.0019582701 0.0094236601 0.0583333
v -0.00152732 0.0095030302 0.0583333
v -0.00109321 0.0095627001 0.0583333
v -0.00065683399 0.0096025998 0.0583333
v -0.00021909599 0.0096224602 0.0583333
v 0.00021909599 0.0096224602 0.0583333
v 0.00065683399 0.0096025998 0.0583333
v 0.00109321 0.0095627001 0.0583333
v 0.00152732 0.0095030302 0.0583333
v 0.0019582701 0.0094236601 0.0583333
v 0.0023851499 0.00932479 0.0583333
v 0.0028071001 0.00920658 0.0583333
v 0.0032232199 0.00906929 0.0583333
v 0.00363266 0.0089131901 0.0583333
v 0.00403457 0.0087385802 0.0583333
v 0.0044281301 0.0085458998 0.0583333
v 0.0048125 0.0083355 0.0583333
v 0.0051869 0.0081078196 0.0583333
v 0.0055505498 0.00786334 0.0583333
v 0.0059026899 0.0076025599 0.0583333
v 0.0062425998 0.0073260199 0.0583333
v 0.0065695699 0.0070342999 0.0583333
v 0.0068829302 0.006728 0.0583333
v 0.0071820202 0.0064077498 0.0583333
v 0.0074662198 0.0060742199 0.0583333
v 0.0077349502 0.0057281102 0.0583333
v 0.0079876501 0.0053701098 0.0583333
v 0.0082237804 0.0050009899 0.0583333
v 0.0084428797 0.0046215099 0.0583333
v 0.0086444803 0.0042324499 0.0583333
v 0.0088281399 0.0038346101 0.0583333
v 0.0089935102 0.0034288301 0.0583333
v 0.0091402503 0.0030159301 0.0583333
v 0.0092680901 0.00259679 0.0583333
v 0.0093766702 0.0021722701 0.0583333
v 0.0094658397 0.0017432499 0.0583333
v 0.0095354002 0.0013106 0.0583333
v 0.0095851002 0.00087524502 0.0583333
v 0.0096150199 0.00043807799 0.0583333
v 0.0104909 -0.000436784 0.0583333
v 0.0105 0 0.0583333
v 0.0104637 -0.00087281299 0.0583333
v 0.0104183 -0.00130733 0.0583333
v 0.0103549 -0.00173959 0.0583333
v 0.0102736 -0.00216883 0.0583333
v 0.0101745 -0.0025943101 0.0583333
v 0.0100578 -0.00301531 0.0583333
v 0.0099235503 -0.0034310799 0.0583333
v 0.0097722597 -0.0038409301 0.0583333
v 0.0096039996 -0.0042441101 0.0583333
v 0.0094192 -0.0046399501 0.0583333
v 0.0092180399 -0.0050277598 0.0583333
v 0.0090008602 -0.0054068598 0.0583333
v 0.0087681999 -0.0057766 0.0583333
v 0.0085202903 -0.0061363499 0.0583333
v 0.0082576498 -0.0064854599 0.0583333
v 0.0079807201 -0.0068233502 0.0583333
v 0.0076899598 -0.00714943 0.0583333
v 0.0073858998 -0.0074631399 0.0583333
v 0.0070690601 -0.0077639199 0.0583333
v 0.0067399698 -0.0080512604 0.0583333
v 0.0063992199 -0.0083246604 0.0583333
v 0.0060473802 -0.0085836602 0.0583333
v 0.0056850798 -0.0088277897 0.0583333
v 0.0053129401 -0.0090565998 0.0583333
v 0.0049315998 -0.0092698401 0.0583333
v 0.00454171 -0.0094668902 0.0583333
v 0.0041439701 -0.00964766 0.0583333
v 0.0037390599 -0.0098117301 0.0583333
v 0.00332767 -0.0099587198 0.0583333
v 0.00291052 -0.0100886 0.0583333
v 0.00248833 -0.0102009 0.0583333
v 0.0020618399 -0.0102956 0.0583333
v 0.0016317701 -0.0103724 0.0583333
v 0.00119888 -0.0104313 0.0583333
v 0.00076391699 -0.0104722 0.0583333
v 0.00032763 -0.0104949 0.0583333
v -0.000109225 -0.0104994 0.0583333
v -0.000545891 -0.0104858 0.0583333
v -0.00098161004 -0.0104541 0.0583333
v -0.00141564 -0.0104041 0.0583333
v -0.0018472 -0.0103362 0.0583333
v -0.0022755801 -0.0102504 0.0583333
v -0.0027000101 -0.0101469 0.0583333
v -0.00311977 -0.0100258 0.0583333
v -0.00353412 -0.0098873302 0.0583333
v -0.0039423699 -0.00973175 0.0583333
v -0.00434379 -0.0095593799 0.0583333
v -0.0047376798 -0.0093703698 0.0583333
v -0.0051233699 -0.0091651902 0.0583333
v -0.0055002002 -0.0089441603 0.0583333
v -0.0058674999 -0.00870761 0.0583333
v -0.0062246402 -0.0084559899 0.0583333
v -0.0065710102 -0.0081897397 0.0583333
v -0.0069060102 -0.0079092998 0.0583333
v -0.0072290399 -0.0076151802 0.0583333
v -0.0075395699 -0.0073078698 0.0583333
v -0.0078370301 -0.0069879098 0.0583333
v -0.0081209401 -0.00665585 0.0583333
v -0.0083907899 -0.0063122702 0.0583333
v -0.0086460998 -0.0059577599 0.0583333
v -0.0088864099 -0.0055929399 0.0583333
v -0.0091114603 -0.0052184402 0.0583333
v -0.0093205897 -0.0048349001 0.0583333
v -0.0095137004 -0.0044429898 0.0583333
v -0.0096902801 -0.00404339 0.0583333
v -0.0098500503 -0.00363679 0.0583333
v -0.00999285 -0.00322389 0.0583333
v -0.0101182 -0.00280542 0.0583333
v -0.0102262 -0.0023820801 0.0583333
v -0.0103164 -0.00195463 0.0583333
v -0.0103889 -0.0015237899 0.0583333
v -0.0104432 -0.00109031 0.0583333
v -0.0104795 -0.00065494003 0.0583333
v -0.0104977 -0.000218439 0.0583333
v -0.0104977 0.000218439 0.0583333
v -0.0104795 0.00065494003 0.0583333
v -0.0104432 0.00109031 0.0583333
v -0.0103889 0.0015237899 0.0583333
v -0.0103164 0.00195463 0.0583333
v -0.0102262 0.0023820801 0.0583333
v -0.0101182 0.00280542 0.0583333
v -0.00999285 0.00322389 0.0583333
v -0.0098500503 0.00363679 0.0583333
v -0.0096902801 0.00404339 0.0583333
v -0.0095137004 0.0044429898 0.0583333
v -0.0093205897 0.0048349001 0.0583333
v -0.0091114603 0.0052184402 0.0583333
v -0.0088864099 0.0055929399 0.0583333
v -0.0086460998 0.0059577599 0.0583333
v -0.0083907899 0.0063122702 0.0583333
v -0.0081209401 0.00665585 0.0583333
v -0.0078370301 0.0069879098 0.0583333
v -0.0075395699 0.0073078698 0.0583333
v -0.0072290399 0.0076151802 0.0583333
v -0.0069060102 0.0079092998 0.0583333
v -0.0065710102 0.0081897397 0.0583333
v -0.0062246402 0.0084559899 0.0583333
v -0.0058674999 0.00870761 0.0583333
v -0.0055002002 0.0089441603 0.0583333
v -0.0051233699 0.0091651902 0.0583333
v -0.0047376798 0.0093703698 0.0583333
v -0.00434379 0.0095593799 0.0583333
v -0.0039423699 0.00973175 0.0583333
v -0.00353412 0.0098873302 0.0583333
v -0.00311977 0.0100258 0.0583333
v -0.0027000101 0.0101469 0.0583333
v -0.0022755801 0.0102504 0.0583333
v -0.0018472 0.0103362 0.0583333
v -0.00141564 0.0104041 0.0583333
v -0.00098161004 0.0104541 0.0583333
v -0.000545891 0.0104858 0.0583333
v -0.000109225 0.0104994 0.0583333
v 0.00032763 0.0104949 0.0583333
v 0.00076391699 0.0104722 0.0583333
v 0.00119888 0.0104313 0.0583333
v 0.0016317701 0.0103724 0.0583333
v 0.0020618399 0.0102956 0.0583333
v 0.00248833 0.0102009 0.0583333
v 0.00291052 0.0100886 0.0583333
v 0.00332767 0.0099587198 0.0583333
v 0.0037390599 0.0098117301 0.0583333
v 0.0041439701 0.00964766 0.0583333
v 0.00454171 0.0094668902 0.0583333
v 0.0049315998 0.0092698401 0.0583333
v 0.0053129401 0.0090565998 0.0583333
v 0.0056850798 0.0088277897 0.0583333
v 0.0060473802 0.0085836602 0.0583333
v 0.0063992199 0.0083246604 0.0583333
v 0.0067399698 0.0080512604 0.0583333
v 0.0070690601 0.0077639199 0.0583333
v 0.0073858998 0.0074631399 0.0583333
v 0.0076899598 0.00714943 0.0583333
v 0.0079807201 0.0068233502 0.0583333
v 0.0082576498 0.0064854599 0.0583333
v 0.0085202903 0.0061363499 0.0583333
v 0.0087681999 0.0057766 0.0583333
v 0.0090008602 0.0054068598 0.0583333
v 0.0092180399 0.0050277598 0.0583333
v 0.0094192 0.0046399501 0.0583333
v 0.0096039996 0.0042441101 0.0583333
v 0.0097722597 0.0038409301 0.0583333
v 0.0099235503 0.0034310799 0.0583333
v 0.0100578 0.00301531 0.0583333
v 0.0101745 0.0025943101 0.0583333
v 0.0102736 0.00216883 0.0583333
v 0.0103549 0.00173959 0.0583333
v 0.0104183 0.00130733 0.0583333
v 0.0104637 0.00087281299 0.0583333
v 0.0104909 0.000436784 0.0583333
v 0.0096249999 0 0.00233333
v 0.0096150199 -0.00043807799 0.00233333
v 0.0095851002 -0.00087524502 0.00233333
v 0.0095354002 -0.0013106 0.00233333
v 0.0094658397 -0.0017432499 0.00233333
v 0.0093766702 -0.0021722701 0.00233333
v 0.0092680901 -0.00259679 0.00233333
v 0.0091402503 -0.0030159301 0.00233333
v 0.0089935102 -0.0034288301 0.00233333
v 0.0088281399 -0.0038346101 0.00233333
v 0.0086444803 -0.0042324499 0.00233333
v 0.0084428797 -0.0046215099 0.00233333
v 0.0082237804 -0.0050009899 0.00233333
v 0.0079876501 -0.0053701098 0.00233333
v 0.0077349502 -0.0057281102 0.00233333
v 0.0074662198 -0.0060742199 0.00233333
v 0.0071820202 -0.0064077498 0.00233333
v 0.0068829302 -0.006728 0.00233333
v 0.0065695699 -0.0070342999 0.00233333
v 0.0062425998 -0.0073260199 0.00233333
v 0.0059026899 -0.0076025599 0.00233333
v 0.0055505498 -0.00786334 0.00233333
v 0.0051869 -0.0081078196 0.00233333
v 0.0048125 -0.0083355 0.00233333
v 0.0044281301 -0.0085458998 0.00233333
v 0.00403457 -0.0087385802 0.00233333
v 0.00363266 -0.0089131901 0.00233333
v 0.0032232199 -0.00906929 0.00233333
v 0.0028071001 -0.00920658 0.00233333
v 0.0023851499 -0.00932479 0.00233333
v 0.0019582701 -0.0094236601 0.00233333
v 0.00152732 -0.0095030302 0.00233333
v 0.00109321 -0.0095627001 0.00233333
v 0.00065683399 -0.0096025998 0.00233333
v 0.00021909599 -0.0096224602 0.00233333
v -0.00021909599 -0.0096224602 0.00233333
v -0.00065683399 -0.0096025998 0.00233333
v -0.00109321 -0.0095627001 0.00233333
v -0.00152732 -0.0095030302 0.00233333
v -0.0019582701 -0.0094236601 0.00233333
v -0.0023851499 -0.00932479 0.00233333
v -0.0028071001 -0.00920658 0.00233333
v -0.0032232199 -0.00906929 0.00233333
v -0.00363266 -0.0089131901 0.00233333
v -0.00403457 -0.0087385802 0.00233333
v -0.0044281301 -0.0085458998 0.00233333
v -0.0048125 -0.0083355 0.00233333
v -0.0051869 -0.0081078196 0.00233333
v -0.0055505498 -0.00786334 0.00233333
v -0.0059026899 -0.0076025599 0.00233333
v -0.0062425998 -0.0073260199 0.00233333
v -0.0065695699 -0.0070342999 0.00233333
v -0.0068829302 -0.006728 0.00233333
v -0.0071820202 -0.0064077498 0.00233333
v -0.0074662198 -0.0060742199 0.00233333
v -0.0077349502 -0.0057281102 0.00233333
v -0.0079876501 -0.0053701098 0.00233333
v -0.0082237804 -0.0050009899 0.00233333
v -0.0084428797 -0.0046215099 0.00233333
v -0.0086444803 -0.0042324499 0.00233333
v -0.0088281399 -0.0038346101 0.00233333
v -0.0089935102 -0.0034288301 0.00233333
v -0.0091402503 -0.0030159301 0.00233333
v -0.0092680901 -0.00259679 0.00233333
v -0.0093766702 -0.0021722701 0.00233333
v -0.0094658397 -0.0017432499 0.00233333
v -0.0095354002 -0.0013106 0.00233333
v -0.0095851002 -0.00087524502 0.00233333
v -0.0096150199 -0.00043807799 0.00233333
v -0.0096249999 2.44674e-17 0.00233333
v -0.0096150199 0.00043807799 0.00233333
v -0.0095851002 0.00087524502 0.00233333
v -0.0095354002 0.0013106 0.00233333
v -0.0094658397 0.0017432499 0.00233333
v -0.0093766702 0.0021722701 0.00233333
v -0.0092680901 0.00259679 0.00233333
v -0.0091402503 0.0030159301 0.00233333
v -0.0089935102 0.0034288301 0.00233333
v -0.0088281399 0.0038346101 0.00233333
v -0.0086444803 0.0042324499 0.00233333
v -0.0084428797 0.0046215099 0.00233333
v -0.0082237804 0.0050009899 0.00233333
v -0.0079876501 0.0053701098 0.00233333
v -0.0077349502 0.0057281102 0.00233333
v -0.0074662198 0.0060742199 0.00233333
v -0.0071820202 0.0064077498 0.00233333
v -0.0068829302 0.006728 0.00233333
v -0.0065695699 0.0070342999 0.00233333
v -0.0062425998 0.0073260199 0.00233333
v -0.0059026899 0.0076025599 0.00233333
v -0.0055505498 0.00786334 0.00233333
v -0.0051869 0.0081078196 0.00233333
v -0.0048125 0.0083355 0.00233333
v -0.0044281301 0.0085458998 0.00233333
v -0.00403457 0.0087385802 0.00233333
v -0.00363266 0.0089131901 0.00233333
v -0.0032232199 0.00906929 0.00233333
v -0.0028071001 0.00920658 0.00233333
v -0.0023851499 0.00932479 0.00233333
v -0.0019582701 0.0094236601 0.00233333
v -0.00152732 0.0095030302 0.00233333
v -0.00109321 0.0095627001 0.00233333
v -0.00065683399 0.0096025998 0.00233333
v -0.00021909599 0.0096224602 0.00233333
v 0.00021909599 0.0096224602 0.00233333
v 0.00065683399 0.0096025998 0.00233333
v 0.00109321 0.0095627001 0.00233333
v 0.00152732 0.0095030302 0.00233333
v 0.0019582701 0.0094236601 0.00233333
v 0.0023851499 0.00932479 0.00233333
v 0.0028071001 0.00920658 0.00233333
v 0.0032232199 0.00906929 0.00233333
v 0.00363266 0.0089131901 0.00233333
v 0.00403457 0.0087385802 0.00233333
v 0.0044281301 0.0085458998 0.00233333
v 0.0048125 0.0083355 0.00233333
v 0.0051869 0.0081078196 0.00233333
v 0.0055505498 0.00786334 0.00233333
v 0.0059026899 0.0076025599 0.00233333
v 0.0062425998 0.0073260199 0.00233333
v 0.0065695699 0.0070342999 0.00233333
v 0.0068829302 0.006728 0.00233333
v 0.0071820202 0.0064077498 0.00233333
v 0.0074662198 0.0060742199 0.00233333
v 0.0077349502 0.0057281102 0.00233333
v 0.0079876501 0.0053701098 0.00233333
v 0.0082237804 0.0050009899 0.00233333
v 0.0084428797 0.0046215099 0.00233333
v 0.0086444803 0.0042324499 0.00233333
v 0.0088281399 0.0038346101 0.00233333
v 0.0089935102 0.0034288301 0.00233333
v 0.0091402503 0.0030159301 0.00233333
v 0.0092680901 0.00259679 0.00233333
v 0.0093766702 0.0021722701 0.00233333
v 0.0094658397 0.0017432499 0.00233333
v 0.0095354002 0.0013106 0.00233333
v 0.0095851002 0.00087524502 0.00233333
v 0.0096150199 0.00043807799 0.00233333
v 0.00332767 0.0099587198 0.07
v 0.0037390599 0.0098117301 0.07
v 0.0041439701 0.00964766 0.07
v -0.0051233699 0.0091651902 0.07
v -0.0047376798 0.0093703698 0.07
v -0.0102262 -0.0023820801 0.07
v -0.0103164 -0.00195463 0.07
v -0.0051233699 -0.0091651902 0.07
v -0.0055002002 -0.0089441603 0.07
v -0.0103889 -0.0015237899 0.07
v 0.0104909 0.000436784 0.07
v 0.0105 0 0.07
v 0.0073858998 -0.0074631399 0.07
v 0.0070690601 -0.0077639199 0.07
v 0.00454171 0.0094668902 0.07
v 0.0067399698 -0.0080512604 0.07
v -0.0104432 -0.00109031 0.07
v 0.0063992199 -0.0083246604 0.07
v 0.00076391699 0.0104722 -1.46166e-33
v 0.00032763 0.0104949 -6.2687998e-34
v 0.00119888 0.0104313 -2.2939199e-33
v -0.0098500503 0.00363679 1.8846899e-32
v -0.00999285 0.00322389 1.91201e-32
v -0.0096902801 0.00404339 1.85411e-32
v -0.0096902801 -0.00404339 1.85411e-32
v -0.0095137004 -0.0044429898 1.82032e-32
v -0.000109225 0.0104994 2.0898999e-34
v -0.0093205897 -0.0048349001 1.7833899e-32
v 0.0104909 -0.000436784 -2.00731e-32
v 0.0105 0 0
v 0.0104183 -0.00130733 -1.9934099e-32
v 0.0104637 -0.00087281299 -2.0020899e-32
v 0.0102736 -0.00216883 -1.96572e-32
v 0.0103549 -0.00173959 -1.98128e-32
v 0.0101745 -0.0025943101 -1.94676e-32
v 0.0100578 -0.00301531 -1.92442e-32
v 0.0099235503 -0.0034310799 -1.89876e-32
v 0.0097722597 -0.0038409301 -1.8698099e-32
v 0.0096039996 -0.0042441101 -1.83762e-32
v 0.0094192 -0.0046399501 -1.80225e-32
v 0.0092180399 -0.0050277598 -1.7637601e-32
v 0.0090008602 -0.0054068598 -1.72221e-32
v 0.0087681999 -0.0057766 -1.6776799e-32
v 0.0085202903 -0.0061363499 -1.6302501e-32
v 0.0082576498 -0.0064854599 -1.58e-32
v 0.0079807201 -0.0068233502 -1.5270101e-32
v 0.0076899598 -0.00714943 -1.4713799e-32
v 0.0073858998 -0.0074631399 -1.4132e-32
v 0.0070690601 -0.0077639199 -1.3525799e-32
v 0.0067399698 -0.0080512604 -1.28961e-32
v 0.0063992199 -0.0083246604 -1.22441e-32
v 0.0060473802 -0.0085836602 -1.15709e-32
v 0.0056850798 -0.0088277897 -1.08777e-32
v 0.0053129401 -0.0090565998 -1.01657e-32
v -0.000545891 0.0104858 1.0445e-33
v 0.0041439701 -0.00964766 -7.92899e-33
v 0.00454171 -0.0094668902 -8.6900301e-33
v 0.0037390599 -0.0098117301 -7.1542298e-33
v 0.00332767 -0.0099587198 -6.3670798e-33
v 0.00291052 -0.0100886 -5.5689199e-33
v 0.00248833 -0.0102009 -4.7611198e-33
v 0.0020618399 -0.0102956 -3.9450799e-33
v 0.0016317701 -0.0103724 -3.1221901e-33
v 0.00119888 -0.0104313 -2.2939199e-33
v 0.00076391699 -0.0104722 -1.46166e-33
v 0.00032763 -0.0104949 -6.2687998e-34
v -0.000109225 -0.0104994 2.0898999e-34
v -0.00098161004 -0.0104541 1.8781999e-33
v -0.000545891 -0.0104858 1.0445e-33
v -0.0018472 -0.0103362 3.5343901e-33
v -0.00141564 -0.0104041 2.7086499e-33
v -0.0022755801 -0.0102504 4.3540502e-33
v -0.0027000101 -0.0101469 5.1661401e-33
v -0.00311977 -0.0100258 5.9692999e-33
v -0.00353412 -0.0098873302 6.76214e-33
v -0.0039423699 -0.00973175 7.5432501e-33
v -0.00434379 -0.0095593799 8.31131e-33
v -0.0047376798 -0.0093703698 9.0649797e-33
v -0.0051233699 -0.0091651902 9.8029602e-33
v -0.0055002002 -0.0089441603 1.0524e-32
v -0.0058674999 -0.00870761 1.12267e-32
v -0.0062246402 -0.0084559899 1.19101e-32
v -0.0065710102 -0.0081897397 1.25728e-32
v -0.0069060102 -0.0079092998 1.32138e-32
v -0.0072290399 -0.0076151802 1.3831899e-32
v -0.0075395699 -0.0073078698 1.4426e-32
v -0.0078370301 -0.0069879098 1.49952e-32
v -0.0081209401 -0.00665585 1.55384e-32
v -0.0083907899 -0.0063122702 1.60548e-32
v -0.0091114603 -0.0052184402 1.7433599e-32
v -0.0088864099 -0.0055929399 1.70031e-32
v -0.0104432 0.00109031 1.9981899e-32
v -0.0104795 0.00065494003 2.00514e-32
v -0.0098500503 -0.00363679 1.8846899e-32
v -0.00999285 -0.00322389 1.91201e-32
v -0.0101182 -0.00280542 1.93601e-32
v -0.0103889 0.0015237899 1.98778e-32
v -0.0103889 -0.0015237899 1.98778e-32
v -0.0103164 -0.00195463 1.9739299e-32
v -0.0104432 -0.00109031 1.9981899e-32
v -0.0104795 -0.00065494003 2.00514e-32
v -0.0104977 -0.000218439 2.00861e-32
v -0.0104977 0.000218439 2.00861e-32
v 0.0070690601 0.0077639199 -1.3525799e-32
v 0.0067399698 0.0080512604 -1.28961e-32
v -0.0103164 0.00195463 1.9739299e-32
v -0.0102262 0.0023820801 1.95666e-32
v -0.0101182 0.00280542 1.93601e-32
v -0.0095137004 0.0044429898 1.82032e-32
v -0.0093205897 0.0048349001 1.7833899e-32
v -0.0091114603 0.0052184402 1.7433599e-32
v -0.0088864099 0.0055929399 1.70031e-32
v -0.0086460998 0.0059577599 1.6543301e-32
v -0.0083907899 0.0063122702 1.60548e-32
v -0.0081209401 0.00665585 1.55384e-32
v -0.0078370301 0.0069879098 1.49952e-32
v -0.0075395699 0.0073078698 1.4426e-32
v -0.0072290399 0.0076151802 1.3831899e-32
v -0.00353412 0.0098873302 6.76214e-33
v -0.0039423699 0.00973175 7.5432501e-33
v -0.0062246402 0.0084559899 1.19101e-32
v -0.0065710102 0.0081897397 1.25728e-32
v -0.0058674999 0.00870761 1.12267e-32
v -0.0055002002 0.0089441603 1.0524e-32
v -0.0051233699 0.0091651902 9.8029602e-33
v -0.00434379 0.0095593799 8.31131e-33
v -0.0047376798 0.0093703698 9.0649797e-33
v -0.0027000101 0.0101469 5.1661401e-33
v -0.00311977 0.0100258 5.9692999e-33
v -0.0022755801 0.0102504 4.3540502e-33
v -0.0018472 0.0103362 3.5343901e-33
v -0.00141564 0.0104041 2.7086499e-33
v -0.00098161004 0.0104541 1.8781999e-33
v -0.0069060102 0.0079092998 1.32138e-32
v 0.0016317701 0.0103724 -3.1221901e-33
v 0.0020618399 0.0102956 -3.9450799e-33
v 0.00248833 0.0102009 -4.7611198e-33
v 0.00291052 0.0100886 -5.5689199e-33
v 0.00332767 0.0099587198 -6.3670798e-33
v 0.0037390599 0.0098117301 -7.1542298e-33
v 0.0041439701 0.00964766 -7.92899e-33
v 0.00454171 0.0094668902 -8.6900301e-33
v 0.0049315998 0.0092698401 -9.4360003e-33
v 0.0053129401 0.0090565998 -1.01657e-32
v 0.0056850798 0.0088277897 -1.08777e-32
v 0.0060473802 0.0085836602 -1.15709e-32
v 0.0063992199 0.0083246604 -1.22441e-32
v -0.0102262 -0.0023820801 1.95666e-32
v 0.0076899598 0.00714943 -1.4713799e-32
v 0.0073858998 0.0074631399 -1.4132e-32
v 0.0079807201 0.0068233502 -1.5270101e-32
v 0.0082576498 0.0064854599 -1.58e-32
v 0.0085202903 0.0061363499 -1.6302501e-32
v 0.0087681999 0.0057766 -1.6776799e-32
v 0.0090008602 0.0054068598 -1.72221e-32
v 0.0092180399 0.0050277598 -1.7637601e-32
v 0.0094192 0.0046399501 -1.80225e-32
v 0.0096039996 0.0042441101 -1.83762e-32
v 0.0097722597 0.0038409301 -1.8698099e-32
v 0.0099235503 0.0034310799 -1.89876e-32
v 0.0100578 0.00301531 -1.92442e-32
v 0.0101745 0.0025943101 -1.94676e-32
v 0.0102736 0.00216883 -1.96572e-32
v 0.0103549 0.00173959 -1.98128e-32
v 0.0104183 0.00130733 -1.9934099e-32
v 0.0104637 0.00087281299 -2.0020899e-32
v 0.0104909 0.000436784 -2.00731e-32
v 0.0049315998 -0.0092698401 -9.4360003e-33
v -0.0086460998 -0.0059577599 1.6543301e-32
v 0.0104909 -0.000436784 0.07
v 0.0104637 -0.00087281299 0.07
v 0.0104183 -0.00130733 0.07
v 0.0103549 -0.00173959 0.07
v 0.0102736 -0.00216883 0.07
v 0.0101745 -0.0025943101 0.07
v 0.0100578 -0.00301531 0.07
v 0.0099235503 -0.0034310799 0.07
v 0.0097722597 -0.0038409301 0.07
v 0.0096039996 -0.0042441101 0.07
v 0.0094192 -0.0046399501 0.07
v 0.0092180399 -0.0050277598 0.07
v 0.0090008602 -0.0054068598 0.07
v 0.0087681999 -0.0057766 0.07
v 0.0085202903 -0.0061363499 0.07
v 0.0082576498 -0.0064854599 0.07
v 0.0079807201 -0.0068233502 0.07
v 0.0076899598 -0.00714943 0.07
v 0.0060473802 -0.0085836602 0.07
v 0.0056850798 -0.0088277897 0.07
v 0.0053129401 -0.0090565998 0.07
v 0.0049315998 -0.0092698401 0.07
v 0.00454171 -0.0094668902 0.07
v 0.0041439701 -0.00964766 0.07
v 0.0037390599 -0.0098117301 0.07
v 0.00332767 -0.0099587198 0.07
v 0.00291052 -0.0100886 0.07
v 0.00248833 -0.0102009 0.07
v 0.0020618399 -0.0102956 0.07
v 0.0016317701 -0.0103724 0.07
v 0.00119888 -0.0104313 0.07
v 0.00076391699 -0.0104722 0.07
v 0.00032763 -0.0104949 0.07
v -0.000109225 -0.0104994 0.07
v -0.000545891 -0.0104858 0.07
v -0.00098161004 -0.0104541 0.07
v -0.00141564 -0.0104041 0.07
v -0.0018472 -0.0103362 0.07
v -0.0022755801 -0.0102504 0.07
v -0.0027000101 -0.0101469 0.07
v -0.00311977 -0.0100258 0.07
v -0.00353412 -0.0098873302 0.07
v -0.0039423699 -0.00973175 0.07
v -0.00434379 -0.0095593799 0.07
v -0.0047376798 -0.0093703698 0.07
v -0.0058674999 -0.00870761 0.07
v -0.0062246402 -0.0084559899 0.07
v -0.0065710102 -0.0081897397 0.07
v -0.0069060102 -0.0079092998 0.07
v -0.0072290399 -0.0076151802 0.07
v -0.0075395699 -0.0073078698 0.07
v -0.0078370301 -0.0069879098 0.07
v -0.0081209401 -0.00665585 0.07
v -0.0083907899 -0.0063122702 0.07
v -0.0086460998 -0.0059577599 0.07
v -0.0088864099 -0.0055929399 0.07
v -0.0091114603 -0.0052184402 0.07
v -0.0093205897 -0.0048349001 0.07
v -0.0095137004 -0.0044429898 0.07
v -0.0096902801 -0.00404339 0.07
v -0.0098500503 -0.00363679 0.07
v -0.00999285 -0.00322389 0.07
v -0.0101182 -0.00280542 0.07
v -0.0104795 -0.00065494003 0.07
v -0.0104977 -0.000218439 0.07
v -0.0104977 0.000218439 0.07
v -0.0104795 0.00065494003 0.07
v -0.0104432 0.00109031 0.07
v -0.0103889 0.0015237899 0.07
v -0.0103164 0.00195463 0.07
v -0.0102262 0.0023820801 0.07
v -0.0101182 0.00280542 0.07
v -0.00999285 0.00322389 0.07
v -0.0098500503 0.00363679 0.07
v -0.0096902801 0.00404339 0.07
v -0.0095137004 0.0044429898 0.07
v -0.0093205897 0.0048349001 0.07
v -0.0091114603 0.0052184402 0.07
v -0.0088864099 0.0055929399 0.07
v -0.0086460998 0.0059577599 0.07
v -0.0083907899 0.0063122702 0.07
v -0.0081209401 0.00665585 0.07
v -0.0078370301 0.0069879098 0.07
v -0.0075395699 0.0073078698 0.07
v -0.0072290399 0.0076151802 0.07
v -0.0069060102 0.0079092998 0.07
v -0.0065710102 0.0081897397 0.07
v -0.0062246402 0.0084559899 0.07
v -0.0058674999 0.00870761 0.07
v -0.0055002002 0.0089441603 0.07
v -0.00434379 0.0095593799 0.07
v -0.0039423699 0.00973175 0.07
v -0.00353412 0.0098873302 0.07
v -0.00311977 0.0100258 0.07
v -0.0027000101 0.0101469 0.07
v -0.0022755801 0.0102504 0.07
v -0.0018472 0.0103362 0.07
v -0.00141564 0.0104041 0.07
v -0.00098161004 0.0104541 0.07
v -0.000545891 0.0104858 0.07
v -0.000109225 0.0104994 0.07
v 0.00032763 0.0104949 0.07
v 0.00076391699 0.0104722 0.07
v 0.00119888 0.0104313 0.07
v 0.0016317701 0.0103724 0.07
v 0.0020618399 0.0102956 0.07
v 0.00248833 0.0102009 0.07
v 0.00291052 0.0100886 0.07
v 0.0049315998 0.0092698401 0.07
v 0.0053129401 0.0090565998 0.07
v 0.0056850798 0.0088277897 0.07
v 0.0060473802 0.0085836602 0.07
v 0.0063992199 0.0083246604 0.07
v 0.0067399698 0.0080512604 0.07
v 0.0070690601 0.0077639199 0.07
v 0.0073858998 0.0074631399 0.07
v 0.0076899598 0.00714943 0.07
v 0.0079807201 0.0068233502 0.07
v 0.0082576498 0.0064854599 0.07
v 0.0085202903 0.0061363499 0.07
v 0.0087681999 0.0057766 0.07
v 0.0090008602 0.0054068598 0.07
v 0.0092180399 0.0050277598 0.07
v 0.0094192 0.0046399501 0.07
v 0.0096039996 0.0042441101 0.07
v 0.0097722597 0.0038409301 0.07
v 0.0099235503 0.0034310799 0.07
v 0.0100578 0.00301531 0.07
v 0.0101745 0.0025943101 0.07
v 0.0102736 0.00216883 0.07
v 0.0103549 0.00173959 0.07
v 0.0104183 0.00130733 0.07
v 0.0104637 0.00087281299 0.07
# </points>

# <edges count="729">
l 290 291
l 291 292
l 292 293
l 293 294
l 294 295
l 295 296
l 296 297
l 297 298
l 298 299
l 299 300
l 300 301
l 301 302
l 302 303
l 303 304
l 304 305
l 305 306
l 306 307
l 307 308
l 308 309
l 309 310
l 310 311
l 311 312
l 312 313
l 313 314
l 314 315
l 315 316
l 316 317
l 317 318
l 318 319
l 319 320
l 320 321
l 321 322
l 322 323
l 323 324
l 324 325
l 325 326
l 326 327
l 327 328
l 328 329
l 329 330
l 330 331
l 331 332
l 332 333
l 333 334
l 334 335
l 335 336
l 336 337
l 337 338
l 338 339
l 339 340
l 340 341
l 341 342
l 342 343
l 343 344
l 344 345
l 345 346
l 346 347
l 347 348
l 348 349
l 349 350
l 350 351
l 351 352
l 352 353
l 353 354
l 354 355
l 355 356
l 356 357
l 357 358
l 358 359
l 359 360
l 360 361
l 361 362
l 362 363
l 363 364
l 364 365
l 365 366
l 366 367
l 367 368
l 368 369
l 369 370
l 370 371
l 371 372
l 372 373
l 373 374
l 374 375
l 375 376
l 376 377
l 377 378
l 378 379
l 379 380
l 380 381
l 381 382
l 382 383
l 383 384
l 384 385
l 385 386
l 386 387
l 387 388
l 388 389
l 389 390
l 390 391
l 391 392
l 392 393
l 393 394
l 394 395
l 395 396
l 396 397
l 397 398
l 398 399
l 399 400
l 400 401
l 401 402
l 402 403
l 403 404
l 404 405
l 405 406
l 406 407
l 407 408
l 408 409
l 409 410
l 410 411
l 411 412
l 412 413
l 413 414
l 414 415
l 415 416
l 416 417
l 417 418
l 418 419
l 419 420
l 420 421
l 421 422
l 422 423
l 423 424
l 424 425
l 425 426
l 426 427
l 427 290
l 428 429
l 429 430
l 431 432
l 433 434
l 435 436
l 434 437
l 438 439
l 440 441
l 430 442
l 441 443
l 437 444
l 443 445
l 446 447
l 448 446
l 449 450
l 451 449
l 452 453
l 447 454
l 453 455
l 456 457
l 458 459
l 460 461
l 462 460
l 463 462
l 464 463
l 465 464
l 466 465
l 467 466
l 468 467
l 469 468
l 470 469
l 471 470
l 472 471
l 473 472
l 474 473
l 475 474
l 476 475
l 477 476
l 478 477
l 479 478
l 480 479
l 481 480
l 454 482
l 483 484
l 485 483
l 486 485
l 487 486
l 488 487
l 489 488
l 490 489
l 491 490
l 492 491
l 493 492
l 494 493
l 495 496
l 497 498
l 499 497
l 500 499
l 501 500
l 502 501
l 503 502
l 504 503
l 505 504
l 506 505
l 507 506
l 508 507
l 509 508
l 510 509
l 511 510
l 512 511
l 513 512
l 514 513
l 515 514
l 516 515
l 517 518
l 455 517
l 519 520
l 521 452
l 522 521
l 523 522
l 524 519
l 525 526
l 527 525
l 528 527
l 529 528
l 520 530
l 531 532
l 533 524
l 534 533
l 535 534
l 450 535
l 536 451
l 537 536
l 538 537
l 539 538
l 540 539
l 541 540
l 542 541
l 543 542
l 544 543
l 545 544
l 546 547
l 548 549
l 550 548
l 551 550
l 552 551
l 553 554
l 547 553
l 555 556
l 557 555
l 558 557
l 559 558
l 560 559
l 482 560
l 561 545
l 562 448
l 563 562
l 564 563
l 565 564
l 566 565
l 567 566
l 568 567
l 569 568
l 570 569
l 571 570
l 572 571
l 573 572
l 574 573
l 532 574
l 575 523
l 576 577
l 578 576
l 579 578
l 580 579
l 581 580
l 582 581
l 583 582
l 584 583
l 585 584
l 586 585
l 587 586
l 588 587
l 589 588
l 590 589
l 591 590
l 592 591
l 593 592
l 594 593
l 457 594
l 498 495
l 496 494
l 530 529
l 459 456
l 461 458
l 484 595
l 518 596
l 526 575
l 549 561
l 556 546
l 577 531
l 596 516
l 595 481
l 554 552
l 597 439
l 598 597
l 599 598
l 600 599
l 601 600
l 602 601
l 603 602
l 604 603
l 605 604
l 606 605
l 607 606
l 608 607
l 609 608
l 610 609
l 611 610
l 612 611
l 613 612
l 614 613
l 440 614
l 615 445
l 616 615
l 617 616
l 618 617
l 619 618
l 620 619
l 621 620
l 622 621
l 623 622
l 624 623
l 625 624
l 626 625
l 627 626
l 628 627
l 629 628
l 630 629
l 631 630
l 632 631
l 633 632
l 634 633
l 635 634
l 636 635
l 637 636
l 638 637
l 639 638
l 640 639
l 641 640
l 435 641
l 642 436
l 643 642
l 644 643
l 645 644
l 646 645
l 647 646
l 648 647
l 649 648
l 650 649
l 651 650
l 652 651
l 653 652
l 654 653
l 655 654
l 656 655
l 657 656
l 658 657
l 659 658
l 433 659
l 660 444
l 661 660
l 662 661
l 663 662
l 664 663
l 665 664
l 666 665
l 667 666
l 668 667
l 669 668
l 670 669
l 671 670
l 672 671
l 673 672
l 674 673
l 675 674
l 676 675
l 677 676
l 678 677
l 679 678
l 680 679
l 681 680
l 682 681
l 683 682
l 684 683
l 685 684
l 686 685
l 431 686
l 687 432
l 688 687
l 689 688
l 690 689
l 691 690
l 692 691
l 693 692
l 694 693
l 695 694
l 696 695
l 697 696
l 698 697
l 699 698
l 700 699
l 701 700
l 702 701
l 703 702
l 704 703
l 428 704
l 705 442
l 706 705
l 707 706
l 708 707
l 709 708
l 710 709
l 711 710
l 712 711
l 713 712
l 714 713
l 715 714
l 716 715
l 717 716
l 718 717
l 719 718
l 720 719
l 721 720
l 722 721
l 723 722
l 724 723
l 725 724
l 726 725
l 727 726
l 728 727
l 729 728
l 438 729
l 1 2
l 3 1
l 4 3
l 5 4
l 6 5
l 7 6
l 8 7
l 9 8
l 10 9
l 11 10
l 12 11
l 13 12
l 14 13
l 15 14
l 16 15
l 17 16
l 18 17
l 19 18
l 20 19
l 21 20
l 22 21
l 23 22
l 24 23
l 25 24
l 26 25
l 27 26
l 28 27
l 29 28
l 30 29
l 31 30
l 32 31
l 33 32
l 34 33
l 35 34
l 36 35
l 37 36
l 38 37
l 39 38
l 40 39
l 41 40
l 42 41
l 43 42
l 44 43
l 45 44
l 46 45
l 47 46
l 48 47
l 49 48
l 50 49
l 51 50
l 52 51
l 53 52
l 54 53
l 55 54
l 56 55
l 57 56
l 58 57
l 59 58
l 60 59
l 61 60
l 62 61
l 63 62
l 64 63
l 65 64
l 66 65
l 67 66
l 68 67
l 69 68
l 70 69
l 71 70
l 72 71
l 73 72
l 74 73
l 75 74
l 76 75
l 77 76
l 78 77
l 79 78
l 80 79
l 81 80
l 82 81
l 83 82
l 84 83
l 85 84
l 86 85
l 87 86
l 88 87
l 89 88
l 90 89
l 91 90
l 92 91
l 93 92
l 94 93
l 95 94
l 96 95
l 97 96
l 98 97
l 99 98
l 100 99
l 101 100
l 102 101
l 103 102
l 104 103
l 105 104
l 106 105
l 107 106
l 108 107
l 109 108
l 110 109
l 111 110
l 112 111
l 113 112
l 114 113
l 115 114
l 116 115
l 117 116
l 118 117
l 119 118
l 120 119
l 121 120
l 122 121
l 123 122
l 124 123
l 125 124
l 126 125
l 127 126
l 128 127
l 129 128
l 130 129
l 131 130
l 132 131
l 133 132
l 134 133
l 135 134
l 136 135
l 137 136
l 138 137
l 2 138
l 139 140
l 141 139
l 142 141
l 143 142
l 144 143
l 145 144
l 146 145
l 147 146
l 148 147
l 149 148
l 150 149
l 151 150
l 152 151
l 153 152
l 154 153
l 155 154
l 156 155
l 157 156
l 158 157
l 159 158
l 160 159
l 161 160
l 162 161
l 163 162
l 164 163
l 165 164
l 166 165
l 167 166
l 168 167
l 169 168
l 170 169
l 171 170
l 172 171
l 173 172
l 174 173
l 175 174
l 176 175
l 177 176
l 178 177
l 179 178
l 180 179
l 181 180
l 182 181
l 183 182
l 184 183
l 185 184
l 186 185
l 187 186
l 188 187
l 189 188
l 190 189
l 191 190
l 192 191
l 193 192
l 194 193
l 195 194
l 196 195
l 197 196
l 198 197
l 199 198
l 200 199
l 201 200
l 202 201
l 203 202
l 204 203
l 205 204
l 206 205
l 207 206
l 208 207
l 209 208
l 210 209
l 211 210
l 212 211
l 213 212
l 214 213
l 215 214
l 216 215
l 217 216
l 218 217
l 219 218
l 220 219
l 221 220
l 222 221
l 223 222
l 224 223
l 225 224
l 226 225
l 227 226
l 228 227
l 229 228
l 230 229
l 231 230
l 232 231
l 233 232
l 234 233
l 235 234
l 236 235
l 237 236
l 238 237
l 239 238
l 240 239
l 241 240
l 242 241
l 243 242
l 244 243
l 245 244
l 246 245
l 247 246
l 248 247
l 249 248
l 250 249
l 251 250
l 252 251
l 253 252
l 254 253
l 255 254
l 256 255
l 257 256
l 258 257
l 259 258
l 260 259
l 261 260
l 262 261
l 263 262
l 264 263
l 265 264
l 266 265
l 267 266
l 268 267
l 269 268
l 270 269
l 271 270
l 272 271
l 273 272
l 274 273
l 275 274
l 276 275
l 277 276
l 278 277
l 279 278
l 280 279
l 281 280
l 282 281
l 283 282
l 284 283
l 285 284
l 286 285
l 287 286
l 288 287
l 289 288
l 140 289
# </edges>
