<svg xmlns="http://www.w3.org/2000/svg" width="1200" height="760" viewBox="0 0 1200 760">
  <rect x="0" y="0" width="1200" height="760" fill="#fbfaf5"/>
  <text x="90" y="48" font-family="Helvetica, Arial, sans-serif" font-size="28" font-weight="700" fill="#1f2933">Restart Equivalence Check</text>
  <text x="90" y="76" font-family="Helvetica, Arial, sans-serif" font-size="16" fill="#52606d">Continuous vs restarted quick CHT run, stitched from solver logs. Restart marker at t = 0.125 s.</text>

  <text x="90" y="86" font-family="Helvetica, Arial, sans-serif" font-size="18" font-weight="700" fill="#1f2933">Q_sum_check vs time</text>
  <rect x="90" y="110" width="1070" height="220" fill="#ffffff" stroke="#cbd2d9" stroke-width="1.5"/>
  <line x1="90" y1="330" x2="1160" y2="330" stroke="#9aa5b1" stroke-width="1"/>
  <line x1="90" y1="110" x2="90" y2="330" stroke="#9aa5b1" stroke-width="1"/>
  <line x1="90.000" y1="330" x2="90.000" y2="338" stroke="#7b8794" stroke-width="1"/> <line x1="90.000" y1="670" x2="90.000" y2="678" stroke="#7b8794" stroke-width="1"/> <text x="90.000" y="358" text-anchor="middle" font-family="Helvetica, Arial, sans-serif" font-size="13" fill="#52606d">0.016</text> <text x="90.000" y="698" text-anchor="middle" font-family="Helvetica, Arial, sans-serif" font-size="13" fill="#52606d">0.016</text> <line x1="357.500" y1="330" x2="357.500" y2="338" stroke="#7b8794" stroke-width="1"/> <line x1="357.500" y1="670" x2="357.500" y2="678" stroke="#7b8794" stroke-width="1"/> <text x="357.500" y="358" text-anchor="middle" font-family="Helvetica, Arial, sans-serif" font-size="13" fill="#52606d">0.074</text> <text x="357.500" y="698" text-anchor="middle" font-family="Helvetica, Arial, sans-serif" font-size="13" fill="#52606d">0.074</text> <line x1="625.000" y1="330" x2="625.000" y2="338" stroke="#7b8794" stroke-width="1"/> <line x1="625.000" y1="670" x2="625.000" y2="678" stroke="#7b8794" stroke-width="1"/> <text x="625.000" y="358" text-anchor="middle" font-family="Helvetica, Arial, sans-serif" font-size="13" fill="#52606d">0.133</text> <text x="625.000" y="698" text-anchor="middle" font-family="Helvetica, Arial, sans-serif" font-size="13" fill="#52606d">0.133</text> <line x1="892.500" y1="330" x2="892.500" y2="338" stroke="#7b8794" stroke-width="1"/> <line x1="892.500" y1="670" x2="892.500" y2="678" stroke="#7b8794" stroke-width="1"/> <text x="892.500" y="358" text-anchor="middle" font-family="Helvetica, Arial, sans-serif" font-size="13" fill="#52606d">0.191</text> <text x="892.500" y="698" text-anchor="middle" font-family="Helvetica, Arial, sans-serif" font-size="13" fill="#52606d">0.191</text> <line x1="1160.000" y1="330" x2="1160.000" y2="338" stroke="#7b8794" stroke-width="1"/> <line x1="1160.000" y1="670" x2="1160.000" y2="678" stroke="#7b8794" stroke-width="1"/> <text x="1160.000" y="358" text-anchor="middle" font-family="Helvetica, Arial, sans-serif" font-size="13" fill="#52606d">0.250</text> <text x="1160.000" y="698" text-anchor="middle" font-family="Helvetica, Arial, sans-serif" font-size="13" fill="#52606d">0.250</text>
  <line x1="82" y1="330.000" x2="90" y2="330.000" stroke="#7b8794" stroke-width="1"/> <text x="76" y="334.000" text-anchor="end" font-family="Helvetica, Arial, sans-serif" font-size="13" fill="#52606d">0.000e+00</text> <line x1="82" y1="110.000" x2="90" y2="110.000" stroke="#7b8794" stroke-width="1"/> <text x="76" y="114.000" text-anchor="end" font-family="Helvetica, Arial, sans-serif" font-size="13" fill="#52606d">41.181</text>
  <polyline fill="none" stroke="#d64545" stroke-width="3" points="90.000,330.000 161.333,330.000 232.667,330.000 304.000,330.000 375.333,110.000 446.667,330.000 518.000,330.000 589.333,330.000 660.667,330.000 732.000,110.000 803.333,330.000 874.667,330.000 946.000,330.000 1017.333,330.000 1088.667,110.000 1160.000,330.000"/>
  <polyline fill="none" stroke="#0f766e" stroke-width="2.5" stroke-dasharray="8 5" points="90.000,330.000 161.333,330.000 232.667,330.000 304.000,330.000 375.333,110.000 446.667,330.000 518.000,330.000 589.333,330.000 660.667,330.000 732.000,110.000 803.333,330.000 874.667,330.000 946.000,330.000 1017.333,330.000 1088.667,110.000 1160.000,330.000"/>
  <line x1="589.333" y1="110" x2="589.333" y2="330" stroke="#5b21b6" stroke-width="2" stroke-dasharray="6 6"/>
  <text x="625.000" y="384" text-anchor="middle" font-family="Helvetica, Arial, sans-serif" font-size="14" fill="#52606d">time [s]</text>
  <text x="24" y="220.000" transform="rotate(-90 24 220.000)" text-anchor="middle" font-family="Helvetica, Arial, sans-serif" font-size="14" fill="#52606d">Q_sum_check [W]</text>

  <text x="90" y="426" font-family="Helvetica, Arial, sans-serif" font-size="18" font-weight="700" fill="#1f2933">Difference: continuous - restarted</text>
  <rect x="90" y="450" width="1070" height="220" fill="#ffffff" stroke="#cbd2d9" stroke-width="1.5"/>
  <line x1="90" y1="560.000" x2="1160" y2="560.000" stroke="#9aa5b1" stroke-width="1"/>
  <line x1="90" y1="450" x2="90" y2="670" stroke="#9aa5b1" stroke-width="1"/>
  <line x1="82" y1="670.000" x2="90" y2="670.000" stroke="#7b8794" stroke-width="1"/> <text x="76" y="674.000" text-anchor="end" font-family="Helvetica, Arial, sans-serif" font-size="13" fill="#52606d">-1.000e-12</text> <line x1="82" y1="560.000" x2="90" y2="560.000" stroke="#7b8794" stroke-width="1"/> <text x="76" y="564.000" text-anchor="end" font-family="Helvetica, Arial, sans-serif" font-size="13" fill="#52606d">0.000e+00</text> <line x1="82" y1="450.000" x2="90" y2="450.000" stroke="#7b8794" stroke-width="1"/> <text x="76" y="454.000" text-anchor="end" font-family="Helvetica, Arial, sans-serif" font-size="13" fill="#52606d">1.000e-12</text>
  <polyline fill="none" stroke="#1d4ed8" stroke-width="3" points="90.000,560.000 161.333,560.000 232.667,560.000 304.000,560.000 375.333,560.000 446.667,560.000 518.000,560.000 589.333,560.000 660.667,560.000 732.000,560.000 803.333,560.000 874.667,560.000 946.000,560.000 1017.333,560.000 1088.667,560.000 1160.000,560.000"/>
  <line x1="589.333" y1="450" x2="589.333" y2="670" stroke="#5b21b6" stroke-width="2" stroke-dasharray="6 6"/>
  <text x="625.000" y="724" text-anchor="middle" font-family="Helvetica, Arial, sans-serif" font-size="14" fill="#52606d">time [s]</text>
  <text x="24" y="560.000" transform="rotate(-90 24 560.000)" text-anchor="middle" font-family="Helvetica, Arial, sans-serif" font-size="14" fill="#52606d">difference [W]</text>

  <rect x="90" y="676" width="18" height="18" fill="#d64545"/>
  <text x="118" y="691" font-family="Helvetica, Arial, sans-serif" font-size="15" fill="#1f2933">continuous</text>
  <rect x="240" y="676" width="18" height="18" fill="#0f766e"/>
  <text x="268" y="691" font-family="Helvetica, Arial, sans-serif" font-size="15" fill="#1f2933">restarted</text>
  <line x1="402" y1="685" x2="434" y2="685" stroke="#5b21b6" stroke-width="2" stroke-dasharray="6 6"/>
  <text x="444" y="691" font-family="Helvetica, Arial, sans-serif" font-size="15" fill="#1f2933">restart time</text>

  <text x="90" y="732" font-family="Helvetica, Arial, sans-serif" font-size="15" fill="#52606d">max |difference| = 0.000e+00 W; matching output files and final wrapper state already verified separately.</text>
</svg>
