v 0.0096249999 0 0.00233333
v -0.013150543 -0.9997406 0.00233333
l 1 2
v 0.0096150199 -0.00043807799 0.00233333
v -0.058665156 -0.99810426 0.00233333
l 3 4
v 0.0095851002 -0.00087524502 0.00233333
v -0.10383799 -0.99442202 0.00233333
l 5 6
v 0.0095354002 -0.0013106 0.00233333
v -0.14920376 -0.98863116 0.00233333
l 7 8
v 0.0094658397 -0.0017432499 0.00233333
v -0.1940297 -0.98081912 0.00233333
l 9 10
v 0.0093766702 -0.0021722701 0.00233333
v -0.23841802 -0.97098484 0.00233333
l 11 12
v 0.0092680901 -0.00259679 0.00233333
v -0.28246884 -0.95909539 0.00233333
l 13 14
v 0.0091402503 -0.0030159301 0.00233333
v -0.32573008 -0.94528015 0.00233333
l 15 16
v 0.0089935102 -0.0034288301 0.00233333
v -0.36840613 -0.92947932 0.00233333
l 17 18
v 0.0088281399 -0.0038346101 0.00233333
v -0.4103076 -0.91175819 0.00233333
l 19 20
v 0.0086444803 -0.0042324499 0.00233333
v -0.45143128 -0.89211211 0.00233333
l 21 22
v 0.0084428797 -0.0046215099 0.00233333
v -0.49156802 -0.87064062 0.00233333
l 23 24
v 0.0082237804 -0.0050009899 0.00233333
v -0.53065759 -0.84738265 0.00233333
l 25 26
v 0.0079876501 -0.0053701098 0.00233333
v -0.56868608 -0.82234466 0.00233333
l 27 28
v 0.0077349502 -0.0057281102 0.00233333
v -0.60554264 -0.79559556 0.00233333
l 29 30
v 0.0074662198 -0.0060742199 0.00233333
v -0.64110807 -0.76722558 0.00233333
l 31 32
v 0.0071820202 -0.0064077498 0.00233333
v -0.6753678 -0.73724682 0.00233333
l 33 34
v 0.0068829302 -0.006728 0.00233333
v -0.70823415 -0.70573269 0.00233333
l 35 36
v 0.0065695699 -0.0070342999 0.00233333
v -0.73961473 -0.67277374 0.00233333
l 37 38
v 0.0062425998 -0.0073260199 0.00233333
v -0.76946567 -0.63841768 0.00233333
l 39 40
v 0.0059026899 -0.0076025599 0.00233333
v -0.79772477 -0.60273523 0.00233333
l 41 42
v 0.0055505498 -0.00786334 0.00233333
v -0.824338 -0.56579254 0.00233333
l 43 44
v 0.0051869 -0.0081078196 0.00233333
v -0.84922976 -0.52769629 0.00233333
l 45 46
v 0.0048125 -0.0083355 0.00233333
v -0.87236886 -0.48849471 0.00233333
l 47 48
v 0.0044281301 -0.0085458998 0.00233333
v -0.89371008 -0.44825917 0.00233333
l 49 50
v 0.00403457 -0.0087385802 0.00233333
v -0.91314685 -0.40720845 0.00233333
l 51 52
v 0.00363266 -0.0089131901 0.00233333
v -0.93076188 -0.36515306 0.00233333
l 53 54
v 0.0032232199 -0.00906929 0.00233333
v -0.9464255 -0.32238592 0.00233333
l 55 56
v 0.0028071001 -0.00920658 0.00233333
v -0.96011902 -0.27897182 0.00233333
l 57 58
v 0.0023851499 -0.00932479 0.00233333
v -0.97182602 -0.23496297 0.00233333
l 59 60
v 0.0019582701 -0.0094236601 0.00233333
v -0.98150119 -0.19055202 0.00233333
l 61 62
v 0.00152732 -0.0095030302 0.00233333
v -0.98915777 -0.14567591 0.00233333
l 63 64
v 0.00109321 -0.0095627001 0.00233333
v -0.99475271 -0.10061715 0.00233333
l 65 66
v 0.00065683399 -0.0096025998 0.00233333
v -0.9983155 -0.054926616 0.00233333
l 67 68
v 0.00021909599 -0.0096224602 0.00233333
v -0.9997809 -0.0096224602 0.00233333
l 69 70
v -0.00021909599 -0.0096224602 0.00233333
v -0.99919143 0.035701556 0.00233333
l 71 72
v -0.00065683399 -0.0096025998 0.00233333
v -0.99650275 0.081451853 0.00233333
l 73 74
v -0.00109321 -0.0095627001 0.00233333
v -0.9917783 0.12661018 0.00233333
l 75 76
v -0.00152732 -0.0095030302 0.00233333
v -0.98498678 0.17162533 0.00233333
l 77 78
v -0.0019582701 -0.0094236601 0.00233333
v -0.97616944 0.21621452 0.00233333
l 79 80
v -0.0023851499 -0.00932479 0.00233333
v -0.96531127 0.26044045 0.00233333
l 81 82
v -0.0028071001 -0.00920658 0.00233333
v -0.95245582 0.30411005 0.00233333
l 83 84
v -0.0032232199 -0.00906929 0.00233333
v -0.93761776 0.34717058 0.00233333
l 85 86
v -0.00363266 -0.0089131901 0.00233333
v -0.92081408 0.38955668 0.00233333
l 87 88
v -0.00403457 -0.0087385802 0.00233333
v -0.90217278 0.43097469 0.00233333
l 89 90
v -0.0044281301 -0.0085458998 0.00233333
v -0.88160949 0.47161331 0.00233333
l 91 92
v -0.0048125 -0.0083355 0.00233333
v -0.85922916 0.51125297 0.00233333
l 93 94
v -0.0051869 -0.0081078196 0.00233333
v -0.83507545 0.54982138 0.00233333
l 95 96
v -0.0055505498 -0.00786334 0.00233333
v -0.80917801 0.58726933 0.00233333
l 97 98
v -0.0059026899 -0.0076025599 0.00233333
v -0.78161096 0.6234891 0.00233333
l 99 100
v -0.0062425998 -0.0073260199 0.00233333
v -0.7524269 0.65841342 0.00233333
l 101 102
v -0.0065695699 -0.0070342999 0.00233333
v -0.72168665 0.69197039 0.00233333
l 103 104
v -0.0068829302 -0.006728 0.00233333
v -0.68943275 0.72411107 0.00233333
l 105 106
v -0.0071820202 -0.0064077498 0.00233333
v -0.65575631 0.75474361 0.00233333
l 107 108
v -0.0074662198 -0.0060742199 0.00233333
v -0.62074381 0.78379323 0.00233333
l 109 110
v -0.0077349502 -0.0057281102 0.00233333
v -0.58440868 0.81124644 0.00233333
l 111 112
v -0.0079876501 -0.0053701098 0.00233333
v -0.54686902 0.83701155 0.00233333
l 113 114
v -0.0082237804 -0.0050009899 0.00233333
v -0.50823468 0.86101812 0.00233333
l 115 116
v -0.0084428797 -0.0046215099 0.00233333
v -0.46851864 0.88325815 0.00233333
l 117 118
v -0.0086444803 -0.0042324499 0.00233333
v -0.42778022 0.90369113 0.00233333
l 119 120
v -0.0088281399 -0.0038346101 0.00233333
v -0.38622778 0.92221588 0.00233333
l 121 122
v -0.0089935102 -0.0034288301 0.00233333
v -0.34386384 0.93883539 0.00233333
l 123 124
v -0.0091402503 -0.0030159301 0.00233333
v -0.30087718 0.95348267 0.00233333
l 125 126
v -0.0092680901 -0.00259679 0.00233333
v -0.25706278 0.96621578 0.00233333
l 127 128
v -0.0093766702 -0.0021722701 0.00233333
v -0.21287221 0.9769036 0.00233333
l 129 130
v -0.0094658397 -0.0017432499 0.00233333
v -0.168205 0.98557731 0.00233333
l 131 132
v -0.0095354002 -0.0013106 0.00233333
v -0.12295849 0.99223618 0.00233333
l 133 134
v -0.0095851002 -0.00087524502 0.00233333
v -0.077865276 0.99679094 0.00233333
l 135 136
v -0.0096150199 -0.00043807799 0.00233333
v -0.032390563 0.99930253 0.00233333
l 137 138
v -0.0096249999 2.44674e-17 0.00233333
v 0.013150543 0.9997406 0.00233333
l 139 140
v -0.0096150199 0.00043807799 0.00233333
v 0.058665156 0.99810426 0.00233333
l 141 142
v -0.0095851002 0.00087524502 0.00233333
v 0.10383799 0.99442202 0.00233333
l 143 144
v -0.0095354002 0.0013106 0.00233333
v 0.14920376 0.98863116 0.00233333
l 145 146
v -0.0094658397 0.0017432499 0.00233333
v 0.1940297 0.98081912 0.00233333
l 147 148
v -0.0093766702 0.0021722701 0.00233333
v 0.23841802 0.97098484 0.00233333
l 149 150
v -0.0092680901 0.00259679 0.00233333
v 0.28246884 0.95909539 0.00233333
l 151 152
v -0.0091402503 0.0030159301 0.00233333
v 0.32573008 0.94528015 0.00233333
l 153 154
v -0.0089935102 0.0034288301 0.00233333
v 0.36840613 0.92947932 0.00233333
l 155 156
v -0.0088281399 0.0038346101 0.00233333
v 0.4103076 0.91175819 0.00233333
l 157 158
v -0.0086444803 0.0042324499 0.00233333
v 0.45143128 0.89211211 0.00233333
l 159 160
v -0.0084428797 0.0046215099 0.00233333
v 0.49156802 0.87064062 0.00233333
l 161 162
v -0.0082237804 0.0050009899 0.00233333
v 0.53065759 0.84738265 0.00233333
l 163 164
v -0.0079876501 0.0053701098 0.00233333
v 0.56868608 0.82234466 0.00233333
l 165 166
v -0.0077349502 0.0057281102 0.00233333
v 0.60554264 0.79559556 0.00233333
l 167 168
v -0.0074662198 0.0060742199 0.00233333
v 0.64110807 0.76722558 0.00233333
l 169 170
v -0.0071820202 0.0064077498 0.00233333
v 0.6753678 0.73724682 0.00233333
l 171 172
v -0.0068829302 0.006728 0.00233333
v 0.70823415 0.70573269 0.00233333
l 173 174
v -0.0065695699 0.0070342999 0.00233333
v 0.73961473 0.67277374 0.00233333
l 175 176
v -0.0062425998 0.0073260199 0.00233333
v 0.76946567 0.63841768 0.00233333
l 177 178
v -0.0059026899 0.0076025599 0.00233333
v 0.79772477 0.60273523 0.00233333
l 179 180
v -0.0055505498 0.00786334 0.00233333
v 0.824338 0.56579254 0.00233333
l 181 182
v -0.0051869 0.0081078196 0.00233333
v 0.84922976 0.52769629 0.00233333
l 183 184
v -0.0048125 0.0083355 0.00233333
v 0.87236886 0.48849471 0.00233333
l 185 186
v -0.0044281301 0.0085458998 0.00233333
v 0.89371008 0.44825917 0.00233333
l 187 188
v -0.00403457 0.0087385802 0.00233333
v 0.91314685 0.40720845 0.00233333
l 189 190
v -0.00363266 0.0089131901 0.00233333
v 0.93076188 0.36515306 0.00233333
l 191 192
v -0.0032232199 0.00906929 0.00233333
v 0.9464255 0.32238592 0.00233333
l 193 194
v -0.0028071001 0.00920658 0.00233333
v 0.96011902 0.27897182 0.00233333
l 195 196
v -0.0023851499 0.00932479 0.00233333
v 0.97182602 0.23496297 0.00233333
l 197 198
v -0.0019582701 0.0094236601 0.00233333
v 0.98150119 0.19055202 0.00233333
l 199 200
v -0.00152732 0.0095030302 0.00233333
v 0.98915777 0.14567591 0.00233333
l 201 202
v -0.00109321 0.0095627001 0.00233333
v 0.99475271 0.10061715 0.00233333
l 203 204
v -0.00065683399 0.0096025998 0.00233333
v 0.9983155 0.054926616 0.00233333
l 205 206
v -0.00021909599 0.0096224602 0.00233333
v 0.9997809 0.0096224602 0.00233333
l 207 208
v 0.00021909599 0.0096224602 0.00233333
v 0.99919143 -0.035701556 0.00233333
l 209 210
v 0.00065683399 0.0096025998 0.00233333
v 0.99650275 -0.081451853 0.00233333
l 211 212
v 0.00109321 0.0095627001 0.00233333
v 0.9917783 -0.12661018 0.00233333
l 213 214
v 0.00152732 0.0095030302 0.00233333
v 0.98498678 -0.17162533 0.00233333
l 215 216
v 0.0019582701 0.0094236601 0.00233333
v 0.97616944 -0.21621452 0.00233333
l 217 218
v 0.0023851499 0.00932479 0.00233333
v 0.96531127 -0.26044045 0.00233333
l 219 220
v 0.0028071001 0.00920658 0.00233333
v 0.95245582 -0.30411005 0.00233333
l 221 222
v 0.0032232199 0.00906929 0.00233333
v 0.93761776 -0.34717058 0.00233333
l 223 224
v 0.00363266 0.0089131901 0.00233333
v 0.92081408 -0.38955668 0.00233333
l 225 226
v 0.00403457 0.0087385802 0.00233333
v 0.90217278 -0.43097469 0.00233333
l 227 228
v 0.0044281301 0.0085458998 0.00233333
v 0.88160949 -0.47161331 0.00233333
l 229 230
v 0.0048125 0.0083355 0.00233333
v 0.85922916 -0.51125297 0.00233333
l 231 232
v 0.0051869 0.0081078196 0.00233333
v 0.83507545 -0.54982138 0.00233333
l 233 234
v 0.0055505498 0.00786334 0.00233333
v 0.80917801 -0.58726933 0.00233333
l 235 236
v 0.0059026899 0.0076025599 0.00233333
v 0.78161096 -0.6234891 0.00233333
l 237 238
v 0.0062425998 0.0073260199 0.00233333
v 0.7524269 -0.65841342 0.00233333
l 239 240
v 0.0065695699 0.0070342999 0.00233333
v 0.72168665 -0.69197039 0.00233333
l 241 242
v 0.0068829302 0.006728 0.00233333
v 0.68943275 -0.72411107 0.00233333
l 243 244
v 0.0071820202 0.0064077498 0.00233333
v 0.65575631 -0.75474361 0.00233333
l 245 246
v 0.0074662198 0.0060742199 0.00233333
v 0.62074381 -0.78379323 0.00233333
l 247 248
v 0.0077349502 0.0057281102 0.00233333
v 0.58440868 -0.81124644 0.00233333
l 249 250
v 0.0079876501 0.0053701098 0.00233333
v 0.54686902 -0.83701155 0.00233333
l 251 252
v 0.0082237804 0.0050009899 0.00233333
v 0.50823468 -0.86101812 0.00233333
l 253 254
v 0.0084428797 0.0046215099 0.00233333
v 0.46851864 -0.88325815 0.00233333
l 255 256
v 0.0086444803 0.0042324499 0.00233333
v 0.42778022 -0.90369113 0.00233333
l 257 258
v 0.0088281399 0.0038346101 0.00233333
v 0.38622778 -0.92221588 0.00233333
l 259 260
v 0.0089935102 0.0034288301 0.00233333
v 0.34386384 -0.93883539 0.00233333
l 261 262
v 0.0091402503 0.0030159301 0.00233333
v 0.30087718 -0.95348267 0.00233333
l 263 264
v 0.0092680901 0.00259679 0.00233333
v 0.25706278 -0.96621578 0.00233333
l 265 266
v 0.0093766702 0.0021722701 0.00233333
v 0.21287221 -0.9769036 0.00233333
l 267 268
v 0.0094658397 0.0017432499 0.00233333
v 0.168205 -0.98557731 0.00233333
l 269 270
v 0.0095354002 0.0013106 0.00233333
v 0.12295849 -0.99223618 0.00233333
l 271 272
v 0.0095851002 0.00087524502 0.00233333
v 0.077865276 -0.99679094 0.00233333
l 273 274
v 0.0096150199 0.00043807799 0.00233333
v 0.032390563 -0.99930253 0.00233333
l 275 276
v 0.00332767 0.0099587198 0.07
v 0.94502262 -0.32650914 0.07
l 277 278
v 0.0037390599 0.0098117301 0.07
v 0.93054415 -0.36573097 0.07
l 279 280
v -0.0051233699 0.0091651902 0.07
v 0.8777249 0.4788235 0.07
l 281 282
v -0.0102262 -0.0023820801 0.07
v -0.21669704 0.97607067 0.07
l 283 284
v -0.0051233699 -0.0091651902 0.07
v -0.86769218 0.49677458 0.07
l 285 286
v -0.0103164 -0.00195463 0.07
v -0.17625863 0.98418085 0.07
l 287 288
v 0.0104909 0.000436784 0.07
v 0.031320368 -0.99934626 0.07
l 289 290
v 0.0073858998 -0.0074631399 0.07
v -0.71786237 -0.69595058 0.07
l 291 292
v 0.0041439701 0.00964766 0.07
v 0.9145287 -0.40411513 0.07
l 293 294
v 0.0070690601 -0.0077639199 0.07
v -0.74620315 -0.66547281 0.07
l 295 296
v -0.0103889 -0.0015237899 0.07
v -0.13468456 0.99072144 0.07
l 297 298
v 0.0067399698 -0.0080512604 0.07
v -0.77323477 -0.63386226 0.07
l 299 300
v 0.00076391699 0.0104722 -1.46166e-33
v -0.99788526 0.062432017 1.9093273e-30
l 301 302
v 0.00119888 0.0104313 -2.2939199e-33
v -0.99440932 0.10404923 1.9027066e-30
l 303 304
v -0.0098500503 0.00363679 1.8846899e-32
v -0.33670054 -0.94143927 6.4416967e-31
l 305 306
v -0.0096902801 0.00404339 1.85411e-32
v -0.37541108 -0.92668122 7.1852778e-31
l 307 308
v -0.0096902801 -0.00404339 1.85411e-32
v 0.39449721 -0.91871955 -7.5490604e-31
l 309 310
v 0.00032763 0.0104949 -6.2687998e-34
v -0.99961932 0.020795599 1.9126524e-30
l 311 312
v -0.0095137004 -0.0044429898 1.82032e-32
v 0.43248386 -0.90145924 -8.2706336e-31
l 313 314
v 0.0104909 -0.000436784 -2.00731e-32
v 0.031320368 0.99934626 4.5926539e-29
l 315 316
v 0.0104183 -0.00130733 -1.9934099e-32
v 0.1143367 0.9932785 -2.1861453e-31
l 317 318
v 0.0102736 -0.00216883 -1.96572e-32
v 0.19636908 0.98036284 -3.7582646e-31
l 319 320
v 0.0101745 -0.0025943101 -1.94676e-32
v 0.23701658 0.97133724 -4.5346517e-31
l 321 322
v 0.0100578 -0.00301531 -1.92442e-32
v 0.27718088 0.96064711 -5.3060283e-31
l 323 324
v 0.0099235503 -0.0034310799 -1.89876e-32
v 0.31719755 0.94819 -6.062983e-31
l 325 326
v 0.0097722597 -0.0038409301 -1.8698099e-32
v 0.35606833 0.93428435 -6.8134997e-31
l 327 328
v 0.0096039996 -0.0042441101 -1.83762e-32
v 0.39474301 0.91861446 -7.5518629e-31
l 329 330
v 0.0094192 -0.0046399501 -1.80225e-32
v 0.43244413 0.90147809 -8.2767858e-31
l 331 332
v 0.0092180399 -0.0050277598 -1.7637601e-32
v 0.46966792 0.88265794 -8.9866184e-31
l 333 334
v 0.0090008602 -0.0054068598 -1.72221e-32
v 0.50609058 0.86229229 -9.6823626e-31
l 335 336
v 0.0087681999 -0.0057766 -1.6776799e-32
v 0.54135333 0.84059984 -1.0361198e-30
l 337 338
v 0.0085202903 -0.0061363499 -1.6302501e-32
v 0.57595278 0.81728357 -1.1019096e-30
l 339 340
v 0.0082576498 -0.0064854599 -1.58e-32
v 0.60944057 0.79262599 -1.1660213e-30
l 341 342
v 0.0079807201 -0.0068233502 -1.5270101e-32
v 0.64186814 0.76660198 -1.2282014e-30
l 343 344
v 0.0076899598 -0.00714943 -1.4713799e-32
v 0.67321861 0.73922287 -1.2880458e-30
l 345 346
v 0.0073858998 -0.0074631399 -1.4132e-32
v 0.70336239 0.71060143 -1.3458378e-30
l 347 348
v 0.0070690601 -0.0077639199 -1.3525799e-32
v 0.73231733 0.68072352 -1.4011242e-30
l 349 350
v 0.0067399698 -0.0080512604 -1.28961e-32
v 0.76001218 0.64965763 -1.4542478e-30
l 351 352
v 0.0063992199 -0.0083246604 -1.22441e-32
v 0.78637396 0.61748634 -1.5046693e-30
l 353 354
v 0.0060473802 -0.0085836602 -1.15709e-32
v 0.81137687 0.58424381 -1.5524647e-30
l 355 356
v 0.0056850798 -0.0088277897 -1.08777e-32
v 0.83498276 0.5499793 -1.5975978e-30
l 357 358
v 0.0053129401 -0.0090565998 -1.01657e-32
v 0.85717446 0.51471047 -1.6399978e-30
l 359 360
v -0.000109225 0.0104994 2.0898999e-34
v -0.99962456 -0.020630828 1.9126663e-30
l 361 362
v 0.0041439701 -0.00964766 -7.92899e-33
v 0.9145287 0.40411513 -1.7498693e-30
l 363 364
v 0.0037390599 -0.0098117301 -7.1542298e-33
v 0.93054415 0.36573097 -1.7805148e-30
l 365 366
v 0.00332767 -0.0099587198 -6.3670798e-33
v 0.94502262 0.32650914 -1.8081984e-30
l 367 368
v 0.00291052 -0.0100886 -5.5689199e-33
v 0.95770212 0.28718737 -1.8324327e-30
l 369 370
v 0.00248833 -0.0102009 -4.7611198e-33
v 0.96888503 0.2468544 -1.853823e-30
l 371 372
v 0.0020618399 -0.0102956 -3.9450799e-33
v 0.97828568 0.20646929 -1.8718376e-30
l 373 374
v 0.0016317701 -0.0103724 -3.1221901e-33
v 0.9860584 0.16542355 -1.8867106e-30
l 375 376
v 0.00119888 -0.0104313 -2.2939199e-33
v 0.99206909 0.12438791 -1.8981756e-30
l 377 378
v 0.00076391699 -0.0104722 -1.46166e-33
v 0.99637211 0.083145728 -1.9064622e-30
l 379 380
v 0.00032763 -0.0104949 -6.2687998e-34
v 0.99897681 0.041464918 -1.9114159e-30
l 381 382
v -0.000109225 -0.0104994 2.0898999e-34
v 0.99983772 -0.00019870092 -1.9130703e-30
l 383 384
v -0.00098161004 -0.0104541 1.8781999e-33
v 0.99638227 -0.083016438 -1.9064666e-30
l 385 386
v -0.0018472 -0.0103362 3.5343901e-33
v 0.98600064 -0.16576026 -1.8865983e-30
l 387 388
v -0.0022755801 -0.0102504 4.3540502e-33
v 0.9782505 -0.2066393 -1.8717791e-30
l 389 390
v -0.0027000101 -0.0101469 5.1661401e-33
v 0.96883075 -0.24706036 -1.8537277e-30
l 391 392
v -0.00311977 -0.0100258 5.9692999e-33
v 0.9576945 -0.28721876 -1.8324327e-30
l 393 394
v -0.00353412 -0.0098873302 6.76214e-33
v 0.9449063 -0.32684279 -1.8080356e-30
l 395 396
v -0.0039423699 -0.00973175 7.5432501e-33
v 0.93050237 -0.36583992 -1.7803426e-30
l 397 398
v -0.00434379 -0.0095593799 8.31131e-33
v 0.91452507 -0.40412245 -1.749813e-30
l 399 400
v -0.0047376798 -0.0093703698 9.0649797e-33
v 0.89683633 -0.44199527 -1.7160087e-30
l 401 402
v -0.0051233699 -0.0091651902 9.8029602e-33
v 0.8777249 -0.4788235 -1.6794417e-30
l 403 404
v -0.0055002002 -0.0089441603 1.0524e-32
v 0.85706861 -0.51488393 -1.6399449e-30
l 405 406
v -0.0058674999 -0.00870761 1.12267e-32
v 0.83486387 -0.55016006 -1.5972189e-30
l 407 408
v -0.0062246402 -0.0084559899 1.19101e-32
v 0.81125942 -0.58440721 -1.5523733e-30
l 409 410
v -0.0065710102 -0.0081897397 1.25728e-32
v 0.7862612 -0.61762972 -1.5043298e-30
l 411 412
v -0.0069060102 -0.0079092998 1.32138e-32
v 0.75988011 -0.64981197 -1.45398e-30
l 413 414
v -0.0072290399 -0.0076151802 1.3831899e-32
v 0.73219103 -0.68085954 -1.4010085e-30
l 415 416
v -0.0075395699 -0.0073078698 1.4426e-32
v 0.70324231 -0.71072035 -1.34543e-30
l 417 418
v -0.0078370301 -0.0069879098 1.49952e-32
v 0.67304965 -0.73937669 -1.2879025e-30
l 419 420
v -0.0081209401 -0.00665585 1.55384e-32
v 0.64172949 -0.76671797 -1.2278099e-30
l 421 422
v -0.0083907899 -0.0063122702 1.60548e-32
v 0.60928106 -0.79274821 -1.1659587e-30
l 423 424
v -0.0091114603 -0.0052184402 1.7433599e-32
v 0.50597412 -0.8623572 -9.6787581e-31
l 425 426
v -0.0093205897 -0.0048349001 1.7833899e-32
v 0.46940054 -0.88280192 -8.9849833e-31
l 427 428
v -0.0104432 0.00109031 1.9981899e-32
v -0.093530492 -0.99545196 1.7906678e-31
l 429 430
v -0.0098500503 -0.00363679 1.8846899e-32
v 0.35587075 -0.9343614 -6.8113978e-31
l 431 432
v -0.00999285 -0.00322389 1.91201e-32
v 0.31685764 -0.94829995 -6.0620267e-31
l 433 434
v -0.0101182 -0.00280542 1.93601e-32
v 0.27682943 -0.96075169 -5.3003734e-31
l 435 436
v -0.0103889 0.0015237899 1.98778e-32
v -0.13468456 -0.99072144 2.5816238e-31
l 437 438
v -0.0103889 -0.0015237899 1.98778e-32
v 0.15555333 -0.98765927 -2.9713287e-31
l 439 440
v -0.0104432 -0.00109031 1.9981899e-32
v 0.11385246 -0.99333554 -2.1830268e-31
l 441 442
v -0.0104795 -0.00065494003 2.00514e-32
v 0.072607792 -0.99719721 -1.3903348e-31
l 443 444
v -0.0104977 -0.000218439 2.00861e-32
v 0.031163222 -0.99935025 -5.9338682e-32
l 445 446
v -0.0104795 0.00065494003 2.00514e-32
v -0.052140422 -0.99847687 9.9476182e-32
l 447 448
v 0.0070690601 0.0077639199 -1.3525799e-32
v -0.74620315 0.66547281 1.4278259e-30
l 449 450
v -0.0103164 0.00195463 1.9739299e-32
v -0.17625863 -0.98418085 3.3674997e-31
l 451 452
v -0.0102262 0.0023820801 1.95666e-32
v -0.21669704 -0.97607067 4.1488303e-31
l 453 454
v -0.0101182 0.00280542 1.93601e-32
v -0.25731473 -0.96615994 4.9201079e-31
l 455 456
v -0.00999285 0.00322389 1.91201e-32
v -0.29694048 -0.95472238 5.6851754e-31
l 457 458
v -0.0095137004 0.0044429898 1.82032e-32
v -0.41370119 -0.91023317 7.9165034e-31
l 459 460
v -0.0093205897 0.0048349001 1.7833899e-32
v -0.45131815 -0.89218135 8.6310046e-31
l 461 462
v -0.0091114603 0.0052184402 1.7433599e-32
v -0.48783259 -0.87274858 9.3376583e-31
l 463 464
v -0.0088864099 0.0055929399 1.70031e-32
v -0.52397199 -0.85154582 1.0023125e-30
l 465 466
v -0.0086460998 0.0059577599 1.6543301e-32
v -0.55873689 -0.8291471 1.0690634e-30
l 467 468
v -0.0083907899 0.0063122702 1.60548e-32
v -0.59278986 -0.80515414 1.1342213e-30
l 469 470
v -0.0081209401 0.00665585 1.55384e-32
v -0.62579279 -0.77978009 1.1975519e-30
l 471 472
v -0.0078370301 0.0069879098 1.49952e-32
v -0.65768746 -0.75307421 1.2583435e-30
l 473 474
v -0.0075395699 0.0073078698 1.4426e-32
v -0.68842625 -0.72508091 1.3173237e-30
l 475 476
v -0.0072290399 0.0076151802 1.3831899e-32
v -0.71801092 -0.6957973 1.3736879e-30
l 477 478
v -0.00353412 0.0098873302 6.76214e-33
v -0.93797886 -0.34622084 1.794648e-30
l 479 480
v -0.0062246402 0.0084559899 1.19101e-32
v -0.79905685 -0.60098399 1.5288127e-30
l 481 482
v -0.0058674999 0.00870761 1.12267e-32
v -0.82335156 -0.56724361 1.5755101e-30
l 483 484
v -0.0055002002 0.0089441603 1.0524e-32
v -0.84623157 -0.53250829 1.6189696e-30
l 485 486
v -0.0051233699 0.0091651902 9.8029602e-33
v -0.86769218 -0.49677458 1.6602718e-30
l 487 488
v -0.00434379 0.0095593799 8.31131e-33
v -0.9059178 -0.42306552 1.733385e-30
l 489 490
v -0.0039423699 0.00973175 7.5432501e-33
v -0.92281123 -0.38483132 1.7656675e-30
l 491 492
v -0.0027000101 0.0101469 5.1661401e-33
v -0.96351428 -0.26704606 1.8435681e-30
l 493 494
v -0.0022755801 0.0102504 4.3540502e-33
v -0.97380634 -0.22666306 1.8632479e-30
l 495 496
v -0.0018472 0.0103362 3.5343901e-33
v -0.98237328 -0.1860527 1.8796675e-30
l 497 498
v -0.00141564 0.0104041 2.7086499e-33
v -0.98926348 -0.14501996 1.8928413e-30
l 499 500
v -0.00098161004 0.0104541 1.8781999e-33
v -0.9944115 -0.10398825 1.9026545e-30
l 501 502
v -0.000545891 0.0104858 1.0445e-33
v -0.99790977 -0.062076538 1.9093893e-30
l 503 504
v -0.0069060102 0.0079092998 1.32138e-32
v -0.74632608 -0.66533506 1.4280542e-30
l 505 506
v 0.0016317701 0.0103724 -3.1221901e-33
v -0.98923844 0.14519161 1.8927595e-30
l 507 508
v 0.0020618399 0.0102956 -3.9450799e-33
v -0.98236479 0.18609155 1.8796433e-30
l 509 510
v 0.00248833 0.0102009 -4.7611198e-33
v -0.97373551 0.22696579 1.8631314e-30
l 511 512
v 0.00291052 0.0100886 -5.5689199e-33
v -0.96348618 0.2671439 1.843493e-30
l 513 514
v 0.00332767 0.0099587198 -6.3670798e-33
v -0.95146393 0.30723469 1.8204967e-30
l 515 516
v 0.0037390599 0.0098117301 -7.1542298e-33
v -0.93795589 0.34627959 1.7946771e-30
l 517 518
v 0.0041439701 0.00964766 -7.92899e-33
v -0.92266112 0.38519036 1.7654315e-30
l 519 520
v 0.00454171 0.0094668902 -8.6900301e-33
v -0.90584302 0.42322968 1.7332503e-30
l 521 522
v 0.0049315998 0.0092698401 -9.4360003e-33
v -0.88755964 0.46033457 1.6981538e-30
l 523 524
v 0.0053129401 0.0090565998 -1.01657e-32
v -0.86749566 0.49711925 1.6599656e-30
l 525 526
v 0.0056850798 0.0088277897 -1.08777e-32
v -0.84617644 0.53259486 1.6189544e-30
l 527 528
v 0.0060473802 0.0085836602 -1.15709e-32
v -0.8232503 0.56739075 1.5751492e-30
l 529 530
v 0.0063992199 0.0083246604 -1.22441e-32
v -0.79893027 0.60115213 1.5286497e-30
l 531 532
v 0.0067399698 0.0080512604 -1.28961e-32
v -0.77323477 0.63386226 1.4795291e-30
l 533 534
v -0.0102262 -0.0023820801 1.95666e-32
v 0.23697033 -0.97134744 -4.5308409e-31
l 535 536
v 0.0076899598 0.00714943 -1.4713799e-32
v -0.68828653 0.725214 1.316992e-30
l 537 538
v 0.0079807201 0.0068233502 -1.5270101e-32
v -0.65754793 0.75319565 1.2580619e-30
l 539 540
v 0.0082576498 0.0064854599 -1.58e-32
v -0.62562977 0.77991079 1.1971313e-30
l 541 542
v 0.0085202903 0.0061363499 -1.6302501e-32
v -0.59266263 0.8052478 1.1339188e-30
l 543 544
v 0.0087681999 0.0057766 -1.6776799e-32
v -0.55866429 0.82919652 1.0688303e-30
l 545 546
v 0.0090008602 0.0054068598 -1.72221e-32
v -0.52358427 0.8517833 1.0021209e-30
l 547 548
v 0.0092180399 0.0050277598 -1.7637601e-32
v -0.48787168 0.87272691 9.3337656e-31
l 549 550
v 0.0094192 0.0046399501 -1.80225e-32
v -0.45103068 0.89232565 8.6300174e-31
l 551 552
v 0.0096039996 0.0042441101 -1.83762e-32
v -0.41342093 0.91036215 7.9127988e-31
l 553 554
v 0.0097722597 0.0038409301 -1.8698099e-32
v -0.37536675 0.9266995 7.1811199e-31
l 555 556
v 0.0099235503 0.0034310799 -1.89876e-32
v -0.33637252 0.94155636 6.4366427e-31
l 557 558
v 0.0100578 0.00301531 -1.92442e-32
v -0.2972162 0.95463639 5.680665e-31
l 559 560
v 0.0101745 0.0025943101 -1.94676e-32
v -0.25694858 0.96625673 4.9189103e-31
l 561 562
v 0.0102736 0.00216883 -1.96572e-32
v -0.21656848 0.97610038 4.1434037e-31
l 563 564
v 0.0103549 0.00173959 -1.98128e-32
v -0.17574058 0.98427126 3.3635646e-31
l 565 566
v 0.0104183 0.00130733 -1.9934099e-32
v -0.13469959 0.9907217 2.5771185e-31
l 567 568
v 0.0104637 0.00087281299 -2.0020899e-32
v -0.093454697 0.99545864 1.7865953e-31
l 569 570
v 0.0104909 0.000436784 -2.00731e-32
v -0.051769723 0.99849671 9.9413203e-32
l 571 572
v 0.0105 0 0
v -0.010329469 0.99978304 -4.5946612e-29
l 573 574
v -0.00141564 -0.0104041 2.7086499e-33
v 0.99201425 -0.12484645 -1.8980677e-30
l 575 576
v -0.000545891 -0.0104858 1.0445e-33
v 0.99896945 -0.041616028 -1.9114128e-30
l 577 578
v -0.0104977 0.000218439 2.00861e-32
v -0.0104977 -0.99978156 2.00861e-32
l 579 580
v 0.0104637 -0.00087281299 -2.0020899e-32
v 0.072724323 0.99718711 -1.395072e-31
l 581 582
v 0.0103549 -0.00173959 -1.98128e-32
v 0.15547279 0.98767478 -2.9745875e-31
l 583 584
v 0.00454171 -0.0094668902 -8.6900301e-33
v 0.89703295 0.44159784 -1.7162798e-30
l 585 586
v -0.0088864099 -0.0055929399 1.70031e-32
v 0.54120438 -0.84069779 -1.035517e-30
l 587 588
v -0.0103164 -0.00195463 1.9739299e-32
v 0.19615444 -0.98040738 -3.7557713e-31
l 589 590
v -0.0065710102 0.0081897397 1.25728e-32
v -0.77335713 -0.63371293 1.4797666e-30
l 591 592
v -0.00311977 0.0100258 5.9692999e-33
v -0.95156019 -0.30692966 1.8207671e-30
l 593 594
v 0.0073858998 0.0074631399 -1.4132e-32
v -0.71786237 0.69595058 1.3734664e-30
l 595 596
v -0.0086460998 -0.0059577599 1.6543301e-32
v 0.57575297 -0.81742417 -1.1016232e-30
l 597 598
v 0.0049315998 -0.0092698401 -9.4360003e-33
v 0.8777402 0.47879281 -1.6795673e-30
l 599 600
v -0.0047376798 0.0093703698 9.0649797e-33
v -0.88758595 -0.46028794 1.6983097e-30
l 601 602
v 0.0104909 -0.000436784 0.07
v 0.031320368 0.99934626 0.07
l 603 604
v 0.0104637 -0.00087281299 0.07
v 0.072724323 0.99718711 0.07
l 605 606
v 0.0104183 -0.00130733 0.07
v 0.1143367 0.9932785 0.07
l 607 608
v 0.0103549 -0.00173959 0.07
v 0.15547279 0.98767478 0.07
l 609 610
v 0.0102736 -0.00216883 0.07
v 0.19636908 0.98036284 0.07
l 611 612
v 0.0101745 -0.0025943101 0.07
v 0.23701658 0.97133724 0.07
l 613 614
v 0.0100578 -0.00301531 0.07
v 0.27718088 0.96064711 0.07
l 615 616
v 0.0099235503 -0.0034310799 0.07
v 0.31719755 0.94819 0.07
l 617 618
v 0.0097722597 -0.0038409301 0.07
v 0.35606833 0.93428435 0.07
l 619 620
v 0.0096039996 -0.0042441101 0.07
v 0.39474301 0.91861446 0.07
l 621 622
v 0.0094192 -0.0046399501 0.07
v 0.43244413 0.90147809 0.07
l 623 624
v 0.0092180399 -0.0050277598 0.07
v 0.46966792 0.88265794 0.07
l 625 626
v 0.0090008602 -0.0054068598 0.07
v 0.50609058 0.86229229 0.07
l 627 628
v 0.0087681999 -0.0057766 0.07
v 0.54135333 0.84059984 0.07
l 629 630
v 0.0085202903 -0.0061363499 0.07
v 0.57595278 0.81728357 0.07
l 631 632
v 0.0082576498 -0.0064854599 0.07
v 0.60944057 0.79262599 0.07
l 633 634
v 0.0079807201 -0.0068233502 0.07
v 0.64186814 0.76660198 0.07
l 635 636
v 0.0076899598 -0.00714943 0.07
v 0.67321861 0.73922287 0.07
l 637 638
v 0.0073858998 -0.0074631399 0.07
v 0.70336239 0.71060143 0.07
l 639 640
v 0.0060473802 -0.0085836602 0.07
v 0.81137687 0.58424381 0.07
l 641 642
v 0.0056850798 -0.0088277897 0.07
v 0.83498276 0.5499793 0.07
l 643 644
v 0.0053129401 -0.0090565998 0.07
v 0.85717446 0.51471047 0.07
l 645 646
v 0.0049315998 -0.0092698401 0.07
v 0.8777402 0.47879281 0.07
l 647 648
v 0.00454171 -0.0094668902 0.07
v 0.89703295 0.44159784 0.07
l 649 650
v 0.0041439701 -0.00964766 0.07
v 0.9145287 0.40411513 0.07
l 651 652
v 0.0037390599 -0.0098117301 0.07
v 0.93054415 0.36573097 0.07
l 653 654
v 0.00332767 -0.0099587198 0.07
v 0.94502262 0.32650914 0.07
l 655 656
v 0.00291052 -0.0100886 0.07
v 0.95770212 0.28718737 0.07
l 657 658
v 0.00248833 -0.0102009 0.07
v 0.96888503 0.2468544 0.07
l 659 660
v 0.0020618399 -0.0102956 0.07
v 0.97828568 0.20646929 0.07
l 661 662
v 0.0016317701 -0.0103724 0.07
v 0.9860584 0.16542355 0.07
l 663 664
v 0.00119888 -0.0104313 0.07
v 0.99206909 0.12438791 0.07
l 665 666
v 0.00076391699 -0.0104722 0.07
v 0.99637211 0.083145728 0.07
l 667 668
v 0.00032763 -0.0104949 0.07
v 0.99897681 0.041464918 0.07
l 669 670
v -0.000109225 -0.0104994 0.07
v 0.99983772 -0.00019870092 0.07
l 671 672
v -0.000545891 -0.0104858 0.07
v 0.99896945 -0.041616028 0.07
l 673 674
v -0.00098161004 -0.0104541 0.07
v 0.99638227 -0.083016438 0.07
l 675 676
v -0.00141564 -0.0104041 0.07
v 0.99201425 -0.12484645 0.07
l 677 678
v -0.0018472 -0.0103362 0.07
v 0.98600064 -0.16576026 0.07
l 679 680
v -0.0022755801 -0.0102504 0.07
v 0.9782505 -0.2066393 0.07
l 681 682
v -0.0027000101 -0.0101469 0.07
v 0.96883075 -0.24706036 0.07
l 683 684
v -0.00311977 -0.0100258 0.07
v 0.9576945 -0.28721876 0.07
l 685 686
v -0.00353412 -0.0098873302 0.07
v 0.9449063 -0.32684279 0.07
l 687 688
v -0.0039423699 -0.00973175 0.07
v 0.93050237 -0.36583992 0.07
l 689 690
v -0.00434379 -0.0095593799 0.07
v 0.91452507 -0.40412245 0.07
l 691 692
v -0.0047376798 -0.0093703698 0.07
v 0.89683633 -0.44199527 0.07
l 693 694
v -0.0051233699 -0.0091651902 0.07
v 0.8777249 -0.4788235 0.07
l 695 696
v -0.0058674999 -0.00870761 0.07
v 0.83486387 -0.55016006 0.07
l 697 698
v -0.0062246402 -0.0084559899 0.07
v 0.81125942 -0.58440721 0.07
l 699 700
v -0.0065710102 -0.0081897397 0.07
v 0.7862612 -0.61762972 0.07
l 701 702
v -0.0069060102 -0.0079092998 0.07
v 0.75988011 -0.64981197 0.07
l 703 704
v -0.0072290399 -0.0076151802 0.07
v 0.73219103 -0.68085954 0.07
l 705 706
v -0.0075395699 -0.0073078698 0.07
v 0.70324231 -0.71072035 0.07
l 707 708
v -0.0078370301 -0.0069879098 0.07
v 0.67304965 -0.73937669 0.07
l 709 710
v -0.0081209401 -0.00665585 0.07
v 0.64172949 -0.76671797 0.07
l 711 712
v -0.0083907899 -0.0063122702 0.07
v 0.60928106 -0.79274821 0.07
l 713 714
v -0.0086460998 -0.0059577599 0.07
v 0.57575297 -0.81742417 0.07
l 715 716
v -0.0088864099 -0.0055929399 0.07
v 0.54120438 -0.84069779 0.07
l 717 718
v -0.0091114603 -0.0052184402 0.07
v 0.50597412 -0.8623572 0.07
l 719 720
v -0.0093205897 -0.0048349001 0.07
v 0.46940054 -0.88280192 0.07
l 721 722
v -0.0095137004 -0.0044429898 0.07
v 0.43248386 -0.90145924 0.07
l 723 724
v -0.0096902801 -0.00404339 0.07
v 0.39449721 -0.91871955 0.07
l 725 726
v -0.0098500503 -0.00363679 0.07
v 0.35587075 -0.9343614 0.07
l 727 728
v -0.00999285 -0.00322389 0.07
v 0.31685764 -0.94829995 0.07
l 729 730
v -0.0101182 -0.00280542 0.07
v 0.27682943 -0.96075169 0.07
l 731 732
v -0.0102262 -0.0023820801 0.07
v 0.23697033 -0.97134744 0.07
l 733 734
v -0.0104795 -0.00065494003 0.07
v 0.072607792 -0.99719721 0.07
l 735 736
v -0.0104977 -0.000218439 0.07
v 0.031163222 -0.99935025 0.07
l 737 738
v -0.0104977 0.000218439 0.07
v -0.0104977 -0.99978156 0.07
l 739 740
v -0.0104795 0.00065494003 0.07
v -0.052140422 -0.99847687 0.07
l 741 742
v -0.0104432 0.00109031 0.07
v -0.093530492 -0.99545196 0.07
l 743 744
v -0.0103889 0.0015237899 0.07
v -0.13468456 -0.99072144 0.07
l 745 746
v -0.0103164 0.00195463 0.07
v -0.17625863 -0.98418085 0.07
l 747 748
v -0.0102262 0.0023820801 0.07
v -0.21669704 -0.97607067 0.07
l 749 750
v -0.0101182 0.00280542 0.07
v -0.25731473 -0.96615994 0.07
l 751 752
v -0.00999285 0.00322389 0.07
v -0.29694048 -0.95472238 0.07
l 753 754
v -0.0098500503 0.00363679 0.07
v -0.33670054 -0.94143927 0.07
l 755 756
v -0.0096902801 0.00404339 0.07
v -0.37541108 -0.92668122 0.07
l 757 758
v -0.0095137004 0.0044429898 0.07
v -0.41370119 -0.91023317 0.07
l 759 760
v -0.0093205897 0.0048349001 0.07
v -0.45131815 -0.89218135 0.07
l 761 762
v -0.0091114603 0.0052184402 0.07
v -0.48783259 -0.87274858 0.07
l 763 764
v -0.0088864099 0.0055929399 0.07
v -0.52397199 -0.85154582 0.07
l 765 766
v -0.0086460998 0.0059577599 0.07
v -0.55873689 -0.8291471 0.07
l 767 768
v -0.0083907899 0.0063122702 0.07
v -0.59278986 -0.80515414 0.07
l 769 770
v -0.0081209401 0.00665585 0.07
v -0.62579279 -0.77978009 0.07
l 771 772
v -0.0078370301 0.0069879098 0.07
v -0.65768746 -0.75307421 0.07
l 773 774
v -0.0075395699 0.0073078698 0.07
v -0.68842625 -0.72508091 0.07
l 775 776
v -0.0072290399 0.0076151802 0.07
v -0.71801092 -0.6957973 0.07
l 777 778
v -0.0069060102 0.0079092998 0.07
v -0.74632608 -0.66533506 0.07
l 779 780
v -0.0065710102 0.0081897397 0.07
v -0.77335713 -0.63371293 0.07
l 781 782
v -0.0062246402 0.0084559899 0.07
v -0.79905685 -0.60098399 0.07
l 783 784
v -0.0058674999 0.00870761 0.07
v -0.82335156 -0.56724361 0.07
l 785 786
v -0.0055002002 0.0089441603 0.07
v -0.84623157 -0.53250829 0.07
l 787 788
v -0.0051233699 0.0091651902 0.07
v -0.86769218 -0.49677458 0.07
l 789 790
v -0.00434379 0.0095593799 0.07
v -0.9059178 -0.42306552 0.07
l 791 792
v -0.0039423699 0.00973175 0.07
v -0.92281123 -0.38483132 0.07
l 793 794
v -0.00353412 0.0098873302 0.07
v -0.93797886 -0.34622084 0.07
l 795 796
v -0.00311977 0.0100258 0.07
v -0.95156019 -0.30692966 0.07
l 797 798
v -0.0027000101 0.0101469 0.07
v -0.96351428 -0.26704606 0.07
l 799 800
v -0.0022755801 0.0102504 0.07
v -0.97380634 -0.22666306 0.07
l 801 802
v -0.0018472 0.0103362 0.07
v -0.98237328 -0.1860527 0.07
l 803 804
v -0.00141564 0.0104041 0.07
v -0.98926348 -0.14501996 0.07
l 805 806
v -0.00098161004 0.0104541 0.07
v -0.9944115 -0.10398825 0.07
l 807 808
v -0.000545891 0.0104858 0.07
v -0.99790977 -0.062076538 0.07
l 809 810
v -0.000109225 0.0104994 0.07
v -0.99962456 -0.020630828 0.07
l 811 812
v 0.00032763 0.0104949 0.07
v -0.99961932 0.020795599 0.07
l 813 814
v 0.00076391699 0.0104722 0.07
v -0.99788526 0.062432017 0.07
l 815 816
v 0.00119888 0.0104313 0.07
v -0.99440932 0.10404923 0.07
l 817 818
v 0.0016317701 0.0103724 0.07
v -0.98923844 0.14519161 0.07
l 819 820
v 0.0020618399 0.0102956 0.07
v -0.98236479 0.18609155 0.07
l 821 822
v 0.00248833 0.0102009 0.07
v -0.97373551 0.22696579 0.07
l 823 824
v 0.00291052 0.0100886 0.07
v -0.96348618 0.2671439 0.07
l 825 826
v 0.00332767 0.0099587198 0.07
v -0.95146393 0.30723469 0.07
l 827 828
v 0.0049315998 0.0092698401 0.07
v -0.88755964 0.46033457 0.07
l 829 830
v 0.0053129401 0.0090565998 0.07
v -0.86749566 0.49711925 0.07
l 831 832
v 0.0056850798 0.0088277897 0.07
v -0.84617644 0.53259486 0.07
l 833 834
v 0.0060473802 0.0085836602 0.07
v -0.8232503 0.56739075 0.07
l 835 836
v 0.0063992199 0.0083246604 0.07
v -0.79893027 0.60115213 0.07
l 837 838
v 0.0067399698 0.0080512604 0.07
v -0.77323477 0.63386226 0.07
l 839 840
v 0.0070690601 0.0077639199 0.07
v -0.74620315 0.66547281 0.07
l 841 842
v 0.0073858998 0.0074631399 0.07
v -0.71786237 0.69595058 0.07
l 843 844
v 0.0076899598 0.00714943 0.07
v -0.68828653 0.725214 0.07
l 845 846
v 0.0079807201 0.0068233502 0.07
v -0.65754793 0.75319565 0.07
l 847 848
v 0.0082576498 0.0064854599 0.07
v -0.62562977 0.77991079 0.07
l 849 850
v 0.0085202903 0.0061363499 0.07
v -0.59266263 0.8052478 0.07
l 851 852
v 0.0087681999 0.0057766 0.07
v -0.55866429 0.82919652 0.07
l 853 854
v 0.0090008602 0.0054068598 0.07
v -0.52358427 0.8517833 0.07
l 855 856
v 0.0092180399 0.0050277598 0.07
v -0.48787168 0.87272691 0.07
l 857 858
v 0.0094192 0.0046399501 0.07
v -0.45103068 0.89232565 0.07
l 859 860
v 0.0096039996 0.0042441101 0.07
v -0.41342093 0.91036215 0.07
l 861 862
v 0.0097722597 0.0038409301 0.07
v -0.37536675 0.9266995 0.07
l 863 864
v 0.0099235503 0.0034310799 0.07
v -0.33637252 0.94155636 0.07
l 865 866
v 0.0100578 0.00301531 0.07
v -0.2972162 0.95463639 0.07
l 867 868
v 0.0101745 0.0025943101 0.07
v -0.25694858 0.96625673 0.07
l 869 870
v 0.0102736 0.00216883 0.07
v -0.21656848 0.97610038 0.07
l 871 872
v 0.0103549 0.00173959 0.07
v -0.17574058 0.98427126 0.07
l 873 874
v 0.0104183 0.00130733 0.07
v -0.13469959 0.9907217 0.07
l 875 876
v 0.0104637 0.00087281299 0.07
v -0.093454697 0.99545864 0.07
l 877 878
v 0.0104909 0.000436784 0.07
v -0.051769723 0.99849671 0.07
l 879 880
v 0.0096150199 -0.00043807799 0.0583333
v 0.032390563 0.99930253 0.0583333
l 881 882
v 0.0095851002 -0.00087524502 0.0583333
v 0.077865276 0.99679094 0.0583333
l 883 884
v 0.0095354002 -0.0013106 0.0583333
v 0.12295849 0.99223618 0.0583333
l 885 886
v 0.0094658397 -0.0017432499 0.0583333
v 0.168205 0.98557731 0.0583333
l 887 888
v 0.0093766702 -0.0021722701 0.0583333
v 0.21287221 0.9769036 0.0583333
l 889 890
v 0.0092680901 -0.00259679 0.0583333
v 0.25706278 0.96621578 0.0583333
l 891 892
v 0.0091402503 -0.0030159301 0.0583333
v 0.30087718 0.95348267 0.0583333
l 893 894
v 0.0089935102 -0.0034288301 0.0583333
v 0.34386384 0.93883539 0.0583333
l 895 896
v 0.0088281399 -0.0038346101 0.0583333
v 0.38622778 0.92221588 0.0583333
l 897 898
v 0.0086444803 -0.0042324499 0.0583333
v 0.42778022 0.90369113 0.0583333
l 899 900
v 0.0084428797 -0.0046215099 0.0583333
v 0.46851864 0.88325815 0.0583333
l 901 902
v 0.0082237804 -0.0050009899 0.0583333
v 0.50823468 0.86101812 0.0583333
l 903 904
v 0.0079876501 -0.0053701098 0.0583333
v 0.54686902 0.83701155 0.0583333
l 905 906
v 0.0077349502 -0.0057281102 0.0583333
v 0.58440868 0.81124644 0.0583333
l 907 908
v 0.0074662198 -0.0060742199 0.0583333
v 0.62074381 0.78379323 0.0583333
l 909 910
v 0.0071820202 -0.0064077498 0.0583333
v 0.65575631 0.75474361 0.0583333
l 911 912
v 0.0068829302 -0.006728 0.0583333
v 0.68943275 0.72411107 0.0583333
l 913 914
v 0.0065695699 -0.0070342999 0.0583333
v 0.72168665 0.69197039 0.0583333
l 915 916
v 0.0062425998 -0.0073260199 0.0583333
v 0.7524269 0.65841342 0.0583333
l 917 918
v 0.0059026899 -0.0076025599 0.0583333
v 0.78161096 0.6234891 0.0583333
l 919 920
v 0.0055505498 -0.00786334 0.0583333
v 0.80917801 0.58726933 0.0583333
l 921 922
v 0.0051869 -0.0081078196 0.0583333
v 0.83507545 0.54982138 0.0583333
l 923 924
v 0.0048125 -0.0083355 0.0583333
v 0.85922916 0.51125297 0.0583333
l 925 926
v 0.0044281301 -0.0085458998 0.0583333
v 0.88160949 0.47161331 0.0583333
l 927 928
v 0.00403457 -0.0087385802 0.0583333
v 0.90217278 0.43097469 0.0583333
l 929 930
v 0.00363266 -0.0089131901 0.0583333
v 0.92081408 0.38955668 0.0583333
l 931 932
v 0.0032232199 -0.00906929 0.0583333
v 0.93761776 0.34717058 0.0583333
l 933 934
v 0.0028071001 -0.00920658 0.0583333
v 0.95245582 0.30411005 0.0583333
l 935 936
v 0.0023851499 -0.00932479 0.0583333
v 0.96531127 0.26044045 0.0583333
l 937 938
v 0.0019582701 -0.0094236601 0.0583333
v 0.97616944 0.21621452 0.0583333
l 939 940
v 0.00152732 -0.0095030302 0.0583333
v 0.98498678 0.17162533 0.0583333
l 941 942
v 0.00109321 -0.0095627001 0.0583333
v 0.9917783 0.12661018 0.0583333
l 943 944
v 0.00065683399 -0.0096025998 0.0583333
v 0.99650275 0.081451853 0.0583333
l 945 946
v 0.00021909599 -0.0096224602 0.0583333
v 0.99919143 0.035701556 0.0583333
l 947 948
v -0.00021909599 -0.0096224602 0.0583333
v 0.9997809 -0.0096224602 0.0583333
l 949 950
v -0.00065683399 -0.0096025998 0.0583333
v 0.9983155 -0.054926616 0.0583333
l 951 952
v -0.00109321 -0.0095627001 0.0583333
v 0.99475271 -0.10061715 0.0583333
l 953 954
v -0.00152732 -0.0095030302 0.0583333
v 0.98915777 -0.14567591 0.0583333
l 955 956
v -0.0019582701 -0.0094236601 0.0583333
v 0.98150119 -0.19055202 0.0583333
l 957 958
v -0.0023851499 -0.00932479 0.0583333
v 0.97182602 -0.23496297 0.0583333
l 959 960
v -0.0028071001 -0.00920658 0.0583333
v 0.96011902 -0.27897182 0.0583333
l 961 962
v -0.0032232199 -0.00906929 0.0583333
v 0.9464255 -0.32238592 0.0583333
l 963 964
v -0.00363266 -0.0089131901 0.0583333
v 0.93076188 -0.36515306 0.0583333
l 965 966
v -0.00403457 -0.0087385802 0.0583333
v 0.91314685 -0.40720845 0.0583333
l 967 968
v -0.0044281301 -0.0085458998 0.0583333
v 0.89371008 -0.44825917 0.0583333
l 969 970
v -0.0048125 -0.0083355 0.0583333
v 0.87236886 -0.48849471 0.0583333
l 971 972
v -0.0051869 -0.0081078196 0.0583333
v 0.84922976 -0.52769629 0.0583333
l 973 974
v -0.0055505498 -0.00786334 0.0583333
v 0.824338 -0.56579254 0.0583333
l 975 976
v -0.0059026899 -0.0076025599 0.0583333
v 0.79772477 -0.60273523 0.0583333
l 977 978
v -0.0062425998 -0.0073260199 0.0583333
v 0.76946567 -0.63841768 0.0583333
l 979 980
v -0.0065695699 -0.0070342999 0.0583333
v 0.73961473 -0.67277374 0.0583333
l 981 982
v -0.0068829302 -0.006728 0.0583333
v 0.70823415 -0.70573269 0.0583333
l 983 984
v -0.0071820202 -0.0064077498 0.0583333
v 0.6753678 -0.73724682 0.0583333
l 985 986
v -0.0074662198 -0.0060742199 0.0583333
v 0.64110807 -0.76722558 0.0583333
l 987 988
v -0.0077349502 -0.0057281102 0.0583333
v 0.60554264 -0.79559556 0.0583333
l 989 990
v -0.0079876501 -0.0053701098 0.0583333
v 0.56868608 -0.82234466 0.0583333
l 991 992
v -0.0082237804 -0.0050009899 0.0583333
v 0.53065759 -0.84738265 0.0583333
l 993 994
v -0.0084428797 -0.0046215099 0.0583333
v 0.49156802 -0.87064062 0.0583333
l 995 996
v -0.0086444803 -0.0042324499 0.0583333
v 0.45143128 -0.89211211 0.0583333
l 997 998
v -0.0088281399 -0.0038346101 0.0583333
v 0.4103076 -0.91175819 0.0583333
l 999 1000
v -0.0089935102 -0.0034288301 0.0583333
v 0.36840613 -0.92947932 0.0583333
l 1001 1002
v -0.0091402503 -0.0030159301 0.0583333
v 0.32573008 -0.94528015 0.0583333
l 1003 1004
v -0.0092680901 -0.00259679 0.0583333
v 0.28246884 -0.95909539 0.0583333
l 1005 1006
v -0.0093766702 -0.0021722701 0.0583333
v 0.23841802 -0.97098484 0.0583333
l 1007 1008
v -0.0094658397 -0.0017432499 0.0583333
v 0.1940297 -0.98081912 0.0583333
l 1009 1010
v -0.0095354002 -0.0013106 0.0583333
v 0.14920376 -0.98863116 0.0583333
l 1011 1012
v -0.0095851002 -0.00087524502 0.0583333
v 0.10383799 -0.99442202 0.0583333
l 1013 1014
v -0.0096150199 -0.00043807799 0.0583333
v 0.058665156 -0.99810426 0.0583333
l 1015 1016
v -0.0096249999 2.44674e-17 0.0583333
v 0.013150543 -0.9997406 0.0583333
l 1017 1018
v -0.0096150199 0.00043807799 0.0583333
v -0.032390563 -0.99930253 0.0583333
l 1019 1020
v -0.0095851002 0.00087524502 0.0583333
v -0.077865276 -0.99679094 0.0583333
l 1021 1022
v -0.0095354002 0.0013106 0.0583333
v -0.12295849 -0.99223618 0.0583333
l 1023 1024
v -0.0094658397 0.0017432499 0.0583333
v -0.168205 -0.98557731 0.0583333
l 1025 1026
v -0.0093766702 0.0021722701 0.0583333
v -0.21287221 -0.9769036 0.0583333
l 1027 1028
v -0.0092680901 0.00259679 0.0583333
v -0.25706278 -0.96621578 0.0583333
l 1029 1030
v -0.0091402503 0.0030159301 0.0583333
v -0.30087718 -0.95348267 0.0583333
l 1031 1032
v -0.0089935102 0.0034288301 0.0583333
v -0.34386384 -0.93883539 0.0583333
l 1033 1034
v -0.0088281399 0.0038346101 0.0583333
v -0.38622778 -0.92221588 0.0583333
l 1035 1036
v -0.0086444803 0.0042324499 0.0583333
v -0.42778022 -0.90369113 0.0583333
l 1037 1038
v -0.0084428797 0.0046215099 0.0583333
v -0.46851864 -0.88325815 0.0583333
l 1039 1040
v -0.0082237804 0.0050009899 0.0583333
v -0.50823468 -0.86101812 0.0583333
l 1041 1042
v -0.0079876501 0.0053701098 0.0583333
v -0.54686902 -0.83701155 0.0583333
l 1043 1044
v -0.0077349502 0.0057281102 0.0583333
v -0.58440868 -0.81124644 0.0583333
l 1045 1046
v -0.0074662198 0.0060742199 0.0583333
v -0.62074381 -0.78379323 0.0583333
l 1047 1048
v -0.0071820202 0.0064077498 0.0583333
v -0.65575631 -0.75474361 0.0583333
l 1049 1050
v -0.0068829302 0.006728 0.0583333
v -0.68943275 -0.72411107 0.0583333
l 1051 1052
v -0.0065695699 0.0070342999 0.0583333
v -0.72168665 -0.69197039 0.0583333
l 1053 1054
v -0.0062425998 0.0073260199 0.0583333
v -0.7524269 -0.65841342 0.0583333
l 1055 1056
v -0.0059026899 0.0076025599 0.0583333
v -0.78161096 -0.6234891 0.0583333
l 1057 1058
v -0.0055505498 0.00786334 0.0583333
v -0.80917801 -0.58726933 0.0583333
l 1059 1060
v -0.0051869 0.0081078196 0.0583333
v -0.83507545 -0.54982138 0.0583333
l 1061 1062
v -0.0048125 0.0083355 0.0583333
v -0.85922916 -0.51125297 0.0583333
l 1063 1064
v -0.0044281301 0.0085458998 0.0583333
v -0.88160949 -0.47161331 0.0583333
l 1065 1066
v -0.00403457 0.0087385802 0.0583333
v -0.90217278 -0.43097469 0.0583333
l 1067 1068
v -0.00363266 0.0089131901 0.0583333
v -0.92081408 -0.38955668 0.0583333
l 1069 1070
v -0.0032232199 0.00906929 0.0583333
v -0.93761776 -0.34717058 0.0583333
l 1071 1072
v -0.0028071001 0.00920658 0.0583333
v -0.95245582 -0.30411005 0.0583333
l 1073 1074
v -0.0023851499 0.00932479 0.0583333
v -0.96531127 -0.26044045 0.0583333
l 1075 1076
v -0.0019582701 0.0094236601 0.0583333
v -0.97616944 -0.21621452 0.0583333
l 1077 1078
v -0.00152732 0.0095030302 0.0583333
v -0.98498678 -0.17162533 0.0583333
l 1079 1080
v -0.00109321 0.0095627001 0.0583333
v -0.9917783 -0.12661018 0.0583333
l 1081 1082
v -0.00065683399 0.0096025998 0.0583333
v -0.99650275 -0.081451853 0.0583333
l 1083 1084
v -0.00021909599 0.0096224602 0.0583333
v -0.99919143 -0.035701556 0.0583333
l 1085 1086
v 0.00021909599 0.0096224602 0.0583333
v -0.9997809 0.0096224602 0.0583333
l 1087 1088
v 0.00065683399 0.0096025998 0.0583333
v -0.9983155 0.054926616 0.0583333
l 1089 1090
v 0.00109321 0.0095627001 0.0583333
v -0.99475271 0.10061715 0.0583333
l 1091 1092
v 0.00152732 0.0095030302 0.0583333
v -0.98915777 0.14567591 0.0583333
l 1093 1094
v 0.0019582701 0.0094236601 0.0583333
v -0.98150119 0.19055202 0.0583333
l 1095 1096
v 0.0023851499 0.00932479 0.0583333
v -0.97182602 0.23496297 0.0583333
l 1097 1098
v 0.0028071001 0.00920658 0.0583333
v -0.96011902 0.27897182 0.0583333
l 1099 1100
v 0.0032232199 0.00906929 0.0583333
v -0.9464255 0.32238592 0.0583333
l 1101 1102
v 0.00363266 0.0089131901 0.0583333
v -0.93076188 0.36515306 0.0583333
l 1103 1104
v 0.00403457 0.0087385802 0.0583333
v -0.91314685 0.40720845 0.0583333
l 1105 1106
v 0.0044281301 0.0085458998 0.0583333
v -0.89371008 0.44825917 0.0583333
l 1107 1108
v 0.0048125 0.0083355 0.0583333
v -0.87236886 0.48849471 0.0583333
l 1109 1110
v 0.0051869 0.0081078196 0.0583333
v -0.84922976 0.52769629 0.0583333
l 1111 1112
v 0.0055505498 0.00786334 0.0583333
v -0.824338 0.56579254 0.0583333
l 1113 1114
v 0.0059026899 0.0076025599 0.0583333
v -0.79772477 0.60273523 0.0583333
l 1115 1116
v 0.0062425998 0.0073260199 0.0583333
v -0.76946567 0.63841768 0.0583333
l 1117 1118
v 0.0065695699 0.0070342999 0.0583333
v -0.73961473 0.67277374 0.0583333
l 1119 1120
v 0.0068829302 0.006728 0.0583333
v -0.70823415 0.70573269 0.0583333
l 1121 1122
v 0.0071820202 0.0064077498 0.0583333
v -0.6753678 0.73724682 0.0583333
l 1123 1124
v 0.0074662198 0.0060742199 0.0583333
v -0.64110807 0.76722558 0.0583333
l 1125 1126
v 0.0077349502 0.0057281102 0.0583333
v -0.60554264 0.79559556 0.0583333
l 1127 1128
v 0.0079876501 0.0053701098 0.0583333
v -0.56868608 0.82234466 0.0583333
l 1129 1130
v 0.0082237804 0.0050009899 0.0583333
v -0.53065759 0.84738265 0.0583333
l 1131 1132
v 0.0084428797 0.0046215099 0.0583333
v -0.49156802 0.87064062 0.0583333
l 1133 1134
v 0.0086444803 0.0042324499 0.0583333
v -0.45143128 0.89211211 0.0583333
l 1135 1136
v 0.0088281399 0.0038346101 0.0583333
v -0.4103076 0.91175819 0.0583333
l 1137 1138
v 0.0089935102 0.0034288301 0.0583333
v -0.36840613 0.92947932 0.0583333
l 1139 1140
v 0.0091402503 0.0030159301 0.0583333
v -0.32573008 0.94528015 0.0583333
l 1141 1142
v 0.0092680901 0.00259679 0.0583333
v -0.28246884 0.95909539 0.0583333
l 1143 1144
v 0.0093766702 0.0021722701 0.0583333
v -0.23841802 0.97098484 0.0583333
l 1145 1146
v 0.0094658397 0.0017432499 0.0583333
v -0.1940297 0.98081912 0.0583333
l 1147 1148
v 0.0095354002 0.0013106 0.0583333
v -0.14920376 0.98863116 0.0583333
l 1149 1150
v 0.0095851002 0.00087524502 0.0583333
v -0.10383799 0.99442202 0.0583333
l 1151 1152
v 0.0096150199 0.00043807799 0.0583333
v -0.058665156 0.99810426 0.0583333
l 1153 1154
v 0.0096249999 0 0.0583333
v -0.013150543 0.9997406 0.0583333
l 1155 1156
v 0.0104909 -0.000436784 0.0583333
v 0.031320368 0.99934626 0.0583333
l 1157 1158
v 0.0104637 -0.00087281299 0.0583333
v 0.072724323 0.99718711 0.0583333
l 1159 1160
v 0.0104183 -0.00130733 0.0583333
v 0.1143367 0.9932785 0.0583333
l 1161 1162
v 0.0103549 -0.00173959 0.0583333
v 0.15547279 0.98767478 0.0583333
l 1163 1164
v 0.0102736 -0.00216883 0.0583333
v 0.19636908 0.98036284 0.0583333
l 1165 1166
v 0.0101745 -0.0025943101 0.0583333
v 0.23701658 0.97133724 0.0583333
l 1167 1168
v 0.0100578 -0.00301531 0.0583333
v 0.27718088 0.96064711 0.0583333
l 1169 1170
v 0.0099235503 -0.0034310799 0.0583333
v 0.31719755 0.94819 0.0583333
l 1171 1172
v 0.0097722597 -0.0038409301 0.0583333
v 0.35606833 0.93428435 0.0583333
l 1173 1174
v 0.0096039996 -0.0042441101 0.0583333
v 0.39474301 0.91861446 0.0583333
l 1175 1176
v 0.0094192 -0.0046399501 0.0583333
v 0.43244413 0.90147809 0.0583333
l 1177 1178
v 0.0092180399 -0.0050277598 0.0583333
v 0.46966792 0.88265794 0.0583333
l 1179 1180
v 0.0090008602 -0.0054068598 0.0583333
v 0.50609058 0.86229229 0.0583333
l 1181 1182
v 0.0087681999 -0.0057766 0.0583333
v 0.54135333 0.84059984 0.0583333
l 1183 1184
v 0.0085202903 -0.0061363499 0.0583333
v 0.57595278 0.81728357 0.0583333
l 1185 1186
v 0.0082576498 -0.0064854599 0.0583333
v 0.60944057 0.79262599 0.0583333
l 1187 1188
v 0.0079807201 -0.0068233502 0.0583333
v 0.64186814 0.76660198 0.0583333
l 1189 1190
v 0.0076899598 -0.00714943 0.0583333
v 0.67321861 0.73922287 0.0583333
l 1191 1192
v 0.0073858998 -0.0074631399 0.0583333
v 0.70336239 0.71060143 0.0583333
l 1193 1194
v 0.0070690601 -0.0077639199 0.0583333
v 0.73231733 0.68072352 0.0583333
l 1195 1196
v 0.0067399698 -0.0080512604 0.0583333
v 0.76001218 0.64965763 0.0583333
l 1197 1198
v 0.0063992199 -0.0083246604 0.0583333
v 0.78637396 0.61748634 0.0583333
l 1199 1200
v 0.0060473802 -0.0085836602 0.0583333
v 0.81137687 0.58424381 0.0583333
l 1201 1202
v 0.0056850798 -0.0088277897 0.0583333
v 0.83498276 0.5499793 0.0583333
l 1203 1204
v 0.0053129401 -0.0090565998 0.0583333
v 0.85717446 0.51471047 0.0583333
l 1205 1206
v 0.0049315998 -0.0092698401 0.0583333
v 0.8777402 0.47879281 0.0583333
l 1207 1208
v 0.00454171 -0.0094668902 0.0583333
v 0.89703295 0.44159784 0.0583333
l 1209 1210
v 0.0041439701 -0.00964766 0.0583333
v 0.9145287 0.40411513 0.0583333
l 1211 1212
v 0.0037390599 -0.0098117301 0.0583333
v 0.93054415 0.36573097 0.0583333
l 1213 1214
v 0.00332767 -0.0099587198 0.0583333
v 0.94502262 0.32650914 0.0583333
l 1215 1216
v 0.00291052 -0.0100886 0.0583333
v 0.95770212 0.28718737 0.0583333
l 1217 1218
v 0.00248833 -0.0102009 0.0583333
v 0.96888503 0.2468544 0.0583333
l 1219 1220
v 0.0020618399 -0.0102956 0.0583333
v 0.97828568 0.20646929 0.0583333
l 1221 1222
v 0.0016317701 -0.0103724 0.0583333
v 0.9860584 0.16542355 0.0583333
l 1223 1224
v 0.00119888 -0.0104313 0.0583333
v 0.99206909 0.12438791 0.0583333
l 1225 1226
v 0.00076391699 -0.0104722 0.0583333
v 0.99637211 0.083145728 0.0583333
l 1227 1228
v 0.00032763 -0.0104949 0.0583333
v 0.99897681 0.041464918 0.0583333
l 1229 1230
v -0.000109225 -0.0104994 0.0583333
v 0.99983772 -0.00019870092 0.0583333
l 1231 1232
v -0.000545891 -0.0104858 0.0583333
v 0.99896945 -0.041616028 0.0583333
l 1233 1234
v -0.00098161004 -0.0104541 0.0583333
v 0.99638227 -0.083016438 0.0583333
l 1235 1236
v -0.00141564 -0.0104041 0.0583333
v 0.99201425 -0.12484645 0.0583333
l 1237 1238
v -0.0018472 -0.0103362 0.0583333
v 0.98600064 -0.16576026 0.0583333
l 1239 1240
v -0.0022755801 -0.0102504 0.0583333
v 0.9782505 -0.2066393 0.0583333
l 1241 1242
v -0.0027000101 -0.0101469 0.0583333
v 0.96883075 -0.24706036 0.0583333
l 1243 1244
v -0.00311977 -0.0100258 0.0583333
v 0.9576945 -0.28721876 0.0583333
l 1245 1246
v -0.00353412 -0.0098873302 0.0583333
v 0.9449063 -0.32684279 0.0583333
l 1247 1248
v -0.0039423699 -0.00973175 0.0583333
v 0.93050237 -0.36583992 0.0583333
l 1249 1250
v -0.00434379 -0.0095593799 0.0583333
v 0.91452507 -0.40412245 0.0583333
l 1251 1252
v -0.0047376798 -0.0093703698 0.0583333
v 0.89683633 -0.44199527 0.0583333
l 1253 1254
v -0.0051233699 -0.0091651902 0.0583333
v 0.8777249 -0.4788235 0.0583333
l 1255 1256
v -0.0055002002 -0.0089441603 0.0583333
v 0.85706861 -0.51488393 0.0583333
l 1257 1258
v -0.0058674999 -0.00870761 0.0583333
v 0.83486387 -0.55016006 0.0583333
l 1259 1260
v -0.0062246402 -0.0084559899 0.0583333
v 0.81125942 -0.58440721 0.0583333
l 1261 1262
v -0.0065710102 -0.0081897397 0.0583333
v 0.7862612 -0.61762972 0.0583333
l 1263 1264
v -0.0069060102 -0.0079092998 0.0583333
v 0.75988011 -0.64981197 0.0583333
l 1265 1266
v -0.0072290399 -0.0076151802 0.0583333
v 0.73219103 -0.68085954 0.0583333
l 1267 1268
v -0.0075395699 -0.0073078698 0.0583333
v 0.70324231 -0.71072035 0.0583333
l 1269 1270
v -0.0078370301 -0.0069879098 0.0583333
v 0.67304965 -0.73937669 0.0583333
l 1271 1272
v -0.0081209401 -0.00665585 0.0583333
v 0.64172949 -0.76671797 0.0583333
l 1273 1274
v -0.0083907899 -0.0063122702 0.0583333
v 0.60928106 -0.79274821 0.0583333
l 1275 1276
v -0.0086460998 -0.0059577599 0.0583333
v 0.57575297 -0.81742417 0.0583333
l 1277 1278
v -0.0088864099 -0.0055929399 0.0583333
v 0.54120438 -0.84069779 0.0583333
l 1279 1280
v -0.0091114603 -0.0052184402 0.0583333
v 0.50597412 -0.8623572 0.0583333
l 1281 1282
v -0.0093205897 -0.0048349001 0.0583333
v 0.46940054 -0.88280192 0.0583333
l 1283 1284
v -0.0095137004 -0.0044429898 0.0583333
v 0.43248386 -0.90145924 0.0583333
l 1285 1286
v -0.0096902801 -0.00404339 0.0583333
v 0.39449721 -0.91871955 0.0583333
l 1287 1288
v -0.0098500503 -0.00363679 0.0583333
v 0.35587075 -0.9343614 0.0583333
l 1289 1290
v -0.00999285 -0.00322389 0.0583333
v 0.31685764 -0.94829995 0.0583333
l 1291 1292
v -0.0101182 -0.00280542 0.0583333
v 0.27682943 -0.96075169 0.0583333
l 1293 1294
v -0.0102262 -0.0023820801 0.0583333
v 0.23697033 -0.97134744 0.0583333
l 1295 1296
v -0.0103164 -0.00195463 0.0583333
v 0.19615444 -0.98040738 0.0583333
l 1297 1298
v -0.0103889 -0.0015237899 0.0583333
v 0.15555333 -0.98765927 0.0583333
l 1299 1300
v -0.0104432 -0.00109031 0.0583333
v 0.11385246 -0.99333554 0.0583333
l 1301 1302
v -0.0104795 -0.00065494003 0.0583333
v 0.072607792 -0.99719721 0.0583333
l 1303 1304
v -0.0104977 -0.000218439 0.0583333
v 0.031163222 -0.99935025 0.0583333
l 1305 1306
v -0.0104977 0.000218439 0.0583333
v -0.0104977 -0.99978156 0.0583333
l 1307 1308
v -0.0104795 0.00065494003 0.0583333
v -0.052140422 -0.99847687 0.0583333
l 1309 1310
v -0.0104432 0.00109031 0.0583333
v -0.093530492 -0.99545196 0.0583333
l 1311 1312
v -0.0103889 0.0015237899 0.0583333
v -0.13468456 -0.99072144 0.0583333
l 1313 1314
v -0.0103164 0.00195463 0.0583333
v -0.17625863 -0.98418085 0.0583333
l 1315 1316
v -0.0102262 0.0023820801 0.0583333
v -0.21669704 -0.97607067 0.0583333
l 1317 1318
v -0.0101182 0.00280542 0.0583333
v -0.25731473 -0.96615994 0.0583333
l 1319 1320
v -0.00999285 0.00322389 0.0583333
v -0.29694048 -0.95472238 0.0583333
l 1321 1322
v -0.0098500503 0.00363679 0.0583333
v -0.33670054 -0.94143927 0.0583333
l 1323 1324
v -0.0096902801 0.00404339 0.0583333
v -0.37541108 -0.92668122 0.0583333
l 1325 1326
v -0.0095137004 0.0044429898 0.0583333
v -0.41370119 -0.91023317 0.0583333
l 1327 1328
v -0.0093205897 0.0048349001 0.0583333
v -0.45131815 -0.89218135 0.0583333
l 1329 1330
v -0.0091114603 0.0052184402 0.0583333
v -0.48783259 -0.87274858 0.0583333
l 1331 1332
v -0.0088864099 0.0055929399 0.0583333
v -0.52397199 -0.85154582 0.0583333
l 1333 1334
v -0.0086460998 0.0059577599 0.0583333
v -0.55873689 -0.8291471 0.0583333
l 1335 1336
v -0.0083907899 0.0063122702 0.0583333
v -0.59278986 -0.80515414 0.0583333
l 1337 1338
v -0.0081209401 0.00665585 0.0583333
v -0.62579279 -0.77978009 0.0583333
l 1339 1340
v -0.0078370301 0.0069879098 0.0583333
v -0.65768746 -0.75307421 0.0583333
l 1341 1342
v -0.0075395699 0.0073078698 0.0583333
v -0.68842625 -0.72508091 0.0583333
l 1343 1344
v -0.0072290399 0.0076151802 0.0583333
v -0.71801092 -0.6957973 0.0583333
l 1345 1346
v -0.0069060102 0.0079092998 0.0583333
v -0.74632608 -0.66533506 0.0583333
l 1347 1348
v -0.0065710102 0.0081897397 0.0583333
v -0.77335713 -0.63371293 0.0583333
l 1349 1350
v -0.0062246402 0.0084559899 0.0583333
v -0.79905685 -0.60098399 0.0583333
l 1351 1352
v -0.0058674999 0.00870761 0.0583333
v -0.82335156 -0.56724361 0.0583333
l 1353 1354
v -0.0055002002 0.0089441603 0.0583333
v -0.84623157 -0.53250829 0.0583333
l 1355 1356
v -0.0051233699 0.0091651902 0.0583333
v -0.86769218 -0.49677458 0.0583333
l 1357 1358
v -0.0047376798 0.0093703698 0.0583333
v -0.88758595 -0.46028794 0.0583333
l 1359 1360
v -0.00434379 0.0095593799 0.0583333
v -0.9059178 -0.42306552 0.0583333
l 1361 1362
v -0.0039423699 0.00973175 0.0583333
v -0.92281123 -0.38483132 0.0583333
l 1363 1364
v -0.00353412 0.0098873302 0.0583333
v -0.93797886 -0.34622084 0.0583333
l 1365 1366
v -0.00311977 0.0100258 0.0583333
v -0.95156019 -0.30692966 0.0583333
l 1367 1368
v -0.0027000101 0.0101469 0.0583333
v -0.96351428 -0.26704606 0.0583333
l 1369 1370
v -0.0022755801 0.0102504 0.0583333
v -0.97380634 -0.22666306 0.0583333
l 1371 1372
v -0.0018472 0.0103362 0.0583333
v -0.98237328 -0.1860527 0.0583333
l 1373 1374
v -0.00141564 0.0104041 0.0583333
v -0.98926348 -0.14501996 0.0583333
l 1375 1376
v -0.00098161004 0.0104541 0.0583333
v -0.9944115 -0.10398825 0.0583333
l 1377 1378
v -0.000545891 0.0104858 0.0583333
v -0.99790977 -0.062076538 0.0583333
l 1379 1380
v -0.000109225 0.0104994 0.0583333
v -0.99962456 -0.020630828 0.0583333
l 1381 1382
v 0.00032763 0.0104949 0.0583333
v -0.99961932 0.020795599 0.0583333
l 1383 1384
v 0.00076391699 0.0104722 0.0583333
v -0.99788526 0.062432017 0.0583333
l 1385 1386
v 0.00119888 0.0104313 0.0583333
v -0.99440932 0.10404923 0.0583333
l 1387 1388
v 0.0016317701 0.0103724 0.0583333
v -0.98923844 0.14519161 0.0583333
l 1389 1390
v 0.0020618399 0.0102956 0.0583333
v -0.98236479 0.18609155 0.0583333
l 1391 1392
v 0.00248833 0.0102009 0.0583333
v -0.97373551 0.22696579 0.0583333
l 1393 1394
v 0.00291052 0.0100886 0.0583333
v -0.96348618 0.2671439 0.0583333
l 1395 1396
v 0.00332767 0.0099587198 0.0583333
v -0.95146393 0.30723469 0.0583333
l 1397 1398
v 0.0037390599 0.0098117301 0.0583333
v -0.93795589 0.34627959 0.0583333
l 1399 1400
v 0.0041439701 0.00964766 0.0583333
v -0.92266112 0.38519036 0.0583333
l 1401 1402
v 0.00454171 0.0094668902 0.0583333
v -0.90584302 0.42322968 0.0583333
l 1403 1404
v 0.0049315998 0.0092698401 0.0583333
v -0.88755964 0.46033457 0.0583333
l 1405 1406
v 0.0053129401 0.0090565998 0.0583333
v -0.86749566 0.49711925 0.0583333
l 1407 1408
v 0.0056850798 0.0088277897 0.0583333
v -0.84617644 0.53259486 0.0583333
l 1409 1410
v 0.0060473802 0.0085836602 0.0583333
v -0.8232503 0.56739075 0.0583333
l 1411 1412
v 0.0063992199 0.0083246604 0.0583333
v -0.79893027 0.60115213 0.0583333
l 1413 1414
v 0.0067399698 0.0080512604 0.0583333
v -0.77323477 0.63386226 0.0583333
l 1415 1416
v 0.0070690601 0.0077639199 0.0583333
v -0.74620315 0.66547281 0.0583333
l 1417 1418
v 0.0073858998 0.0074631399 0.0583333
v -0.71786237 0.69595058 0.0583333
l 1419 1420
v 0.0076899598 0.00714943 0.0583333
v -0.68828653 0.725214 0.0583333
l 1421 1422
v 0.0079807201 0.0068233502 0.0583333
v -0.65754793 0.75319565 0.0583333
l 1423 1424
v 0.0082576498 0.0064854599 0.0583333
v -0.62562977 0.77991079 0.0583333
l 1425 1426
v 0.0085202903 0.0061363499 0.0583333
v -0.59266263 0.8052478 0.0583333
l 1427 1428
v 0.0087681999 0.0057766 0.0583333
v -0.55866429 0.82919652 0.0583333
l 1429 1430
v 0.0090008602 0.0054068598 0.0583333
v -0.52358427 0.8517833 0.0583333
l 1431 1432
v 0.0092180399 0.0050277598 0.0583333
v -0.48787168 0.87272691 0.0583333
l 1433 1434
v 0.0094192 0.0046399501 0.0583333
v -0.45103068 0.89232565 0.0583333
l 1435 1436
v 0.0096039996 0.0042441101 0.0583333
v -0.41342093 0.91036215 0.0583333
l 1437 1438
v 0.0097722597 0.0038409301 0.0583333
v -0.37536675 0.9266995 0.0583333
l 1439 1440
v 0.0099235503 0.0034310799 0.0583333
v -0.33637252 0.94155636 0.0583333
l 1441 1442
v 0.0100578 0.00301531 0.0583333
v -0.2972162 0.95463639 0.0583333
l 1443 1444
v 0.0101745 0.0025943101 0.0583333
v -0.25694858 0.96625673 0.0583333
l 1445 1446
v 0.0102736 0.00216883 0.0583333
v -0.21656848 0.97610038 0.0583333
l 1447 1448
v 0.0103549 0.00173959 0.0583333
v -0.17574058 0.98427126 0.0583333
l 1449 1450
v 0.0104183 0.00130733 0.0583333
v -0.13469959 0.9907217 0.0583333
l 1451 1452
v 0.0104637 0.00087281299 0.0583333
v -0.093454697 0.99545864 0.0583333
l 1453 1454
v 0.0104909 0.000436784 0.0583333
v -0.051769723 0.99849671 0.0583333
l 1455 1456
v 0.0105 0 0.0583333
v -0.010329469 0.99978304 0.0583333
l 1457 1458
