v 109.886 -5.0066061 250
v 110 0 250
l 1 2
v 109.5443 -10.00283 250
v 109.886 -5.0066061 250
l 3 4
v 108.9755 -14.97833 250
v 109.5443 -10.00283 250
l 5 6
v 108.1808 -19.922779 250
v 108.9755 -14.97833 250
l 7 8
v 107.1619 -24.825939 250
v 108.1808 -19.922779 250
l 9 10
v 105.9209 -29.677641 250
v 107.1619 -24.825939 250
l 11 12
v 104.4604 -34.467838 250
v 105.9209 -29.677641 250
l 13 14
v 102.7833 -39.186588 250
v 104.4604 -34.467838 250
l 15 16
v 100.8932 -43.82412 250
v 102.7833 -39.186588 250
l 17 18
v 98.794052 -48.370819 250
v 100.8932 -43.82412 250
l 19 20
v 96.490089 -52.817261 250
v 98.794052 -48.370819 250
l 21 22
v 93.98613 -57.154228 250
v 96.490089 -52.817261 250
l 23 24
v 91.287376 -61.372749 250
v 93.98613 -57.154228 250
l 25 26
v 88.399422 -65.46405 250
v 91.287376 -61.372749 250
l 27 28
v 85.328239 -69.41967 250
v 88.399422 -65.46405 250
l 29 30
v 82.080208 -73.231407 250
v 85.328239 -69.41967 250
l 31 32
v 78.662048 -76.891373 250
v 82.080208 -73.231407 250
l 33 34
v 75.080849 -80.39196 250
v 78.662048 -76.891373 250
l 35 36
v 71.344032 -83.725922 250
v 75.080849 -80.39196 250
l 37 38
v 67.459343 -86.886353 250
v 71.344032 -83.725922 250
l 39 40
v 63.434841 -89.866692 250
v 67.459343 -86.886353 250
l 41 42
v 59.278851 -92.660767 250
v 63.434841 -89.866692 250
l 43 44
v 55 -95.262787 250
v 59.278851 -92.660767 250
l 45 46
v 50.607151 -97.667374 250
v 55 -95.262787 250
l 47 48
v 46.109421 -99.869522 250
v 50.607151 -97.667374 250
l 49 50
v 41.516109 -101.8647 250
v 46.109421 -99.869522 250
l 51 52
v 36.836761 -103.6487 250
v 41.516109 -101.8647 250
l 53 54
v 32.081051 -105.2179 250
v 36.836761 -103.6487 250
l 55 56
v 27.25886 -106.569 250
v 32.081051 -105.2179 250
l 57 58
v 22.380159 -107.6992 250
v 27.25886 -106.569 250
l 59 60
v 17.45508 -108.6063 250
v 22.380159 -107.6992 250
l 61 62
v 12.49382 -109.2882 250
v 17.45508 -108.6063 250
l 63 64
v 7.5066652 -109.7436 250
v 12.49382 -109.2882 250
l 65 66
v 2.503952 -109.9715 250
v 7.5066652 -109.7436 250
l 67 68
v -2.503952 -109.9715 250
v 2.503952 -109.9715 250
l 69 70
v -7.5066652 -109.7436 250
v -2.503952 -109.9715 250
l 71 72
v -12.49382 -109.2882 250
v -7.5066652 -109.7436 250
l 73 74
v -17.45508 -108.6063 250
v -12.49382 -109.2882 250
l 75 76
v -22.380159 -107.6992 250
v -17.45508 -108.6063 250
l 77 78
v -27.25886 -106.569 250
v -22.380159 -107.6992 250
l 79 80
v -32.081051 -105.2179 250
v -27.25886 -106.569 250
l 81 82
v -36.836761 -103.6487 250
v -32.081051 -105.2179 250
l 83 84
v -41.516109 -101.8647 250
v -36.836761 -103.6487 250
l 85 86
v -46.109421 -99.869522 250
v -41.516109 -101.8647 250
l 87 88
v -50.607151 -97.667374 250
v -46.109421 -99.869522 250
l 89 90
v -55 -95.262787 250
v -50.607151 -97.667374 250
l 91 92
v -59.278851 -92.660767 250
v -55 -95.262787 250
l 93 94
v -63.434841 -89.866692 250
v -59.278851 -92.660767 250
l 95 96
v -67.459343 -86.886353 250
v -63.434841 -89.866692 250
l 97 98
v -71.344032 -83.725922 250
v -67.459343 -86.886353 250
l 99 100
v -75.080849 -80.39196 250
v -71.344032 -83.725922 250
l 101 102
v -78.662048 -76.891373 250
v -75.080849 -80.39196 250
l 103 104
v -82.080208 -73.231407 250
v -78.662048 -76.891373 250
l 105 106
v -85.328239 -69.41967 250
v -82.080208 -73.231407 250
l 107 108
v -88.399422 -65.46405 250
v -85.328239 -69.41967 250
l 109 110
v -91.287376 -61.372749 250
v -88.399422 -65.46405 250
l 111 112
v -93.98613 -57.154228 250
v -91.287376 -61.372749 250
l 113 114
v -96.490089 -52.817261 250
v -93.98613 -57.154228 250
l 115 116
v -98.794052 -48.370819 250
v -96.490089 -52.817261 250
l 117 118
v -100.8932 -43.82412 250
v -98.794052 -48.370819 250
l 119 120
v -102.7833 -39.186588 250
v -100.8932 -43.82412 250
l 121 122
v -104.4604 -34.467838 250
v -102.7833 -39.186588 250
l 123 124
v -105.9209 -29.677641 250
v -104.4604 -34.467838 250
l 125 126
v -107.1619 -24.825939 250
v -105.9209 -29.677641 250
l 127 128
v -108.1808 -19.922779 250
v -107.1619 -24.825939 250
l 129 130
v -108.9755 -14.97833 250
v -108.1808 -19.922779 250
l 131 132
v -109.5443 -10.00283 250
v -108.9755 -14.97833 250
l 133 134
v -109.886 -5.0066061 250
v -109.5443 -10.00283 250
l 135 136
v -110 2.796278e-13 250
v -109.886 -5.0066061 250
l 137 138
v -109.886 5.0066061 250
v -110 2.796278e-13 250
l 139 140
v -109.5443 10.00283 250
v -109.886 5.0066061 250
l 141 142
v -108.9755 14.97833 250
v -109.5443 10.00283 250
l 143 144
v -108.1808 19.922779 250
v -108.9755 14.97833 250
l 145 146
v -107.1619 24.825939 250
v -108.1808 19.922779 250
l 147 148
v -105.9209 29.677641 250
v -107.1619 24.825939 250
l 149 150
v -104.4604 34.467838 250
v -105.9209 29.677641 250
l 151 152
v -102.7833 39.186588 250
v -104.4604 34.467838 250
l 153 154
v -100.8932 43.82412 250
v -102.7833 39.186588 250
l 155 156
v -98.794052 48.370819 250
v -100.8932 43.82412 250
l 157 158
v -96.490089 52.817261 250
v -98.794052 48.370819 250
l 159 160
v -93.98613 57.154228 250
v -96.490089 52.817261 250
l 161 162
v -91.287376 61.372749 250
v -93.98613 57.154228 250
l 163 164
v -88.399422 65.46405 250
v -91.287376 61.372749 250
l 165 166
v -85.328239 69.41967 250
v -88.399422 65.46405 250
l 167 168
v -82.080208 73.231407 250
v -85.328239 69.41967 250
l 169 170
v -78.662048 76.891373 250
v -82.080208 73.231407 250
l 171 172
v -75.080849 80.39196 250
v -78.662048 76.891373 250
l 173 174
v -71.344032 83.725922 250
v -75.080849 80.39196 250
l 175 176
v -67.459343 86.886353 250
v -71.344032 83.725922 250
l 177 178
v -63.434841 89.866692 250
v -67.459343 86.886353 250
l 179 180
v -59.278851 92.660767 250
v -63.434841 89.866692 250
l 181 182
v -55 95.262787 250
v -59.278851 92.660767 250
l 183 184
v -50.607151 97.667374 250
v -55 95.262787 250
l 185 186
v -46.109421 99.869522 250
v -50.607151 97.667374 250
l 187 188
v -41.516109 101.8647 250
v -46.109421 99.869522 250
l 189 190
v -36.836761 103.6487 250
v -41.516109 101.8647 250
l 191 192
v -32.081051 105.2179 250
v -36.836761 103.6487 250
l 193 194
v -27.25886 106.569 250
v -32.081051 105.2179 250
l 195 196
v -22.380159 107.6992 250
v -27.25886 106.569 250
l 197 198
v -17.45508 108.6063 250
v -22.380159 107.6992 250
l 199 200
v -12.49382 109.2882 250
v -17.45508 108.6063 250
l 201 202
v -7.5066652 109.7436 250
v -12.49382 109.2882 250
l 203 204
v -2.503952 109.9715 250
v -7.5066652 109.7436 250
l 205 206
v 2.503952 109.9715 250
v -2.503952 109.9715 250
l 207 208
v 7.5066652 109.7436 250
v 2.503952 109.9715 250
l 209 210
v 12.49382 109.2882 250
v 7.5066652 109.7436 250
l 211 212
v 17.45508 108.6063 250
v 12.49382 109.2882 250
l 213 214
v 22.380159 107.6992 250
v 17.45508 108.6063 250
l 215 216
v 27.25886 106.569 250
v 22.380159 107.6992 250
l 217 218
v 32.081051 105.2179 250
v 27.25886 106.569 250
l 219 220
v 36.836761 103.6487 250
v 32.081051 105.2179 250
l 221 222
v 41.516109 101.8647 250
v 36.836761 103.6487 250
l 223 224
v 46.109421 99.869522 250
v 41.516109 101.8647 250
l 225 226
v 50.607151 97.667374 250
v 46.109421 99.869522 250
l 227 228
v 55 95.262787 250
v 50.607151 97.667374 250
l 229 230
v 59.278851 92.660767 250
v 55 95.262787 250
l 231 232
v 63.434841 89.866692 250
v 59.278851 92.660767 250
l 233 234
v 67.459343 86.886353 250
v 63.434841 89.866692 250
l 235 236
v 71.344032 83.725922 250
v 67.459343 86.886353 250
l 237 238
v 75.080849 80.39196 250
v 71.344032 83.725922 250
l 239 240
v 78.662048 76.891373 250
v 75.080849 80.39196 250
l 241 242
v 82.080208 73.231407 250
v 78.662048 76.891373 250
l 243 244
v 85.328239 69.41967 250
v 82.080208 73.231407 250
l 245 246
v 88.399422 65.46405 250
v 85.328239 69.41967 250
l 247 248
v 91.287376 61.372749 250
v 88.399422 65.46405 250
l 249 250
v 93.98613 57.154228 250
v 91.287376 61.372749 250
l 251 252
v 96.490089 52.817261 250
v 93.98613 57.154228 250
l 253 254
v 98.794052 48.370819 250
v 96.490089 52.817261 250
l 255 256
v 100.8932 43.82412 250
v 98.794052 48.370819 250
l 257 258
v 102.7833 39.186588 250
v 100.8932 43.82412 250
l 259 260
v 104.4604 34.467838 250
v 102.7833 39.186588 250
l 261 262
v 105.9209 29.677641 250
v 104.4604 34.467838 250
l 263 264
v 107.1619 24.825939 250
v 105.9209 29.677641 250
l 265 266
v 108.1808 19.922779 250
v 107.1619 24.825939 250
l 267 268
v 108.9755 14.97833 250
v 108.1808 19.922779 250
l 269 270
v 109.5443 10.00283 250
v 108.9755 14.97833 250
l 271 272
v 109.886 5.0066061 250
v 109.5443 10.00283 250
l 273 274
v 110 0 250
v 109.886 5.0066061 250
l 275 276
v 119.8961 -4.9918189 250
v 120 0 250
l 277 278
v 119.5847 -9.9749956 250
v 119.8961 -4.9918189 250
l 279 280
v 119.0662 -14.94091 250
v 119.5847 -9.9749956 250
l 281 282
v 118.3417 -19.880951 250
v 119.0662 -14.94091 250
l 283 284
v 117.4122 -24.78657 250
v 118.3417 -19.880951 250
l 285 286
v 116.2795 -29.64929 250
v 117.4122 -24.78657 250
l 287 288
v 114.9455 -34.460678 250
v 116.2795 -29.64929 250
l 289 290
v 113.4125 -39.21241 250
v 114.9455 -34.460678 250
l 291 292
v 111.6831 -43.896252 250
v 113.4125 -39.21241 250
l 293 294
v 109.7604 -48.504108 250
v 111.6831 -43.896252 250
l 295 296
v 107.6477 -53.027988 250
v 109.7604 -48.504108 250
l 297 298
v 105.3487 -57.460072 250
v 107.6477 -53.027988 250
l 299 300
v 102.8672 -61.792679 250
v 105.3487 -57.460072 250
l 301 302
v 100.2077 -66.018311 250
v 102.8672 -61.792679 250
l 303 304
v 97.374687 -70.129662 250
v 100.2077 -66.018311 250
l 305 306
v 94.373123 -74.119591 250
v 97.374687 -70.129662 250
l 307 308
v 91.208168 -77.981216 250
v 94.373123 -74.119591 250
l 309 310
v 87.885323 -81.70784 250
v 91.208168 -77.981216 250
l 311 312
v 84.410316 -85.293007 250
v 87.885323 -81.70784 250
l 313 314
v 80.7892 -88.730522 250
v 84.410316 -85.293007 250
l 315 316
v 77.028214 -92.014427 250
v 80.7892 -88.730522 250
l 317 318
v 73.133873 -95.139038 250
v 77.028214 -92.014427 250
l 319 320
v 69.11293 -98.098953 250
v 73.133873 -95.139038 250
l 321 322
v 64.972343 -100.889 250
v 69.11293 -98.098953 250
l 323 324
v 60.719269 -103.5044 250
v 64.972343 -100.889 250
l 325 326
v 56.36108 -105.9407 250
v 60.719269 -103.5044 250
l 327 328
v 51.905319 -108.1935 250
v 56.36108 -105.9407 250
l 329 330
v 47.359699 -110.2591 250
v 51.905319 -108.1935 250
l 331 332
v 42.732101 -112.1337 250
v 47.359699 -110.2591 250
l 333 334
v 38.030521 -113.8142 250
v 42.732101 -112.1337 250
l 335 336
v 33.2631 -115.2977 250
v 38.030521 -113.8142 250
l 337 338
v 28.438101 -116.5816 250
v 33.2631 -115.2977 250
l 339 340
v 23.56386 -117.6637 250
v 28.438101 -116.5816 250
l 341 342
v 18.64883 -118.5421 250
v 23.56386 -117.6637 250
l 343 344
v 13.70152 -119.2152 250
v 18.64883 -118.5421 250
l 345 346
v 8.730484 -119.682 250
v 13.70152 -119.2152 250
l 347 348
v 3.7443371 -119.9416 250
v 8.730484 -119.682 250
l 349 350
v -1.248292 -119.9935 250
v 3.7443371 -119.9416 250
l 351 352
v -6.2387609 -119.8377 250
v -1.248292 -119.9935 250
l 353 354
v -11.21843 -119.4745 250
v -6.2387609 -119.8377 250
l 355 356
v -16.17868 -118.9044 250
v -11.21843 -119.4745 250
l 357 358
v -21.11091 -118.1284 250
v -16.17868 -118.9044 250
l 359 360
v -26.006611 -117.148 250
v -21.11091 -118.1284 250
l 361 362
v -30.857281 -115.9648 250
v -26.006611 -117.148 250
l 363 364
v -35.65453 -114.5808 250
v -30.857281 -115.9648 250
l 365 366
v -40.390049 -112.9984 250
v -35.65453 -114.5808 250
l 367 368
v -45.055649 -111.2204 250
v -40.390049 -112.9984 250
l 369 370
v -49.643261 -109.2499 250
v -45.055649 -111.2204 250
l 371 372
v -54.14492 -107.0903 250
v -49.643261 -109.2499 250
l 373 374
v -58.552841 -104.7452 250
v -54.14492 -107.0903 250
l 375 376
v -62.859409 -102.2189 250
v -58.552841 -104.7452 250
l 377 378
v -67.057152 -99.515518 250
v -62.859409 -102.2189 250
l 379 380
v -71.138802 -96.639908 250
v -67.057152 -99.515518 250
l 381 382
v -75.09729 -93.596992 250
v -71.138802 -96.639908 250
l 383 384
v -78.925781 -90.392036 250
v -75.09729 -93.596992 250
l 385 386
v -82.617638 -87.030602 250
v -78.925781 -90.392036 250
l 387 388
v -86.166473 -83.518501 250
v -82.617638 -87.030602 250
l 389 390
v -89.566132 -79.861809 250
v -86.166473 -83.518501 250
l 391 392
v -92.81073 -76.066872 250
v -89.566132 -79.861809 250
l 393 394
v -95.894661 -72.140244 250
v -92.81073 -76.066872 250
l 395 396
v -98.812576 -68.088722 250
v -95.894661 -72.140244 250
l 397 398
v -101.5594 -63.919331 250
v -98.812576 -68.088722 250
l 399 400
v -104.1305 -59.639278 250
v -101.5594 -63.919331 250
l 401 402
v -106.5212 -55.255989 250
v -104.1305 -59.639278 250
l 403 404
v -108.7276 -50.777039 250
v -106.5212 -55.255989 250
l 405 406
v -110.7457 -46.210178 250
v -108.7276 -50.777039 250
l 407 408
v -112.5722 -41.56332 250
v -110.7457 -46.210178 250
l 409 410
v -114.2037 -36.844521 250
v -112.5722 -41.56332 250
l 411 412
v -115.6375 -32.06192 250
v -114.2037 -36.844521 250
l 413 414
v -116.8711 -27.22382 250
v -115.6375 -32.06192 250
l 415 416
v -117.9024 -22.3386 250
v -116.8711 -27.22382 250
l 417 418
v -118.7296 -17.4147 250
v -117.9024 -22.3386 250
l 419 420
v -119.3513 -12.46065 250
v -118.7296 -17.4147 250
l 421 422
v -119.7663 -7.4850278 250
v -119.3513 -12.46065 250
l 423 424
v -119.974 -2.4964499 250
v -119.7663 -7.4850278 250
l 425 426
v -119.974 2.4964499 250
v -119.974 -2.4964499 250
l 427 428
v -119.7663 7.4850278 250
v -119.974 2.4964499 250
l 429 430
v -119.3513 12.46065 250
v -119.7663 7.4850278 250
l 431 432
v -118.7296 17.4147 250
v -119.3513 12.46065 250
l 433 434
v -117.9024 22.3386 250
v -118.7296 17.4147 250
l 435 436
v -116.8711 27.22382 250
v -117.9024 22.3386 250
l 437 438
v -115.6375 32.06192 250
v -116.8711 27.22382 250
l 439 440
v -114.2037 36.844521 250
v -115.6375 32.06192 250
l 441 442
v -112.5722 41.56332 250
v -114.2037 36.844521 250
l 443 444
v -110.7457 46.210178 250
v -112.5722 41.56332 250
l 445 446
v -108.7276 50.777039 250
v -110.7457 46.210178 250
l 447 448
v -106.5212 55.255989 250
v -108.7276 50.777039 250
l 449 450
v -104.1305 59.639278 250
v -106.5212 55.255989 250
l 451 452
v -101.5594 63.919331 250
v -104.1305 59.639278 250
l 453 454
v -98.812576 68.088722 250
v -101.5594 63.919331 250
l 455 456
v -95.894661 72.140244 250
v -98.812576 68.088722 250
l 457 458
v -92.81073 76.066872 250
v -95.894661 72.140244 250
l 459 460
v -89.566132 79.861809 250
v -92.81073 76.066872 250
l 461 462
v -86.166473 83.518501 250
v -89.566132 79.861809 250
l 463 464
v -82.617638 87.030602 250
v -86.166473 83.518501 250
l 465 466
v -78.925781 90.392036 250
v -82.617638 87.030602 250
l 467 468
v -75.09729 93.596992 250
v -78.925781 90.392036 250
l 469 470
v -71.138802 96.639908 250
v -75.09729 93.596992 250
l 471 472
v -67.057152 99.515518 250
v -71.138802 96.639908 250
l 473 474
v -62.859409 102.2189 250
v -67.057152 99.515518 250
l 475 476
v -58.552841 104.7452 250
v -62.859409 102.2189 250
l 477 478
v -54.14492 107.0903 250
v -58.552841 104.7452 250
l 479 480
v -49.643261 109.2499 250
v -54.14492 107.0903 250
l 481 482
v -45.055649 111.2204 250
v -49.643261 109.2499 250
l 483 484
v -40.390049 112.9984 250
v -45.055649 111.2204 250
l 485 486
v -35.65453 114.5808 250
v -40.390049 112.9984 250
l 487 488
v -30.857281 115.9648 250
v -35.65453 114.5808 250
l 489 490
v -26.006611 117.148 250
v -30.857281 115.9648 250
l 491 492
v -21.11091 118.1284 250
v -26.006611 117.148 250
l 493 494
v -16.17868 118.9044 250
v -21.11091 118.1284 250
l 495 496
v -11.21843 119.4745 250
v -16.17868 118.9044 250
l 497 498
v -6.2387609 119.8377 250
v -11.21843 119.4745 250
l 499 500
v -1.248292 119.9935 250
v -6.2387609 119.8377 250
l 501 502
v 3.7443371 119.9416 250
v -1.248292 119.9935 250
l 503 504
v 8.730484 119.682 250
v 3.7443371 119.9416 250
l 505 506
v 13.70152 119.2152 250
v 8.730484 119.682 250
l 507 508
v 18.64883 118.5421 250
v 13.70152 119.2152 250
l 509 510
v 23.56386 117.6637 250
v 18.64883 118.5421 250
l 511 512
v 28.438101 116.5816 250
v 23.56386 117.6637 250
l 513 514
v 33.2631 115.2977 250
v 28.438101 116.5816 250
l 515 516
v 38.030521 113.8142 250
v 33.2631 115.2977 250
l 517 518
v 42.732101 112.1337 250
v 38.030521 113.8142 250
l 519 520
v 47.359699 110.2591 250
v 42.732101 112.1337 250
l 521 522
v 51.905319 108.1935 250
v 47.359699 110.2591 250
l 523 524
v 56.36108 105.9407 250
v 51.905319 108.1935 250
l 525 526
v 60.719269 103.5044 250
v 56.36108 105.9407 250
l 527 528
v 64.972343 100.889 250
v 60.719269 103.5044 250
l 529 530
v 69.11293 98.098953 250
v 64.972343 100.889 250
l 531 532
v 73.133873 95.139038 250
v 69.11293 98.098953 250
l 533 534
v 77.028214 92.014427 250
v 73.133873 95.139038 250
l 535 536
v 80.7892 88.730522 250
v 77.028214 92.014427 250
l 537 538
v 84.410316 85.293007 250
v 80.7892 88.730522 250
l 539 540
v 87.885323 81.70784 250
v 84.410316 85.293007 250
l 541 542
v 91.208168 77.981216 250
v 87.885323 81.70784 250
l 543 544
v 94.373123 74.119591 250
v 91.208168 77.981216 250
l 545 546
v 97.374687 70.129662 250
v 94.373123 74.119591 250
l 547 548
v 100.2077 66.018311 250
v 97.374687 70.129662 250
l 549 550
v 102.8672 61.792679 250
v 100.2077 66.018311 250
l 551 552
v 105.3487 57.460072 250
v 102.8672 61.792679 250
l 553 554
v 107.6477 53.027988 250
v 105.3487 57.460072 250
l 555 556
v 109.7604 48.504108 250
v 107.6477 53.027988 250
l 557 558
v 111.6831 43.896252 250
v 109.7604 48.504108 250
l 559 560
v 113.4125 39.21241 250
v 111.6831 43.896252 250
l 561 562
v 114.9455 34.460678 250
v 113.4125 39.21241 250
l 563 564
v 116.2795 29.64929 250
v 114.9455 34.460678 250
l 565 566
v 117.4122 24.78657 250
v 116.2795 29.64929 250
l 567 568
v 118.3417 19.880951 250
v 117.4122 24.78657 250
l 569 570
v 119.0662 14.94091 250
v 118.3417 19.880951 250
l 571 572
v 119.5847 9.9749956 250
v 119.0662 14.94091 250
l 573 574
v 119.8961 4.9918189 250
v 119.5847 9.9749956 250
l 575 576
v 120 0 250
v 119.8961 4.9918189 250
l 577 578
