v 0.11 0 0.0099999998
v 0.109886 -0.00500661 0.0099999998
l 1 2
v 0.109886 -0.00500661 0.0099999998
v 0.109544 -0.0100028 0.0099999998
l 3 4
v 0.109544 -0.0100028 0.0099999998
v 0.108976 -0.0149783 0.0099999998
l 5 6
v 0.108976 -0.0149783 0.0099999998
v 0.108181 -0.0199228 0.0099999998
l 7 8
v 0.108181 -0.0199228 0.0099999998
v 0.107162 -0.024825901 0.0099999998
l 9 10
v 0.107162 -0.024825901 0.0099999998
v 0.105921 -0.0296776 0.0099999998
l 11 12
v 0.105921 -0.0296776 0.0099999998
v 0.10446 -0.034467801 0.0099999998
l 13 14
v 0.10446 -0.034467801 0.0099999998
v 0.102783 -0.039186601 0.0099999998
l 15 16
v 0.102783 -0.039186601 0.0099999998
v 0.100893 -0.043824099 0.0099999998
l 17 18
v 0.100893 -0.043824099 0.0099999998
v 0.098794103 -0.048370801 0.0099999998
l 19 20
v 0.098794103 -0.048370801 0.0099999998
v 0.0964901 -0.0528173 0.0099999998
l 21 22
v 0.0964901 -0.0528173 0.0099999998
v 0.093986101 -0.057154201 0.0099999998
l 23 24
v 0.093986101 -0.057154201 0.0099999998
v 0.091287397 -0.061372701 0.0099999998
l 25 26
v 0.091287397 -0.061372701 0.0099999998
v 0.088399403 -0.065464102 0.0099999998
l 27 28
v 0.088399403 -0.065464102 0.0099999998
v 0.085328199 -0.069419697 0.0099999998
l 29 30
v 0.085328199 -0.069419697 0.0099999998
v 0.0820802 -0.073231399 0.0099999998
l 31 32
v 0.0820802 -0.073231399 0.0099999998
v 0.078662001 -0.0768914 0.0099999998
l 33 34
v 0.078662001 -0.0768914 0.0099999998
v 0.075080797 -0.080392003 0.0099999998
l 35 36
v 0.075080797 -0.080392003 0.0099999998
v 0.071344003 -0.083725899 0.0099999998
l 37 38
v 0.071344003 -0.083725899 0.0099999998
v 0.0674593 -0.086886398 0.0099999998
l 39 40
v 0.0674593 -0.086886398 0.0099999998
v 0.063434802 -0.089866698 0.0099999998
l 41 42
v 0.063434802 -0.089866698 0.0099999998
v 0.059278902 -0.0926608 0.0099999998
l 43 44
v 0.059278902 -0.0926608 0.0099999998
v 0.055 -0.095262803 0.0099999998
l 45 46
v 0.055 -0.095262803 0.0099999998
v 0.050607201 -0.097667404 0.0099999998
l 47 48
v 0.050607201 -0.097667404 0.0099999998
v 0.046109401 -0.099869497 0.0099999998
l 49 50
v 0.046109401 -0.099869497 0.0099999998
v 0.041516099 -0.101865 0.0099999998
l 51 52
v 0.041516099 -0.101865 0.0099999998
v 0.036836799 -0.103649 0.0099999998
l 53 54
v 0.036836799 -0.103649 0.0099999998
v 0.032081101 -0.105218 0.0099999998
l 55 56
v 0.032081101 -0.105218 0.0099999998
v 0.027258901 -0.106569 0.0099999998
l 57 58
v 0.027258901 -0.106569 0.0099999998
v 0.022380199 -0.107699 0.0099999998
l 59 60
v 0.022380199 -0.107699 0.0099999998
v 0.017455099 -0.108606 0.0099999998
l 61 62
v 0.017455099 -0.108606 0.0099999998
v 0.0124938 -0.109288 0.0099999998
l 63 64
v 0.0124938 -0.109288 0.0099999998
v 0.00750667 -0.109744 0.0099999998
l 65 66
v 0.00750667 -0.109744 0.0099999998
v 0.0025039499 -0.109971 0.0099999998
l 67 68
v 0.0025039499 -0.109971 0.0099999998
v -0.0025039499 -0.109971 0.0099999998
l 69 70
v -0.0025039499 -0.109971 0.0099999998
v -0.00750667 -0.109744 0.0099999998
l 71 72
v -0.00750667 -0.109744 0.0099999998
v -0.0124938 -0.109288 0.0099999998
l 73 74
v -0.0124938 -0.109288 0.0099999998
v -0.017455099 -0.108606 0.0099999998
l 75 76
v -0.017455099 -0.108606 0.0099999998
v -0.022380199 -0.107699 0.0099999998
l 77 78
v -0.022380199 -0.107699 0.0099999998
v -0.027258901 -0.106569 0.0099999998
l 79 80
v -0.027258901 -0.106569 0.0099999998
v -0.032081101 -0.105218 0.0099999998
l 81 82
v -0.032081101 -0.105218 0.0099999998
v -0.036836799 -0.103649 0.0099999998
l 83 84
v -0.036836799 -0.103649 0.0099999998
v -0.041516099 -0.101865 0.0099999998
l 85 86
v -0.041516099 -0.101865 0.0099999998
v -0.046109401 -0.099869497 0.0099999998
l 87 88
v -0.046109401 -0.099869497 0.0099999998
v -0.050607201 -0.097667404 0.0099999998
l 89 90
v -0.050607201 -0.097667404 0.0099999998
v -0.055 -0.095262803 0.0099999998
l 91 92
v -0.055 -0.095262803 0.0099999998
v -0.059278902 -0.0926608 0.0099999998
l 93 94
v -0.059278902 -0.0926608 0.0099999998
v -0.063434802 -0.089866698 0.0099999998
l 95 96
v -0.063434802 -0.089866698 0.0099999998
v -0.0674593 -0.086886398 0.0099999998
l 97 98
v -0.0674593 -0.086886398 0.0099999998
v -0.071344003 -0.083725899 0.0099999998
l 99 100
v -0.071344003 -0.083725899 0.0099999998
v -0.075080797 -0.080392003 0.0099999998
l 101 102
v -0.075080797 -0.080392003 0.0099999998
v -0.078662001 -0.0768914 0.0099999998
l 103 104
v -0.078662001 -0.0768914 0.0099999998
v -0.0820802 -0.073231399 0.0099999998
l 105 106
v -0.0820802 -0.073231399 0.0099999998
v -0.085328199 -0.069419697 0.0099999998
l 107 108
v -0.085328199 -0.069419697 0.0099999998
v -0.088399403 -0.065464102 0.0099999998
l 109 110
v -0.088399403 -0.065464102 0.0099999998
v -0.091287397 -0.061372701 0.0099999998
l 111 112
v -0.091287397 -0.061372701 0.0099999998
v -0.093986101 -0.057154201 0.0099999998
l 113 114
v -0.093986101 -0.057154201 0.0099999998
v -0.0964901 -0.0528173 0.0099999998
l 115 116
v -0.0964901 -0.0528173 0.0099999998
v -0.098794103 -0.048370801 0.0099999998
l 117 118
v -0.098794103 -0.048370801 0.0099999998
v -0.100893 -0.043824099 0.0099999998
l 119 120
v -0.100893 -0.043824099 0.0099999998
v -0.102783 -0.039186601 0.0099999998
l 121 122
v -0.102783 -0.039186601 0.0099999998
v -0.10446 -0.034467801 0.0099999998
l 123 124
v -0.10446 -0.034467801 0.0099999998
v -0.105921 -0.0296776 0.0099999998
l 125 126
v -0.105921 -0.0296776 0.0099999998
v -0.107162 -0.024825901 0.0099999998
l 127 128
v -0.107162 -0.024825901 0.0099999998
v -0.108181 -0.0199228 0.0099999998
l 129 130
v -0.108181 -0.0199228 0.0099999998
v -0.108976 -0.0149783 0.0099999998
l 131 132
v -0.108976 -0.0149783 0.0099999998
v -0.109544 -0.0100028 0.0099999998
l 133 134
v -0.109544 -0.0100028 0.0099999998
v -0.109886 -0.00500661 0.0099999998
l 135 136
v -0.109886 -0.00500661 0.0099999998
v -0.11 2.79628e-16 0.0099999998
l 137 138
v -0.11 2.79628e-16 0.0099999998
v -0.109886 0.00500661 0.0099999998
l 139 140
v -0.109886 0.00500661 0.0099999998
v -0.109544 0.0100028 0.0099999998
l 141 142
v -0.109544 0.0100028 0.0099999998
v -0.108976 0.0149783 0.0099999998
l 143 144
v -0.108976 0.0149783 0.0099999998
v -0.108181 0.0199228 0.0099999998
l 145 146
v -0.108181 0.0199228 0.0099999998
v -0.107162 0.024825901 0.0099999998
l 147 148
v -0.107162 0.024825901 0.0099999998
v -0.105921 0.0296776 0.0099999998
l 149 150
v -0.105921 0.0296776 0.0099999998
v -0.10446 0.034467801 0.0099999998
l 151 152
v -0.10446 0.034467801 0.0099999998
v -0.102783 0.039186601 0.0099999998
l 153 154
v -0.102783 0.039186601 0.0099999998
v -0.100893 0.043824099 0.0099999998
l 155 156
v -0.100893 0.043824099 0.0099999998
v -0.098794103 0.048370801 0.0099999998
l 157 158
v -0.098794103 0.048370801 0.0099999998
v -0.0964901 0.0528173 0.0099999998
l 159 160
v -0.0964901 0.0528173 0.0099999998
v -0.093986101 0.057154201 0.0099999998
l 161 162
v -0.093986101 0.057154201 0.0099999998
v -0.091287397 0.061372701 0.0099999998
l 163 164
v -0.091287397 0.061372701 0.0099999998
v -0.088399403 0.065464102 0.0099999998
l 165 166
v -0.088399403 0.065464102 0.0099999998
v -0.085328199 0.069419697 0.0099999998
l 167 168
v -0.085328199 0.069419697 0.0099999998
v -0.0820802 0.073231399 0.0099999998
l 169 170
v -0.0820802 0.073231399 0.0099999998
v -0.078662001 0.0768914 0.0099999998
l 171 172
v -0.078662001 0.0768914 0.0099999998
v -0.075080797 0.080392003 0.0099999998
l 173 174
v -0.075080797 0.080392003 0.0099999998
v -0.071344003 0.083725899 0.0099999998
l 175 176
v -0.071344003 0.083725899 0.0099999998
v -0.0674593 0.086886398 0.0099999998
l 177 178
v -0.0674593 0.086886398 0.0099999998
v -0.063434802 0.089866698 0.0099999998
l 179 180
v -0.063434802 0.089866698 0.0099999998
v -0.059278902 0.0926608 0.0099999998
l 181 182
v -0.059278902 0.0926608 0.0099999998
v -0.055 0.095262803 0.0099999998
l 183 184
v -0.055 0.095262803 0.0099999998
v -0.050607201 0.097667404 0.0099999998
l 185 186
v -0.050607201 0.097667404 0.0099999998
v -0.046109401 0.099869497 0.0099999998
l 187 188
v -0.046109401 0.099869497 0.0099999998
v -0.041516099 0.101865 0.0099999998
l 189 190
v -0.041516099 0.101865 0.0099999998
v -0.036836799 0.103649 0.0099999998
l 191 192
v -0.036836799 0.103649 0.0099999998
v -0.032081101 0.105218 0.0099999998
l 193 194
v -0.032081101 0.105218 0.0099999998
v -0.027258901 0.106569 0.0099999998
l 195 196
v -0.027258901 0.106569 0.0099999998
v -0.022380199 0.107699 0.0099999998
l 197 198
v -0.022380199 0.107699 0.0099999998
v -0.017455099 0.108606 0.0099999998
l 199 200
v -0.017455099 0.108606 0.0099999998
v -0.0124938 0.109288 0.0099999998
l 201 202
v -0.0124938 0.109288 0.0099999998
v -0.00750667 0.109744 0.0099999998
l 203 204
v -0.00750667 0.109744 0.0099999998
v -0.0025039499 0.109971 0.0099999998
l 205 206
v -0.0025039499 0.109971 0.0099999998
v 0.0025039499 0.109971 0.0099999998
l 207 208
v 0.0025039499 0.109971 0.0099999998
v 0.00750667 0.109744 0.0099999998
l 209 210
v 0.00750667 0.109744 0.0099999998
v 0.0124938 0.109288 0.0099999998
l 211 212
v 0.0124938 0.109288 0.0099999998
v 0.017455099 0.108606 0.0099999998
l 213 214
v 0.017455099 0.108606 0.0099999998
v 0.022380199 0.107699 0.0099999998
l 215 216
v 0.022380199 0.107699 0.0099999998
v 0.027258901 0.106569 0.0099999998
l 217 218
v 0.027258901 0.106569 0.0099999998
v 0.032081101 0.105218 0.0099999998
l 219 220
v 0.032081101 0.105218 0.0099999998
v 0.036836799 0.103649 0.0099999998
l 221 222
v 0.036836799 0.103649 0.0099999998
v 0.041516099 0.101865 0.0099999998
l 223 224
v 0.041516099 0.101865 0.0099999998
v 0.046109401 0.099869497 0.0099999998
l 225 226
v 0.046109401 0.099869497 0.0099999998
v 0.050607201 0.097667404 0.0099999998
l 227 228
v 0.050607201 0.097667404 0.0099999998
v 0.055 0.095262803 0.0099999998
l 229 230
v 0.055 0.095262803 0.0099999998
v 0.059278902 0.0926608 0.0099999998
l 231 232
v 0.059278902 0.0926608 0.0099999998
v 0.063434802 0.089866698 0.0099999998
l 233 234
v 0.063434802 0.089866698 0.0099999998
v 0.0674593 0.086886398 0.0099999998
l 235 236
v 0.0674593 0.086886398 0.0099999998
v 0.071344003 0.083725899 0.0099999998
l 237 238
v 0.071344003 0.083725899 0.0099999998
v 0.075080797 0.080392003 0.0099999998
l 239 240
v 0.075080797 0.080392003 0.0099999998
v 0.078662001 0.0768914 0.0099999998
l 241 242
v 0.078662001 0.0768914 0.0099999998
v 0.0820802 0.073231399 0.0099999998
l 243 244
v 0.0820802 0.073231399 0.0099999998
v 0.085328199 0.069419697 0.0099999998
l 245 246
v 0.085328199 0.069419697 0.0099999998
v 0.088399403 0.065464102 0.0099999998
l 247 248
v 0.088399403 0.065464102 0.0099999998
v 0.091287397 0.061372701 0.0099999998
l 249 250
v 0.091287397 0.061372701 0.0099999998
v 0.093986101 0.057154201 0.0099999998
l 251 252
v 0.093986101 0.057154201 0.0099999998
v 0.0964901 0.0528173 0.0099999998
l 253 254
v 0.0964901 0.0528173 0.0099999998
v 0.098794103 0.048370801 0.0099999998
l 255 256
v 0.098794103 0.048370801 0.0099999998
v 0.100893 0.043824099 0.0099999998
l 257 258
v 0.100893 0.043824099 0.0099999998
v 0.102783 0.039186601 0.0099999998
l 259 260
v 0.102783 0.039186601 0.0099999998
v 0.10446 0.034467801 0.0099999998
l 261 262
v 0.10446 0.034467801 0.0099999998
v 0.105921 0.0296776 0.0099999998
l 263 264
v 0.105921 0.0296776 0.0099999998
v 0.107162 0.024825901 0.0099999998
l 265 266
v 0.107162 0.024825901 0.0099999998
v 0.108181 0.0199228 0.0099999998
l 267 268
v 0.108181 0.0199228 0.0099999998
v 0.108976 0.0149783 0.0099999998
l 269 270
v 0.108976 0.0149783 0.0099999998
v 0.109544 0.0100028 0.0099999998
l 271 272
v 0.109544 0.0100028 0.0099999998
v 0.109886 0.00500661 0.0099999998
l 273 274
v 0.109886 0.00500661 0.0099999998
v 0.11 0 0.0099999998
l 275 276
v 0.038030501 0.113814 0.30000001
v 0.042732101 0.112134 0.30000001
l 277 278
v 0.042732101 0.112134 0.30000001
v 0.047359701 0.110259 0.30000001
l 279 280
v -0.058552802 0.104745 0.30000001
v -0.0541449 0.10709 0.30000001
l 281 282
v -0.116871 -0.027223799 0.30000001
v -0.117902 -0.022338601 0.30000001
l 283 284
v -0.058552802 -0.104745 0.30000001
v -0.062859401 -0.102219 0.30000001
l 285 286
v -0.117902 -0.022338601 0.30000001
v -0.11873 -0.0174147 0.30000001
l 287 288
v 0.119896 0.0049918201 0.30000001
v 0.12 0 0.30000001
l 289 290
v 0.084410302 -0.085293002 0.30000001
v 0.080789201 -0.088730499 0.30000001
l 291 292
v 0.047359701 0.110259 0.30000001
v 0.0519053 0.108193 0.30000001
l 293 294
v 0.080789201 -0.088730499 0.30000001
v 0.0770282 -0.092014402 0.30000001
l 295 296
v -0.11873 -0.0174147 0.30000001
v -0.119351 -0.0124607 0.30000001
l 297 298
v 0.0770282 -0.092014402 0.30000001
v 0.073133901 -0.095138997 0.30000001
l 299 300
v 0.0087304804 0.119682 -6.2642696e-33
v 0.00374434 0.119942 -2.68663e-33
l 301 302
v 0.0137015 0.119215 -9.8310699e-33
v 0.0087304804 0.119682 -6.2642696e-33
l 303 304
v -0.112572 0.041563299 8.0772402e-32
v -0.114204 0.036844499 8.19431e-32
l 305 306
v -0.110746 0.0462102 7.9461902e-32
v -0.112572 0.041563299 8.0772402e-32
l 307 308
v -0.110746 -0.0462102 7.9461902e-32
v -0.108728 -0.050776999 7.8013898e-32
l 309 310
v 0.00374434 0.119942 -2.68663e-33
v -0.0012482899 0.119993 8.9567104e-34
l 311 312
v -0.108728 -0.050776999 7.8013898e-32
v -0.106521 -0.055256002 7.6430801e-32
l 313 314
v 0.119896 -0.0049918201 -8.6027502e-32
v 0.12 0 0
l 315 316
v 0.119066 -0.0149409 -8.5432002e-32
v 0.119585 -0.0099750003 -8.5803999e-32
l 317 318
v 0.117412 -0.024786601 -8.42452e-32
v 0.118342 -0.019881001 -8.4912199e-32
l 319 320
v 0.11628 -0.029649301 -8.3432498e-32
v 0.117412 -0.024786601 -8.42452e-32
l 321 322
v 0.114946 -0.034460701 -8.2475299e-32
v 0.11628 -0.029649301 -8.3432498e-32
l 323 324
v 0.113412 -0.039212398 -8.1375401e-32
v 0.114946 -0.034460701 -8.2475299e-32
l 325 326
v 0.111683 -0.043896299 -8.0134502e-32
v 0.113412 -0.039212398 -8.1375401e-32
l 327 328
v 0.10976 -0.048504099 -7.8755001e-32
v 0.111683 -0.043896299 -8.0134502e-32
l 329 330
v 0.107648 -0.053027999 -7.7239101e-32
v 0.10976 -0.048504099 -7.8755001e-32
l 331 332
v 0.105349 -0.057460099 -7.55895e-32
v 0.107648 -0.053027999 -7.7239101e-32
l 333 334
v 0.102867 -0.061792701 -7.3809002e-32
v 0.105349 -0.057460099 -7.55895e-32
l 335 336
v 0.100208 -0.066018298 -7.1900699e-32
v 0.102867 -0.061792701 -7.3809002e-32
l 337 338
v 0.0973747 -0.0701297 -6.9867999e-32
v 0.100208 -0.066018298 -7.1900699e-32
l 339 340
v 0.0943731 -0.074119598 -6.7714299e-32
v 0.0973747 -0.0701297 -6.9867999e-32
l 341 342
v 0.091208197 -0.077981196 -6.5443403e-32
v 0.0943731 -0.074119598 -6.7714299e-32
l 343 344
v 0.087885298 -0.081707798 -6.30592e-32
v 0.091208197 -0.077981196 -6.5443403e-32
l 345 346
v 0.084410302 -0.085293002 -6.0565801e-32
v 0.087885298 -0.081707798 -6.30592e-32
l 347 348
v 0.080789201 -0.088730499 -5.79676e-32
v 0.084410302 -0.085293002 -6.0565801e-32
l 349 350
v 0.0770282 -0.092014402 -5.5269e-32
v 0.080789201 -0.088730499 -5.79676e-32
l 351 352
v 0.073133901 -0.095138997 -5.2474803e-32
v 0.0770282 -0.092014402 -5.5269e-32
l 353 354
v 0.069112897 -0.098099001 -4.9589699e-32
v 0.073133901 -0.095138997 -5.2474803e-32
l 355 356
v 0.064972296 -0.100889 -4.6618801e-32
v 0.069112897 -0.098099001 -4.9589699e-32
l 357 358
v 0.0607193 -0.103504 -4.35671e-32
v 0.064972296 -0.100889 -4.6618801e-32
l 359 360
v -0.0012482899 0.119993 8.9567104e-34
v -0.00623876 0.119838 4.4764199e-33
l 361 362
v 0.047359701 -0.110259 -3.3981399e-32
v 0.0519053 -0.108193 -3.7242999e-32
l 363 364
v 0.042732101 -0.112134 -3.0661001e-32
v 0.047359701 -0.110259 -3.3981399e-32
l 365 366
v 0.038030501 -0.113814 -2.72875e-32
v 0.042732101 -0.112134 -3.0661001e-32
l 367 368
v 0.033263098 -0.115298 -2.3866799e-32
v 0.038030501 -0.113814 -2.72875e-32
l 369 370
v 0.028438101 -0.116582 -2.04048e-32
v 0.033263098 -0.115298 -2.3866799e-32
l 371 372
v 0.023563899 -0.117664 -1.69075e-32
v 0.028438101 -0.116582 -2.04048e-32
l 373 374
v 0.0186488 -0.118542 -1.3380801e-32
v 0.023563899 -0.117664 -1.69075e-32
l 375 376
v 0.0137015 -0.119215 -9.8310699e-33
v 0.0186488 -0.118542 -1.3380801e-32
l 377 378
v 0.0087304804 -0.119682 -6.2642696e-33
v 0.0137015 -0.119215 -9.8310699e-33
l 379 380
v 0.00374434 -0.119942 -2.68663e-33
v 0.0087304804 -0.119682 -6.2642696e-33
l 381 382
v -0.0012482899 -0.119993 8.9567104e-34
v 0.00374434 -0.119942 -2.68663e-33
l 383 384
v -0.0112184 -0.119475 8.0494099e-33
v -0.00623876 -0.119838 4.4764199e-33
l 385 386
v -0.0211109 -0.118128 1.51474e-32
v -0.016178699 -0.118904 1.16085e-32
l 387 388
v -0.0260066 -0.117148 1.86602e-32
v -0.0211109 -0.118128 1.51474e-32
l 389 390
v -0.0308573 -0.115965 2.2140601e-32
v -0.0260066 -0.117148 1.86602e-32
l 391 392
v -0.0356545 -0.114581 2.5582701e-32
v -0.0308573 -0.115965 2.2140601e-32
l 393 394
v -0.04039 -0.112998 2.89806e-32
v -0.0356545 -0.114581 2.5582701e-32
l 395 396
v -0.045055602 -0.11122 3.2328199e-32
v -0.04039 -0.112998 2.89806e-32
l 397 398
v -0.0496433 -0.10925 3.56199e-32
v -0.045055602 -0.11122 3.2328199e-32
l 399 400
v -0.0541449 -0.10709 3.88499e-32
v -0.0496433 -0.10925 3.56199e-32
l 401 402
v -0.058552802 -0.104745 4.20127e-32
v -0.0541449 -0.10709 3.88499e-32
l 403 404
v -0.062859401 -0.102219 4.5102701e-32
v -0.058552802 -0.104745 4.20127e-32
l 405 406
v -0.0670572 -0.099515498 4.81146e-32
v -0.062859401 -0.102219 4.5102701e-32
l 407 408
v -0.071138799 -0.096639901 5.1043297e-32
v -0.0670572 -0.099515498 4.81146e-32
l 409 410
v -0.0750973 -0.093597002 5.3883597e-32
v -0.071138799 -0.096639901 5.1043297e-32
l 411 412
v -0.078925803 -0.090392001 5.6630598e-32
v -0.0750973 -0.093597002 5.3883597e-32
l 413 414
v -0.082617603 -0.087030597 5.9279598e-32
v -0.078925803 -0.090392001 5.6630598e-32
l 415 416
v -0.086166501 -0.083518498 6.1825901e-32
v -0.082617603 -0.087030597 5.9279598e-32
l 417 418
v -0.089566097 -0.079861797 6.4265199e-32
v -0.086166501 -0.083518498 6.1825901e-32
l 419 420
v -0.092810698 -0.076066896 6.6593301e-32
v -0.089566097 -0.079861797 6.4265199e-32
l 421 422
v -0.095894702 -0.072140202 6.8806098e-32
v -0.092810698 -0.076066896 6.6593301e-32
l 423 424
v -0.104131 -0.059639301 7.4715402e-32
v -0.101559 -0.063919298 7.2870599e-32
l 425 426
v -0.106521 -0.055256002 7.6430801e-32
v -0.104131 -0.059639301 7.4715402e-32
l 427 428
v -0.119351 0.0124607 8.5636597e-32
v -0.119766 0.0074850302 8.5934403e-32
l 429 430
v -0.112572 -0.041563299 8.0772402e-32
v -0.110746 -0.0462102 7.9461902e-32
l 431 432
v -0.114204 -0.036844499 8.19431e-32
v -0.112572 -0.041563299 8.0772402e-32
l 433 434
v -0.115637 -0.032061901 8.2971898e-32
v -0.114204 -0.036844499 8.19431e-32
l 435 436
v -0.11873 0.0174147 8.5190497e-32
v -0.119351 0.0124607 8.5636597e-32
l 437 438
v -0.11873 -0.0174147 8.5190497e-32
v -0.117902 -0.022338601 8.4597002e-32
l 439 440
v -0.119351 -0.0124607 8.5636597e-32
v -0.11873 -0.0174147 8.5190497e-32
l 441 442
v -0.119766 -0.0074850302 8.5934403e-32
v -0.119351 -0.0124607 8.5636597e-32
l 443 444
v -0.119974 -0.00249645 8.6083403e-32
v -0.119766 -0.0074850302 8.5934403e-32
l 445 446
v -0.119766 0.0074850302 8.5934403e-32
v -0.119974 0.00249645 8.6083403e-32
l 447 448
v 0.080789201 0.088730499 -5.79676e-32
v 0.0770282 0.092014402 -5.5269e-32
l 449 450
v -0.117902 0.022338601 8.4597002e-32
v -0.11873 0.0174147 8.5190497e-32
l 451 452
v -0.116871 0.027223799 8.3856999e-32
v -0.117902 0.022338601 8.4597002e-32
l 453 454
v -0.115637 0.032061901 8.2971898e-32
v -0.116871 0.027223799 8.3856999e-32
l 455 456
v -0.114204 0.036844499 8.19431e-32
v -0.115637 0.032061901 8.2971898e-32
l 457 458
v -0.108728 0.050776999 7.8013898e-32
v -0.110746 0.0462102 7.9461902e-32
l 459 460
v -0.106521 0.055256002 7.6430801e-32
v -0.108728 0.050776999 7.8013898e-32
l 461 462
v -0.104131 0.059639301 7.4715402e-32
v -0.106521 0.055256002 7.6430801e-32
l 463 464
v -0.101559 0.063919298 7.2870599e-32
v -0.104131 0.059639301 7.4715402e-32
l 465 466
v -0.098812602 0.068088703 7.0899701e-32
v -0.101559 0.063919298 7.2870599e-32
l 467 468
v -0.095894702 0.072140202 6.8806098e-32
v -0.098812602 0.068088703 7.0899701e-32
l 469 470
v -0.092810698 0.076066896 6.6593301e-32
v -0.095894702 0.072140202 6.8806098e-32
l 471 472
v -0.089566097 0.079861797 6.4265199e-32
v -0.092810698 0.076066896 6.6593301e-32
l 473 474
v -0.086166501 0.083518498 6.1825901e-32
v -0.089566097 0.079861797 6.4265199e-32
l 475 476
v -0.082617603 0.087030597 5.9279598e-32
v -0.086166501 0.083518498 6.1825901e-32
l 477 478
v -0.04039 0.112998 2.89806e-32
v -0.045055602 0.11122 3.2328199e-32
l 479 480
v -0.071138799 0.096639901 5.1043297e-32
v -0.0750973 0.093597002 5.3883597e-32
l 481 482
v -0.0670572 0.099515498 4.81146e-32
v -0.071138799 0.096639901 5.1043297e-32
l 483 484
v -0.062859401 0.102219 4.5102701e-32
v -0.0670572 0.099515498 4.81146e-32
l 485 486
v -0.058552802 0.104745 4.20127e-32
v -0.062859401 0.102219 4.5102701e-32
l 487 488
v -0.0496433 0.10925 3.56199e-32
v -0.0541449 0.10709 3.88499e-32
l 489 490
v -0.045055602 0.11122 3.2328199e-32
v -0.0496433 0.10925 3.56199e-32
l 491 492
v -0.0308573 0.115965 2.2140601e-32
v -0.0356545 0.114581 2.5582701e-32
l 493 494
v -0.0260066 0.117148 1.86602e-32
v -0.0308573 0.115965 2.2140601e-32
l 495 496
v -0.0211109 0.118128 1.51474e-32
v -0.0260066 0.117148 1.86602e-32
l 497 498
v -0.016178699 0.118904 1.16085e-32
v -0.0211109 0.118128 1.51474e-32
l 499 500
v -0.0112184 0.119475 8.0494099e-33
v -0.016178699 0.118904 1.16085e-32
l 501 502
v -0.00623876 0.119838 4.4764199e-33
v -0.0112184 0.119475 8.0494099e-33
l 503 504
v -0.078925803 0.090392001 5.6630598e-32
v -0.082617603 0.087030597 5.9279598e-32
l 505 506
v 0.0186488 0.118542 -1.3380801e-32
v 0.0137015 0.119215 -9.8310699e-33
l 507 508
v 0.023563899 0.117664 -1.69075e-32
v 0.0186488 0.118542 -1.3380801e-32
l 509 510
v 0.028438101 0.116582 -2.04048e-32
v 0.023563899 0.117664 -1.69075e-32
l 511 512
v 0.033263098 0.115298 -2.3866799e-32
v 0.028438101 0.116582 -2.04048e-32
l 513 514
v 0.038030501 0.113814 -2.72875e-32
v 0.033263098 0.115298 -2.3866799e-32
l 515 516
v 0.042732101 0.112134 -3.0661001e-32
v 0.038030501 0.113814 -2.72875e-32
l 517 518
v 0.047359701 0.110259 -3.3981399e-32
v 0.042732101 0.112134 -3.0661001e-32
l 519 520
v 0.0519053 0.108193 -3.7242999e-32
v 0.047359701 0.110259 -3.3981399e-32
l 521 522
v 0.056361102 0.105941 -4.044e-32
v 0.0519053 0.108193 -3.7242999e-32
l 523 524
v 0.0607193 0.103504 -4.35671e-32
v 0.056361102 0.105941 -4.044e-32
l 525 526
v 0.064972296 0.100889 -4.6618801e-32
v 0.0607193 0.103504 -4.35671e-32
l 527 528
v 0.069112897 0.098099001 -4.9589699e-32
v 0.064972296 0.100889 -4.6618801e-32
l 529 530
v 0.073133901 0.095138997 -5.2474803e-32
v 0.069112897 0.098099001 -4.9589699e-32
l 531 532
v 0.0770282 0.092014402 -5.5269e-32
v 0.073133901 0.095138997 -5.2474803e-32
l 533 534
v -0.116871 -0.027223799 8.3856999e-32
v -0.115637 -0.032061901 8.2971898e-32
l 535 536
v 0.087885298 0.081707798 -6.30592e-32
v 0.084410302 0.085293002 -6.0565801e-32
l 537 538
v 0.091208197 0.077981196 -6.5443403e-32
v 0.087885298 0.081707798 -6.30592e-32
l 539 540
v 0.0943731 0.074119598 -6.7714299e-32
v 0.091208197 0.077981196 -6.5443403e-32
l 541 542
v 0.0973747 0.0701297 -6.9867999e-32
v 0.0943731 0.074119598 -6.7714299e-32
l 543 544
v 0.100208 0.066018298 -7.1900699e-32
v 0.0973747 0.0701297 -6.9867999e-32
l 545 546
v 0.102867 0.061792701 -7.3809002e-32
v 0.100208 0.066018298 -7.1900699e-32
l 547 548
v 0.105349 0.057460099 -7.55895e-32
v 0.102867 0.061792701 -7.3809002e-32
l 549 550
v 0.107648 0.053027999 -7.7239101e-32
v 0.105349 0.057460099 -7.55895e-32
l 551 552
v 0.10976 0.048504099 -7.8755001e-32
v 0.107648 0.053027999 -7.7239101e-32
l 553 554
v 0.111683 0.043896299 -8.0134502e-32
v 0.10976 0.048504099 -7.8755001e-32
l 555 556
v 0.113412 0.039212398 -8.1375401e-32
v 0.111683 0.043896299 -8.0134502e-32
l 557 558
v 0.114946 0.034460701 -8.2475299e-32
v 0.113412 0.039212398 -8.1375401e-32
l 559 560
v 0.11628 0.029649301 -8.3432498e-32
v 0.114946 0.034460701 -8.2475299e-32
l 561 562
v 0.117412 0.024786601 -8.42452e-32
v 0.11628 0.029649301 -8.3432498e-32
l 563 564
v 0.118342 0.019881001 -8.4912199e-32
v 0.117412 0.024786601 -8.42452e-32
l 565 566
v 0.119066 0.0149409 -8.5432002e-32
v 0.118342 0.019881001 -8.4912199e-32
l 567 568
v 0.119585 0.0099750003 -8.5803999e-32
v 0.119066 0.0149409 -8.5432002e-32
l 569 570
v 0.119896 0.0049918201 -8.6027502e-32
v 0.119585 0.0099750003 -8.5803999e-32
l 571 572
v 0.12 0 0
v 0.119896 0.0049918201 -8.6027502e-32
l 573 574
v -0.016178699 -0.118904 1.16085e-32
v -0.0112184 -0.119475 8.0494099e-33
l 575 576
v -0.00623876 -0.119838 4.4764199e-33
v -0.0012482899 -0.119993 8.9567104e-34
l 577 578
v -0.119974 0.00249645 8.6083403e-32
v -0.119974 -0.00249645 8.6083403e-32
l 579 580
v 0.119585 -0.0099750003 -8.5803999e-32
v 0.119896 -0.0049918201 -8.6027502e-32
l 581 582
v 0.118342 -0.019881001 -8.4912199e-32
v 0.119066 -0.0149409 -8.5432002e-32
l 583 584
v 0.0519053 -0.108193 -3.7242999e-32
v 0.056361102 -0.105941 -4.044e-32
l 585 586
v -0.101559 -0.063919298 7.2870599e-32
v -0.098812602 -0.068088703 7.0899701e-32
l 587 588
v -0.117902 -0.022338601 8.4597002e-32
v -0.116871 -0.027223799 8.3856999e-32
l 589 590
v -0.0750973 0.093597002 5.3883597e-32
v -0.078925803 0.090392001 5.6630598e-32
l 591 592
v -0.0356545 0.114581 2.5582701e-32
v -0.04039 0.112998 2.89806e-32
l 593 594
v 0.084410302 0.085293002 -6.0565801e-32
v 0.080789201 0.088730499 -5.79676e-32
l 595 596
v -0.098812602 -0.068088703 7.0899701e-32
v -0.095894702 -0.072140202 6.8806098e-32
l 597 598
v 0.056361102 -0.105941 -4.044e-32
v 0.0607193 -0.103504 -4.35671e-32
l 599 600
v -0.0541449 0.10709 3.88499e-32
v -0.058552802 0.104745 4.20127e-32
l 601 602
v 0.119896 -0.0049918201 0.30000001
v 0.12 0 0.30000001
l 603 604
v 0.119585 -0.0099750003 0.30000001
v 0.119896 -0.0049918201 0.30000001
l 605 606
v 0.119066 -0.0149409 0.30000001
v 0.119585 -0.0099750003 0.30000001
l 607 608
v 0.118342 -0.019881001 0.30000001
v 0.119066 -0.0149409 0.30000001
l 609 610
v 0.117412 -0.024786601 0.30000001
v 0.118342 -0.019881001 0.30000001
l 611 612
v 0.11628 -0.029649301 0.30000001
v 0.117412 -0.024786601 0.30000001
l 613 614
v 0.114946 -0.034460701 0.30000001
v 0.11628 -0.029649301 0.30000001
l 615 616
v 0.113412 -0.039212398 0.30000001
v 0.114946 -0.034460701 0.30000001
l 617 618
v 0.111683 -0.043896299 0.30000001
v 0.113412 -0.039212398 0.30000001
l 619 620
v 0.10976 -0.048504099 0.30000001
v 0.111683 -0.043896299 0.30000001
l 621 622
v 0.107648 -0.053027999 0.30000001
v 0.10976 -0.048504099 0.30000001
l 623 624
v 0.105349 -0.057460099 0.30000001
v 0.107648 -0.053027999 0.30000001
l 625 626
v 0.102867 -0.061792701 0.30000001
v 0.105349 -0.057460099 0.30000001
l 627 628
v 0.100208 -0.066018298 0.30000001
v 0.102867 -0.061792701 0.30000001
l 629 630
v 0.0973747 -0.0701297 0.30000001
v 0.100208 -0.066018298 0.30000001
l 631 632
v 0.0943731 -0.074119598 0.30000001
v 0.0973747 -0.0701297 0.30000001
l 633 634
v 0.091208197 -0.077981196 0.30000001
v 0.0943731 -0.074119598 0.30000001
l 635 636
v 0.087885298 -0.081707798 0.30000001
v 0.091208197 -0.077981196 0.30000001
l 637 638
v 0.084410302 -0.085293002 0.30000001
v 0.087885298 -0.081707798 0.30000001
l 639 640
v 0.069112897 -0.098099001 0.30000001
v 0.073133901 -0.095138997 0.30000001
l 641 642
v 0.064972296 -0.100889 0.30000001
v 0.069112897 -0.098099001 0.30000001
l 643 644
v 0.0607193 -0.103504 0.30000001
v 0.064972296 -0.100889 0.30000001
l 645 646
v 0.056361102 -0.105941 0.30000001
v 0.0607193 -0.103504 0.30000001
l 647 648
v 0.0519053 -0.108193 0.30000001
v 0.056361102 -0.105941 0.30000001
l 649 650
v 0.047359701 -0.110259 0.30000001
v 0.0519053 -0.108193 0.30000001
l 651 652
v 0.042732101 -0.112134 0.30000001
v 0.047359701 -0.110259 0.30000001
l 653 654
v 0.038030501 -0.113814 0.30000001
v 0.042732101 -0.112134 0.30000001
l 655 656
v 0.033263098 -0.115298 0.30000001
v 0.038030501 -0.113814 0.30000001
l 657 658
v 0.028438101 -0.116582 0.30000001
v 0.033263098 -0.115298 0.30000001
l 659 660
v 0.023563899 -0.117664 0.30000001
v 0.028438101 -0.116582 0.30000001
l 661 662
v 0.0186488 -0.118542 0.30000001
v 0.023563899 -0.117664 0.30000001
l 663 664
v 0.0137015 -0.119215 0.30000001
v 0.0186488 -0.118542 0.30000001
l 665 666
v 0.0087304804 -0.119682 0.30000001
v 0.0137015 -0.119215 0.30000001
l 667 668
v 0.00374434 -0.119942 0.30000001
v 0.0087304804 -0.119682 0.30000001
l 669 670
v -0.0012482899 -0.119993 0.30000001
v 0.00374434 -0.119942 0.30000001
l 671 672
v -0.00623876 -0.119838 0.30000001
v -0.0012482899 -0.119993 0.30000001
l 673 674
v -0.0112184 -0.119475 0.30000001
v -0.00623876 -0.119838 0.30000001
l 675 676
v -0.016178699 -0.118904 0.30000001
v -0.0112184 -0.119475 0.30000001
l 677 678
v -0.0211109 -0.118128 0.30000001
v -0.016178699 -0.118904 0.30000001
l 679 680
v -0.0260066 -0.117148 0.30000001
v -0.0211109 -0.118128 0.30000001
l 681 682
v -0.0308573 -0.115965 0.30000001
v -0.0260066 -0.117148 0.30000001
l 683 684
v -0.0356545 -0.114581 0.30000001
v -0.0308573 -0.115965 0.30000001
l 685 686
v -0.04039 -0.112998 0.30000001
v -0.0356545 -0.114581 0.30000001
l 687 688
v -0.045055602 -0.11122 0.30000001
v -0.04039 -0.112998 0.30000001
l 689 690
v -0.0496433 -0.10925 0.30000001
v -0.045055602 -0.11122 0.30000001
l 691 692
v -0.0541449 -0.10709 0.30000001
v -0.0496433 -0.10925 0.30000001
l 693 694
v -0.058552802 -0.104745 0.30000001
v -0.0541449 -0.10709 0.30000001
l 695 696
v -0.0670572 -0.099515498 0.30000001
v -0.062859401 -0.102219 0.30000001
l 697 698
v -0.071138799 -0.096639901 0.30000001
v -0.0670572 -0.099515498 0.30000001
l 699 700
v -0.0750973 -0.093597002 0.30000001
v -0.071138799 -0.096639901 0.30000001
l 701 702
v -0.078925803 -0.090392001 0.30000001
v -0.0750973 -0.093597002 0.30000001
l 703 704
v -0.082617603 -0.087030597 0.30000001
v -0.078925803 -0.090392001 0.30000001
l 705 706
v -0.086166501 -0.083518498 0.30000001
v -0.082617603 -0.087030597 0.30000001
l 707 708
v -0.089566097 -0.079861797 0.30000001
v -0.086166501 -0.083518498 0.30000001
l 709 710
v -0.092810698 -0.076066896 0.30000001
v -0.089566097 -0.079861797 0.30000001
l 711 712
v -0.095894702 -0.072140202 0.30000001
v -0.092810698 -0.076066896 0.30000001
l 713 714
v -0.098812602 -0.068088703 0.30000001
v -0.095894702 -0.072140202 0.30000001
l 715 716
v -0.101559 -0.063919298 0.30000001
v -0.098812602 -0.068088703 0.30000001
l 717 718
v -0.104131 -0.059639301 0.30000001
v -0.101559 -0.063919298 0.30000001
l 719 720
v -0.106521 -0.055256002 0.30000001
v -0.104131 -0.059639301 0.30000001
l 721 722
v -0.108728 -0.050776999 0.30000001
v -0.106521 -0.055256002 0.30000001
l 723 724
v -0.110746 -0.0462102 0.30000001
v -0.108728 -0.050776999 0.30000001
l 725 726
v -0.112572 -0.041563299 0.30000001
v -0.110746 -0.0462102 0.30000001
l 727 728
v -0.114204 -0.036844499 0.30000001
v -0.112572 -0.041563299 0.30000001
l 729 730
v -0.115637 -0.032061901 0.30000001
v -0.114204 -0.036844499 0.30000001
l 731 732
v -0.116871 -0.027223799 0.30000001
v -0.115637 -0.032061901 0.30000001
l 733 734
v -0.119766 -0.0074850302 0.30000001
v -0.119351 -0.0124607 0.30000001
l 735 736
v -0.119974 -0.00249645 0.30000001
v -0.119766 -0.0074850302 0.30000001
l 737 738
v -0.119974 0.00249645 0.30000001
v -0.119974 -0.00249645 0.30000001
l 739 740
v -0.119766 0.0074850302 0.30000001
v -0.119974 0.00249645 0.30000001
l 741 742
v -0.119351 0.0124607 0.30000001
v -0.119766 0.0074850302 0.30000001
l 743 744
v -0.11873 0.0174147 0.30000001
v -0.119351 0.0124607 0.30000001
l 745 746
v -0.117902 0.022338601 0.30000001
v -0.11873 0.0174147 0.30000001
l 747 748
v -0.116871 0.027223799 0.30000001
v -0.117902 0.022338601 0.30000001
l 749 750
v -0.115637 0.032061901 0.30000001
v -0.116871 0.027223799 0.30000001
l 751 752
v -0.114204 0.036844499 0.30000001
v -0.115637 0.032061901 0.30000001
l 753 754
v -0.112572 0.041563299 0.30000001
v -0.114204 0.036844499 0.30000001
l 755 756
v -0.110746 0.0462102 0.30000001
v -0.112572 0.041563299 0.30000001
l 757 758
v -0.108728 0.050776999 0.30000001
v -0.110746 0.0462102 0.30000001
l 759 760
v -0.106521 0.055256002 0.30000001
v -0.108728 0.050776999 0.30000001
l 761 762
v -0.104131 0.059639301 0.30000001
v -0.106521 0.055256002 0.30000001
l 763 764
v -0.101559 0.063919298 0.30000001
v -0.104131 0.059639301 0.30000001
l 765 766
v -0.098812602 0.068088703 0.30000001
v -0.101559 0.063919298 0.30000001
l 767 768
v -0.095894702 0.072140202 0.30000001
v -0.098812602 0.068088703 0.30000001
l 769 770
v -0.092810698 0.076066896 0.30000001
v -0.095894702 0.072140202 0.30000001
l 771 772
v -0.089566097 0.079861797 0.30000001
v -0.092810698 0.076066896 0.30000001
l 773 774
v -0.086166501 0.083518498 0.30000001
v -0.089566097 0.079861797 0.30000001
l 775 776
v -0.082617603 0.087030597 0.30000001
v -0.086166501 0.083518498 0.30000001
l 777 778
v -0.078925803 0.090392001 0.30000001
v -0.082617603 0.087030597 0.30000001
l 779 780
v -0.0750973 0.093597002 0.30000001
v -0.078925803 0.090392001 0.30000001
l 781 782
v -0.071138799 0.096639901 0.30000001
v -0.0750973 0.093597002 0.30000001
l 783 784
v -0.0670572 0.099515498 0.30000001
v -0.071138799 0.096639901 0.30000001
l 785 786
v -0.062859401 0.102219 0.30000001
v -0.0670572 0.099515498 0.30000001
l 787 788
v -0.058552802 0.104745 0.30000001
v -0.062859401 0.102219 0.30000001
l 789 790
v -0.0496433 0.10925 0.30000001
v -0.0541449 0.10709 0.30000001
l 791 792
v -0.045055602 0.11122 0.30000001
v -0.0496433 0.10925 0.30000001
l 793 794
v -0.04039 0.112998 0.30000001
v -0.045055602 0.11122 0.30000001
l 795 796
v -0.0356545 0.114581 0.30000001
v -0.04039 0.112998 0.30000001
l 797 798
v -0.0308573 0.115965 0.30000001
v -0.0356545 0.114581 0.30000001
l 799 800
v -0.0260066 0.117148 0.30000001
v -0.0308573 0.115965 0.30000001
l 801 802
v -0.0211109 0.118128 0.30000001
v -0.0260066 0.117148 0.30000001
l 803 804
v -0.016178699 0.118904 0.30000001
v -0.0211109 0.118128 0.30000001
l 805 806
v -0.0112184 0.119475 0.30000001
v -0.016178699 0.118904 0.30000001
l 807 808
v -0.00623876 0.119838 0.30000001
v -0.0112184 0.119475 0.30000001
l 809 810
v -0.0012482899 0.119993 0.30000001
v -0.00623876 0.119838 0.30000001
l 811 812
v 0.00374434 0.119942 0.30000001
v -0.0012482899 0.119993 0.30000001
l 813 814
v 0.0087304804 0.119682 0.30000001
v 0.00374434 0.119942 0.30000001
l 815 816
v 0.0137015 0.119215 0.30000001
v 0.0087304804 0.119682 0.30000001
l 817 818
v 0.0186488 0.118542 0.30000001
v 0.0137015 0.119215 0.30000001
l 819 820
v 0.023563899 0.117664 0.30000001
v 0.0186488 0.118542 0.30000001
l 821 822
v 0.028438101 0.116582 0.30000001
v 0.023563899 0.117664 0.30000001
l 823 824
v 0.033263098 0.115298 0.30000001
v 0.028438101 0.116582 0.30000001
l 825 826
v 0.038030501 0.113814 0.30000001
v 0.033263098 0.115298 0.30000001
l 827 828
v 0.056361102 0.105941 0.30000001
v 0.0519053 0.108193 0.30000001
l 829 830
v 0.0607193 0.103504 0.30000001
v 0.056361102 0.105941 0.30000001
l 831 832
v 0.064972296 0.100889 0.30000001
v 0.0607193 0.103504 0.30000001
l 833 834
v 0.069112897 0.098099001 0.30000001
v 0.064972296 0.100889 0.30000001
l 835 836
v 0.073133901 0.095138997 0.30000001
v 0.069112897 0.098099001 0.30000001
l 837 838
v 0.0770282 0.092014402 0.30000001
v 0.073133901 0.095138997 0.30000001
l 839 840
v 0.080789201 0.088730499 0.30000001
v 0.0770282 0.092014402 0.30000001
l 841 842
v 0.084410302 0.085293002 0.30000001
v 0.080789201 0.088730499 0.30000001
l 843 844
v 0.087885298 0.081707798 0.30000001
v 0.084410302 0.085293002 0.30000001
l 845 846
v 0.091208197 0.077981196 0.30000001
v 0.087885298 0.081707798 0.30000001
l 847 848
v 0.0943731 0.074119598 0.30000001
v 0.091208197 0.077981196 0.30000001
l 849 850
v 0.0973747 0.0701297 0.30000001
v 0.0943731 0.074119598 0.30000001
l 851 852
v 0.100208 0.066018298 0.30000001
v 0.0973747 0.0701297 0.30000001
l 853 854
v 0.102867 0.061792701 0.30000001
v 0.100208 0.066018298 0.30000001
l 855 856
v 0.105349 0.057460099 0.30000001
v 0.102867 0.061792701 0.30000001
l 857 858
v 0.107648 0.053027999 0.30000001
v 0.105349 0.057460099 0.30000001
l 859 860
v 0.10976 0.048504099 0.30000001
v 0.107648 0.053027999 0.30000001
l 861 862
v 0.111683 0.043896299 0.30000001
v 0.10976 0.048504099 0.30000001
l 863 864
v 0.113412 0.039212398 0.30000001
v 0.111683 0.043896299 0.30000001
l 865 866
v 0.114946 0.034460701 0.30000001
v 0.113412 0.039212398 0.30000001
l 867 868
v 0.11628 0.029649301 0.30000001
v 0.114946 0.034460701 0.30000001
l 869 870
v 0.117412 0.024786601 0.30000001
v 0.11628 0.029649301 0.30000001
l 871 872
v 0.118342 0.019881001 0.30000001
v 0.117412 0.024786601 0.30000001
l 873 874
v 0.119066 0.0149409 0.30000001
v 0.118342 0.019881001 0.30000001
l 875 876
v 0.119585 0.0099750003 0.30000001
v 0.119066 0.0149409 0.30000001
l 877 878
v 0.119896 0.0049918201 0.30000001
v 0.119585 0.0099750003 0.30000001
l 879 880
