v 0.11 0 0.0099999998
v 0.087235735 -0.99974086 0.0099999998
l 1 2
v 0.109886 -0.00500661 0.0099999998
v 0.041594339 -1.002672 0.0099999998
l 3 4
v 0.109544 -0.0100028 0.0099999998
v -0.0038791837 -1.0035496 0.0099999998
l 5 6
v 0.108976 -0.0149783 0.0099999998
v -0.049769725 -1.0022978 0.0099999998
l 7 8
v 0.108181 -0.0199228 0.0099999998
v -0.095298945 -0.99900191 0.0099999998
l 9 10
v 0.107162 -0.024825901 0.0099999998
v -0.14064618 -0.99363502 0.0099999998
l 11 12
v 0.105921 -0.0296776 0.0099999998
v -0.18580924 -0.98617824 0.0099999998
l 13 14
v 0.10446 -0.034467801 0.0099999998
v -0.23040852 -0.97673267 0.0099999998
l 15 16
v 0.102783 -0.039186601 0.0099999998
v -0.27462563 -0.96523343 0.0099999998
l 17 18
v 0.100893 -0.043824099 0.0099999998
v -0.31823396 -0.95175174 0.0099999998
l 19 20
v 0.098794103 -0.048370801 0.0099999998
v -0.36127291 -0.936255 0.0099999998
l 21 22
v 0.0964901 -0.0528173 0.0099999998
v -0.40352302 -0.91883513 0.0099999998
l 23 24
v 0.093986101 -0.057154201 0.0099999998
v -0.44490673 -0.89952853 0.0099999998
l 25 26
v 0.091287397 -0.061372701 0.0099999998
v -0.48538867 -0.87834559 0.0099999998
l 27 28
v 0.088399403 -0.065464102 0.0099999998
v -0.52487283 -0.85533571 0.0099999998
l 29 30
v 0.085328199 -0.069419697 0.0099999998
v -0.56325317 -0.83056502 0.0099999998
l 31 32
v 0.0820802 -0.073231399 0.0099999998
v -0.60047268 -0.80406761 0.0099999998
l 33 34
v 0.078662001 -0.0768914 0.0099999998
v -0.63644628 -0.77590509 0.0099999998
l 35 36
v 0.075080797 -0.080392003 0.0099999998
v -0.67110749 -0.74612697 0.0099999998
l 37 38
v 0.071344003 -0.083725899 0.0099999998
v -0.70436154 -0.71482091 0.0099999998
l 39 40
v 0.0674593 -0.086886398 0.0099999998
v -0.73617529 -0.68200945 0.0099999998
l 41 42
v 0.063434802 -0.089866698 0.0099999998
v -0.76644317 -0.64781164 0.0099999998
l 43 44
v 0.059278902 -0.0926608 0.0099999998
v -0.79514533 -0.61223682 0.0099999998
l 45 46
v 0.055 -0.095262803 0.0099999998
v -0.8221787 -0.57542687 0.0099999998
l 47 48
v 0.050607201 -0.097667404 0.0099999998
v -0.84752732 -0.53738821 0.0099999998
l 49 50
v 0.046109401 -0.099869497 0.0099999998
v -0.87107625 -0.49832963 0.0099999998
l 51 52
v 0.041516099 -0.101865 0.0099999998
v -0.89287818 -0.45810556 0.0099999998
l 53 54
v 0.036836799 -0.103649 0.0099999998
v -0.91281428 -0.41695847 0.0099999998
l 55 56
v 0.032081101 -0.105218 0.0099999998
v -0.93084232 -0.37499288 0.0099999998
l 57 58
v 0.027258901 -0.106569 0.0099999998
v -0.9469506 -0.33221438 0.0099999998
l 59 60
v 0.022380199 -0.107699 0.0099999998
v -0.96108193 -0.28881287 0.0099999998
l 61 62
v 0.017455099 -0.108606 0.0099999998
v -0.97322865 -0.24478863 0.0099999998
l 63 64
v 0.0124938 -0.109288 0.0099999998
v -0.98335206 -0.20034309 0.0099999998
l 65 66
v 0.00750667 -0.109744 0.0099999998
v -0.99146542 -0.15507353 0.0099999998
l 67 68
v 0.0025039499 -0.109971 0.0099999998
v -0.99749605 -0.109971 0.0099999998
l 69 70
v -0.0025039499 -0.109971 0.0099999998
v -1.001476 -0.064641472 0.0099999998
l 71 72
v -0.00750667 -0.109744 0.0099999998
v -1.0033525 -0.018688908 0.0099999998
l 73 74
v -0.0124938 -0.109288 0.0099999998
v -1.0031776 0.026894627 0.0099999998
l 75 76
v -0.017455099 -0.108606 0.0099999998
v -1.0009172 0.072507872 0.0099999998
l 77 78
v -0.022380199 -0.107699 0.0099999998
v -0.9965897 0.11794638 0.0099999998
l 79 80
v -0.027258901 -0.106569 0.0099999998
v -0.99018232 0.16320588 0.0099999998
l 81 82
v -0.032081101 -0.105218 0.0099999998
v -0.98173218 0.20809147 0.0099999998
l 83 84
v -0.036836799 -0.103649 0.0099999998
v -0.97123108 0.25259156 0.0099999998
l 85 86
v -0.041516099 -0.101865 0.0099999998
v -0.95870175 0.29659513 0.0099999998
l 87 88
v -0.046109401 -0.099869497 0.0099999998
v -0.94424392 0.33985131 0.0099999998
l 89 90
v -0.050607201 -0.097667404 0.0099999998
v -0.9277859 0.38249666 0.0099999998
l 91 92
v -0.055 -0.095262803 0.0099999998
v -0.90942423 0.42431321 0.0099999998
l 93 94
v -0.059278902 -0.0926608 0.0099999998
v -0.88915687 0.46528414 0.0099999998
l 95 96
v -0.063434802 -0.089866698 0.0099999998
v -0.86706939 0.50525635 0.0099999998
l 97 98
v -0.0674593 -0.086886398 0.0099999998
v -0.84316484 0.54420861 0.0099999998
l 99 100
v -0.071344003 -0.083725899 0.0099999998
v -0.81753229 0.58200907 0.0099999998
l 101 102
v -0.075080797 -0.080392003 0.0099999998
v -0.79018908 0.61862169 0.0099999998
l 103 104
v -0.078662001 -0.0768914 0.0099999998
v -0.76121488 0.65394481 0.0099999998
l 105 106
v -0.0820802 -0.073231399 0.0099999998
v -0.73066157 0.68791393 0.0099999998
l 107 108
v -0.085328199 -0.069419697 0.0099999998
v -0.69860044 0.72045191 0.0099999998
l 109 110
v -0.088399403 -0.065464102 0.0099999998
v -0.66507547 0.75150879 0.0099999998
l 111 112
v -0.091287397 -0.061372701 0.0099999998
v -0.63018023 0.78100163 0.0099999998
l 113 114
v -0.093986101 -0.057154201 0.0099999998
v -0.59399922 0.80886363 0.0099999998
l 115 116
v -0.0964901 -0.0528173 0.0099999998
v -0.55655711 0.8350669 0.0099999998
l 117 118
v -0.098794103 -0.048370801 0.0099999998
v -0.51792106 0.85955684 0.0099999998
l 119 120
v -0.100893 -0.043824099 0.0099999998
v -0.47830163 0.88222273 0.0099999998
l 121 122
v -0.102783 -0.039186601 0.0099999998
v -0.43765152 0.90307826 0.0099999998
l 123 124
v -0.10446 -0.034467801 0.0099999998
v -0.39619024 0.92203283 0.0099999998
l 125 126
v -0.105921 -0.0296776 0.0099999998
v -0.35372918 0.93913152 0.0099999998
l 127 128
v -0.107162 -0.024825901 0.0099999998
v -0.31064194 0.95425321 0.0099999998
l 129 130
v -0.108181 -0.0199228 0.0099999998
v -0.26692672 0.9673967 0.0099999998
l 131 132
v -0.108976 -0.0149783 0.0099999998
v -0.22239918 0.97856847 0.0099999998
l 133 134
v -0.109544 -0.0100028 0.0099999998
v -0.17783566 0.9876626 0.0099999998
l 135 136
v -0.109886 -0.00500661 0.0099999998
v -0.13265026 0.99473425 0.0099999998
l 137 138
v -0.11 2.79628e-16 0.0099999998
v -0.087235735 0.99974086 0.0099999998
l 139 140
v -0.109886 0.00500661 0.0099999998
v -0.041594339 1.002672 0.0099999998
l 141 142
v -0.109544 0.0100028 0.0099999998
v 0.0038791837 1.0035496 0.0099999998
l 143 144
v -0.108976 0.0149783 0.0099999998
v 0.049769725 1.0022978 0.0099999998
l 145 146
v -0.108181 0.0199228 0.0099999998
v 0.095298945 0.99900191 0.0099999998
l 147 148
v -0.107162 0.024825901 0.0099999998
v 0.14064618 0.99363502 0.0099999998
l 149 150
v -0.105921 0.0296776 0.0099999998
v 0.18580924 0.98617824 0.0099999998
l 151 152
v -0.10446 0.034467801 0.0099999998
v 0.23040852 0.97673267 0.0099999998
l 153 154
v -0.102783 0.039186601 0.0099999998
v 0.27462563 0.96523343 0.0099999998
l 155 156
v -0.100893 0.043824099 0.0099999998
v 0.31823396 0.95175174 0.0099999998
l 157 158
v -0.098794103 0.048370801 0.0099999998
v 0.36127291 0.936255 0.0099999998
l 159 160
v -0.0964901 0.0528173 0.0099999998
v 0.40352302 0.91883513 0.0099999998
l 161 162
v -0.093986101 0.057154201 0.0099999998
v 0.44490673 0.89952853 0.0099999998
l 163 164
v -0.091287397 0.061372701 0.0099999998
v 0.48538867 0.87834559 0.0099999998
l 165 166
v -0.088399403 0.065464102 0.0099999998
v 0.52487283 0.85533571 0.0099999998
l 167 168
v -0.085328199 0.069419697 0.0099999998
v 0.56325317 0.83056502 0.0099999998
l 169 170
v -0.0820802 0.073231399 0.0099999998
v 0.60047268 0.80406761 0.0099999998
l 171 172
v -0.078662001 0.0768914 0.0099999998
v 0.63644628 0.77590509 0.0099999998
l 173 174
v -0.075080797 0.080392003 0.0099999998
v 0.67110749 0.74612697 0.0099999998
l 175 176
v -0.071344003 0.083725899 0.0099999998
v 0.70436154 0.71482091 0.0099999998
l 177 178
v -0.0674593 0.086886398 0.0099999998
v 0.73617529 0.68200945 0.0099999998
l 179 180
v -0.063434802 0.089866698 0.0099999998
v 0.76644317 0.64781164 0.0099999998
l 181 182
v -0.059278902 0.0926608 0.0099999998
v 0.79514533 0.61223682 0.0099999998
l 183 184
v -0.055 0.095262803 0.0099999998
v 0.8221787 0.57542687 0.0099999998
l 185 186
v -0.050607201 0.097667404 0.0099999998
v 0.84752732 0.53738821 0.0099999998
l 187 188
v -0.046109401 0.099869497 0.0099999998
v 0.87107625 0.49832963 0.0099999998
l 189 190
v -0.041516099 0.101865 0.0099999998
v 0.89287818 0.45810556 0.0099999998
l 191 192
v -0.036836799 0.103649 0.0099999998
v 0.91281428 0.41695847 0.0099999998
l 193 194
v -0.032081101 0.105218 0.0099999998
v 0.93084232 0.37499288 0.0099999998
l 195 196
v -0.027258901 0.106569 0.0099999998
v 0.9469506 0.33221438 0.0099999998
l 197 198
v -0.022380199 0.107699 0.0099999998
v 0.96108193 0.28881287 0.0099999998
l 199 200
v -0.017455099 0.108606 0.0099999998
v 0.97322865 0.24478863 0.0099999998
l 201 202
v -0.0124938 0.109288 0.0099999998
v 0.98335206 0.20034309 0.0099999998
l 203 204
v -0.00750667 0.109744 0.0099999998
v 0.99146542 0.15507353 0.0099999998
l 205 206
v -0.0025039499 0.109971 0.0099999998
v 0.99749605 0.109971 0.0099999998
l 207 208
v 0.0025039499 0.109971 0.0099999998
v 1.001476 0.064641472 0.0099999998
l 209 210
v 0.00750667 0.109744 0.0099999998
v 1.0033525 0.018688908 0.0099999998
l 211 212
v 0.0124938 0.109288 0.0099999998
v 1.0031776 -0.026894627 0.0099999998
l 213 214
v 0.017455099 0.108606 0.0099999998
v 1.0009172 -0.072507872 0.0099999998
l 215 216
v 0.022380199 0.107699 0.0099999998
v 0.9965897 -0.11794638 0.0099999998
l 217 218
v 0.027258901 0.106569 0.0099999998
v 0.99018232 -0.16320588 0.0099999998
l 219 220
v 0.032081101 0.105218 0.0099999998
v 0.98173218 -0.20809147 0.0099999998
l 221 222
v 0.036836799 0.103649 0.0099999998
v 0.97123108 -0.25259156 0.0099999998
l 223 224
v 0.041516099 0.101865 0.0099999998
v 0.95870175 -0.29659513 0.0099999998
l 225 226
v 0.046109401 0.099869497 0.0099999998
v 0.94424392 -0.33985131 0.0099999998
l 227 228
v 0.050607201 0.097667404 0.0099999998
v 0.9277859 -0.38249666 0.0099999998
l 229 230
v 0.055 0.095262803 0.0099999998
v 0.90942423 -0.42431321 0.0099999998
l 231 232
v 0.059278902 0.0926608 0.0099999998
v 0.88915687 -0.46528414 0.0099999998
l 233 234
v 0.063434802 0.089866698 0.0099999998
v 0.86706939 -0.50525635 0.0099999998
l 235 236
v 0.0674593 0.086886398 0.0099999998
v 0.84316484 -0.54420861 0.0099999998
l 237 238
v 0.071344003 0.083725899 0.0099999998
v 0.81753229 -0.58200907 0.0099999998
l 239 240
v 0.075080797 0.080392003 0.0099999998
v 0.79018908 -0.61862169 0.0099999998
l 241 242
v 0.078662001 0.0768914 0.0099999998
v 0.76121488 -0.65394481 0.0099999998
l 243 244
v 0.0820802 0.073231399 0.0099999998
v 0.73066157 -0.68791393 0.0099999998
l 245 246
v 0.085328199 0.069419697 0.0099999998
v 0.69860044 -0.72045191 0.0099999998
l 247 248
v 0.088399403 0.065464102 0.0099999998
v 0.66507547 -0.75150879 0.0099999998
l 249 250
v 0.091287397 0.061372701 0.0099999998
v 0.63018023 -0.78100163 0.0099999998
l 251 252
v 0.093986101 0.057154201 0.0099999998
v 0.59399922 -0.80886363 0.0099999998
l 253 254
v 0.0964901 0.0528173 0.0099999998
v 0.55655711 -0.8350669 0.0099999998
l 255 256
v 0.098794103 0.048370801 0.0099999998
v 0.51792106 -0.85955684 0.0099999998
l 257 258
v 0.100893 0.043824099 0.0099999998
v 0.47830163 -0.88222273 0.0099999998
l 259 260
v 0.102783 0.039186601 0.0099999998
v 0.43765152 -0.90307826 0.0099999998
l 261 262
v 0.10446 0.034467801 0.0099999998
v 0.39619024 -0.92203283 0.0099999998
l 263 264
v 0.105921 0.0296776 0.0099999998
v 0.35372918 -0.93913152 0.0099999998
l 265 266
v 0.107162 0.024825901 0.0099999998
v 0.31064194 -0.95425321 0.0099999998
l 267 268
v 0.108181 0.0199228 0.0099999998
v 0.26692672 -0.9673967 0.0099999998
l 269 270
v 0.108976 0.0149783 0.0099999998
v 0.22239918 -0.97856847 0.0099999998
l 271 272
v 0.109544 0.0100028 0.0099999998
v 0.17783566 -0.9876626 0.0099999998
l 273 274
v 0.109886 0.00500661 0.0099999998
v 0.13265026 -0.99473425 0.0099999998
l 275 276
v 0.038030501 0.113814 0.30000001
v 0.97971838 -0.22267365 0.30000001
l 277 278
v 0.042732101 0.112134 0.30000001
v 0.96954447 -0.26339074 0.30000001
l 279 280
v -0.058552802 0.104745 0.30000001
v 0.82428908 0.57441533 0.30000001
l 281 282
v -0.116871 -0.027223799 0.30000001
v -0.3233688 0.95122327 0.30000001
l 283 284
v -0.058552802 -0.104745 0.30000001
v -0.92112475 0.40118941 0.30000001
l 285 286
v -0.117902 -0.022338601 0.30000001
v -0.28373266 0.96381564 0.30000001
l 287 288
v 0.119896 0.0049918201 0.30000001
v 0.14072461 -0.99479124 0.30000001
l 289 290
v 0.084410302 -0.085293002 0.30000001
v -0.64084407 -0.77377401 0.30000001
l 291 292
v 0.047359701 0.110259 0.30000001
v 0.95774033 -0.30351281 0.30000001
l 293 294
v 0.080789201 -0.088730499 0.30000001
v -0.67247917 -0.74644378 0.30000001
l 295 296
v -0.11873 -0.0174147 0.30000001
v -0.24310954 0.97482002 0.30000001
l 297 298
v 0.0770282 -0.092014402 0.30000001
v -0.70294533 -0.7178269 0.30000001
l 299 300
v 0.0087304804 0.119682 -6.2642696e-33
v -0.98991273 0.17175637 7.1027904e-31
l 301 302
v 0.0137015 0.119215 -9.8310699e-33
v -0.98191467 0.21274814 7.0454226e-31
l 303 304
v -0.112572 0.041563299 8.0772402e-32
v -0.43942627 -0.90351145 3.1523829e-31
l 305 306
v -0.110746 0.0462102 7.9461902e-32
v -0.47647255 -0.88451215 3.4194038e-31
l 307 308
v -0.110746 -0.0462102 7.9461902e-32
v 0.29343734 -0.96088819 -2.1055667e-31
l 309 310
v 0.00374434 0.119942 -2.68663e-33
v -0.99620349 0.13015637 7.1479377e-31
l 311 312
v -0.108728 -0.050776999 7.8013898e-32
v 0.33327016 -0.94779296 -2.3903513e-31
l 313 314
v 0.119896 -0.0049918201 -8.6027502e-32
v 0.14072461 0.99479124 1.7143928e-29
l 315 316
v 0.119066 -0.0149409 -8.5432002e-32
v 0.22301263 0.97964198 -1.5993649e-31
l 317 318
v 0.117412 -0.024786601 -8.42452e-32
v 0.30367295 0.95771371 -2.1783267e-31
l 319 320
v 0.11628 -0.029649301 -8.3432498e-32
v 0.34301078 0.94430817 -2.4620972e-31
l 321 322
v 0.114946 -0.034460701 -8.2475299e-32
v 0.38212434 0.9291864 -2.7418709e-31
l 323 324
v 0.113412 -0.039212398 -8.1375401e-32
v 0.42063145 0.9124263 -3.0165581e-31
l 325 326
v 0.111683 -0.043896299 -8.0134502e-32
v 0.4579789 0.89422904 -3.2867066e-31
l 327 328
v 0.10976 -0.048504099 -7.8755001e-32
v 0.49490187 0.87435328 -3.5504367e-31
l 329 330
v 0.107648 -0.053027999 -7.7239101e-32
v 0.53067296 0.85309003 -3.8086747e-31
l 331 332
v 0.105349 -0.057460099 -7.55895e-32
v 0.56580458 0.83022265 -4.0597955e-31
l 333 334
v 0.102867 -0.061792701 -7.3809002e-32
v 0.59994538 0.80591294 -4.3039564e-31
l 335 336
v 0.100208 -0.066018298 -7.1900699e-32
v 0.63279742 0.78035544 -4.5412787e-31
l 337 338
v 0.0973747 -0.0701297 -6.9867999e-32
v 0.6648158 0.75328429 -4.769685e-31
l 339 340
v 0.0943731 -0.074119598 -6.7714299e-32
v 0.69554881 0.72499727 -4.9906814e-31
l 341 342
v 0.091208197 -0.077981196 -6.5443403e-32
v 0.72509512 0.69544454 -5.2027309e-31
l 343 344
v 0.087885298 -0.081707798 -6.30592e-32
v 0.75340795 0.66466985 -5.4057612e-31
l 345 346
v 0.084410302 -0.085293002 -6.0565801e-32
v 0.78039443 0.63276416 -5.5995255e-31
l 347 348
v 0.080789201 -0.088730499 -5.79676e-32
v 0.80604357 0.59975051 -5.7834979e-31
l 349 350
v 0.0770282 -0.092014402 -5.5269e-32
v 0.83029657 0.56569888 -5.9575545e-31
l 351 352
v 0.073133901 -0.095138997 -5.2474803e-32
v 0.85310744 0.5306735 -6.121133e-31
l 353 354
v 0.069112897 -0.098099001 -4.9589699e-32
v 0.87444038 0.4947312 -6.2741892e-31
l 355 356
v 0.064972296 -0.100889 -4.6618801e-32
v 0.89427661 0.45790825 -6.4164795e-31
l 357 358
v 0.0607193 -0.103504 -4.35671e-32
v 0.91257636 0.42027033 -6.548098e-31
l 359 360
v -0.0012482899 0.119993 8.9567104e-34
v -1.0007663 0.088948397 7.1806718e-31
l 361 362
v 0.047359701 -0.110259 -3.3981399e-32
v 0.95774033 0.30351281 -6.8720607e-31
l 363 364
v 0.042732101 -0.112134 -3.0661001e-32
v 0.96954447 0.26339074 -6.9566792e-31
l 365 366
v 0.038030501 -0.113814 -2.72875e-32
v 0.97971838 0.22267365 -7.0296931e-31
l 367 368
v 0.033263098 -0.115298 -2.3866799e-32
v 0.98807359 0.1819173 -7.0896108e-31
l 369 370
v 0.028438101 -0.116582 -2.04048e-32
v 0.99480606 0.14058131 -7.137866e-31
l 371 372
v 0.023563899 -0.117664 -1.69075e-32
v 0.99979983 0.099046431 -7.1736887e-31
l 373 374
v 0.0186488 -0.118542 -1.3380801e-32
v 1.0030659 0.057307335 -7.1972312e-31
l 375 376
v 0.0137015 -0.119215 -9.8310699e-33
v 1.0045755 0.015576583 -7.2079186e-31
l 377 378
v 0.0087304804 -0.119682 -6.2642696e-33
v 1.0043466 -0.026148853 -7.206376e-31
l 379 380
v 0.00374434 -0.119942 -2.68663e-33
v 1.0023875 -0.067867628 -7.1922994e-31
l 381 382
v -0.0012482899 -0.119993 8.9567104e-34
v 0.99869954 -0.10977863 -7.1658473e-31
l 383 384
v -0.0112184 -0.119475 8.0494099e-33
v 0.98613517 -0.19217887 -7.075715e-31
l 385 386
v -0.0211109 -0.118128 1.51474e-32
v 0.96673733 -0.27354961 -6.9364293e-31
l 387 388
v -0.0260066 -0.117148 1.86602e-32
v 0.95454076 -0.31343065 -6.8490966e-31
l 389 390
v -0.0308573 -0.115965 2.2140601e-32
v 0.94066774 -0.35290191 -6.7493325e-31
l 391 392
v -0.0356545 -0.114581 2.5582701e-32
v 0.92515857 -0.39177813 -6.6382258e-31
l 393 394
v -0.04039 -0.112998 2.89806e-32
v 0.90802287 -0.43003591 -6.5154122e-31
l 395 396
v -0.045055602 -0.11122 3.2328199e-32
v 0.88939036 -0.46732498 -6.3814275e-31
l 397 398
v -0.0496433 -0.10925 3.56199e-32
v 0.86922274 -0.50381964 -6.2367204e-31
l 399 400
v -0.0541449 -0.10709 3.88499e-32
v 0.84743774 -0.53969692 -6.0805607e-31
l 401 402
v -0.058552802 -0.104745 4.20127e-32
v 0.82428908 -0.57441533 -5.9145251e-31
l 403 404
v -0.062859401 -0.102219 4.5102701e-32
v 0.79971255 -0.60815341 -5.7379594e-31
l 405 406
v -0.0670572 -0.099515498 4.81146e-32
v 0.77367296 -0.64096984 -5.551049e-31
l 407 408
v -0.071138799 -0.096639901 5.1043297e-32
v 0.7463508 -0.67258326 -5.3553545e-31
l 409 410
v -0.0750973 -0.093597002 5.3883597e-32
v 0.71773007 -0.70304328 -5.1498517e-31
l 411 412
v -0.078925803 -0.090392001 5.6630598e-32
v 0.68785722 -0.73229838 -4.9354622e-31
l 413 414
v -0.082617603 -0.087030597 5.9279598e-32
v 0.65680165 -0.76027585 -4.7128047e-31
l 415 416
v -0.086166501 -0.083518498 6.1825901e-32
v 0.62461572 -0.78693064 -4.4815409e-31
l 417 418
v -0.089566097 -0.079861797 6.4265199e-32
v 0.59132457 -0.81224687 -4.2429145e-31
l 419 420
v -0.092810698 -0.076066896 6.6593301e-32
v 0.55703674 -0.83613157 -3.9969236e-31
l 421 422
v -0.095894702 -0.072140202 6.8806098e-32
v 0.52177131 -0.85858073 -3.7437423e-31
l 423 424
v -0.104131 -0.059639301 7.4715402e-32
v 0.41095391 -0.91677846 -2.9473649e-31
l 425 426
v -0.106521 -0.055256002 7.6430801e-32
v 0.37219436 -0.93322616 -2.6716175e-31
l 427 428
v -0.119351 0.0124607 8.5636597e-32
v -0.20246772 -0.98407912 1.4528186e-31
l 429 430
v -0.112572 -0.041563299 8.0772402e-32
v 0.25315454 -0.97228565 -1.8170608e-31
l 431 432
v -0.114204 -0.036844499 8.19431e-32
v 0.21265027 -0.98191925 -1.5252279e-31
l 433 434
v -0.115637 -0.032061901 8.2971898e-32
v 0.17138387 -0.98998623 -1.2308996e-31
l 435 436
v -0.11873 0.0174147 8.5190497e-32
v -0.24310954 -0.97482002 1.7453971e-31
l 437 438
v -0.11873 -0.0174147 8.5190497e-32
v 0.047100655 -1.0035689 -3.36742e-32
l 439 440
v -0.119351 -0.0124607 8.5636597e-32
v 0.0050285346 -1.0046954 -3.7126179e-33
l 441 442
v -0.119766 -0.0074850302 8.5934403e-32
v -0.036649277 -1.0040248 2.6289138e-32
l 443 444
v -0.119974 -0.00249645 8.6083403e-32
v -0.078313907 -1.0016283 5.6241158e-32
l 445 446
v -0.119766 0.0074850302 8.5934403e-32
v -0.16142609 -0.99164681 1.1577665e-31
l 447 448
v 0.080789201 0.088730499 -5.79676e-32
v -0.67247917 0.74644378 4.8251885e-31
l 449 450
v -0.117902 0.022338601 8.4597002e-32
v -0.28373266 -0.96381564 2.034617e-31
l 451 452
v -0.116871 0.027223799 8.3856999e-32
v -0.3233688 -0.95122327 2.320708e-31
l 453 454
v -0.115637 0.032061901 8.2971898e-32
v -0.36278378 -0.93691615 2.6024033e-31
l 455 456
v -0.114204 0.036844499 8.19431e-32
v -0.40122486 -0.92107983 2.8800496e-31
l 457 458
v -0.108728 0.050776999 7.8013898e-32
v -0.51291134 -0.86390099 3.6803247e-31
l 459 460
v -0.106521 0.055256002 7.6430801e-32
v -0.54851916 -0.84175996 3.9347983e-31
l 461 462
v -0.104131 0.059639301 7.4715402e-32
v -0.58284636 -0.81833086 4.1830795e-31
l 463 464
v -0.101559 0.063919298 7.2870599e-32
v -0.6166439 -0.79321986 4.4232249e-31
l 465 466
v -0.098812602 0.068088703 7.0899701e-32
v -0.64889962 -0.76701864 4.6565914e-31
l 467 468
v -0.095894702 0.072140202 6.8806098e-32
v -0.68030776 -0.73931613 4.8812422e-31
l 469 470
v -0.092810698 0.076066896 6.6593301e-32
v -0.71047671 -0.71037363 5.0977362e-31
l 471 472
v -0.089566097 0.079861797 6.4265199e-32
v -0.73941354 -0.68020288 5.3055086e-31
l 473 474
v -0.086166501 0.083518498 6.1825901e-32
v -0.76705717 -0.64886658 5.5038255e-31
l 475 476
v -0.082617603 0.087030597 5.9279598e-32
v -0.79339982 -0.61638154 5.6925959e-31
l 477 478
v -0.04039 0.112998 2.89806e-32
v -0.97483596 -0.24310697 6.9945155e-31
l 479 480
v -0.071138799 0.096639901 5.1043297e-32
v -0.86396617 -0.51280638 6.1991207e-31
l 481 482
v -0.0670572 0.099515498 4.81146e-32
v -0.8845468 -0.47642786 6.3469335e-31
l 483 484
v -0.062859401 0.102219 4.5102701e-32
v -0.90358956 -0.43923534 6.483222e-31
l 485 486
v -0.058552802 0.104745 4.20127e-32
v -0.92112475 -0.40118941 6.6091134e-31
l 487 488
v -0.0496433 0.10925 3.56199e-32
v -0.95122594 -0.32335692 6.8252587e-31
l 489 490
v -0.045055602 0.11122 3.2328199e-32
v -0.96392164 -0.28334963 6.9162014e-31
l 491 492
v -0.0308573 0.115965 2.2140601e-32
v -0.99167037 -0.16123214 7.1154588e-31
l 493 494
v -0.0260066 0.117148 1.86602e-32
v -0.99753164 -0.11978891 7.1573405e-31
l 495 496
v -0.0211109 0.118128 1.51474e-32
v -1.0016583 -0.078154647 7.1871726e-31
l 497 498
v -0.016178699 0.118904 1.16085e-32
v -1.0040269 -0.036517607 7.2039883e-31
l 499 500
v -0.0112184 0.119475 8.0494099e-33
v -1.004658 0.0051166616 7.208573e-31
l 501 502
v -0.00623876 0.119838 4.4764199e-33
v -1.0035923 0.047134129 7.2009733e-31
l 503 504
v -0.078925803 0.090392001 5.6630598e-32
v -0.81834505 -0.58285325 5.8719066e-31
l 505 506
v 0.0186488 0.118542 -1.3380801e-32
v -0.97222517 0.25333358 6.9757999e-31
l 507 508
v 0.023563899 0.117664 -1.69075e-32
v -0.96085319 0.29351334 6.8943482e-31
l 509 510
v 0.028438101 0.116582 -2.04048e-32
v -0.94779783 0.33329243 6.8005657e-31
l 511 512
v 0.033263098 0.115298 -2.3866799e-32
v -0.93310486 0.37246131 6.6951501e-31
l 513 514
v 0.038030501 0.113814 -2.72875e-32
v -0.91677999 0.41102929 6.5780678e-31
l 515 516
v 0.042732101 0.112134 -3.0661001e-32
v -0.89895578 0.44862165 6.4502081e-31
l 517 518
v 0.047359701 0.110259 -3.3981399e-32
v -0.87945267 0.48578374 6.3102552e-31
l 519 520
v 0.0519053 0.108193 -3.7242999e-32
v -0.85847533 0.52196481 6.1598167e-31
l 521 522
v 0.056361102 0.105941 -4.044e-32
v -0.83612652 0.55701289 5.9991256e-31
l 523 524
v 0.0607193 0.103504 -4.35671e-32
v -0.81209353 0.59155909 5.8269465e-31
l 525 526
v 0.064972296 0.100889 -4.6618801e-32
v -0.78688476 0.62466333 5.646239e-31
l 527 528
v 0.069112897 0.098099001 -4.9589699e-32
v -0.76019141 0.65689624 5.4543945e-31
l 529 530
v 0.073133901 0.095138997 -5.2474803e-32
v -0.73219358 0.68796919 5.2535441e-31
l 531 532
v 0.0770282 0.092014402 -5.5269e-32
v -0.70294533 0.7178269 5.043695e-31
l 533 534
v -0.116871 -0.027223799 8.3856999e-32
v 0.13027579 -0.99620185 -9.3411436e-32
l 535 536
v 0.087885298 0.081707798 -6.30592e-32
v -0.60809883 0.79976496 4.3632755e-31
l 537 538
v 0.091208197 0.077981196 -6.5443403e-32
v -0.57431446 0.82435884 4.1207351e-31
l 539 540
v 0.0943731 0.074119598 -6.7714299e-32
v -0.53951383 0.84754533 3.8711539e-31
l 541 542
v 0.0973747 0.0701297 -6.9867999e-32
v -0.50380101 0.86924656 3.6148584e-31
l 543 544
v 0.100208 0.066018298 -7.1900699e-32
v -0.4672331 0.88943229 3.351998e-31
l 545 546
v 0.102867 0.061792701 -7.3809002e-32
v -0.42972242 0.90816644 3.0841816e-31
l 547 548
v 0.105349 0.057460099 -7.55895e-32
v -0.39172939 0.92516574 2.8099713e-31
l 549 550
v 0.107648 0.053027999 -7.7239101e-32
v -0.35280758 0.94071074 2.5315095e-31
l 551 552
v 0.10976 0.048504099 -7.8755001e-32
v -0.31326496 0.95462213 2.2487337e-31
l 553 554
v 0.111683 0.043896299 -8.0134502e-32
v -0.27345887 0.96675368 1.9615417e-31
l 555 556
v 0.113412 0.039212398 -8.1375401e-32
v -0.23288389 0.97733774 1.6716076e-31
l 557 558
v 0.114946 0.034460701 -8.2475299e-32
v -0.19227345 0.9860994 1.3780511e-31
l 559 560
v 0.11628 0.029649301 -8.3432498e-32
v -0.15089834 0.9932964 1.0827929e-31
l 561 562
v 0.117412 0.024786601 -8.42452e-32
v -0.10931878 0.99874407 7.8532019e-32
l 563 564
v 0.118342 0.019881001 -8.4912199e-32
v -0.06791895 1.0023813 4.8675276e-32
l 565 566
v 0.119066 0.0149409 -8.5432002e-32
v -0.025941247 1.0043715 1.8677122e-32
l 567 568
v 0.119585 0.0099750003 -8.5803999e-32
v 0.015638372 1.0045579 -1.1299514e-32
l 569 570
v 0.119896 0.0049918201 -8.6027502e-32
v 0.057606821 1.00305 -4.1263195e-32
l 571 572
v 0.12 0 0
v 0.099171393 0.99978306 -1.7229956e-29
l 573 574
v -0.016178699 -0.118904 1.16085e-32
v 0.97726087 -0.23326234 -7.0119939e-31
l 575 576
v -0.00623876 -0.119838 4.4764199e-33
v 0.99327924 -0.1508826 -7.1269509e-31
l 577 578
v -0.119974 0.00249645 8.6083403e-32
v -0.119974 -0.99750355 8.6083403e-32
l 579 580
v 0.119585 -0.0099750003 -8.5803999e-32
v 0.18187418 0.98808314 -1.3056831e-31
l 581 582
v 0.118342 -0.019881001 -8.4912199e-32
v 0.26334924 0.96954959 -1.8902132e-31
l 583 584
v 0.0519053 -0.108193 -3.7242999e-32
v 0.94439292 0.34287889 -6.7759556e-31
l 585 586
v -0.101559 -0.063919298 7.2870599e-32
v 0.44852802 -0.89902664 -3.2188884e-31
l 587 588
v -0.117902 -0.022338601 8.4597002e-32
v 0.088595793 -1.0007857 -6.3616799e-32
l 589 590
v -0.0750973 0.093597002 5.3883597e-32
v -0.84188032 -0.54830938 6.0406042e-31
l 591 592
v -0.0356545 0.114581 2.5582701e-32
v -0.98406737 -0.20245691 7.0610452e-31
l 593 594
v 0.084410302 0.085293002 -6.0565801e-32
v -0.64084407 0.77377401 4.5981639e-31
l 595 596
v -0.098812602 -0.068088703 7.0899701e-32
v 0.48560046 -0.87954503 -3.4841842e-31
l 597 598
v 0.056361102 -0.105941 -4.044e-32
v 0.92917393 0.38211409 -6.6670175e-31
l 599 600
v -0.0541449 0.10709 3.88499e-32
v -0.93698678 -0.36258033 6.7231511e-31
l 601 602
v 0.119896 -0.0049918201 0.30000001
v 0.14072461 0.99479124 0.30000001
l 603 604
v 0.119585 -0.0099750003 0.30000001
v 0.18187418 0.98808314 0.30000001
l 605 606
v 0.119066 -0.0149409 0.30000001
v 0.22301263 0.97964198 0.30000001
l 607 608
v 0.118342 -0.019881001 0.30000001
v 0.26334924 0.96954959 0.30000001
l 609 610
v 0.117412 -0.024786601 0.30000001
v 0.30367295 0.95771371 0.30000001
l 611 612
v 0.11628 -0.029649301 0.30000001
v 0.34301078 0.94430817 0.30000001
l 613 614
v 0.114946 -0.034460701 0.30000001
v 0.38212434 0.9291864 0.30000001
l 615 616
v 0.113412 -0.039212398 0.30000001
v 0.42063145 0.9124263 0.30000001
l 617 618
v 0.111683 -0.043896299 0.30000001
v 0.4579789 0.89422904 0.30000001
l 619 620
v 0.10976 -0.048504099 0.30000001
v 0.49490187 0.87435328 0.30000001
l 621 622
v 0.107648 -0.053027999 0.30000001
v 0.53067296 0.85309003 0.30000001
l 623 624
v 0.105349 -0.057460099 0.30000001
v 0.56580458 0.83022265 0.30000001
l 625 626
v 0.102867 -0.061792701 0.30000001
v 0.59994538 0.80591294 0.30000001
l 627 628
v 0.100208 -0.066018298 0.30000001
v 0.63279742 0.78035544 0.30000001
l 629 630
v 0.0973747 -0.0701297 0.30000001
v 0.6648158 0.75328429 0.30000001
l 631 632
v 0.0943731 -0.074119598 0.30000001
v 0.69554881 0.72499727 0.30000001
l 633 634
v 0.091208197 -0.077981196 0.30000001
v 0.72509512 0.69544454 0.30000001
l 635 636
v 0.087885298 -0.081707798 0.30000001
v 0.75340795 0.66466985 0.30000001
l 637 638
v 0.084410302 -0.085293002 0.30000001
v 0.78039443 0.63276416 0.30000001
l 639 640
v 0.069112897 -0.098099001 0.30000001
v 0.87444038 0.4947312 0.30000001
l 641 642
v 0.064972296 -0.100889 0.30000001
v 0.89427661 0.45790825 0.30000001
l 643 644
v 0.0607193 -0.103504 0.30000001
v 0.91257636 0.42027033 0.30000001
l 645 646
v 0.056361102 -0.105941 0.30000001
v 0.92917393 0.38211409 0.30000001
l 647 648
v 0.0519053 -0.108193 0.30000001
v 0.94439292 0.34287889 0.30000001
l 649 650
v 0.047359701 -0.110259 0.30000001
v 0.95774033 0.30351281 0.30000001
l 651 652
v 0.042732101 -0.112134 0.30000001
v 0.96954447 0.26339074 0.30000001
l 653 654
v 0.038030501 -0.113814 0.30000001
v 0.97971838 0.22267365 0.30000001
l 655 656
v 0.033263098 -0.115298 0.30000001
v 0.98807359 0.1819173 0.30000001
l 657 658
v 0.028438101 -0.116582 0.30000001
v 0.99480606 0.14058131 0.30000001
l 659 660
v 0.023563899 -0.117664 0.30000001
v 0.99979983 0.099046431 0.30000001
l 661 662
v 0.0186488 -0.118542 0.30000001
v 1.0030659 0.057307335 0.30000001
l 663 664
v 0.0137015 -0.119215 0.30000001
v 1.0045755 0.015576583 0.30000001
l 665 666
v 0.0087304804 -0.119682 0.30000001
v 1.0043466 -0.026148853 0.30000001
l 667 668
v 0.00374434 -0.119942 0.30000001
v 1.0023875 -0.067867628 0.30000001
l 669 670
v -0.0012482899 -0.119993 0.30000001
v 0.99869954 -0.10977863 0.30000001
l 671 672
v -0.00623876 -0.119838 0.30000001
v 0.99327924 -0.1508826 0.30000001
l 673 674
v -0.0112184 -0.119475 0.30000001
v 0.98613517 -0.19217887 0.30000001
l 675 676
v -0.016178699 -0.118904 0.30000001
v 0.97726087 -0.23326234 0.30000001
l 677 678
v -0.0211109 -0.118128 0.30000001
v 0.96673733 -0.27354961 0.30000001
l 679 680
v -0.0260066 -0.117148 0.30000001
v 0.95454076 -0.31343065 0.30000001
l 681 682
v -0.0308573 -0.115965 0.30000001
v 0.94066774 -0.35290191 0.30000001
l 683 684
v -0.0356545 -0.114581 0.30000001
v 0.92515857 -0.39177813 0.30000001
l 685 686
v -0.04039 -0.112998 0.30000001
v 0.90802287 -0.43003591 0.30000001
l 687 688
v -0.045055602 -0.11122 0.30000001
v 0.88939036 -0.46732498 0.30000001
l 689 690
v -0.0496433 -0.10925 0.30000001
v 0.86922274 -0.50381964 0.30000001
l 691 692
v -0.0541449 -0.10709 0.30000001
v 0.84743774 -0.53969692 0.30000001
l 693 694
v -0.058552802 -0.104745 0.30000001
v 0.82428908 -0.57441533 0.30000001
l 695 696
v -0.0670572 -0.099515498 0.30000001
v 0.77367296 -0.64096984 0.30000001
l 697 698
v -0.071138799 -0.096639901 0.30000001
v 0.7463508 -0.67258326 0.30000001
l 699 700
v -0.0750973 -0.093597002 0.30000001
v 0.71773007 -0.70304328 0.30000001
l 701 702
v -0.078925803 -0.090392001 0.30000001
v 0.68785722 -0.73229838 0.30000001
l 703 704
v -0.082617603 -0.087030597 0.30000001
v 0.65680165 -0.76027585 0.30000001
l 705 706
v -0.086166501 -0.083518498 0.30000001
v 0.62461572 -0.78693064 0.30000001
l 707 708
v -0.089566097 -0.079861797 0.30000001
v 0.59132457 -0.81224687 0.30000001
l 709 710
v -0.092810698 -0.076066896 0.30000001
v 0.55703674 -0.83613157 0.30000001
l 711 712
v -0.095894702 -0.072140202 0.30000001
v 0.52177131 -0.85858073 0.30000001
l 713 714
v -0.098812602 -0.068088703 0.30000001
v 0.48560046 -0.87954503 0.30000001
l 715 716
v -0.101559 -0.063919298 0.30000001
v 0.44852802 -0.89902664 0.30000001
l 717 718
v -0.104131 -0.059639301 0.30000001
v 0.41095391 -0.91677846 0.30000001
l 719 720
v -0.106521 -0.055256002 0.30000001
v 0.37219436 -0.93322616 0.30000001
l 721 722
v -0.108728 -0.050776999 0.30000001
v 0.33327016 -0.94779296 0.30000001
l 723 724
v -0.110746 -0.0462102 0.30000001
v 0.29343734 -0.96088819 0.30000001
l 725 726
v -0.112572 -0.041563299 0.30000001
v 0.25315454 -0.97228565 0.30000001
l 727 728
v -0.114204 -0.036844499 0.30000001
v 0.21265027 -0.98191925 0.30000001
l 729 730
v -0.115637 -0.032061901 0.30000001
v 0.17138387 -0.98998623 0.30000001
l 731 732
v -0.116871 -0.027223799 0.30000001
v 0.13027579 -0.99620185 0.30000001
l 733 734
v -0.119766 -0.0074850302 0.30000001
v -0.036649277 -1.0040248 0.30000001
l 735 736
v -0.119974 -0.00249645 0.30000001
v -0.078313907 -1.0016283 0.30000001
l 737 738
v -0.119974 0.00249645 0.30000001
v -0.119974 -0.99750355 0.30000001
l 739 740
v -0.119766 0.0074850302 0.30000001
v -0.16142609 -0.99164681 0.30000001
l 741 742
v -0.119351 0.0124607 0.30000001
v -0.20246772 -0.98407912 0.30000001
l 743 744
v -0.11873 0.0174147 0.30000001
v -0.24310954 -0.97482002 0.30000001
l 745 746
v -0.117902 0.022338601 0.30000001
v -0.28373266 -0.96381564 0.30000001
l 747 748
v -0.116871 0.027223799 0.30000001
v -0.3233688 -0.95122327 0.30000001
l 749 750
v -0.115637 0.032061901 0.30000001
v -0.36278378 -0.93691615 0.30000001
l 751 752
v -0.114204 0.036844499 0.30000001
v -0.40122486 -0.92107983 0.30000001
l 753 754
v -0.112572 0.041563299 0.30000001
v -0.43942627 -0.90351145 0.30000001
l 755 756
v -0.110746 0.0462102 0.30000001
v -0.47647255 -0.88451215 0.30000001
l 757 758
v -0.108728 0.050776999 0.30000001
v -0.51291134 -0.86390099 0.30000001
l 759 760
v -0.106521 0.055256002 0.30000001
v -0.54851916 -0.84175996 0.30000001
l 761 762
v -0.104131 0.059639301 0.30000001
v -0.58284636 -0.81833086 0.30000001
l 763 764
v -0.101559 0.063919298 0.30000001
v -0.6166439 -0.79321986 0.30000001
l 765 766
v -0.098812602 0.068088703 0.30000001
v -0.64889962 -0.76701864 0.30000001
l 767 768
v -0.095894702 0.072140202 0.30000001
v -0.68030776 -0.73931613 0.30000001
l 769 770
v -0.092810698 0.076066896 0.30000001
v -0.71047671 -0.71037363 0.30000001
l 771 772
v -0.089566097 0.079861797 0.30000001
v -0.73941354 -0.68020288 0.30000001
l 773 774
v -0.086166501 0.083518498 0.30000001
v -0.76705717 -0.64886658 0.30000001
l 775 776
v -0.082617603 0.087030597 0.30000001
v -0.79339982 -0.61638154 0.30000001
l 777 778
v -0.078925803 0.090392001 0.30000001
v -0.81834505 -0.58285325 0.30000001
l 779 780
v -0.0750973 0.093597002 0.30000001
v -0.84188032 -0.54830938 0.30000001
l 781 782
v -0.071138799 0.096639901 0.30000001
v -0.86396617 -0.51280638 0.30000001
l 783 784
v -0.0670572 0.099515498 0.30000001
v -0.8845468 -0.47642786 0.30000001
l 785 786
v -0.062859401 0.102219 0.30000001
v -0.90358956 -0.43923534 0.30000001
l 787 788
v -0.058552802 0.104745 0.30000001
v -0.92112475 -0.40118941 0.30000001
l 789 790
v -0.0496433 0.10925 0.30000001
v -0.95122594 -0.32335692 0.30000001
l 791 792
v -0.045055602 0.11122 0.30000001
v -0.96392164 -0.28334963 0.30000001
l 793 794
v -0.04039 0.112998 0.30000001
v -0.97483596 -0.24310697 0.30000001
l 795 796
v -0.0356545 0.114581 0.30000001
v -0.98406737 -0.20245691 0.30000001
l 797 798
v -0.0308573 0.115965 0.30000001
v -0.99167037 -0.16123214 0.30000001
l 799 800
v -0.0260066 0.117148 0.30000001
v -0.99753164 -0.11978891 0.30000001
l 801 802
v -0.0211109 0.118128 0.30000001
v -1.0016583 -0.078154647 0.30000001
l 803 804
v -0.016178699 0.118904 0.30000001
v -1.0040269 -0.036517607 0.30000001
l 805 806
v -0.0112184 0.119475 0.30000001
v -1.004658 0.0051166616 0.30000001
l 807 808
v -0.00623876 0.119838 0.30000001
v -1.0035923 0.047134129 0.30000001
l 809 810
v -0.0012482899 0.119993 0.30000001
v -1.0007663 0.088948397 0.30000001
l 811 812
v 0.00374434 0.119942 0.30000001
v -0.99620349 0.13015637 0.30000001
l 813 814
v 0.0087304804 0.119682 0.30000001
v -0.98991273 0.17175637 0.30000001
l 815 816
v 0.0137015 0.119215 0.30000001
v -0.98191467 0.21274814 0.30000001
l 817 818
v 0.0186488 0.118542 0.30000001
v -0.97222517 0.25333358 0.30000001
l 819 820
v 0.023563899 0.117664 0.30000001
v -0.96085319 0.29351334 0.30000001
l 821 822
v 0.028438101 0.116582 0.30000001
v -0.94779783 0.33329243 0.30000001
l 823 824
v 0.033263098 0.115298 0.30000001
v -0.93310486 0.37246131 0.30000001
l 825 826
v 0.038030501 0.113814 0.30000001
v -0.91677999 0.41102929 0.30000001
l 827 828
v 0.056361102 0.105941 0.30000001
v -0.83612652 0.55701289 0.30000001
l 829 830
v 0.0607193 0.103504 0.30000001
v -0.81209353 0.59155909 0.30000001
l 831 832
v 0.064972296 0.100889 0.30000001
v -0.78688476 0.62466333 0.30000001
l 833 834
v 0.069112897 0.098099001 0.30000001
v -0.76019141 0.65689624 0.30000001
l 835 836
v 0.073133901 0.095138997 0.30000001
v -0.73219358 0.68796919 0.30000001
l 837 838
v 0.0770282 0.092014402 0.30000001
v -0.70294533 0.7178269 0.30000001
l 839 840
v 0.080789201 0.088730499 0.30000001
v -0.67247917 0.74644378 0.30000001
l 841 842
v 0.084410302 0.085293002 0.30000001
v -0.64084407 0.77377401 0.30000001
l 843 844
v 0.087885298 0.081707798 0.30000001
v -0.60809883 0.79976496 0.30000001
l 845 846
v 0.091208197 0.077981196 0.30000001
v -0.57431446 0.82435884 0.30000001
l 847 848
v 0.0943731 0.074119598 0.30000001
v -0.53951383 0.84754533 0.30000001
l 849 850
v 0.0973747 0.0701297 0.30000001
v -0.50380101 0.86924656 0.30000001
l 851 852
v 0.100208 0.066018298 0.30000001
v -0.4672331 0.88943229 0.30000001
l 853 854
v 0.102867 0.061792701 0.30000001
v -0.42972242 0.90816644 0.30000001
l 855 856
v 0.105349 0.057460099 0.30000001
v -0.39172939 0.92516574 0.30000001
l 857 858
v 0.107648 0.053027999 0.30000001
v -0.35280758 0.94071074 0.30000001
l 859 860
v 0.10976 0.048504099 0.30000001
v -0.31326496 0.95462213 0.30000001
l 861 862
v 0.111683 0.043896299 0.30000001
v -0.27345887 0.96675368 0.30000001
l 863 864
v 0.113412 0.039212398 0.30000001
v -0.23288389 0.97733774 0.30000001
l 865 866
v 0.114946 0.034460701 0.30000001
v -0.19227345 0.9860994 0.30000001
l 867 868
v 0.11628 0.029649301 0.30000001
v -0.15089834 0.9932964 0.30000001
l 869 870
v 0.117412 0.024786601 0.30000001
v -0.10931878 0.99874407 0.30000001
l 871 872
v 0.118342 0.019881001 0.30000001
v -0.06791895 1.0023813 0.30000001
l 873 874
v 0.119066 0.0149409 0.30000001
v -0.025941247 1.0043715 0.30000001
l 875 876
v 0.119585 0.0099750003 0.30000001
v 0.015638372 1.0045579 0.30000001
l 877 878
v 0.119896 0.0049918201 0.30000001
v 0.057606821 1.00305 0.30000001
l 879 880
v 0.109886 -0.00500661 0.25
v 0.13265026 0.99473425 0.25
l 881 882
v 0.109544 -0.0100028 0.25
v 0.17783566 0.9876626 0.25
l 883 884
v 0.108976 -0.0149783 0.25
v 0.22239918 0.97856847 0.25
l 885 886
v 0.108181 -0.0199228 0.25
v 0.26692672 0.9673967 0.25
l 887 888
v 0.107162 -0.024825901 0.25
v 0.31064194 0.95425321 0.25
l 889 890
v 0.105921 -0.0296776 0.25
v 0.35372918 0.93913152 0.25
l 891 892
v 0.10446 -0.034467801 0.25
v 0.39619024 0.92203283 0.25
l 893 894
v 0.102783 -0.039186601 0.25
v 0.43765152 0.90307826 0.25
l 895 896
v 0.100893 -0.043824099 0.25
v 0.47830163 0.88222273 0.25
l 897 898
v 0.098794103 -0.048370801 0.25
v 0.51792106 0.85955684 0.25
l 899 900
v 0.0964901 -0.0528173 0.25
v 0.55655711 0.8350669 0.25
l 901 902
v 0.093986101 -0.057154201 0.25
v 0.59399922 0.80886363 0.25
l 903 904
v 0.091287397 -0.061372701 0.25
v 0.63018023 0.78100163 0.25
l 905 906
v 0.088399403 -0.065464102 0.25
v 0.66507547 0.75150879 0.25
l 907 908
v 0.085328199 -0.069419697 0.25
v 0.69860044 0.72045191 0.25
l 909 910
v 0.0820802 -0.073231399 0.25
v 0.73066157 0.68791393 0.25
l 911 912
v 0.078662001 -0.0768914 0.25
v 0.76121488 0.65394481 0.25
l 913 914
v 0.075080797 -0.080392003 0.25
v 0.79018908 0.61862169 0.25
l 915 916
v 0.071344003 -0.083725899 0.25
v 0.81753229 0.58200907 0.25
l 917 918
v 0.0674593 -0.086886398 0.25
v 0.84316484 0.54420861 0.25
l 919 920
v 0.063434802 -0.089866698 0.25
v 0.86706939 0.50525635 0.25
l 921 922
v 0.059278902 -0.0926608 0.25
v 0.88915687 0.46528414 0.25
l 923 924
v 0.055 -0.095262803 0.25
v 0.90942423 0.42431321 0.25
l 925 926
v 0.050607201 -0.097667404 0.25
v 0.9277859 0.38249666 0.25
l 927 928
v 0.046109401 -0.099869497 0.25
v 0.94424392 0.33985131 0.25
l 929 930
v 0.041516099 -0.101865 0.25
v 0.95870175 0.29659513 0.25
l 931 932
v 0.036836799 -0.103649 0.25
v 0.97123108 0.25259156 0.25
l 933 934
v 0.032081101 -0.105218 0.25
v 0.98173218 0.20809147 0.25
l 935 936
v 0.027258901 -0.106569 0.25
v 0.99018232 0.16320588 0.25
l 937 938
v 0.022380199 -0.107699 0.25
v 0.9965897 0.11794638 0.25
l 939 940
v 0.017455099 -0.108606 0.25
v 1.0009172 0.072507872 0.25
l 941 942
v 0.0124938 -0.109288 0.25
v 1.0031776 0.026894627 0.25
l 943 944
v 0.00750667 -0.109744 0.25
v 1.0033525 -0.018688908 0.25
l 945 946
v 0.0025039499 -0.109971 0.25
v 1.001476 -0.064641472 0.25
l 947 948
v -0.0025039499 -0.109971 0.25
v 0.99749605 -0.109971 0.25
l 949 950
v -0.00750667 -0.109744 0.25
v 0.99146542 -0.15507353 0.25
l 951 952
v -0.0124938 -0.109288 0.25
v 0.98335206 -0.20034309 0.25
l 953 954
v -0.017455099 -0.108606 0.25
v 0.97322865 -0.24478863 0.25
l 955 956
v -0.022380199 -0.107699 0.25
v 0.96108193 -0.28881287 0.25
l 957 958
v -0.027258901 -0.106569 0.25
v 0.9469506 -0.33221438 0.25
l 959 960
v -0.032081101 -0.105218 0.25
v 0.93084232 -0.37499288 0.25
l 961 962
v -0.036836799 -0.103649 0.25
v 0.91281428 -0.41695847 0.25
l 963 964
v -0.041516099 -0.101865 0.25
v 0.89287818 -0.45810556 0.25
l 965 966
v -0.046109401 -0.099869497 0.25
v 0.87107625 -0.49832963 0.25
l 967 968
v -0.050607201 -0.097667404 0.25
v 0.84752732 -0.53738821 0.25
l 969 970
v -0.055 -0.095262803 0.25
v 0.8221787 -0.57542687 0.25
l 971 972
v -0.059278902 -0.0926608 0.25
v 0.79514533 -0.61223682 0.25
l 973 974
v -0.063434802 -0.089866698 0.25
v 0.76644317 -0.64781164 0.25
l 975 976
v -0.0674593 -0.086886398 0.25
v 0.73617529 -0.68200945 0.25
l 977 978
v -0.071344003 -0.083725899 0.25
v 0.70436154 -0.71482091 0.25
l 979 980
v -0.075080797 -0.080392003 0.25
v 0.67110749 -0.74612697 0.25
l 981 982
v -0.078662001 -0.0768914 0.25
v 0.63644628 -0.77590509 0.25
l 983 984
v -0.0820802 -0.073231399 0.25
v 0.60047268 -0.80406761 0.25
l 985 986
v -0.085328199 -0.069419697 0.25
v 0.56325317 -0.83056502 0.25
l 987 988
v -0.088399403 -0.065464102 0.25
v 0.52487283 -0.85533571 0.25
l 989 990
v -0.091287397 -0.061372701 0.25
v 0.48538867 -0.87834559 0.25
l 991 992
v -0.093986101 -0.057154201 0.25
v 0.44490673 -0.89952853 0.25
l 993 994
v -0.0964901 -0.0528173 0.25
v 0.40352302 -0.91883513 0.25
l 995 996
v -0.098794103 -0.048370801 0.25
v 0.36127291 -0.936255 0.25
l 997 998
v -0.100893 -0.043824099 0.25
v 0.31823396 -0.95175174 0.25
l 999 1000
v -0.102783 -0.039186601 0.25
v 0.27462563 -0.96523343 0.25
l 1001 1002
v -0.10446 -0.034467801 0.25
v 0.23040852 -0.97673267 0.25
l 1003 1004
v -0.105921 -0.0296776 0.25
v 0.18580924 -0.98617824 0.25
l 1005 1006
v -0.107162 -0.024825901 0.25
v 0.14064618 -0.99363502 0.25
l 1007 1008
v -0.108181 -0.0199228 0.25
v 0.095298945 -0.99900191 0.25
l 1009 1010
v -0.108976 -0.0149783 0.25
v 0.049769725 -1.0022978 0.25
l 1011 1012
v -0.109544 -0.0100028 0.25
v 0.0038791837 -1.0035496 0.25
l 1013 1014
v -0.109886 -0.00500661 0.25
v -0.041594339 -1.002672 0.25
l 1015 1016
v -0.11 2.79628e-16 0.25
v -0.087235735 -0.99974086 0.25
l 1017 1018
v -0.109886 0.00500661 0.25
v -0.13265026 -0.99473425 0.25
l 1019 1020
v -0.109544 0.0100028 0.25
v -0.17783566 -0.9876626 0.25
l 1021 1022
v -0.108976 0.0149783 0.25
v -0.22239918 -0.97856847 0.25
l 1023 1024
v -0.108181 0.0199228 0.25
v -0.26692672 -0.9673967 0.25
l 1025 1026
v -0.107162 0.024825901 0.25
v -0.31064194 -0.95425321 0.25
l 1027 1028
v -0.105921 0.0296776 0.25
v -0.35372918 -0.93913152 0.25
l 1029 1030
v -0.10446 0.034467801 0.25
v -0.39619024 -0.92203283 0.25
l 1031 1032
v -0.102783 0.039186601 0.25
v -0.43765152 -0.90307826 0.25
l 1033 1034
v -0.100893 0.043824099 0.25
v -0.47830163 -0.88222273 0.25
l 1035 1036
v -0.098794103 0.048370801 0.25
v -0.51792106 -0.85955684 0.25
l 1037 1038
v -0.0964901 0.0528173 0.25
v -0.55655711 -0.8350669 0.25
l 1039 1040
v -0.093986101 0.057154201 0.25
v -0.59399922 -0.80886363 0.25
l 1041 1042
v -0.091287397 0.061372701 0.25
v -0.63018023 -0.78100163 0.25
l 1043 1044
v -0.088399403 0.065464102 0.25
v -0.66507547 -0.75150879 0.25
l 1045 1046
v -0.085328199 0.069419697 0.25
v -0.69860044 -0.72045191 0.25
l 1047 1048
v -0.0820802 0.073231399 0.25
v -0.73066157 -0.68791393 0.25
l 1049 1050
v -0.078662001 0.0768914 0.25
v -0.76121488 -0.65394481 0.25
l 1051 1052
v -0.075080797 0.080392003 0.25
v -0.79018908 -0.61862169 0.25
l 1053 1054
v -0.071344003 0.083725899 0.25
v -0.81753229 -0.58200907 0.25
l 1055 1056
v -0.0674593 0.086886398 0.25
v -0.84316484 -0.54420861 0.25
l 1057 1058
v -0.063434802 0.089866698 0.25
v -0.86706939 -0.50525635 0.25
l 1059 1060
v -0.059278902 0.0926608 0.25
v -0.88915687 -0.46528414 0.25
l 1061 1062
v -0.055 0.095262803 0.25
v -0.90942423 -0.42431321 0.25
l 1063 1064
v -0.050607201 0.097667404 0.25
v -0.9277859 -0.38249666 0.25
l 1065 1066
v -0.046109401 0.099869497 0.25
v -0.94424392 -0.33985131 0.25
l 1067 1068
v -0.041516099 0.101865 0.25
v -0.95870175 -0.29659513 0.25
l 1069 1070
v -0.036836799 0.103649 0.25
v -0.97123108 -0.25259156 0.25
l 1071 1072
v -0.032081101 0.105218 0.25
v -0.98173218 -0.20809147 0.25
l 1073 1074
v -0.027258901 0.106569 0.25
v -0.99018232 -0.16320588 0.25
l 1075 1076
v -0.022380199 0.107699 0.25
v -0.9965897 -0.11794638 0.25
l 1077 1078
v -0.017455099 0.108606 0.25
v -1.0009172 -0.072507872 0.25
l 1079 1080
v -0.0124938 0.109288 0.25
v -1.0031776 -0.026894627 0.25
l 1081 1082
v -0.00750667 0.109744 0.25
v -1.0033525 0.018688908 0.25
l 1083 1084
v -0.0025039499 0.109971 0.25
v -1.001476 0.064641472 0.25
l 1085 1086
v 0.0025039499 0.109971 0.25
v -0.99749605 0.109971 0.25
l 1087 1088
v 0.00750667 0.109744 0.25
v -0.99146542 0.15507353 0.25
l 1089 1090
v 0.0124938 0.109288 0.25
v -0.98335206 0.20034309 0.25
l 1091 1092
v 0.017455099 0.108606 0.25
v -0.97322865 0.24478863 0.25
l 1093 1094
v 0.022380199 0.107699 0.25
v -0.96108193 0.28881287 0.25
l 1095 1096
v 0.027258901 0.106569 0.25
v -0.9469506 0.33221438 0.25
l 1097 1098
v 0.032081101 0.105218 0.25
v -0.93084232 0.37499288 0.25
l 1099 1100
v 0.036836799 0.103649 0.25
v -0.91281428 0.41695847 0.25
l 1101 1102
v 0.041516099 0.101865 0.25
v -0.89287818 0.45810556 0.25
l 1103 1104
v 0.046109401 0.099869497 0.25
v -0.87107625 0.49832963 0.25
l 1105 1106
v 0.050607201 0.097667404 0.25
v -0.84752732 0.53738821 0.25
l 1107 1108
v 0.055 0.095262803 0.25
v -0.8221787 0.57542687 0.25
l 1109 1110
v 0.059278902 0.0926608 0.25
v -0.79514533 0.61223682 0.25
l 1111 1112
v 0.063434802 0.089866698 0.25
v -0.76644317 0.64781164 0.25
l 1113 1114
v 0.0674593 0.086886398 0.25
v -0.73617529 0.68200945 0.25
l 1115 1116
v 0.071344003 0.083725899 0.25
v -0.70436154 0.71482091 0.25
l 1117 1118
v 0.075080797 0.080392003 0.25
v -0.67110749 0.74612697 0.25
l 1119 1120
v 0.078662001 0.0768914 0.25
v -0.63644628 0.77590509 0.25
l 1121 1122
v 0.0820802 0.073231399 0.25
v -0.60047268 0.80406761 0.25
l 1123 1124
v 0.085328199 0.069419697 0.25
v -0.56325317 0.83056502 0.25
l 1125 1126
v 0.088399403 0.065464102 0.25
v -0.52487283 0.85533571 0.25
l 1127 1128
v 0.091287397 0.061372701 0.25
v -0.48538867 0.87834559 0.25
l 1129 1130
v 0.093986101 0.057154201 0.25
v -0.44490673 0.89952853 0.25
l 1131 1132
v 0.0964901 0.0528173 0.25
v -0.40352302 0.91883513 0.25
l 1133 1134
v 0.098794103 0.048370801 0.25
v -0.36127291 0.936255 0.25
l 1135 1136
v 0.100893 0.043824099 0.25
v -0.31823396 0.95175174 0.25
l 1137 1138
v 0.102783 0.039186601 0.25
v -0.27462563 0.96523343 0.25
l 1139 1140
v 0.10446 0.034467801 0.25
v -0.23040852 0.97673267 0.25
l 1141 1142
v 0.105921 0.0296776 0.25
v -0.18580924 0.98617824 0.25
l 1143 1144
v 0.107162 0.024825901 0.25
v -0.14064618 0.99363502 0.25
l 1145 1146
v 0.108181 0.0199228 0.25
v -0.095298945 0.99900191 0.25
l 1147 1148
v 0.108976 0.0149783 0.25
v -0.049769725 1.0022978 0.25
l 1149 1150
v 0.109544 0.0100028 0.25
v -0.0038791837 1.0035496 0.25
l 1151 1152
v 0.109886 0.00500661 0.25
v 0.041594339 1.002672 0.25
l 1153 1154
v 0.11 0 0.25
v 0.087235735 0.99974086 0.25
l 1155 1156
v 0.119896 -0.0049918201 0.25
v 0.14072461 0.99479124 0.25
l 1157 1158
v 0.119585 -0.0099750003 0.25
v 0.18187418 0.98808314 0.25
l 1159 1160
v 0.119066 -0.0149409 0.25
v 0.22301263 0.97964198 0.25
l 1161 1162
v 0.118342 -0.019881001 0.25
v 0.26334924 0.96954959 0.25
l 1163 1164
v 0.117412 -0.024786601 0.25
v 0.30367295 0.95771371 0.25
l 1165 1166
v 0.11628 -0.029649301 0.25
v 0.34301078 0.94430817 0.25
l 1167 1168
v 0.114946 -0.034460701 0.25
v 0.38212434 0.9291864 0.25
l 1169 1170
v 0.113412 -0.039212398 0.25
v 0.42063145 0.9124263 0.25
l 1171 1172
v 0.111683 -0.043896299 0.25
v 0.4579789 0.89422904 0.25
l 1173 1174
v 0.10976 -0.048504099 0.25
v 0.49490187 0.87435328 0.25
l 1175 1176
v 0.107648 -0.053027999 0.25
v 0.53067296 0.85309003 0.25
l 1177 1178
v 0.105349 -0.057460099 0.25
v 0.56580458 0.83022265 0.25
l 1179 1180
v 0.102867 -0.061792701 0.25
v 0.59994538 0.80591294 0.25
l 1181 1182
v 0.100208 -0.066018298 0.25
v 0.63279742 0.78035544 0.25
l 1183 1184
v 0.0973747 -0.0701297 0.25
v 0.6648158 0.75328429 0.25
l 1185 1186
v 0.0943731 -0.074119598 0.25
v 0.69554881 0.72499727 0.25
l 1187 1188
v 0.091208197 -0.077981196 0.25
v 0.72509512 0.69544454 0.25
l 1189 1190
v 0.087885298 -0.081707798 0.25
v 0.75340795 0.66466985 0.25
l 1191 1192
v 0.084410302 -0.085293002 0.25
v 0.78039443 0.63276416 0.25
l 1193 1194
v 0.080789201 -0.088730499 0.25
v 0.80604357 0.59975051 0.25
l 1195 1196
v 0.0770282 -0.092014402 0.25
v 0.83029657 0.56569888 0.25
l 1197 1198
v 0.073133901 -0.095138997 0.25
v 0.85310744 0.5306735 0.25
l 1199 1200
v 0.069112897 -0.098099001 0.25
v 0.87444038 0.4947312 0.25
l 1201 1202
v 0.064972296 -0.100889 0.25
v 0.89427661 0.45790825 0.25
l 1203 1204
v 0.0607193 -0.103504 0.25
v 0.91257636 0.42027033 0.25
l 1205 1206
v 0.056361102 -0.105941 0.25
v 0.92917393 0.38211409 0.25
l 1207 1208
v 0.0519053 -0.108193 0.25
v 0.94439292 0.34287889 0.25
l 1209 1210
v 0.047359701 -0.110259 0.25
v 0.95774033 0.30351281 0.25
l 1211 1212
v 0.042732101 -0.112134 0.25
v 0.96954447 0.26339074 0.25
l 1213 1214
v 0.038030501 -0.113814 0.25
v 0.97971838 0.22267365 0.25
l 1215 1216
v 0.033263098 -0.115298 0.25
v 0.98807359 0.1819173 0.25
l 1217 1218
v 0.028438101 -0.116582 0.25
v 0.99480606 0.14058131 0.25
l 1219 1220
v 0.023563899 -0.117664 0.25
v 0.99979983 0.099046431 0.25
l 1221 1222
v 0.0186488 -0.118542 0.25
v 1.0030659 0.057307335 0.25
l 1223 1224
v 0.0137015 -0.119215 0.25
v 1.0045755 0.015576583 0.25
l 1225 1226
v 0.0087304804 -0.119682 0.25
v 1.0043466 -0.026148853 0.25
l 1227 1228
v 0.00374434 -0.119942 0.25
v 1.0023875 -0.067867628 0.25
l 1229 1230
v -0.0012482899 -0.119993 0.25
v 0.99869954 -0.10977863 0.25
l 1231 1232
v -0.00623876 -0.119838 0.25
v 0.99327924 -0.1508826 0.25
l 1233 1234
v -0.0112184 -0.119475 0.25
v 0.98613517 -0.19217887 0.25
l 1235 1236
v -0.016178699 -0.118904 0.25
v 0.97726087 -0.23326234 0.25
l 1237 1238
v -0.0211109 -0.118128 0.25
v 0.96673733 -0.27354961 0.25
l 1239 1240
v -0.0260066 -0.117148 0.25
v 0.95454076 -0.31343065 0.25
l 1241 1242
v -0.0308573 -0.115965 0.25
v 0.94066774 -0.35290191 0.25
l 1243 1244
v -0.0356545 -0.114581 0.25
v 0.92515857 -0.39177813 0.25
l 1245 1246
v -0.04039 -0.112998 0.25
v 0.90802287 -0.43003591 0.25
l 1247 1248
v -0.045055602 -0.11122 0.25
v 0.88939036 -0.46732498 0.25
l 1249 1250
v -0.0496433 -0.10925 0.25
v 0.86922274 -0.50381964 0.25
l 1251 1252
v -0.0541449 -0.10709 0.25
v 0.84743774 -0.53969692 0.25
l 1253 1254
v -0.058552802 -0.104745 0.25
v 0.82428908 -0.57441533 0.25
l 1255 1256
v -0.062859401 -0.102219 0.25
v 0.79971255 -0.60815341 0.25
l 1257 1258
v -0.0670572 -0.099515498 0.25
v 0.77367296 -0.64096984 0.25
l 1259 1260
v -0.071138799 -0.096639901 0.25
v 0.7463508 -0.67258326 0.25
l 1261 1262
v -0.0750973 -0.093597002 0.25
v 0.71773007 -0.70304328 0.25
l 1263 1264
v -0.078925803 -0.090392001 0.25
v 0.68785722 -0.73229838 0.25
l 1265 1266
v -0.082617603 -0.087030597 0.25
v 0.65680165 -0.76027585 0.25
l 1267 1268
v -0.086166501 -0.083518498 0.25
v 0.62461572 -0.78693064 0.25
l 1269 1270
v -0.089566097 -0.079861797 0.25
v 0.59132457 -0.81224687 0.25
l 1271 1272
v -0.092810698 -0.076066896 0.25
v 0.55703674 -0.83613157 0.25
l 1273 1274
v -0.095894702 -0.072140202 0.25
v 0.52177131 -0.85858073 0.25
l 1275 1276
v -0.098812602 -0.068088703 0.25
v 0.48560046 -0.87954503 0.25
l 1277 1278
v -0.101559 -0.063919298 0.25
v 0.44852802 -0.89902664 0.25
l 1279 1280
v -0.104131 -0.059639301 0.25
v 0.41095391 -0.91677846 0.25
l 1281 1282
v -0.106521 -0.055256002 0.25
v 0.37219436 -0.93322616 0.25
l 1283 1284
v -0.108728 -0.050776999 0.25
v 0.33327016 -0.94779296 0.25
l 1285 1286
v -0.110746 -0.0462102 0.25
v 0.29343734 -0.96088819 0.25
l 1287 1288
v -0.112572 -0.041563299 0.25
v 0.25315454 -0.97228565 0.25
l 1289 1290
v -0.114204 -0.036844499 0.25
v 0.21265027 -0.98191925 0.25
l 1291 1292
v -0.115637 -0.032061901 0.25
v 0.17138387 -0.98998623 0.25
l 1293 1294
v -0.116871 -0.027223799 0.25
v 0.13027579 -0.99620185 0.25
l 1295 1296
v -0.117902 -0.022338601 0.25
v 0.088595793 -1.0007857 0.25
l 1297 1298
v -0.11873 -0.0174147 0.25
v 0.047100655 -1.0035689 0.25
l 1299 1300
v -0.119351 -0.0124607 0.25
v 0.0050285346 -1.0046954 0.25
l 1301 1302
v -0.119766 -0.0074850302 0.25
v -0.036649277 -1.0040248 0.25
l 1303 1304
v -0.119974 -0.00249645 0.25
v -0.078313907 -1.0016283 0.25
l 1305 1306
v -0.119974 0.00249645 0.25
v -0.119974 -0.99750355 0.25
l 1307 1308
v -0.119766 0.0074850302 0.25
v -0.16142609 -0.99164681 0.25
l 1309 1310
v -0.119351 0.0124607 0.25
v -0.20246772 -0.98407912 0.25
l 1311 1312
v -0.11873 0.0174147 0.25
v -0.24310954 -0.97482002 0.25
l 1313 1314
v -0.117902 0.022338601 0.25
v -0.28373266 -0.96381564 0.25
l 1315 1316
v -0.116871 0.027223799 0.25
v -0.3233688 -0.95122327 0.25
l 1317 1318
v -0.115637 0.032061901 0.25
v -0.36278378 -0.93691615 0.25
l 1319 1320
v -0.114204 0.036844499 0.25
v -0.40122486 -0.92107983 0.25
l 1321 1322
v -0.112572 0.041563299 0.25
v -0.43942627 -0.90351145 0.25
l 1323 1324
v -0.110746 0.0462102 0.25
v -0.47647255 -0.88451215 0.25
l 1325 1326
v -0.108728 0.050776999 0.25
v -0.51291134 -0.86390099 0.25
l 1327 1328
v -0.106521 0.055256002 0.25
v -0.54851916 -0.84175996 0.25
l 1329 1330
v -0.104131 0.059639301 0.25
v -0.58284636 -0.81833086 0.25
l 1331 1332
v -0.101559 0.063919298 0.25
v -0.6166439 -0.79321986 0.25
l 1333 1334
v -0.098812602 0.068088703 0.25
v -0.64889962 -0.76701864 0.25
l 1335 1336
v -0.095894702 0.072140202 0.25
v -0.68030776 -0.73931613 0.25
l 1337 1338
v -0.092810698 0.076066896 0.25
v -0.71047671 -0.71037363 0.25
l 1339 1340
v -0.089566097 0.079861797 0.25
v -0.73941354 -0.68020288 0.25
l 1341 1342
v -0.086166501 0.083518498 0.25
v -0.76705717 -0.64886658 0.25
l 1343 1344
v -0.082617603 0.087030597 0.25
v -0.79339982 -0.61638154 0.25
l 1345 1346
v -0.078925803 0.090392001 0.25
v -0.81834505 -0.58285325 0.25
l 1347 1348
v -0.0750973 0.093597002 0.25
v -0.84188032 -0.54830938 0.25
l 1349 1350
v -0.071138799 0.096639901 0.25
v -0.86396617 -0.51280638 0.25
l 1351 1352
v -0.0670572 0.099515498 0.25
v -0.8845468 -0.47642786 0.25
l 1353 1354
v -0.062859401 0.102219 0.25
v -0.90358956 -0.43923534 0.25
l 1355 1356
v -0.058552802 0.104745 0.25
v -0.92112475 -0.40118941 0.25
l 1357 1358
v -0.0541449 0.10709 0.25
v -0.93698678 -0.36258033 0.25
l 1359 1360
v -0.0496433 0.10925 0.25
v -0.95122594 -0.32335692 0.25
l 1361 1362
v -0.045055602 0.11122 0.25
v -0.96392164 -0.28334963 0.25
l 1363 1364
v -0.04039 0.112998 0.25
v -0.97483596 -0.24310697 0.25
l 1365 1366
v -0.0356545 0.114581 0.25
v -0.98406737 -0.20245691 0.25
l 1367 1368
v -0.0308573 0.115965 0.25
v -0.99167037 -0.16123214 0.25
l 1369 1370
v -0.0260066 0.117148 0.25
v -0.99753164 -0.11978891 0.25
l 1371 1372
v -0.0211109 0.118128 0.25
v -1.0016583 -0.078154647 0.25
l 1373 1374
v -0.016178699 0.118904 0.25
v -1.0040269 -0.036517607 0.25
l 1375 1376
v -0.0112184 0.119475 0.25
v -1.004658 0.0051166616 0.25
l 1377 1378
v -0.00623876 0.119838 0.25
v -1.0035923 0.047134129 0.25
l 1379 1380
v -0.0012482899 0.119993 0.25
v -1.0007663 0.088948397 0.25
l 1381 1382
v 0.00374434 0.119942 0.25
v -0.99620349 0.13015637 0.25
l 1383 1384
v 0.0087304804 0.119682 0.25
v -0.98991273 0.17175637 0.25
l 1385 1386
v 0.0137015 0.119215 0.25
v -0.98191467 0.21274814 0.25
l 1387 1388
v 0.0186488 0.118542 0.25
v -0.97222517 0.25333358 0.25
l 1389 1390
v 0.023563899 0.117664 0.25
v -0.96085319 0.29351334 0.25
l 1391 1392
v 0.028438101 0.116582 0.25
v -0.94779783 0.33329243 0.25
l 1393 1394
v 0.033263098 0.115298 0.25
v -0.93310486 0.37246131 0.25
l 1395 1396
v 0.038030501 0.113814 0.25
v -0.91677999 0.41102929 0.25
l 1397 1398
v 0.042732101 0.112134 0.25
v -0.89895578 0.44862165 0.25
l 1399 1400
v 0.047359701 0.110259 0.25
v -0.87945267 0.48578374 0.25
l 1401 1402
v 0.0519053 0.108193 0.25
v -0.85847533 0.52196481 0.25
l 1403 1404
v 0.056361102 0.105941 0.25
v -0.83612652 0.55701289 0.25
l 1405 1406
v 0.0607193 0.103504 0.25
v -0.81209353 0.59155909 0.25
l 1407 1408
v 0.064972296 0.100889 0.25
v -0.78688476 0.62466333 0.25
l 1409 1410
v 0.069112897 0.098099001 0.25
v -0.76019141 0.65689624 0.25
l 1411 1412
v 0.073133901 0.095138997 0.25
v -0.73219358 0.68796919 0.25
l 1413 1414
v 0.0770282 0.092014402 0.25
v -0.70294533 0.7178269 0.25
l 1415 1416
v 0.080789201 0.088730499 0.25
v -0.67247917 0.74644378 0.25
l 1417 1418
v 0.084410302 0.085293002 0.25
v -0.64084407 0.77377401 0.25
l 1419 1420
v 0.087885298 0.081707798 0.25
v -0.60809883 0.79976496 0.25
l 1421 1422
v 0.091208197 0.077981196 0.25
v -0.57431446 0.82435884 0.25
l 1423 1424
v 0.0943731 0.074119598 0.25
v -0.53951383 0.84754533 0.25
l 1425 1426
v 0.0973747 0.0701297 0.25
v -0.50380101 0.86924656 0.25
l 1427 1428
v 0.100208 0.066018298 0.25
v -0.4672331 0.88943229 0.25
l 1429 1430
v 0.102867 0.061792701 0.25
v -0.42972242 0.90816644 0.25
l 1431 1432
v 0.105349 0.057460099 0.25
v -0.39172939 0.92516574 0.25
l 1433 1434
v 0.107648 0.053027999 0.25
v -0.35280758 0.94071074 0.25
l 1435 1436
v 0.10976 0.048504099 0.25
v -0.31326496 0.95462213 0.25
l 1437 1438
v 0.111683 0.043896299 0.25
v -0.27345887 0.96675368 0.25
l 1439 1440
v 0.113412 0.039212398 0.25
v -0.23288389 0.97733774 0.25
l 1441 1442
v 0.114946 0.034460701 0.25
v -0.19227345 0.9860994 0.25
l 1443 1444
v 0.11628 0.029649301 0.25
v -0.15089834 0.9932964 0.25
l 1445 1446
v 0.117412 0.024786601 0.25
v -0.10931878 0.99874407 0.25
l 1447 1448
v 0.118342 0.019881001 0.25
v -0.06791895 1.0023813 0.25
l 1449 1450
v 0.119066 0.0149409 0.25
v -0.025941247 1.0043715 0.25
l 1451 1452
v 0.119585 0.0099750003 0.25
v 0.015638372 1.0045579 0.25
l 1453 1454
v 0.119896 0.0049918201 0.25
v 0.057606821 1.00305 0.25
l 1455 1456
v 0.12 0 0.25
v 0.099171393 0.99978306 0.25
l 1457 1458
