v 110 0 10
v 109.886 -5.0066061 10
l 1 2
v 109.886 -5.0066061 10
v 109.5443 -10.00283 10
l 3 4
v 109.5443 -10.00283 10
v 108.9755 -14.97833 10
l 5 6
v 108.9755 -14.97833 10
v 108.1808 -19.922779 10
l 7 8
v 108.1808 -19.922779 10
v 107.1619 -24.825939 10
l 9 10
v 107.1619 -24.825939 10
v 105.9209 -29.677641 10
l 11 12
v 105.9209 -29.677641 10
v 104.4604 -34.467838 10
l 13 14
v 104.4604 -34.467838 10
v 102.7833 -39.186588 10
l 15 16
v 102.7833 -39.186588 10
v 100.8932 -43.82412 10
l 17 18
v 100.8932 -43.82412 10
v 98.794052 -48.370819 10
l 19 20
v 98.794052 -48.370819 10
v 96.490089 -52.817261 10
l 21 22
v 96.490089 -52.817261 10
v 93.98613 -57.154228 10
l 23 24
v 93.98613 -57.154228 10
v 91.287376 -61.372749 10
l 25 26
v 91.287376 -61.372749 10
v 88.399422 -65.46405 10
l 27 28
v 88.399422 -65.46405 10
v 85.328239 -69.41967 10
l 29 30
v 85.328239 -69.41967 10
v 82.080208 -73.231407 10
l 31 32
v 82.080208 -73.231407 10
v 78.662048 -76.891373 10
l 33 34
v 78.662048 -76.891373 10
v 75.080849 -80.39196 10
l 35 36
v 75.080849 -80.39196 10
v 71.344032 -83.725922 10
l 37 38
v 71.344032 -83.725922 10
v 67.459343 -86.886353 10
l 39 40
v 67.459343 -86.886353 10
v 63.434841 -89.866692 10
l 41 42
v 63.434841 -89.866692 10
v 59.278851 -92.660767 10
l 43 44
v 59.278851 -92.660767 10
v 55 -95.262787 10
l 45 46
v 55 -95.262787 10
v 50.607151 -97.667374 10
l 47 48
v 50.607151 -97.667374 10
v 46.109421 -99.869522 10
l 49 50
v 46.109421 -99.869522 10
v 41.516109 -101.8647 10
l 51 52
v 41.516109 -101.8647 10
v 36.836761 -103.6487 10
l 53 54
v 36.836761 -103.6487 10
v 32.081051 -105.2179 10
l 55 56
v 32.081051 -105.2179 10
v 27.25886 -106.569 10
l 57 58
v 27.25886 -106.569 10
v 22.380159 -107.6992 10
l 59 60
v 22.380159 -107.6992 10
v 17.45508 -108.6063 10
l 61 62
v 17.45508 -108.6063 10
v 12.49382 -109.2882 10
l 63 64
v 12.49382 -109.2882 10
v 7.5066652 -109.7436 10
l 65 66
v 7.5066652 -109.7436 10
v 2.503952 -109.9715 10
l 67 68
v 2.503952 -109.9715 10
v -2.503952 -109.9715 10
l 69 70
v -2.503952 -109.9715 10
v -7.5066652 -109.7436 10
l 71 72
v -7.5066652 -109.7436 10
v -12.49382 -109.2882 10
l 73 74
v -12.49382 -109.2882 10
v -17.45508 -108.6063 10
l 75 76
v -17.45508 -108.6063 10
v -22.380159 -107.6992 10
l 77 78
v -22.380159 -107.6992 10
v -27.25886 -106.569 10
l 79 80
v -27.25886 -106.569 10
v -32.081051 -105.2179 10
l 81 82
v -32.081051 -105.2179 10
v -36.836761 -103.6487 10
l 83 84
v -36.836761 -103.6487 10
v -41.516109 -101.8647 10
l 85 86
v -41.516109 -101.8647 10
v -46.109421 -99.869522 10
l 87 88
v -46.109421 -99.869522 10
v -50.607151 -97.667374 10
l 89 90
v -50.607151 -97.667374 10
v -55 -95.262787 10
l 91 92
v -55 -95.262787 10
v -59.278851 -92.660767 10
l 93 94
v -59.278851 -92.660767 10
v -63.434841 -89.866692 10
l 95 96
v -63.434841 -89.866692 10
v -67.459343 -86.886353 10
l 97 98
v -67.459343 -86.886353 10
v -71.344032 -83.725922 10
l 99 100
v -71.344032 -83.725922 10
v -75.080849 -80.39196 10
l 101 102
v -75.080849 -80.39196 10
v -78.662048 -76.891373 10
l 103 104
v -78.662048 -76.891373 10
v -82.080208 -73.231407 10
l 105 106
v -82.080208 -73.231407 10
v -85.328239 -69.41967 10
l 107 108
v -85.328239 -69.41967 10
v -88.399422 -65.46405 10
l 109 110
v -88.399422 -65.46405 10
v -91.287376 -61.372749 10
l 111 112
v -91.287376 -61.372749 10
v -93.98613 -57.154228 10
l 113 114
v -93.98613 -57.154228 10
v -96.490089 -52.817261 10
l 115 116
v -96.490089 -52.817261 10
v -98.794052 -48.370819 10
l 117 118
v -98.794052 -48.370819 10
v -100.8932 -43.82412 10
l 119 120
v -100.8932 -43.82412 10
v -102.7833 -39.186588 10
l 121 122
v -102.7833 -39.186588 10
v -104.4604 -34.467838 10
l 123 124
v -104.4604 -34.467838 10
v -105.9209 -29.677641 10
l 125 126
v -105.9209 -29.677641 10
v -107.1619 -24.825939 10
l 127 128
v -107.1619 -24.825939 10
v -108.1808 -19.922779 10
l 129 130
v -108.1808 -19.922779 10
v -108.9755 -14.97833 10
l 131 132
v -108.9755 -14.97833 10
v -109.5443 -10.00283 10
l 133 134
v -109.5443 -10.00283 10
v -109.886 -5.0066061 10
l 135 136
v -109.886 -5.0066061 10
v -110 2.796278e-13 10
l 137 138
v -110 2.796278e-13 10
v -109.886 5.0066061 10
l 139 140
v -109.886 5.0066061 10
v -109.5443 10.00283 10
l 141 142
v -109.5443 10.00283 10
v -108.9755 14.97833 10
l 143 144
v -108.9755 14.97833 10
v -108.1808 19.922779 10
l 145 146
v -108.1808 19.922779 10
v -107.1619 24.825939 10
l 147 148
v -107.1619 24.825939 10
v -105.9209 29.677641 10
l 149 150
v -105.9209 29.677641 10
v -104.4604 34.467838 10
l 151 152
v -104.4604 34.467838 10
v -102.7833 39.186588 10
l 153 154
v -102.7833 39.186588 10
v -100.8932 43.82412 10
l 155 156
v -100.8932 43.82412 10
v -98.794052 48.370819 10
l 157 158
v -98.794052 48.370819 10
v -96.490089 52.817261 10
l 159 160
v -96.490089 52.817261 10
v -93.98613 57.154228 10
l 161 162
v -93.98613 57.154228 10
v -91.287376 61.372749 10
l 163 164
v -91.287376 61.372749 10
v -88.399422 65.46405 10
l 165 166
v -88.399422 65.46405 10
v -85.328239 69.41967 10
l 167 168
v -85.328239 69.41967 10
v -82.080208 73.231407 10
l 169 170
v -82.080208 73.231407 10
v -78.662048 76.891373 10
l 171 172
v -78.662048 76.891373 10
v -75.080849 80.39196 10
l 173 174
v -75.080849 80.39196 10
v -71.344032 83.725922 10
l 175 176
v -71.344032 83.725922 10
v -67.459343 86.886353 10
l 177 178
v -67.459343 86.886353 10
v -63.434841 89.866692 10
l 179 180
v -63.434841 89.866692 10
v -59.278851 92.660767 10
l 181 182
v -59.278851 92.660767 10
v -55 95.262787 10
l 183 184
v -55 95.262787 10
v -50.607151 97.667374 10
l 185 186
v -50.607151 97.667374 10
v -46.109421 99.869522 10
l 187 188
v -46.109421 99.869522 10
v -41.516109 101.8647 10
l 189 190
v -41.516109 101.8647 10
v -36.836761 103.6487 10
l 191 192
v -36.836761 103.6487 10
v -32.081051 105.2179 10
l 193 194
v -32.081051 105.2179 10
v -27.25886 106.569 10
l 195 196
v -27.25886 106.569 10
v -22.380159 107.6992 10
l 197 198
v -22.380159 107.6992 10
v -17.45508 108.6063 10
l 199 200
v -17.45508 108.6063 10
v -12.49382 109.2882 10
l 201 202
v -12.49382 109.2882 10
v -7.5066652 109.7436 10
l 203 204
v -7.5066652 109.7436 10
v -2.503952 109.9715 10
l 205 206
v -2.503952 109.9715 10
v 2.503952 109.9715 10
l 207 208
v 2.503952 109.9715 10
v 7.5066652 109.7436 10
l 209 210
v 7.5066652 109.7436 10
v 12.49382 109.2882 10
l 211 212
v 12.49382 109.2882 10
v 17.45508 108.6063 10
l 213 214
v 17.45508 108.6063 10
v 22.380159 107.6992 10
l 215 216
v 22.380159 107.6992 10
v 27.25886 106.569 10
l 217 218
v 27.25886 106.569 10
v 32.081051 105.2179 10
l 219 220
v 32.081051 105.2179 10
v 36.836761 103.6487 10
l 221 222
v 36.836761 103.6487 10
v 41.516109 101.8647 10
l 223 224
v 41.516109 101.8647 10
v 46.109421 99.869522 10
l 225 226
v 46.109421 99.869522 10
v 50.607151 97.667374 10
l 227 228
v 50.607151 97.667374 10
v 55 95.262787 10
l 229 230
v 55 95.262787 10
v 59.278851 92.660767 10
l 231 232
v 59.278851 92.660767 10
v 63.434841 89.866692 10
l 233 234
v 63.434841 89.866692 10
v 67.459343 86.886353 10
l 235 236
v 67.459343 86.886353 10
v 71.344032 83.725922 10
l 237 238
v 71.344032 83.725922 10
v 75.080849 80.39196 10
l 239 240
v 75.080849 80.39196 10
v 78.662048 76.891373 10
l 241 242
v 78.662048 76.891373 10
v 82.080208 73.231407 10
l 243 244
v 82.080208 73.231407 10
v 85.328239 69.41967 10
l 245 246
v 85.328239 69.41967 10
v 88.399422 65.46405 10
l 247 248
v 88.399422 65.46405 10
v 91.287376 61.372749 10
l 249 250
v 91.287376 61.372749 10
v 93.98613 57.154228 10
l 251 252
v 93.98613 57.154228 10
v 96.490089 52.817261 10
l 253 254
v 96.490089 52.817261 10
v 98.794052 48.370819 10
l 255 256
v 98.794052 48.370819 10
v 100.8932 43.82412 10
l 257 258
v 100.8932 43.82412 10
v 102.7833 39.186588 10
l 259 260
v 102.7833 39.186588 10
v 104.4604 34.467838 10
l 261 262
v 104.4604 34.467838 10
v 105.9209 29.677641 10
l 263 264
v 105.9209 29.677641 10
v 107.1619 24.825939 10
l 265 266
v 107.1619 24.825939 10
v 108.1808 19.922779 10
l 267 268
v 108.1808 19.922779 10
v 108.9755 14.97833 10
l 269 270
v 108.9755 14.97833 10
v 109.5443 10.00283 10
l 271 272
v 109.5443 10.00283 10
v 109.886 5.0066061 10
l 273 274
v 109.886 5.0066061 10
v 110 0 10
l 275 276
v 38.030521 113.8142 300
v 42.732101 112.1337 300
l 277 278
v 42.732101 112.1337 300
v 47.359699 110.2591 300
l 279 280
v -58.552841 104.7452 300
v -54.14492 107.0903 300
l 281 282
v -116.8711 -27.22382 300
v -117.9024 -22.3386 300
l 283 284
v -58.552841 -104.7452 300
v -62.859409 -102.2189 300
l 285 286
v -117.9024 -22.3386 300
v -118.7296 -17.4147 300
l 287 288
v 119.8961 4.9918189 300
v 120 0 300
l 289 290
v 84.410316 -85.293007 300
v 80.7892 -88.730522 300
l 291 292
v 47.359699 110.2591 300
v 51.905319 108.1935 300
l 293 294
v 80.7892 -88.730522 300
v 77.028214 -92.014427 300
l 295 296
v -118.7296 -17.4147 300
v -119.3513 -12.46065 300
l 297 298
v 77.028214 -92.014427 300
v 73.133873 -95.139038 300
l 299 300
v 8.730484 119.682 -6.2642711e-30
v 3.7443371 119.9416 -2.6866251e-30
l 301 302
v 13.70152 119.2152 -9.8310719e-30
v 8.730484 119.682 -6.2642711e-30
l 303 304
v -112.5722 41.56332 8.0772431e-29
v -114.2037 36.844521 8.1943077e-29
l 305 306
v -110.7457 46.210178 7.946195e-29
v -112.5722 41.56332 8.0772431e-29
l 307 308
v -110.7457 -46.210178 7.946195e-29
v -108.7276 -50.777039 7.8013897e-29
l 309 310
v 3.7443371 119.9416 -2.6866251e-30
v -1.248292 119.9935 8.9567102e-31
l 311 312
v -108.7276 -50.777039 7.8013897e-29
v -106.5212 -55.255989 7.6430801e-29
l 313 314
v 119.8961 -4.9918189 -8.6027511e-29
v 120 0 0
l 315 316
v 119.0662 -14.94091 -8.543205e-29
v 119.5847 -9.9749956 -8.5804049e-29
l 317 318
v 117.4122 -24.78657 -8.4245249e-29
v 118.3417 -19.880951 -8.4912151e-29
l 319 320
v 116.2795 -29.64929 -8.3432513e-29
v 117.4122 -24.78657 -8.4245249e-29
l 321 322
v 114.9455 -34.460678 -8.2475332e-29
v 116.2795 -29.64929 -8.3432513e-29
l 323 324
v 113.4125 -39.21241 -8.1375367e-29
v 114.9455 -34.460678 -8.2475332e-29
l 325 326
v 111.6831 -43.896252 -8.0134532e-29
v 113.4125 -39.21241 -8.1375367e-29
l 327 328
v 109.7604 -48.504108 -7.8754971e-29
v 111.6831 -43.896252 -8.0134532e-29
l 329 330
v 107.6477 -53.027988 -7.7239071e-29
v 109.7604 -48.504108 -7.8754971e-29
l 331 332
v 105.3487 -57.460072 -7.5589452e-29
v 107.6477 -53.027988 -7.7239071e-29
l 333 334
v 102.8672 -61.792679 -7.3808978e-29
v 105.3487 -57.460072 -7.5589452e-29
l 335 336
v 100.2077 -66.018311 -7.1900719e-29
v 102.8672 -61.792679 -7.3808978e-29
l 337 338
v 97.374687 -70.129662 -6.9868002e-29
v 100.2077 -66.018311 -7.1900719e-29
l 339 340
v 94.373123 -74.119591 -6.7714319e-29
v 97.374687 -70.129662 -6.9868002e-29
l 341 342
v 91.208168 -77.981216 -6.5443412e-29
v 94.373123 -74.119591 -6.7714319e-29
l 343 344
v 87.885323 -81.70784 -6.3059207e-29
v 91.208168 -77.981216 -6.5443412e-29
l 345 346
v 84.410316 -85.293007 -6.0565838e-29
v 87.885323 -81.70784 -6.3059207e-29
l 347 348
v 80.7892 -88.730522 -5.796762e-29
v 84.410316 -85.293007 -6.0565838e-29
l 349 350
v 77.028214 -92.014427 -5.526905e-29
v 80.7892 -88.730522 -5.796762e-29
l 351 352
v 73.133873 -95.139038 -5.2474802e-29
v 77.028214 -92.014427 -5.526905e-29
l 353 354
v 69.11293 -98.098953 -4.9589699e-29
v 73.133873 -95.139038 -5.2474802e-29
l 355 356
v 64.972343 -100.889 -4.6618759e-29
v 69.11293 -98.098953 -4.9589699e-29
l 357 358
v 60.719269 -103.5044 -4.3567099e-29
v 64.972343 -100.889 -4.6618759e-29
l 359 360
v -1.248292 119.9935 8.9567102e-31
v -6.2387609 119.8377 4.4764172e-30
l 361 362
v 47.359699 -110.2591 -3.3981391e-29
v 51.905319 -108.1935 -3.724295e-29
l 363 364
v 42.732101 -112.1337 -3.0661009e-29
v 47.359699 -110.2591 -3.3981391e-29
l 365 366
v 38.030521 -113.8142 -2.7287541e-29
v 42.732101 -112.1337 -3.0661009e-29
l 367 368
v 33.2631 -115.2977 -2.386684e-29
v 38.030521 -113.8142 -2.7287541e-29
l 369 370
v 28.438101 -116.5816 -2.040482e-29
v 33.2631 -115.2977 -2.386684e-29
l 371 372
v 23.56386 -117.6637 -1.690747e-29
v 28.438101 -116.5816 -2.040482e-29
l 373 374
v 18.64883 -118.5421 -1.338085e-29
v 23.56386 -117.6637 -1.690747e-29
l 375 376
v 13.70152 -119.2152 -9.8310719e-30
v 18.64883 -118.5421 -1.338085e-29
l 377 378
v 8.730484 -119.682 -6.2642711e-30
v 13.70152 -119.2152 -9.8310719e-30
l 379 380
v 3.7443371 -119.9416 -2.6866251e-30
v 8.730484 -119.682 -6.2642711e-30
l 381 382
v -1.248292 -119.9935 8.9567102e-31
v 3.7443371 -119.9416 -2.6866251e-30
l 383 384
v -11.21843 -119.4745 8.0494129e-30
v -6.2387609 -119.8377 4.4764172e-30
l 385 386
v -21.11091 -118.1284 1.5147441e-29
v -16.17868 -118.9044 1.160847e-29
l 387 388
v -26.006611 -117.148 1.866018e-29
v -21.11091 -118.1284 1.5147441e-29
l 389 390
v -30.857281 -115.9648 2.214062e-29
v -26.006611 -117.148 1.866018e-29
l 391 392
v -35.65453 -114.5808 2.5582729e-29
v -30.857281 -115.9648 2.214062e-29
l 393 394
v -40.390049 -112.9984 2.8980551e-29
v -35.65453 -114.5808 2.5582729e-29
l 395 396
v -45.055649 -111.2204 3.23282e-29
v -40.390049 -112.9984 2.8980551e-29
l 397 398
v -49.643261 -109.2499 3.5619879e-29
v -45.055649 -111.2204 3.23282e-29
l 399 400
v -54.14492 -107.0903 3.8849901e-29
v -49.643261 -109.2499 3.5619879e-29
l 401 402
v -58.552841 -104.7452 4.201266e-29
v -54.14492 -107.0903 3.8849901e-29
l 403 404
v -62.859409 -102.2189 4.5102691e-29
v -58.552841 -104.7452 4.201266e-29
l 405 406
v -67.057152 -99.515518 4.8114641e-29
v -62.859409 -102.2189 4.5102691e-29
l 407 408
v -71.138802 -96.639908 5.10433e-29
v -67.057152 -99.515518 4.8114641e-29
l 409 410
v -75.09729 -93.596992 5.3883578e-29
v -71.138802 -96.639908 5.10433e-29
l 411 412
v -78.925781 -90.392036 5.6630592e-29
v -75.09729 -93.596992 5.3883578e-29
l 413 414
v -82.617638 -87.030602 5.9279558e-29
v -78.925781 -90.392036 5.6630592e-29
l 415 416
v -86.166473 -83.518501 6.1825902e-29
v -82.617638 -87.030602 5.9279558e-29
l 417 418
v -89.566132 -79.861809 6.4265219e-29
v -86.166473 -83.518501 6.1825902e-29
l 419 420
v -92.81073 -76.066872 6.6593271e-29
v -89.566132 -79.861809 6.4265219e-29
l 421 422
v -95.894661 -72.140244 6.880605e-29
v -92.81073 -76.066872 6.6593271e-29
l 423 424
v -104.1305 -59.639278 7.4715381e-29
v -101.5594 -63.919331 7.2870623e-29
l 425 426
v -106.5212 -55.255989 7.6430801e-29
v -104.1305 -59.639278 7.4715381e-29
l 427 428
v -119.3513 12.46065 8.5636577e-29
v -119.7663 7.4850278 8.593438e-29
l 429 430
v -112.5722 -41.56332 8.0772431e-29
v -110.7457 -46.210178 7.946195e-29
l 431 432
v -114.2037 -36.844521 8.1943077e-29
v -112.5722 -41.56332 8.0772431e-29
l 433 434
v -115.6375 -32.06192 8.2971879e-29
v -114.2037 -36.844521 8.1943077e-29
l 435 436
v -118.7296 17.4147 8.5190538e-29
v -119.3513 12.46065 8.5636577e-29
l 437 438
v -118.7296 -17.4147 8.5190538e-29
v -117.9024 -22.3386 8.4597008e-29
l 439 440
v -119.3513 -12.46065 8.5636577e-29
v -118.7296 -17.4147 8.5190538e-29
l 441 442
v -119.7663 -7.4850278 8.593438e-29
v -119.3513 -12.46065 8.5636577e-29
l 443 444
v -119.974 -2.4964499 8.6083399e-29
v -119.7663 -7.4850278 8.593438e-29
l 445 446
v -119.7663 7.4850278 8.593438e-29
v -119.974 2.4964499 8.6083399e-29
l 447 448
v 80.7892 88.730522 -5.796762e-29
v 77.028214 92.014427 -5.526905e-29
l 449 450
v -117.9024 22.3386 8.4597008e-29
v -118.7296 17.4147 8.5190538e-29
l 451 452
v -116.8711 27.22382 8.385703e-29
v -117.9024 22.3386 8.4597008e-29
l 453 454
v -115.6375 32.06192 8.2971879e-29
v -116.8711 27.22382 8.385703e-29
l 455 456
v -114.2037 36.844521 8.1943077e-29
v -115.6375 32.06192 8.2971879e-29
l 457 458
v -108.7276 50.777039 7.8013897e-29
v -110.7457 46.210178 7.946195e-29
l 459 460
v -106.5212 55.255989 7.6430801e-29
v -108.7276 50.777039 7.8013897e-29
l 461 462
v -104.1305 59.639278 7.4715381e-29
v -106.5212 55.255989 7.6430801e-29
l 463 464
v -101.5594 63.919331 7.2870623e-29
v -104.1305 59.639278 7.4715381e-29
l 465 466
v -98.812576 68.088722 7.0899698e-29
v -101.5594 63.919331 7.2870623e-29
l 467 468
v -95.894661 72.140244 6.880605e-29
v -98.812576 68.088722 7.0899698e-29
l 469 470
v -92.81073 76.066872 6.6593271e-29
v -95.894661 72.140244 6.880605e-29
l 471 472
v -89.566132 79.861809 6.4265219e-29
v -92.81073 76.066872 6.6593271e-29
l 473 474
v -86.166473 83.518501 6.1825902e-29
v -89.566132 79.861809 6.4265219e-29
l 475 476
v -82.617638 87.030602 5.9279558e-29
v -86.166473 83.518501 6.1825902e-29
l 477 478
v -40.390049 112.9984 2.8980551e-29
v -45.055649 111.2204 3.23282e-29
l 479 480
v -71.138802 96.639908 5.10433e-29
v -75.09729 93.596992 5.3883578e-29
l 481 482
v -67.057152 99.515518 4.8114641e-29
v -71.138802 96.639908 5.10433e-29
l 483 484
v -62.859409 102.2189 4.5102691e-29
v -67.057152 99.515518 4.8114641e-29
l 485 486
v -58.552841 104.7452 4.201266e-29
v -62.859409 102.2189 4.5102691e-29
l 487 488
v -49.643261 109.2499 3.5619879e-29
v -54.14492 107.0903 3.8849901e-29
l 489 490
v -45.055649 111.2204 3.23282e-29
v -49.643261 109.2499 3.5619879e-29
l 491 492
v -30.857281 115.9648 2.214062e-29
v -35.65453 114.5808 2.5582729e-29
l 493 494
v -26.006611 117.148 1.866018e-29
v -30.857281 115.9648 2.214062e-29
l 495 496
v -21.11091 118.1284 1.5147441e-29
v -26.006611 117.148 1.866018e-29
l 497 498
v -16.17868 118.9044 1.160847e-29
v -21.11091 118.1284 1.5147441e-29
l 499 500
v -11.21843 119.4745 8.0494129e-30
v -16.17868 118.9044 1.160847e-29
l 501 502
v -6.2387609 119.8377 4.4764172e-30
v -11.21843 119.4745 8.0494129e-30
l 503 504
v -78.925781 90.392036 5.6630592e-29
v -82.617638 87.030602 5.9279558e-29
l 505 506
v 18.64883 118.5421 -1.338085e-29
v 13.70152 119.2152 -9.8310719e-30
l 507 508
v 23.56386 117.6637 -1.690747e-29
v 18.64883 118.5421 -1.338085e-29
l 509 510
v 28.438101 116.5816 -2.040482e-29
v 23.56386 117.6637 -1.690747e-29
l 511 512
v 33.2631 115.2977 -2.386684e-29
v 28.438101 116.5816 -2.040482e-29
l 513 514
v 38.030521 113.8142 -2.7287541e-29
v 33.2631 115.2977 -2.386684e-29
l 515 516
v 42.732101 112.1337 -3.0661009e-29
v 38.030521 113.8142 -2.7287541e-29
l 517 518
v 47.359699 110.2591 -3.3981391e-29
v 42.732101 112.1337 -3.0661009e-29
l 519 520
v 51.905319 108.1935 -3.724295e-29
v 47.359699 110.2591 -3.3981391e-29
l 521 522
v 56.36108 105.9407 -4.044003e-29
v 51.905319 108.1935 -3.724295e-29
l 523 524
v 60.719269 103.5044 -4.3567099e-29
v 56.36108 105.9407 -4.044003e-29
l 525 526
v 64.972343 100.889 -4.6618759e-29
v 60.719269 103.5044 -4.3567099e-29
l 527 528
v 69.11293 98.098953 -4.9589699e-29
v 64.972343 100.889 -4.6618759e-29
l 529 530
v 73.133873 95.139038 -5.2474802e-29
v 69.11293 98.098953 -4.9589699e-29
l 531 532
v 77.028214 92.014427 -5.526905e-29
v 73.133873 95.139038 -5.2474802e-29
l 533 534
v -116.8711 -27.22382 8.385703e-29
v -115.6375 -32.06192 8.2971879e-29
l 535 536
v 87.885323 81.70784 -6.3059207e-29
v 84.410316 85.293007 -6.0565838e-29
l 537 538
v 91.208168 77.981216 -6.5443412e-29
v 87.885323 81.70784 -6.3059207e-29
l 539 540
v 94.373123 74.119591 -6.7714319e-29
v 91.208168 77.981216 -6.5443412e-29
l 541 542
v 97.374687 70.129662 -6.9868002e-29
v 94.373123 74.119591 -6.7714319e-29
l 543 544
v 100.2077 66.018311 -7.1900719e-29
v 97.374687 70.129662 -6.9868002e-29
l 545 546
v 102.8672 61.792679 -7.3808978e-29
v 100.2077 66.018311 -7.1900719e-29
l 547 548
v 105.3487 57.460072 -7.5589452e-29
v 102.8672 61.792679 -7.3808978e-29
l 549 550
v 107.6477 53.027988 -7.7239071e-29
v 105.3487 57.460072 -7.5589452e-29
l 551 552
v 109.7604 48.504108 -7.8754971e-29
v 107.6477 53.027988 -7.7239071e-29
l 553 554
v 111.6831 43.896252 -8.0134532e-29
v 109.7604 48.504108 -7.8754971e-29
l 555 556
v 113.4125 39.21241 -8.1375367e-29
v 111.6831 43.896252 -8.0134532e-29
l 557 558
v 114.9455 34.460678 -8.2475332e-29
v 113.4125 39.21241 -8.1375367e-29
l 559 560
v 116.2795 29.64929 -8.3432513e-29
v 114.9455 34.460678 -8.2475332e-29
l 561 562
v 117.4122 24.78657 -8.4245249e-29
v 116.2795 29.64929 -8.3432513e-29
l 563 564
v 118.3417 19.880951 -8.4912151e-29
v 117.4122 24.78657 -8.4245249e-29
l 565 566
v 119.0662 14.94091 -8.543205e-29
v 118.3417 19.880951 -8.4912151e-29
l 567 568
v 119.5847 9.9749956 -8.5804049e-29
v 119.0662 14.94091 -8.543205e-29
l 569 570
v 119.8961 4.9918189 -8.6027511e-29
v 119.5847 9.9749956 -8.5804049e-29
l 571 572
v 120 0 0
v 119.8961 4.9918189 -8.6027511e-29
l 573 574
v -16.17868 -118.9044 1.160847e-29
v -11.21843 -119.4745 8.0494129e-30
l 575 576
v -6.2387609 -119.8377 4.4764172e-30
v -1.248292 -119.9935 8.9567102e-31
l 577 578
v -119.974 2.4964499 8.6083399e-29
v -119.974 -2.4964499 8.6083399e-29
l 579 580
v 119.5847 -9.9749956 -8.5804049e-29
v 119.8961 -4.9918189 -8.6027511e-29
l 581 582
v 118.3417 -19.880951 -8.4912151e-29
v 119.0662 -14.94091 -8.543205e-29
l 583 584
v 51.905319 -108.1935 -3.724295e-29
v 56.36108 -105.9407 -4.044003e-29
l 585 586
v -101.5594 -63.919331 7.2870623e-29
v -98.812576 -68.088722 7.0899698e-29
l 587 588
v -117.9024 -22.3386 8.4597008e-29
v -116.8711 -27.22382 8.385703e-29
l 589 590
v -75.09729 93.596992 5.3883578e-29
v -78.925781 90.392036 5.6630592e-29
l 591 592
v -35.65453 114.5808 2.5582729e-29
v -40.390049 112.9984 2.8980551e-29
l 593 594
v 84.410316 85.293007 -6.0565838e-29
v 80.7892 88.730522 -5.796762e-29
l 595 596
v -98.812576 -68.088722 7.0899698e-29
v -95.894661 -72.140244 6.880605e-29
l 597 598
v 56.36108 -105.9407 -4.044003e-29
v 60.719269 -103.5044 -4.3567099e-29
l 599 600
v -54.14492 107.0903 3.8849901e-29
v -58.552841 104.7452 4.201266e-29
l 601 602
v 119.8961 -4.9918189 300
v 120 0 300
l 603 604
v 119.5847 -9.9749956 300
v 119.8961 -4.9918189 300
l 605 606
v 119.0662 -14.94091 300
v 119.5847 -9.9749956 300
l 607 608
v 118.3417 -19.880951 300
v 119.0662 -14.94091 300
l 609 610
v 117.4122 -24.78657 300
v 118.3417 -19.880951 300
l 611 612
v 116.2795 -29.64929 300
v 117.4122 -24.78657 300
l 613 614
v 114.9455 -34.460678 300
v 116.2795 -29.64929 300
l 615 616
v 113.4125 -39.21241 300
v 114.9455 -34.460678 300
l 617 618
v 111.6831 -43.896252 300
v 113.4125 -39.21241 300
l 619 620
v 109.7604 -48.504108 300
v 111.6831 -43.896252 300
l 621 622
v 107.6477 -53.027988 300
v 109.7604 -48.504108 300
l 623 624
v 105.3487 -57.460072 300
v 107.6477 -53.027988 300
l 625 626
v 102.8672 -61.792679 300
v 105.3487 -57.460072 300
l 627 628
v 100.2077 -66.018311 300
v 102.8672 -61.792679 300
l 629 630
v 97.374687 -70.129662 300
v 100.2077 -66.018311 300
l 631 632
v 94.373123 -74.119591 300
v 97.374687 -70.129662 300
l 633 634
v 91.208168 -77.981216 300
v 94.373123 -74.119591 300
l 635 636
v 87.885323 -81.70784 300
v 91.208168 -77.981216 300
l 637 638
v 84.410316 -85.293007 300
v 87.885323 -81.70784 300
l 639 640
v 69.11293 -98.098953 300
v 73.133873 -95.139038 300
l 641 642
v 64.972343 -100.889 300
v 69.11293 -98.098953 300
l 643 644
v 60.719269 -103.5044 300
v 64.972343 -100.889 300
l 645 646
v 56.36108 -105.9407 300
v 60.719269 -103.5044 300
l 647 648
v 51.905319 -108.1935 300
v 56.36108 -105.9407 300
l 649 650
v 47.359699 -110.2591 300
v 51.905319 -108.1935 300
l 651 652
v 42.732101 -112.1337 300
v 47.359699 -110.2591 300
l 653 654
v 38.030521 -113.8142 300
v 42.732101 -112.1337 300
l 655 656
v 33.2631 -115.2977 300
v 38.030521 -113.8142 300
l 657 658
v 28.438101 -116.5816 300
v 33.2631 -115.2977 300
l 659 660
v 23.56386 -117.6637 300
v 28.438101 -116.5816 300
l 661 662
v 18.64883 -118.5421 300
v 23.56386 -117.6637 300
l 663 664
v 13.70152 -119.2152 300
v 18.64883 -118.5421 300
l 665 666
v 8.730484 -119.682 300
v 13.70152 -119.2152 300
l 667 668
v 3.7443371 -119.9416 300
v 8.730484 -119.682 300
l 669 670
v -1.248292 -119.9935 300
v 3.7443371 -119.9416 300
l 671 672
v -6.2387609 -119.8377 300
v -1.248292 -119.9935 300
l 673 674
v -11.21843 -119.4745 300
v -6.2387609 -119.8377 300
l 675 676
v -16.17868 -118.9044 300
v -11.21843 -119.4745 300
l 677 678
v -21.11091 -118.1284 300
v -16.17868 -118.9044 300
l 679 680
v -26.006611 -117.148 300
v -21.11091 -118.1284 300
l 681 682
v -30.857281 -115.9648 300
v -26.006611 -117.148 300
l 683 684
v -35.65453 -114.5808 300
v -30.857281 -115.9648 300
l 685 686
v -40.390049 -112.9984 300
v -35.65453 -114.5808 300
l 687 688
v -45.055649 -111.2204 300
v -40.390049 -112.9984 300
l 689 690
v -49.643261 -109.2499 300
v -45.055649 -111.2204 300
l 691 692
v -54.14492 -107.0903 300
v -49.643261 -109.2499 300
l 693 694
v -58.552841 -104.7452 300
v -54.14492 -107.0903 300
l 695 696
v -67.057152 -99.515518 300
v -62.859409 -102.2189 300
l 697 698
v -71.138802 -96.639908 300
v -67.057152 -99.515518 300
l 699 700
v -75.09729 -93.596992 300
v -71.138802 -96.639908 300
l 701 702
v -78.925781 -90.392036 300
v -75.09729 -93.596992 300
l 703 704
v -82.617638 -87.030602 300
v -78.925781 -90.392036 300
l 705 706
v -86.166473 -83.518501 300
v -82.617638 -87.030602 300
l 707 708
v -89.566132 -79.861809 300
v -86.166473 -83.518501 300
l 709 710
v -92.81073 -76.066872 300
v -89.566132 -79.861809 300
l 711 712
v -95.894661 -72.140244 300
v -92.81073 -76.066872 300
l 713 714
v -98.812576 -68.088722 300
v -95.894661 -72.140244 300
l 715 716
v -101.5594 -63.919331 300
v -98.812576 -68.088722 300
l 717 718
v -104.1305 -59.639278 300
v -101.5594 -63.919331 300
l 719 720
v -106.5212 -55.255989 300
v -104.1305 -59.639278 300
l 721 722
v -108.7276 -50.777039 300
v -106.5212 -55.255989 300
l 723 724
v -110.7457 -46.210178 300
v -108.7276 -50.777039 300
l 725 726
v -112.5722 -41.56332 300
v -110.7457 -46.210178 300
l 727 728
v -114.2037 -36.844521 300
v -112.5722 -41.56332 300
l 729 730
v -115.6375 -32.06192 300
v -114.2037 -36.844521 300
l 731 732
v -116.8711 -27.22382 300
v -115.6375 -32.06192 300
l 733 734
v -119.7663 -7.4850278 300
v -119.3513 -12.46065 300
l 735 736
v -119.974 -2.4964499 300
v -119.7663 -7.4850278 300
l 737 738
v -119.974 2.4964499 300
v -119.974 -2.4964499 300
l 739 740
v -119.7663 7.4850278 300
v -119.974 2.4964499 300
l 741 742
v -119.3513 12.46065 300
v -119.7663 7.4850278 300
l 743 744
v -118.7296 17.4147 300
v -119.3513 12.46065 300
l 745 746
v -117.9024 22.3386 300
v -118.7296 17.4147 300
l 747 748
v -116.8711 27.22382 300
v -117.9024 22.3386 300
l 749 750
v -115.6375 32.06192 300
v -116.8711 27.22382 300
l 751 752
v -114.2037 36.844521 300
v -115.6375 32.06192 300
l 753 754
v -112.5722 41.56332 300
v -114.2037 36.844521 300
l 755 756
v -110.7457 46.210178 300
v -112.5722 41.56332 300
l 757 758
v -108.7276 50.777039 300
v -110.7457 46.210178 300
l 759 760
v -106.5212 55.255989 300
v -108.7276 50.777039 300
l 761 762
v -104.1305 59.639278 300
v -106.5212 55.255989 300
l 763 764
v -101.5594 63.919331 300
v -104.1305 59.639278 300
l 765 766
v -98.812576 68.088722 300
v -101.5594 63.919331 300
l 767 768
v -95.894661 72.140244 300
v -98.812576 68.088722 300
l 769 770
v -92.81073 76.066872 300
v -95.894661 72.140244 300
l 771 772
v -89.566132 79.861809 300
v -92.81073 76.066872 300
l 773 774
v -86.166473 83.518501 300
v -89.566132 79.861809 300
l 775 776
v -82.617638 87.030602 300
v -86.166473 83.518501 300
l 777 778
v -78.925781 90.392036 300
v -82.617638 87.030602 300
l 779 780
v -75.09729 93.596992 300
v -78.925781 90.392036 300
l 781 782
v -71.138802 96.639908 300
v -75.09729 93.596992 300
l 783 784
v -67.057152 99.515518 300
v -71.138802 96.639908 300
l 785 786
v -62.859409 102.2189 300
v -67.057152 99.515518 300
l 787 788
v -58.552841 104.7452 300
v -62.859409 102.2189 300
l 789 790
v -49.643261 109.2499 300
v -54.14492 107.0903 300
l 791 792
v -45.055649 111.2204 300
v -49.643261 109.2499 300
l 793 794
v -40.390049 112.9984 300
v -45.055649 111.2204 300
l 795 796
v -35.65453 114.5808 300
v -40.390049 112.9984 300
l 797 798
v -30.857281 115.9648 300
v -35.65453 114.5808 300
l 799 800
v -26.006611 117.148 300
v -30.857281 115.9648 300
l 801 802
v -21.11091 118.1284 300
v -26.006611 117.148 300
l 803 804
v -16.17868 118.9044 300
v -21.11091 118.1284 300
l 805 806
v -11.21843 119.4745 300
v -16.17868 118.9044 300
l 807 808
v -6.2387609 119.8377 300
v -11.21843 119.4745 300
l 809 810
v -1.248292 119.9935 300
v -6.2387609 119.8377 300
l 811 812
v 3.7443371 119.9416 300
v -1.248292 119.9935 300
l 813 814
v 8.730484 119.682 300
v 3.7443371 119.9416 300
l 815 816
v 13.70152 119.2152 300
v 8.730484 119.682 300
l 817 818
v 18.64883 118.5421 300
v 13.70152 119.2152 300
l 819 820
v 23.56386 117.6637 300
v 18.64883 118.5421 300
l 821 822
v 28.438101 116.5816 300
v 23.56386 117.6637 300
l 823 824
v 33.2631 115.2977 300
v 28.438101 116.5816 300
l 825 826
v 38.030521 113.8142 300
v 33.2631 115.2977 300
l 827 828
v 56.36108 105.9407 300
v 51.905319 108.1935 300
l 829 830
v 60.719269 103.5044 300
v 56.36108 105.9407 300
l 831 832
v 64.972343 100.889 300
v 60.719269 103.5044 300
l 833 834
v 69.11293 98.098953 300
v 64.972343 100.889 300
l 835 836
v 73.133873 95.139038 300
v 69.11293 98.098953 300
l 837 838
v 77.028214 92.014427 300
v 73.133873 95.139038 300
l 839 840
v 80.7892 88.730522 300
v 77.028214 92.014427 300
l 841 842
v 84.410316 85.293007 300
v 80.7892 88.730522 300
l 843 844
v 87.885323 81.70784 300
v 84.410316 85.293007 300
l 845 846
v 91.208168 77.981216 300
v 87.885323 81.70784 300
l 847 848
v 94.373123 74.119591 300
v 91.208168 77.981216 300
l 849 850
v 97.374687 70.129662 300
v 94.373123 74.119591 300
l 851 852
v 100.2077 66.018311 300
v 97.374687 70.129662 300
l 853 854
v 102.8672 61.792679 300
v 100.2077 66.018311 300
l 855 856
v 105.3487 57.460072 300
v 102.8672 61.792679 300
l 857 858
v 107.6477 53.027988 300
v 105.3487 57.460072 300
l 859 860
v 109.7604 48.504108 300
v 107.6477 53.027988 300
l 861 862
v 111.6831 43.896252 300
v 109.7604 48.504108 300
l 863 864
v 113.4125 39.21241 300
v 111.6831 43.896252 300
l 865 866
v 114.9455 34.460678 300
v 113.4125 39.21241 300
l 867 868
v 116.2795 29.64929 300
v 114.9455 34.460678 300
l 869 870
v 117.4122 24.78657 300
v 116.2795 29.64929 300
l 871 872
v 118.3417 19.880951 300
v 117.4122 24.78657 300
l 873 874
v 119.0662 14.94091 300
v 118.3417 19.880951 300
l 875 876
v 119.5847 9.9749956 300
v 119.0662 14.94091 300
l 877 878
v 119.8961 4.9918189 300
v 119.5847 9.9749956 300
l 879 880
