v 0.0096150199 -0.00043807799 0.0583333
v 0.0096249999 0 0.0583333
l 1 2
v 0.0095851002 -0.00087524502 0.0583333
v 0.0096150199 -0.00043807799 0.0583333
l 3 4
v 0.0095354002 -0.0013106 0.0583333
v 0.0095851002 -0.00087524502 0.0583333
l 5 6
v 0.0094658397 -0.0017432499 0.0583333
v 0.0095354002 -0.0013106 0.0583333
l 7 8
v 0.0093766702 -0.0021722701 0.0583333
v 0.0094658397 -0.0017432499 0.0583333
l 9 10
v 0.0092680901 -0.00259679 0.0583333
v 0.0093766702 -0.0021722701 0.0583333
l 11 12
v 0.0091402503 -0.0030159301 0.0583333
v 0.0092680901 -0.00259679 0.0583333
l 13 14
v 0.0089935102 -0.0034288301 0.0583333
v 0.0091402503 -0.0030159301 0.0583333
l 15 16
v 0.0088281399 -0.0038346101 0.0583333
v 0.0089935102 -0.0034288301 0.0583333
l 17 18
v 0.0086444803 -0.0042324499 0.0583333
v 0.0088281399 -0.0038346101 0.0583333
l 19 20
v 0.0084428797 -0.0046215099 0.0583333
v 0.0086444803 -0.0042324499 0.0583333
l 21 22
v 0.0082237804 -0.0050009899 0.0583333
v 0.0084428797 -0.0046215099 0.0583333
l 23 24
v 0.0079876501 -0.0053701098 0.0583333
v 0.0082237804 -0.0050009899 0.0583333
l 25 26
v 0.0077349502 -0.0057281102 0.0583333
v 0.0079876501 -0.0053701098 0.0583333
l 27 28
v 0.0074662198 -0.0060742199 0.0583333
v 0.0077349502 -0.0057281102 0.0583333
l 29 30
v 0.0071820202 -0.0064077498 0.0583333
v 0.0074662198 -0.0060742199 0.0583333
l 31 32
v 0.0068829302 -0.006728 0.0583333
v 0.0071820202 -0.0064077498 0.0583333
l 33 34
v 0.0065695699 -0.0070342999 0.0583333
v 0.0068829302 -0.006728 0.0583333
l 35 36
v 0.0062425998 -0.0073260199 0.0583333
v 0.0065695699 -0.0070342999 0.0583333
l 37 38
v 0.0059026899 -0.0076025599 0.0583333
v 0.0062425998 -0.0073260199 0.0583333
l 39 40
v 0.0055505498 -0.00786334 0.0583333
v 0.0059026899 -0.0076025599 0.0583333
l 41 42
v 0.0051869 -0.0081078196 0.0583333
v 0.0055505498 -0.00786334 0.0583333
l 43 44
v 0.0048125 -0.0083355 0.0583333
v 0.0051869 -0.0081078196 0.0583333
l 45 46
v 0.0044281301 -0.0085458998 0.0583333
v 0.0048125 -0.0083355 0.0583333
l 47 48
v 0.00403457 -0.0087385802 0.0583333
v 0.0044281301 -0.0085458998 0.0583333
l 49 50
v 0.00363266 -0.0089131901 0.0583333
v 0.00403457 -0.0087385802 0.0583333
l 51 52
v 0.0032232199 -0.00906929 0.0583333
v 0.00363266 -0.0089131901 0.0583333
l 53 54
v 0.0028071001 -0.00920658 0.0583333
v 0.0032232199 -0.00906929 0.0583333
l 55 56
v 0.0023851499 -0.00932479 0.0583333
v 0.0028071001 -0.00920658 0.0583333
l 57 58
v 0.0019582701 -0.0094236601 0.0583333
v 0.0023851499 -0.00932479 0.0583333
l 59 60
v 0.00152732 -0.0095030302 0.0583333
v 0.0019582701 -0.0094236601 0.0583333
l 61 62
v 0.00109321 -0.0095627001 0.0583333
v 0.00152732 -0.0095030302 0.0583333
l 63 64
v 0.00065683399 -0.0096025998 0.0583333
v 0.00109321 -0.0095627001 0.0583333
l 65 66
v 0.00021909599 -0.0096224602 0.0583333
v 0.00065683399 -0.0096025998 0.0583333
l 67 68
v -0.00021909599 -0.0096224602 0.0583333
v 0.00021909599 -0.0096224602 0.0583333
l 69 70
v -0.00065683399 -0.0096025998 0.0583333
v -0.00021909599 -0.0096224602 0.0583333
l 71 72
v -0.00109321 -0.0095627001 0.0583333
v -0.00065683399 -0.0096025998 0.0583333
l 73 74
v -0.00152732 -0.0095030302 0.0583333
v -0.00109321 -0.0095627001 0.0583333
l 75 76
v -0.0019582701 -0.0094236601 0.0583333
v -0.00152732 -0.0095030302 0.0583333
l 77 78
v -0.0023851499 -0.00932479 0.0583333
v -0.0019582701 -0.0094236601 0.0583333
l 79 80
v -0.0028071001 -0.00920658 0.0583333
v -0.0023851499 -0.00932479 0.0583333
l 81 82
v -0.0032232199 -0.00906929 0.0583333
v -0.0028071001 -0.00920658 0.0583333
l 83 84
v -0.00363266 -0.0089131901 0.0583333
v -0.0032232199 -0.00906929 0.0583333
l 85 86
v -0.00403457 -0.0087385802 0.0583333
v -0.00363266 -0.0089131901 0.0583333
l 87 88
v -0.0044281301 -0.0085458998 0.0583333
v -0.00403457 -0.0087385802 0.0583333
l 89 90
v -0.0048125 -0.0083355 0.0583333
v -0.0044281301 -0.0085458998 0.0583333
l 91 92
v -0.0051869 -0.0081078196 0.0583333
v -0.0048125 -0.0083355 0.0583333
l 93 94
v -0.0055505498 -0.00786334 0.0583333
v -0.0051869 -0.0081078196 0.0583333
l 95 96
v -0.0059026899 -0.0076025599 0.0583333
v -0.0055505498 -0.00786334 0.0583333
l 97 98
v -0.0062425998 -0.0073260199 0.0583333
v -0.0059026899 -0.0076025599 0.0583333
l 99 100
v -0.0065695699 -0.0070342999 0.0583333
v -0.0062425998 -0.0073260199 0.0583333
l 101 102
v -0.0068829302 -0.006728 0.0583333
v -0.0065695699 -0.0070342999 0.0583333
l 103 104
v -0.0071820202 -0.0064077498 0.0583333
v -0.0068829302 -0.006728 0.0583333
l 105 106
v -0.0074662198 -0.0060742199 0.0583333
v -0.0071820202 -0.0064077498 0.0583333
l 107 108
v -0.0077349502 -0.0057281102 0.0583333
v -0.0074662198 -0.0060742199 0.0583333
l 109 110
v -0.0079876501 -0.0053701098 0.0583333
v -0.0077349502 -0.0057281102 0.0583333
l 111 112
v -0.0082237804 -0.0050009899 0.0583333
v -0.0079876501 -0.0053701098 0.0583333
l 113 114
v -0.0084428797 -0.0046215099 0.0583333
v -0.0082237804 -0.0050009899 0.0583333
l 115 116
v -0.0086444803 -0.0042324499 0.0583333
v -0.0084428797 -0.0046215099 0.0583333
l 117 118
v -0.0088281399 -0.0038346101 0.0583333
v -0.0086444803 -0.0042324499 0.0583333
l 119 120
v -0.0089935102 -0.0034288301 0.0583333
v -0.0088281399 -0.0038346101 0.0583333
l 121 122
v -0.0091402503 -0.0030159301 0.0583333
v -0.0089935102 -0.0034288301 0.0583333
l 123 124
v -0.0092680901 -0.00259679 0.0583333
v -0.0091402503 -0.0030159301 0.0583333
l 125 126
v -0.0093766702 -0.0021722701 0.0583333
v -0.0092680901 -0.00259679 0.0583333
l 127 128
v -0.0094658397 -0.0017432499 0.0583333
v -0.0093766702 -0.0021722701 0.0583333
l 129 130
v -0.0095354002 -0.0013106 0.0583333
v -0.0094658397 -0.0017432499 0.0583333
l 131 132
v -0.0095851002 -0.00087524502 0.0583333
v -0.0095354002 -0.0013106 0.0583333
l 133 134
v -0.0096150199 -0.00043807799 0.0583333
v -0.0095851002 -0.00087524502 0.0583333
l 135 136
v -0.0096249999 2.44674e-17 0.0583333
v -0.0096150199 -0.00043807799 0.0583333
l 137 138
v -0.0096150199 0.00043807799 0.0583333
v -0.0096249999 2.44674e-17 0.0583333
l 139 140
v -0.0095851002 0.00087524502 0.0583333
v -0.0096150199 0.00043807799 0.0583333
l 141 142
v -0.0095354002 0.0013106 0.0583333
v -0.0095851002 0.00087524502 0.0583333
l 143 144
v -0.0094658397 0.0017432499 0.0583333
v -0.0095354002 0.0013106 0.0583333
l 145 146
v -0.0093766702 0.0021722701 0.0583333
v -0.0094658397 0.0017432499 0.0583333
l 147 148
v -0.0092680901 0.00259679 0.0583333
v -0.0093766702 0.0021722701 0.0583333
l 149 150
v -0.0091402503 0.0030159301 0.0583333
v -0.0092680901 0.00259679 0.0583333
l 151 152
v -0.0089935102 0.0034288301 0.0583333
v -0.0091402503 0.0030159301 0.0583333
l 153 154
v -0.0088281399 0.0038346101 0.0583333
v -0.0089935102 0.0034288301 0.0583333
l 155 156
v -0.0086444803 0.0042324499 0.0583333
v -0.0088281399 0.0038346101 0.0583333
l 157 158
v -0.0084428797 0.0046215099 0.0583333
v -0.0086444803 0.0042324499 0.0583333
l 159 160
v -0.0082237804 0.0050009899 0.0583333
v -0.0084428797 0.0046215099 0.0583333
l 161 162
v -0.0079876501 0.0053701098 0.0583333
v -0.0082237804 0.0050009899 0.0583333
l 163 164
v -0.0077349502 0.0057281102 0.0583333
v -0.0079876501 0.0053701098 0.0583333
l 165 166
v -0.0074662198 0.0060742199 0.0583333
v -0.0077349502 0.0057281102 0.0583333
l 167 168
v -0.0071820202 0.0064077498 0.0583333
v -0.0074662198 0.0060742199 0.0583333
l 169 170
v -0.0068829302 0.006728 0.0583333
v -0.0071820202 0.0064077498 0.0583333
l 171 172
v -0.0065695699 0.0070342999 0.0583333
v -0.0068829302 0.006728 0.0583333
l 173 174
v -0.0062425998 0.0073260199 0.0583333
v -0.0065695699 0.0070342999 0.0583333
l 175 176
v -0.0059026899 0.0076025599 0.0583333
v -0.0062425998 0.0073260199 0.0583333
l 177 178
v -0.0055505498 0.00786334 0.0583333
v -0.0059026899 0.0076025599 0.0583333
l 179 180
v -0.0051869 0.0081078196 0.0583333
v -0.0055505498 0.00786334 0.0583333
l 181 182
v -0.0048125 0.0083355 0.0583333
v -0.0051869 0.0081078196 0.0583333
l 183 184
v -0.0044281301 0.0085458998 0.0583333
v -0.0048125 0.0083355 0.0583333
l 185 186
v -0.00403457 0.0087385802 0.0583333
v -0.0044281301 0.0085458998 0.0583333
l 187 188
v -0.00363266 0.0089131901 0.0583333
v -0.00403457 0.0087385802 0.0583333
l 189 190
v -0.0032232199 0.00906929 0.0583333
v -0.00363266 0.0089131901 0.0583333
l 191 192
v -0.0028071001 0.00920658 0.0583333
v -0.0032232199 0.00906929 0.0583333
l 193 194
v -0.0023851499 0.00932479 0.0583333
v -0.0028071001 0.00920658 0.0583333
l 195 196
v -0.0019582701 0.0094236601 0.0583333
v -0.0023851499 0.00932479 0.0583333
l 197 198
v -0.00152732 0.0095030302 0.0583333
v -0.0019582701 0.0094236601 0.0583333
l 199 200
v -0.00109321 0.0095627001 0.0583333
v -0.00152732 0.0095030302 0.0583333
l 201 202
v -0.00065683399 0.0096025998 0.0583333
v -0.00109321 0.0095627001 0.0583333
l 203 204
v -0.00021909599 0.0096224602 0.0583333
v -0.00065683399 0.0096025998 0.0583333
l 205 206
v 0.00021909599 0.0096224602 0.0583333
v -0.00021909599 0.0096224602 0.0583333
l 207 208
v 0.00065683399 0.0096025998 0.0583333
v 0.00021909599 0.0096224602 0.0583333
l 209 210
v 0.00109321 0.0095627001 0.0583333
v 0.00065683399 0.0096025998 0.0583333
l 211 212
v 0.00152732 0.0095030302 0.0583333
v 0.00109321 0.0095627001 0.0583333
l 213 214
v 0.0019582701 0.0094236601 0.0583333
v 0.00152732 0.0095030302 0.0583333
l 215 216
v 0.0023851499 0.00932479 0.0583333
v 0.0019582701 0.0094236601 0.0583333
l 217 218
v 0.0028071001 0.00920658 0.0583333
v 0.0023851499 0.00932479 0.0583333
l 219 220
v 0.0032232199 0.00906929 0.0583333
v 0.0028071001 0.00920658 0.0583333
l 221 222
v 0.00363266 0.0089131901 0.0583333
v 0.0032232199 0.00906929 0.0583333
l 223 224
v 0.00403457 0.0087385802 0.0583333
v 0.00363266 0.0089131901 0.0583333
l 225 226
v 0.0044281301 0.0085458998 0.0583333
v 0.00403457 0.0087385802 0.0583333
l 227 228
v 0.0048125 0.0083355 0.0583333
v 0.0044281301 0.0085458998 0.0583333
l 229 230
v 0.0051869 0.0081078196 0.0583333
v 0.0048125 0.0083355 0.0583333
l 231 232
v 0.0055505498 0.00786334 0.0583333
v 0.0051869 0.0081078196 0.0583333
l 233 234
v 0.0059026899 0.0076025599 0.0583333
v 0.0055505498 0.00786334 0.0583333
l 235 236
v 0.0062425998 0.0073260199 0.0583333
v 0.0059026899 0.0076025599 0.0583333
l 237 238
v 0.0065695699 0.0070342999 0.0583333
v 0.0062425998 0.0073260199 0.0583333
l 239 240
v 0.0068829302 0.006728 0.0583333
v 0.0065695699 0.0070342999 0.0583333
l 241 242
v 0.0071820202 0.0064077498 0.0583333
v 0.0068829302 0.006728 0.0583333
l 243 244
v 0.0074662198 0.0060742199 0.0583333
v 0.0071820202 0.0064077498 0.0583333
l 245 246
v 0.0077349502 0.0057281102 0.0583333
v 0.0074662198 0.0060742199 0.0583333
l 247 248
v 0.0079876501 0.0053701098 0.0583333
v 0.0077349502 0.0057281102 0.0583333
l 249 250
v 0.0082237804 0.0050009899 0.0583333
v 0.0079876501 0.0053701098 0.0583333
l 251 252
v 0.0084428797 0.0046215099 0.0583333
v 0.0082237804 0.0050009899 0.0583333
l 253 254
v 0.0086444803 0.0042324499 0.0583333
v 0.0084428797 0.0046215099 0.0583333
l 255 256
v 0.0088281399 0.0038346101 0.0583333
v 0.0086444803 0.0042324499 0.0583333
l 257 258
v 0.0089935102 0.0034288301 0.0583333
v 0.0088281399 0.0038346101 0.0583333
l 259 260
v 0.0091402503 0.0030159301 0.0583333
v 0.0089935102 0.0034288301 0.0583333
l 261 262
v 0.0092680901 0.00259679 0.0583333
v 0.0091402503 0.0030159301 0.0583333
l 263 264
v 0.0093766702 0.0021722701 0.0583333
v 0.0092680901 0.00259679 0.0583333
l 265 266
v 0.0094658397 0.0017432499 0.0583333
v 0.0093766702 0.0021722701 0.0583333
l 267 268
v 0.0095354002 0.0013106 0.0583333
v 0.0094658397 0.0017432499 0.0583333
l 269 270
v 0.0095851002 0.00087524502 0.0583333
v 0.0095354002 0.0013106 0.0583333
l 271 272
v 0.0096150199 0.00043807799 0.0583333
v 0.0095851002 0.00087524502 0.0583333
l 273 274
v 0.0096249999 0 0.0583333
v 0.0096150199 0.00043807799 0.0583333
l 275 276
v 0.0104909 -0.000436784 0.0583333
v 0.0105 0 0.0583333
l 277 278
v 0.0104637 -0.00087281299 0.0583333
v 0.0104909 -0.000436784 0.0583333
l 279 280
v 0.0104183 -0.00130733 0.0583333
v 0.0104637 -0.00087281299 0.0583333
l 281 282
v 0.0103549 -0.00173959 0.0583333
v 0.0104183 -0.00130733 0.0583333
l 283 284
v 0.0102736 -0.00216883 0.0583333
v 0.0103549 -0.00173959 0.0583333
l 285 286
v 0.0101745 -0.0025943101 0.0583333
v 0.0102736 -0.00216883 0.0583333
l 287 288
v 0.0100578 -0.00301531 0.0583333
v 0.0101745 -0.0025943101 0.0583333
l 289 290
v 0.0099235503 -0.0034310799 0.0583333
v 0.0100578 -0.00301531 0.0583333
l 291 292
v 0.0097722597 -0.0038409301 0.0583333
v 0.0099235503 -0.0034310799 0.0583333
l 293 294
v 0.0096039996 -0.0042441101 0.0583333
v 0.0097722597 -0.0038409301 0.0583333
l 295 296
v 0.0094192 -0.0046399501 0.0583333
v 0.0096039996 -0.0042441101 0.0583333
l 297 298
v 0.0092180399 -0.0050277598 0.0583333
v 0.0094192 -0.0046399501 0.0583333
l 299 300
v 0.0090008602 -0.0054068598 0.0583333
v 0.0092180399 -0.0050277598 0.0583333
l 301 302
v 0.0087681999 -0.0057766 0.0583333
v 0.0090008602 -0.0054068598 0.0583333
l 303 304
v 0.0085202903 -0.0061363499 0.0583333
v 0.0087681999 -0.0057766 0.0583333
l 305 306
v 0.0082576498 -0.0064854599 0.0583333
v 0.0085202903 -0.0061363499 0.0583333
l 307 308
v 0.0079807201 -0.0068233502 0.0583333
v 0.0082576498 -0.0064854599 0.0583333
l 309 310
v 0.0076899598 -0.00714943 0.0583333
v 0.0079807201 -0.0068233502 0.0583333
l 311 312
v 0.0073858998 -0.0074631399 0.0583333
v 0.0076899598 -0.00714943 0.0583333
l 313 314
v 0.0070690601 -0.0077639199 0.0583333
v 0.0073858998 -0.0074631399 0.0583333
l 315 316
v 0.0067399698 -0.0080512604 0.0583333
v 0.0070690601 -0.0077639199 0.0583333
l 317 318
v 0.0063992199 -0.0083246604 0.0583333
v 0.0067399698 -0.0080512604 0.0583333
l 319 320
v 0.0060473802 -0.0085836602 0.0583333
v 0.0063992199 -0.0083246604 0.0583333
l 321 322
v 0.0056850798 -0.0088277897 0.0583333
v 0.0060473802 -0.0085836602 0.0583333
l 323 324
v 0.0053129401 -0.0090565998 0.0583333
v 0.0056850798 -0.0088277897 0.0583333
l 325 326
v 0.0049315998 -0.0092698401 0.0583333
v 0.0053129401 -0.0090565998 0.0583333
l 327 328
v 0.00454171 -0.0094668902 0.0583333
v 0.0049315998 -0.0092698401 0.0583333
l 329 330
v 0.0041439701 -0.00964766 0.0583333
v 0.00454171 -0.0094668902 0.0583333
l 331 332
v 0.0037390599 -0.0098117301 0.0583333
v 0.0041439701 -0.00964766 0.0583333
l 333 334
v 0.00332767 -0.0099587198 0.0583333
v 0.0037390599 -0.0098117301 0.0583333
l 335 336
v 0.00291052 -0.0100886 0.0583333
v 0.00332767 -0.0099587198 0.0583333
l 337 338
v 0.00248833 -0.0102009 0.0583333
v 0.00291052 -0.0100886 0.0583333
l 339 340
v 0.0020618399 -0.0102956 0.0583333
v 0.00248833 -0.0102009 0.0583333
l 341 342
v 0.0016317701 -0.0103724 0.0583333
v 0.0020618399 -0.0102956 0.0583333
l 343 344
v 0.00119888 -0.0104313 0.0583333
v 0.0016317701 -0.0103724 0.0583333
l 345 346
v 0.00076391699 -0.0104722 0.0583333
v 0.00119888 -0.0104313 0.0583333
l 347 348
v 0.00032763 -0.0104949 0.0583333
v 0.00076391699 -0.0104722 0.0583333
l 349 350
v -0.000109225 -0.0104994 0.0583333
v 0.00032763 -0.0104949 0.0583333
l 351 352
v -0.000545891 -0.0104858 0.0583333
v -0.000109225 -0.0104994 0.0583333
l 353 354
v -0.00098161004 -0.0104541 0.0583333
v -0.000545891 -0.0104858 0.0583333
l 355 356
v -0.00141564 -0.0104041 0.0583333
v -0.00098161004 -0.0104541 0.0583333
l 357 358
v -0.0018472 -0.0103362 0.0583333
v -0.00141564 -0.0104041 0.0583333
l 359 360
v -0.0022755801 -0.0102504 0.0583333
v -0.0018472 -0.0103362 0.0583333
l 361 362
v -0.0027000101 -0.0101469 0.0583333
v -0.0022755801 -0.0102504 0.0583333
l 363 364
v -0.00311977 -0.0100258 0.0583333
v -0.0027000101 -0.0101469 0.0583333
l 365 366
v -0.00353412 -0.0098873302 0.0583333
v -0.00311977 -0.0100258 0.0583333
l 367 368
v -0.0039423699 -0.00973175 0.0583333
v -0.00353412 -0.0098873302 0.0583333
l 369 370
v -0.00434379 -0.0095593799 0.0583333
v -0.0039423699 -0.00973175 0.0583333
l 371 372
v -0.0047376798 -0.0093703698 0.0583333
v -0.00434379 -0.0095593799 0.0583333
l 373 374
v -0.0051233699 -0.0091651902 0.0583333
v -0.0047376798 -0.0093703698 0.0583333
l 375 376
v -0.0055002002 -0.0089441603 0.0583333
v -0.0051233699 -0.0091651902 0.0583333
l 377 378
v -0.0058674999 -0.00870761 0.0583333
v -0.0055002002 -0.0089441603 0.0583333
l 379 380
v -0.0062246402 -0.0084559899 0.0583333
v -0.0058674999 -0.00870761 0.0583333
l 381 382
v -0.0065710102 -0.0081897397 0.0583333
v -0.0062246402 -0.0084559899 0.0583333
l 383 384
v -0.0069060102 -0.0079092998 0.0583333
v -0.0065710102 -0.0081897397 0.0583333
l 385 386
v -0.0072290399 -0.0076151802 0.0583333
v -0.0069060102 -0.0079092998 0.0583333
l 387 388
v -0.0075395699 -0.0073078698 0.0583333
v -0.0072290399 -0.0076151802 0.0583333
l 389 390
v -0.0078370301 -0.0069879098 0.0583333
v -0.0075395699 -0.0073078698 0.0583333
l 391 392
v -0.0081209401 -0.00665585 0.0583333
v -0.0078370301 -0.0069879098 0.0583333
l 393 394
v -0.0083907899 -0.0063122702 0.0583333
v -0.0081209401 -0.00665585 0.0583333
l 395 396
v -0.0086460998 -0.0059577599 0.0583333
v -0.0083907899 -0.0063122702 0.0583333
l 397 398
v -0.0088864099 -0.0055929399 0.0583333
v -0.0086460998 -0.0059577599 0.0583333
l 399 400
v -0.0091114603 -0.0052184402 0.0583333
v -0.0088864099 -0.0055929399 0.0583333
l 401 402
v -0.0093205897 -0.0048349001 0.0583333
v -0.0091114603 -0.0052184402 0.0583333
l 403 404
v -0.0095137004 -0.0044429898 0.0583333
v -0.0093205897 -0.0048349001 0.0583333
l 405 406
v -0.0096902801 -0.00404339 0.0583333
v -0.0095137004 -0.0044429898 0.0583333
l 407 408
v -0.0098500503 -0.00363679 0.0583333
v -0.0096902801 -0.00404339 0.0583333
l 409 410
v -0.00999285 -0.00322389 0.0583333
v -0.0098500503 -0.00363679 0.0583333
l 411 412
v -0.0101182 -0.00280542 0.0583333
v -0.00999285 -0.00322389 0.0583333
l 413 414
v -0.0102262 -0.0023820801 0.0583333
v -0.0101182 -0.00280542 0.0583333
l 415 416
v -0.0103164 -0.00195463 0.0583333
v -0.0102262 -0.0023820801 0.0583333
l 417 418
v -0.0103889 -0.0015237899 0.0583333
v -0.0103164 -0.00195463 0.0583333
l 419 420
v -0.0104432 -0.00109031 0.0583333
v -0.0103889 -0.0015237899 0.0583333
l 421 422
v -0.0104795 -0.00065494003 0.0583333
v -0.0104432 -0.00109031 0.0583333
l 423 424
v -0.0104977 -0.000218439 0.0583333
v -0.0104795 -0.00065494003 0.0583333
l 425 426
v -0.0104977 0.000218439 0.0583333
v -0.0104977 -0.000218439 0.0583333
l 427 428
v -0.0104795 0.00065494003 0.0583333
v -0.0104977 0.000218439 0.0583333
l 429 430
v -0.0104432 0.00109031 0.0583333
v -0.0104795 0.00065494003 0.0583333
l 431 432
v -0.0103889 0.0015237899 0.0583333
v -0.0104432 0.00109031 0.0583333
l 433 434
v -0.0103164 0.00195463 0.0583333
v -0.0103889 0.0015237899 0.0583333
l 435 436
v -0.0102262 0.0023820801 0.0583333
v -0.0103164 0.00195463 0.0583333
l 437 438
v -0.0101182 0.00280542 0.0583333
v -0.0102262 0.0023820801 0.0583333
l 439 440
v -0.00999285 0.00322389 0.0583333
v -0.0101182 0.00280542 0.0583333
l 441 442
v -0.0098500503 0.00363679 0.0583333
v -0.00999285 0.00322389 0.0583333
l 443 444
v -0.0096902801 0.00404339 0.0583333
v -0.0098500503 0.00363679 0.0583333
l 445 446
v -0.0095137004 0.0044429898 0.0583333
v -0.0096902801 0.00404339 0.0583333
l 447 448
v -0.0093205897 0.0048349001 0.0583333
v -0.0095137004 0.0044429898 0.0583333
l 449 450
v -0.0091114603 0.0052184402 0.0583333
v -0.0093205897 0.0048349001 0.0583333
l 451 452
v -0.0088864099 0.0055929399 0.0583333
v -0.0091114603 0.0052184402 0.0583333
l 453 454
v -0.0086460998 0.0059577599 0.0583333
v -0.0088864099 0.0055929399 0.0583333
l 455 456
v -0.0083907899 0.0063122702 0.0583333
v -0.0086460998 0.0059577599 0.0583333
l 457 458
v -0.0081209401 0.00665585 0.0583333
v -0.0083907899 0.0063122702 0.0583333
l 459 460
v -0.0078370301 0.0069879098 0.0583333
v -0.0081209401 0.00665585 0.0583333
l 461 462
v -0.0075395699 0.0073078698 0.0583333
v -0.0078370301 0.0069879098 0.0583333
l 463 464
v -0.0072290399 0.0076151802 0.0583333
v -0.0075395699 0.0073078698 0.0583333
l 465 466
v -0.0069060102 0.0079092998 0.0583333
v -0.0072290399 0.0076151802 0.0583333
l 467 468
v -0.0065710102 0.0081897397 0.0583333
v -0.0069060102 0.0079092998 0.0583333
l 469 470
v -0.0062246402 0.0084559899 0.0583333
v -0.0065710102 0.0081897397 0.0583333
l 471 472
v -0.0058674999 0.00870761 0.0583333
v -0.0062246402 0.0084559899 0.0583333
l 473 474
v -0.0055002002 0.0089441603 0.0583333
v -0.0058674999 0.00870761 0.0583333
l 475 476
v -0.0051233699 0.0091651902 0.0583333
v -0.0055002002 0.0089441603 0.0583333
l 477 478
v -0.0047376798 0.0093703698 0.0583333
v -0.0051233699 0.0091651902 0.0583333
l 479 480
v -0.00434379 0.0095593799 0.0583333
v -0.0047376798 0.0093703698 0.0583333
l 481 482
v -0.0039423699 0.00973175 0.0583333
v -0.00434379 0.0095593799 0.0583333
l 483 484
v -0.00353412 0.0098873302 0.0583333
v -0.0039423699 0.00973175 0.0583333
l 485 486
v -0.00311977 0.0100258 0.0583333
v -0.00353412 0.0098873302 0.0583333
l 487 488
v -0.0027000101 0.0101469 0.0583333
v -0.00311977 0.0100258 0.0583333
l 489 490
v -0.0022755801 0.0102504 0.0583333
v -0.0027000101 0.0101469 0.0583333
l 491 492
v -0.0018472 0.0103362 0.0583333
v -0.0022755801 0.0102504 0.0583333
l 493 494
v -0.00141564 0.0104041 0.0583333
v -0.0018472 0.0103362 0.0583333
l 495 496
v -0.00098161004 0.0104541 0.0583333
v -0.00141564 0.0104041 0.0583333
l 497 498
v -0.000545891 0.0104858 0.0583333
v -0.00098161004 0.0104541 0.0583333
l 499 500
v -0.000109225 0.0104994 0.0583333
v -0.000545891 0.0104858 0.0583333
l 501 502
v 0.00032763 0.0104949 0.0583333
v -0.000109225 0.0104994 0.0583333
l 503 504
v 0.00076391699 0.0104722 0.0583333
v 0.00032763 0.0104949 0.0583333
l 505 506
v 0.00119888 0.0104313 0.0583333
v 0.00076391699 0.0104722 0.0583333
l 507 508
v 0.0016317701 0.0103724 0.0583333
v 0.00119888 0.0104313 0.0583333
l 509 510
v 0.0020618399 0.0102956 0.0583333
v 0.0016317701 0.0103724 0.0583333
l 511 512
v 0.00248833 0.0102009 0.0583333
v 0.0020618399 0.0102956 0.0583333
l 513 514
v 0.00291052 0.0100886 0.0583333
v 0.00248833 0.0102009 0.0583333
l 515 516
v 0.00332767 0.0099587198 0.0583333
v 0.00291052 0.0100886 0.0583333
l 517 518
v 0.0037390599 0.0098117301 0.0583333
v 0.00332767 0.0099587198 0.0583333
l 519 520
v 0.0041439701 0.00964766 0.0583333
v 0.0037390599 0.0098117301 0.0583333
l 521 522
v 0.00454171 0.0094668902 0.0583333
v 0.0041439701 0.00964766 0.0583333
l 523 524
v 0.0049315998 0.0092698401 0.0583333
v 0.00454171 0.0094668902 0.0583333
l 525 526
v 0.0053129401 0.0090565998 0.0583333
v 0.0049315998 0.0092698401 0.0583333
l 527 528
v 0.0056850798 0.0088277897 0.0583333
v 0.0053129401 0.0090565998 0.0583333
l 529 530
v 0.0060473802 0.0085836602 0.0583333
v 0.0056850798 0.0088277897 0.0583333
l 531 532
v 0.0063992199 0.0083246604 0.0583333
v 0.0060473802 0.0085836602 0.0583333
l 533 534
v 0.0067399698 0.0080512604 0.0583333
v 0.0063992199 0.0083246604 0.0583333
l 535 536
v 0.0070690601 0.0077639199 0.0583333
v 0.0067399698 0.0080512604 0.0583333
l 537 538
v 0.0073858998 0.0074631399 0.0583333
v 0.0070690601 0.0077639199 0.0583333
l 539 540
v 0.0076899598 0.00714943 0.0583333
v 0.0073858998 0.0074631399 0.0583333
l 541 542
v 0.0079807201 0.0068233502 0.0583333
v 0.0076899598 0.00714943 0.0583333
l 543 544
v 0.0082576498 0.0064854599 0.0583333
v 0.0079807201 0.0068233502 0.0583333
l 545 546
v 0.0085202903 0.0061363499 0.0583333
v 0.0082576498 0.0064854599 0.0583333
l 547 548
v 0.0087681999 0.0057766 0.0583333
v 0.0085202903 0.0061363499 0.0583333
l 549 550
v 0.0090008602 0.0054068598 0.0583333
v 0.0087681999 0.0057766 0.0583333
l 551 552
v 0.0092180399 0.0050277598 0.0583333
v 0.0090008602 0.0054068598 0.0583333
l 553 554
v 0.0094192 0.0046399501 0.0583333
v 0.0092180399 0.0050277598 0.0583333
l 555 556
v 0.0096039996 0.0042441101 0.0583333
v 0.0094192 0.0046399501 0.0583333
l 557 558
v 0.0097722597 0.0038409301 0.0583333
v 0.0096039996 0.0042441101 0.0583333
l 559 560
v 0.0099235503 0.0034310799 0.0583333
v 0.0097722597 0.0038409301 0.0583333
l 561 562
v 0.0100578 0.00301531 0.0583333
v 0.0099235503 0.0034310799 0.0583333
l 563 564
v 0.0101745 0.0025943101 0.0583333
v 0.0100578 0.00301531 0.0583333
l 565 566
v 0.0102736 0.00216883 0.0583333
v 0.0101745 0.0025943101 0.0583333
l 567 568
v 0.0103549 0.00173959 0.0583333
v 0.0102736 0.00216883 0.0583333
l 569 570
v 0.0104183 0.00130733 0.0583333
v 0.0103549 0.00173959 0.0583333
l 571 572
v 0.0104637 0.00087281299 0.0583333
v 0.0104183 0.00130733 0.0583333
l 573 574
v 0.0104909 0.000436784 0.0583333
v 0.0104637 0.00087281299 0.0583333
l 575 576
v 0.0105 0 0.0583333
v 0.0104909 0.000436784 0.0583333
l 577 578
