v 110 0 10
v 109.97724 -0.99974087 10
l 1 2
v 109.886 -5.0066061 10
v 109.81777 -6.0042755 10
l 3 4
v 109.5443 -10.00283 10
v 109.43072 -10.996358 10
l 5 6
v 108.9755 -14.97833 10
v 108.81681 -15.965658 10
l 7 8
v 108.1808 -19.922779 10
v 107.97734 -20.901863 10
l 9 10
v 107.1619 -24.825939 10
v 106.91409 -25.794748 10
l 11 12
v 105.9209 -29.677641 10
v 105.62926 -30.63417 10
l 13 14
v 104.4604 -34.467838 10
v 104.12551 -35.410096 10
l 15 16
v 102.7833 -39.186588 10
v 102.40588 -40.112629 10
l 17 18
v 100.8932 -43.82412 10
v 100.47403 -44.732028 10
l 19 20
v 98.794052 -48.370819 10
v 98.333987 -49.258704 10
l 21 22
v 96.490089 -52.817261 10
v 95.990088 -53.683285 10
l 23 24
v 93.98613 -57.154228 10
v 93.447232 -57.996599 10
l 25 26
v 91.287376 -61.372749 10
v 90.710696 -62.189719 10
l 27 28
v 88.399422 -65.46405 10
v 87.786155 -66.253926 10
l 29 30
v 85.328239 -69.41967 10
v 84.679658 -70.180815 10
l 31 32
v 82.080208 -73.231407 10
v 81.397656 -73.962244 10
l 33 34
v 78.662048 -76.891373 10
v 77.946939 -77.590385 10
l 35 36
v 75.080849 -80.39196 10
v 74.334665 -81.0577 10
l 37 38
v 71.344032 -83.725922 10
v 70.568321 -84.35701 10
l 39 40
v 67.459343 -86.886353 10
v 66.655712 -87.48148 10
l 41 42
v 63.434841 -89.866692 10
v 62.604955 -90.424624 10
l 43 44
v 59.278851 -92.660767 10
v 58.424431 -93.18035 10
l 45 46
v 55 -95.262787 10
v 54.122818 -95.742945 10
l 47 48
v 50.607151 -97.667374 10
v 49.709024 -98.107109 10
l 49 50
v 46.109421 -99.869522 10
v 45.192211 -100.26793 10
l 51 52
v 41.516109 -101.8647 10
v 40.581714 -102.22094 10
l 53 54
v 36.836761 -103.6487 10
v 35.887122 -103.96204 10
l 55 56
v 32.081051 -105.2179 10
v 31.118133 -105.4877 10
l 57 58
v 27.25886 -106.569 10
v 26.284659 -106.79468 10
l 59 60
v 22.380159 -107.6992 10
v 21.396701 -107.88034 10
l 61 62
v 17.45508 -108.6063 10
v 16.464394 -108.74247 10
l 63 64
v 12.49382 -109.2882 10
v 11.497963 -109.37914 10
l 65 66
v 7.5066652 -109.7436 10
v 6.5077012 -109.78911 10
l 67 68
v 2.503952 -109.9715 10
v 1.503952 -109.9715 10
l 69 70
v -2.503952 -109.9715 10
v -3.502916 -109.92599 10
l 71 72
v -7.5066652 -109.7436 10
v -8.502522 -109.65266 10
l 73 74
v -12.49382 -109.2882 10
v -13.484506 -109.15204 10
l 75 76
v -17.45508 -108.6063 10
v -18.438539 -108.42517 10
l 77 78
v -22.380159 -107.6992 10
v -23.35436 -107.47352 10
l 79 80
v -27.25886 -106.569 10
v -28.221778 -106.29921 10
l 81 82
v -32.081051 -105.2179 10
v -33.03069 -104.90456 10
l 83 84
v -36.836761 -103.6487 10
v -37.771157 -103.29246 10
l 85 86
v -41.516109 -101.8647 10
v -42.433319 -101.4663 10
l 87 88
v -46.109421 -99.869522 10
v -47.007548 -99.429787 10
l 89 90
v -50.607151 -97.667374 10
v -51.484333 -97.187216 10
l 91 92
v -55 -95.262787 10
v -55.85442 -94.743204 10
l 93 94
v -59.278851 -92.660767 10
v -60.108737 -92.102834 10
l 95 96
v -63.434841 -89.866692 10
v -64.238472 -89.271564 10
l 97 98
v -67.459343 -86.886353 10
v -68.235054 -86.255264 10
l 99 100
v -71.344032 -83.725922 10
v -72.090216 -83.060182 10
l 101 102
v -75.080849 -80.39196 10
v -75.795958 -79.692948 10
l 103 104
v -78.662048 -76.891373 10
v -79.3446 -76.160536 10
l 105 106
v -82.080208 -73.231407 10
v -82.72879 -72.470262 10
l 107 108
v -85.328239 -69.41967 10
v -85.941507 -68.629795 10
l 109 110
v -88.399422 -65.46405 10
v -88.976102 -64.64708 10
l 111 112
v -91.287376 -61.372749 10
v -91.826274 -60.530378 10
l 113 114
v -93.98613 -57.154228 10
v -94.486131 -56.288204 10
l 115 116
v -96.490089 -52.817261 10
v -96.950155 -51.929376 10
l 117 118
v -98.794052 -48.370819 10
v -99.213221 -47.462911 10
l 119 120
v -100.8932 -43.82412 10
v -101.27063 -42.898078 10
l 121 122
v -102.7833 -39.186588 10
v -103.11819 -38.244331 10
l 123 124
v -104.4604 -34.467838 10
v -104.75204 -33.51131 10
l 125 126
v -105.9209 -29.677641 10
v -106.16871 -28.708832 10
l 127 128
v -107.1619 -24.825939 10
v -107.36536 -23.846855 10
l 129 130
v -108.1808 -19.922779 10
v -108.33949 -18.93545 10
l 131 132
v -108.9755 -14.97833 10
v -109.08908 -13.984801 10
l 133 134
v -109.5443 -10.00283 10
v -109.61253 -9.0051602 10
l 135 136
v -109.886 -5.0066061 10
v -109.90877 -4.0068652 10
l 137 138
v -110 2.796278e-13 10
v -109.97724 0.99974087 10
l 139 140
v -109.886 5.0066061 10
v -109.81777 6.0042755 10
l 141 142
v -109.5443 10.00283 10
v -109.43072 10.996358 10
l 143 144
v -108.9755 14.97833 10
v -108.81681 15.965658 10
l 145 146
v -108.1808 19.922779 10
v -107.97734 20.901863 10
l 147 148
v -107.1619 24.825939 10
v -106.91409 25.794748 10
l 149 150
v -105.9209 29.677641 10
v -105.62926 30.63417 10
l 151 152
v -104.4604 34.467838 10
v -104.12551 35.410096 10
l 153 154
v -102.7833 39.186588 10
v -102.40588 40.112629 10
l 155 156
v -100.8932 43.82412 10
v -100.47403 44.732028 10
l 157 158
v -98.794052 48.370819 10
v -98.333987 49.258704 10
l 159 160
v -96.490089 52.817261 10
v -95.990088 53.683285 10
l 161 162
v -93.98613 57.154228 10
v -93.447232 57.996599 10
l 163 164
v -91.287376 61.372749 10
v -90.710696 62.189719 10
l 165 166
v -88.399422 65.46405 10
v -87.786155 66.253926 10
l 167 168
v -85.328239 69.41967 10
v -84.679658 70.180815 10
l 169 170
v -82.080208 73.231407 10
v -81.397656 73.962244 10
l 171 172
v -78.662048 76.891373 10
v -77.946939 77.590385 10
l 173 174
v -75.080849 80.39196 10
v -74.334665 81.0577 10
l 175 176
v -71.344032 83.725922 10
v -70.568321 84.35701 10
l 177 178
v -67.459343 86.886353 10
v -66.655712 87.48148 10
l 179 180
v -63.434841 89.866692 10
v -62.604955 90.424624 10
l 181 182
v -59.278851 92.660767 10
v -58.424431 93.18035 10
l 183 184
v -55 95.262787 10
v -54.122818 95.742945 10
l 185 186
v -50.607151 97.667374 10
v -49.709024 98.107109 10
l 187 188
v -46.109421 99.869522 10
v -45.192211 100.26793 10
l 189 190
v -41.516109 101.8647 10
v -40.581714 102.22094 10
l 191 192
v -36.836761 103.6487 10
v -35.887122 103.96204 10
l 193 194
v -32.081051 105.2179 10
v -31.118133 105.4877 10
l 195 196
v -27.25886 106.569 10
v -26.284659 106.79468 10
l 197 198
v -22.380159 107.6992 10
v -21.396701 107.88034 10
l 199 200
v -17.45508 108.6063 10
v -16.464394 108.74247 10
l 201 202
v -12.49382 109.2882 10
v -11.497963 109.37914 10
l 203 204
v -7.5066652 109.7436 10
v -6.5077012 109.78911 10
l 205 206
v -2.503952 109.9715 10
v -1.503952 109.9715 10
l 207 208
v 2.503952 109.9715 10
v 3.502916 109.92599 10
l 209 210
v 7.5066652 109.7436 10
v 8.502522 109.65266 10
l 211 212
v 12.49382 109.2882 10
v 13.484506 109.15204 10
l 213 214
v 17.45508 108.6063 10
v 18.438539 108.42517 10
l 215 216
v 22.380159 107.6992 10
v 23.35436 107.47352 10
l 217 218
v 27.25886 106.569 10
v 28.221778 106.29921 10
l 219 220
v 32.081051 105.2179 10
v 33.03069 104.90456 10
l 221 222
v 36.836761 103.6487 10
v 37.771157 103.29246 10
l 223 224
v 41.516109 101.8647 10
v 42.433319 101.4663 10
l 225 226
v 46.109421 99.869522 10
v 47.007548 99.429787 10
l 227 228
v 50.607151 97.667374 10
v 51.484333 97.187216 10
l 229 230
v 55 95.262787 10
v 55.85442 94.743204 10
l 231 232
v 59.278851 92.660767 10
v 60.108737 92.102834 10
l 233 234
v 63.434841 89.866692 10
v 64.238472 89.271564 10
l 235 236
v 67.459343 86.886353 10
v 68.235054 86.255264 10
l 237 238
v 71.344032 83.725922 10
v 72.090216 83.060182 10
l 239 240
v 75.080849 80.39196 10
v 75.795958 79.692948 10
l 241 242
v 78.662048 76.891373 10
v 79.3446 76.160536 10
l 243 244
v 82.080208 73.231407 10
v 82.72879 72.470262 10
l 245 246
v 85.328239 69.41967 10
v 85.941507 68.629795 10
l 247 248
v 88.399422 65.46405 10
v 88.976102 64.64708 10
l 249 250
v 91.287376 61.372749 10
v 91.826274 60.530378 10
l 251 252
v 93.98613 57.154228 10
v 94.486131 56.288204 10
l 253 254
v 96.490089 52.817261 10
v 96.950155 51.929376 10
l 255 256
v 98.794052 48.370819 10
v 99.213221 47.462911 10
l 257 258
v 100.8932 43.82412 10
v 101.27063 42.898078 10
l 259 260
v 102.7833 39.186588 10
v 103.11819 38.244331 10
l 261 262
v 104.4604 34.467838 10
v 104.75204 33.51131 10
l 263 264
v 105.9209 29.677641 10
v 106.16871 28.708832 10
l 265 266
v 107.1619 24.825939 10
v 107.36536 23.846855 10
l 267 268
v 108.1808 19.922779 10
v 108.33949 18.93545 10
l 269 270
v 108.9755 14.97833 10
v 109.08908 13.984801 10
l 271 272
v 109.5443 10.00283 10
v 109.61253 9.0051602 10
l 273 274
v 109.886 5.0066061 10
v 109.90877 4.0068652 10
l 275 276
v 38.030521 113.8142 300
v 38.972176 113.47762 300
l 277 278
v 42.732101 112.1337 300
v 43.658942 111.75824 300
l 279 280
v -58.552841 104.7452 300
v -57.670007 105.21489 300
l 281 282
v -116.8711 -27.22382 300
v -117.07765 -26.245384 300
l 283 284
v -58.552841 -104.7452 300
v -59.415385 -104.23922 300
l 285 286
v -117.9024 -22.3386 300
v -118.06807 -21.35242 300
l 287 288
v 119.8961 4.9918189 300
v 119.91691 3.9920354 300
l 289 290
v 84.410316 -85.293007 300
v 83.685063 -85.981488 300
l 291 292
v 47.359699 110.2591 300
v 48.27011 109.8454 300
l 293 294
v 80.7892 -88.730522 300
v 80.035933 -89.388237 300
l 295 296
v -118.7296 -17.4147 300
v -118.85412 -16.422482 300
l 297 298
v 77.028214 -92.014427 300
v 76.248238 -92.640238 300
l 299 300
v 8.730484 119.682 -6.2642711e-30
v 7.7318366 119.73399 -5.5477244e-30
l 301 302
v 13.70152 119.2152 -9.8310719e-30
v 12.7059 119.30869 -9.116698e-30
l 303 304
v -112.5722 41.56332 8.0772431e-29
v -112.89896 40.618215 8.1006894e-29
l 305 306
v -110.7457 46.210178 7.946195e-29
v -111.11151 45.279492 7.9724417e-29
l 307 308
v -110.7457 -46.210178 7.946195e-29
v -110.3415 -47.124852 7.9171927e-29
l 309 310
v 3.7443371 119.9416 -2.6866251e-30
v 2.7443911 119.95199 -1.9691469e-30
l 311 312
v -108.7276 -50.777039 7.8013897e-29
v -108.28569 -51.6741 7.7696828e-29
l 313 314
v 119.8961 -4.9918189 -8.6027511e-29
v 119.91691 -3.9920354 -6.8797542e-29
l 315 316
v 119.0662 -14.94091 -8.543205e-29
v 119.17005 -13.946317 -8.5506555e-29
l 317 318
v 117.4122 -24.78657 -8.4245249e-29
v 117.59836 -23.804051 -8.4378819e-29
l 319 320
v 116.2795 -29.64929 -8.3432513e-29
v 116.50636 -28.675363 -8.3595291e-29
l 321 322
v 114.9455 -34.460678 -8.2475332e-29
v 115.21268 -33.497031 -8.266704e-29
l 323 324
v 113.4125 -39.21241 -8.1375367e-29
v 113.71954 -38.260712 -8.1595673e-29
l 325 326
v 111.6831 -43.896252 -8.0134532e-29
v 112.02947 -42.958154 -8.0383052e-29
l 327 328
v 109.7604 -48.504108 -7.8754971e-29
v 110.14548 -47.581228 -7.9031275e-29
l 329 330
v 107.6477 -53.027988 -7.7239071e-29
v 108.07084 -52.121925 -7.7542683e-29
l 331 332
v 105.3487 -57.460072 -7.5589452e-29
v 105.80916 -56.572389 -7.5919847e-29
l 333 334
v 102.8672 -61.792679 -7.3808978e-29
v 103.36421 -60.92493 -7.4165577e-29
l 335 336
v 100.2077 -66.018311 -7.1900719e-29
v 100.74036 -65.17198 -7.2282914e-29
l 337 338
v 97.374687 -70.129662 -6.9868002e-29
v 97.942094 -69.306224 -7.0275122e-29
l 339 340
v 94.373123 -74.119591 -6.7714319e-29
v 94.974291 -73.320468 -6.8145669e-29
l 341 342
v 91.208168 -77.981216 -6.5443412e-29
v 91.842059 -77.207794 -6.5898239e-29
l 343 344
v 87.885323 -81.70784 -6.3059207e-29
v 88.550837 -80.961455 -6.3536727e-29
l 345 346
v 84.410316 -85.293007 -6.0565838e-29
v 85.106305 -84.574954 -6.1065221e-29
l 347 348
v 80.7892 -88.730522 -5.796762e-29
v 81.514454 -88.042041 -5.8488004e-29
l 349 350
v 77.028214 -92.014427 -5.526905e-29
v 77.78148 -91.356712 -5.5809531e-29
l 351 352
v 73.133873 -95.139038 -5.2474802e-29
v 73.913848 -94.513228 -5.3034446e-29
l 353 354
v 69.11293 -98.098953 -4.9589699e-29
v 69.918262 -97.506129 -5.016754e-29
l 355 356
v 64.972343 -100.889 -4.6618759e-29
v 65.801642 -100.33019 -4.7213795e-29
l 357 358
v 60.719269 -103.5044 -4.3567099e-29
v 61.571095 -102.98058 -4.41783e-29
l 359 360
v -1.248292 119.9935 8.9567102e-31
v -2.247805 119.9623 1.6128386e-30
l 361 362
v 47.359699 -110.2591 -3.3981391e-29
v 48.27011 -109.8454 -3.4634626e-29
l 363 364
v 42.732101 -112.1337 -3.0661009e-29
v 43.658942 -111.75824 -3.1326034e-29
l 365 366
v 38.030521 -113.8142 -2.7287541e-29
v 38.972176 -113.47762 -2.7963196e-29
l 367 368
v 33.2631 -115.2977 -2.386684e-29
v 34.217939 -115.00058 -2.4551953e-29
l 369 370
v 28.438101 -116.5816 -2.040482e-29
v 29.404474 -116.32445 -2.1098209e-29
l 371 372
v 23.56386 -117.6637 -1.690747e-29
v 24.540092 -117.44697 -1.7607933e-29
l 373 374
v 18.64883 -118.5421 -1.338085e-29
v 19.633233 -118.36617 -1.4087176e-29
l 375 376
v 13.70152 -119.2152 -9.8310719e-30
v 14.692391 -119.08039 -1.0542038e-29
l 377 378
v 8.730484 -119.682 -6.2642711e-30
v 9.726104 -119.58851 -6.978645e-30
l 379 380
v 3.7443371 -119.9416 -2.6866251e-30
v 4.7429845 -119.8896 -3.4031717e-30
l 381 382
v -1.248292 -119.9935 8.9567102e-31
v -0.248346 -119.9831 1.7819282e-31
l 383 384
v -11.21843 -119.4745 8.0494129e-30
v -10.221079 -119.54725 7.333797e-30
l 385 386
v -21.11091 -118.1284 1.5147441e-29
v -20.123062 -118.28382 1.443864e-29
l 387 388
v -26.006611 -117.148 1.866018e-29
v -25.026079 -117.34436 1.7956634e-29
l 389 390
v -30.857281 -115.9648 2.214062e-29
v -29.885766 -116.20178 2.1443541e-29
l 391 392
v -35.65453 -114.5808 2.5582729e-29
v -34.693715 -114.858 2.4893328e-29
l 393 394
v -40.390049 -112.9984 2.8980551e-29
v -39.4416 -113.31533 2.8300022e-29
l 395 396
v -45.055649 -111.2204 3.23282e-29
v -44.121203 -111.5765 3.1657719e-29
l 397 398
v -49.643261 -109.2499 3.5619879e-29
v -48.724434 -109.64456 3.4960607e-29
l 399 400
v -54.14492 -107.0903 3.8849901e-29
v -53.243304 -107.52284 3.8202975e-29
l 401 402
v -58.552841 -104.7452 4.201266e-29
v -57.670007 -105.21489 4.1379211e-29
l 403 404
v -62.859409 -102.2189 4.5102691e-29
v -61.996865 -102.72488 4.4483802e-29
l 405 406
v -67.057152 -99.515518 4.8114641e-29
v -66.216414 -100.05696 4.7511398e-29
l 407 408
v -71.138802 -96.639908 5.10433e-29
v -70.32131 -97.215848 5.0456735e-29
l 409 410
v -75.09729 -93.596992 5.3883578e-29
v -74.304465 -94.206442 5.3314713e-29
l 411 412
v -78.925781 -90.392036 5.6630592e-29
v -78.158995 -91.033939 5.6080408e-29
l 413 414
v -82.617638 -87.030602 5.9279558e-29
v -81.878216 -87.703845 5.8749011e-29
l 415 416
v -86.166473 -83.518501 6.1825902e-29
v -85.455697 -84.22192 6.1315909e-29
l 417 418
v -89.566132 -79.861809 6.4265219e-29
v -88.885233 -80.594187 6.3776662e-29
l 419 420
v -92.81073 -76.066872 6.6593271e-29
v -92.160886 -76.82694 6.6126998e-29
l 421 422
v -95.894661 -72.140244 6.880605e-29
v -95.276998 -72.926686 6.8362865e-29
l 423 424
v -104.1305 -59.639278 7.4715381e-29
v -103.61555 -60.4965 7.4345907e-29
l 425 426
v -106.5212 -55.255989 7.6430801e-29
v -106.04238 -56.1339 7.6087226e-29
l 427 428
v -119.3513 12.46065 8.5636577e-29
v -119.43442 11.464111 8.5696223e-29
l 429 430
v -112.5722 -41.56332 8.0772431e-29
v -112.20638 -42.494007 8.0509963e-29
l 431 432
v -114.2037 -36.844521 8.1943077e-29
v -113.87693 -37.789626 8.1708614e-29
l 433 434
v -115.6375 -32.06192 8.2971879e-29
v -115.35033 -33.0198 8.2765826e-29
l 435 436
v -118.7296 17.4147 8.5190538e-29
v -118.85412 16.422482 8.5279873e-29
l 437 438
v -118.7296 -17.4147 8.5190538e-29
v -118.56392 -18.40088 8.5071663e-29
l 439 440
v -119.3513 -12.46065 8.5636577e-29
v -119.22679 -13.452868 8.5547243e-29
l 441 442
v -119.7663 -7.4850278 8.593438e-29
v -119.68318 -8.4815676 8.5874735e-29
l 443 444
v -119.974 -2.4964499 8.6083399e-29
v -119.9324 -3.4955843 8.6053553e-29
l 445 446
v -119.7663 7.4850278 8.593438e-29
v -119.8079 6.4858934 8.5964226e-29
l 447 448
v 80.7892 88.730522 -5.796762e-29
v 80.035933 89.388237 -5.7427139e-29
l 449 450
v -117.9024 22.3386 8.4597008e-29
v -118.06807 21.35242 8.4715883e-29
l 451 452
v -116.8711 27.22382 8.385703e-29
v -117.07765 26.245384 8.4005237e-29
l 453 454
v -115.6375 32.06192 8.2971879e-29
v -115.88457 31.092923 8.3149161e-29
l 455 456
v -114.2037 36.844521 8.1943077e-29
v -114.49086 35.88664 8.214913e-29
l 457 458
v -108.7276 50.777039 7.8013897e-29
v -109.13179 49.862365 7.830392e-29
l 459 460
v -106.5212 55.255989 7.6430801e-29
v -106.96311 54.358928 7.6747869e-29
l 461 462
v -104.1305 59.639278 7.4715381e-29
v -104.60932 58.761367 7.5058955e-29
l 463 464
v -101.5594 63.919331 7.2870623e-29
v -102.07435 63.062109 7.3240097e-29
l 465 466
v -98.812576 68.088722 7.0899698e-29
v -99.362725 67.253655 7.1294445e-29
l 467 468
v -95.894661 72.140244 6.880605e-29
v -96.479074 71.328787 6.9225375e-29
l 469 470
v -92.81073 76.066872 6.6593271e-29
v -93.428393 75.280429 6.7036456e-29
l 471 472
v -89.566132 79.861809 6.4265219e-29
v -90.215975 79.101741 6.4731492e-29
l 473 474
v -86.166473 83.518501 6.1825902e-29
v -86.847372 82.786123 6.2314459e-29
l 475 476
v -82.617638 87.030602 5.9279558e-29
v -83.328414 86.327183 5.9789551e-29
l 477 478
v -40.390049 112.9984 2.8980551e-29
v -41.324495 112.64229 2.9651032e-29
l 479 480
v -71.138802 96.639908 5.10433e-29
v -71.931626 96.030458 5.1612165e-29
l 481 482
v -67.057152 99.515518 4.8114641e-29
v -67.874643 98.939578 4.8701207e-29
l 483 484
v -62.859409 102.2189 4.5102691e-29
v -63.700147 101.67746 4.5705935e-29
l 485 486
v -58.552841 104.7452 4.201266e-29
v -59.415385 104.23922 4.2631549e-29
l 487 488
v -49.643261 109.2499 3.5619879e-29
v -50.544878 108.81736 3.6266805e-29
l 489 490
v -45.055649 111.2204 3.23282e-29
v -45.974476 110.82574 3.2987472e-29
l 491 492
v -30.857281 115.9648 2.214062e-29
v -31.818095 115.68761 2.2830021e-29
l 493 494
v -26.006611 117.148 1.866018e-29
v -26.978126 116.91102 1.9357259e-29
l 495 496
v -21.11091 118.1284 1.5147441e-29
v -22.091443 117.93204 1.5850987e-29
l 497 498
v -16.17868 118.9044 1.160847e-29
v -17.166529 118.74898 1.231727e-29
l 499 500
v -11.21843 119.4745 8.0494129e-30
v -12.211889 119.36032 8.7622358e-30
l 501 502
v -6.2387609 119.8377 4.4764172e-30
v -7.2361117 119.76496 5.192033e-30
l 503 504
v -78.925781 90.392036 5.6630592e-29
v -79.665203 89.718793 5.7161138e-29
l 505 506
v 18.64883 118.5421 -1.338085e-29
v 17.657959 118.67691 -1.2669883e-29
l 507 508
v 23.56386 117.6637 -1.690747e-29
v 22.579457 117.83963 -1.6201143e-29
l 509 510
v 28.438101 116.5816 -2.040482e-29
v 27.461869 116.79832 -1.9704357e-29
l 511 512
v 33.2631 115.2977 -2.386684e-29
v 32.296727 115.55484 -2.3173451e-29
l 513 514
v 38.030521 113.8142 -2.7287541e-29
v 37.075682 114.11132 -2.6602429e-29
l 515 516
v 42.732101 112.1337 -3.0661009e-29
v 41.790446 112.47028 -2.9985355e-29
l 517 518
v 47.359699 110.2591 -3.3981391e-29
v 46.432858 110.63456 -3.3316366e-29
l 519 520
v 51.905319 108.1935 -3.724295e-29
v 50.994909 108.6072 -3.6589715e-29
l 521 522
v 56.36108 105.9407 -4.044003e-29
v 55.468658 106.3919 -3.9799703e-29
l 523 524
v 60.719269 103.5044 -4.3567099e-29
v 59.846397 103.99235 -4.29408e-29
l 525 526
v 64.972343 100.889 -4.6618759e-29
v 64.120518 101.41283 -4.6007558e-29
l 527 528
v 69.11293 98.098953 -4.9589699e-29
v 68.283631 98.657759 -4.8994663e-29
l 529 530
v 73.133873 95.139038 -5.2474802e-29
v 72.328541 95.731863 -5.1896961e-29
l 531 532
v 77.028214 92.014427 -5.526905e-29
v 76.248238 92.640238 -5.4709406e-29
l 533 534
v -116.8711 -27.22382 8.385703e-29
v -116.62403 -28.192817 8.3679748e-29
l 535 536
v 87.885323 81.70784 -6.3059207e-29
v 87.189334 82.425892 -6.2559825e-29
l 537 538
v 91.208168 77.981216 -6.5443412e-29
v 90.542654 78.727601 -6.4965893e-29
l 539 540
v 94.373123 74.119591 -6.7714319e-29
v 93.739233 74.893013 -6.7259492e-29
l 541 542
v 97.374687 70.129662 -6.9868002e-29
v 96.773519 70.928784 -6.9436652e-29
l 543 544
v 100.2077 66.018311 -7.1900719e-29
v 99.640295 66.841748 -7.1493598e-29
l 545 546
v 102.8672 61.792679 -7.3808978e-29
v 102.33454 62.639009 -7.3426782e-29
l 547 548
v 105.3487 57.460072 -7.5589452e-29
v 104.8517 58.327821 -7.5232853e-29
l 549 550
v 107.6477 53.027988 -7.7239071e-29
v 107.18724 53.915671 -7.6908676e-29
l 551 552
v 109.7604 48.504108 -7.8754971e-29
v 109.33726 49.410172 -7.8451359e-29
l 553 554
v 111.6831 43.896252 -8.0134532e-29
v 111.29801 44.819132 -7.9858228e-29
l 555 556
v 113.4125 39.21241 -8.1375367e-29
v 113.06613 40.150508 -8.1126848e-29
l 557 558
v 114.9455 34.460678 -8.2475332e-29
v 114.63847 35.412376 -8.2255026e-29
l 559 560
v 116.2795 29.64929 -8.3432513e-29
v 116.01232 30.612937 -8.3240804e-29
l 561 562
v 117.4122 24.78657 -8.4245249e-29
v 117.18534 25.760497 -8.4082471e-29
l 563 564
v 118.3417 19.880951 -8.4912151e-29
v 118.15553 20.86347 -8.4778581e-29
l 565 566
v 119.0662 14.94091 -8.543205e-29
v 118.92109 15.930326 -8.5327922e-29
l 567 568
v 119.5847 9.9749956 -8.5804049e-29
v 119.48085 10.969589 -8.5729543e-29
l 569 570
v 119.8961 4.9918189 -8.6027511e-29
v 119.83373 5.9898721 -8.5982755e-29
l 571 572
v 120 0 0
v 119.97919 0.99978347 -1.7229969e-29
l 573 574
v -16.17868 -118.9044 1.160847e-29
v -15.185221 -119.01859 1.0895647e-29
l 575 576
v -6.2387609 -119.8377 4.4764172e-30
v -5.2392479 -119.8689 3.7592496e-30
l 577 578
v -119.974 2.4964499 8.6083399e-29
v -119.974 1.4964499 8.6083399e-29
l 579 580
v 119.5847 -9.9749956 -8.5804049e-29
v 119.64707 -8.9769424 -8.5848805e-29
l 581 582
v 118.3417 -19.880951 -8.4912151e-29
v 118.4868 -18.891535 -8.5016279e-29
l 583 584
v 51.905319 -108.1935 -3.724295e-29
v 52.797741 -107.74229 -3.7883277e-29
l 585 586
v -101.5594 -63.919331 7.2870623e-29
v -101.00925 -64.754398 7.2475876e-29
l 587 588
v -117.9024 -22.3386 8.4597008e-29
v -117.69584 -23.317036 8.4448802e-29
l 589 590
v -75.09729 93.596992 5.3883578e-29
v -75.864077 92.95509 5.4433761e-29
l 591 592
v -35.65453 114.5808 2.5582729e-29
v -36.602978 114.26387 2.6263259e-29
l 593 594
v 84.410316 85.293007 -6.0565838e-29
v 83.685063 85.981488 -6.0045455e-29
l 595 596
v -98.812576 -68.088722 7.0899698e-29
v -98.228163 -68.900179 7.0480373e-29
l 597 598
v 56.36108 -105.9407 -4.044003e-29
v 57.233952 -105.45275 -4.106633e-29
l 599 600
v -54.14492 107.0903 3.8849901e-29
v -55.027754 106.62062 3.948335e-29
l 601 602
v 119.8961 -4.9918189 300
v 119.91691 -3.9920354 300
l 603 604
v 119.5847 -9.9749956 300
v 119.64707 -8.9769424 300
l 605 606
v 119.0662 -14.94091 300
v 119.17005 -13.946317 300
l 607 608
v 118.3417 -19.880951 300
v 118.4868 -18.891535 300
l 609 610
v 117.4122 -24.78657 300
v 117.59836 -23.804051 300
l 611 612
v 116.2795 -29.64929 300
v 116.50636 -28.675363 300
l 613 614
v 114.9455 -34.460678 300
v 115.21268 -33.497031 300
l 615 616
v 113.4125 -39.21241 300
v 113.71954 -38.260712 300
l 617 618
v 111.6831 -43.896252 300
v 112.02947 -42.958154 300
l 619 620
v 109.7604 -48.504108 300
v 110.14548 -47.581228 300
l 621 622
v 107.6477 -53.027988 300
v 108.07084 -52.121925 300
l 623 624
v 105.3487 -57.460072 300
v 105.80916 -56.572389 300
l 625 626
v 102.8672 -61.792679 300
v 103.36421 -60.92493 300
l 627 628
v 100.2077 -66.018311 300
v 100.74036 -65.17198 300
l 629 630
v 97.374687 -70.129662 300
v 97.942094 -69.306224 300
l 631 632
v 94.373123 -74.119591 300
v 94.974291 -73.320468 300
l 633 634
v 91.208168 -77.981216 300
v 91.842059 -77.207794 300
l 635 636
v 87.885323 -81.70784 300
v 88.550837 -80.961455 300
l 637 638
v 84.410316 -85.293007 300
v 85.106305 -84.574954 300
l 639 640
v 69.11293 -98.098953 300
v 69.918262 -97.506129 300
l 641 642
v 64.972343 -100.889 300
v 65.801642 -100.33019 300
l 643 644
v 60.719269 -103.5044 300
v 61.571095 -102.98058 300
l 645 646
v 56.36108 -105.9407 300
v 57.233952 -105.45275 300
l 647 648
v 51.905319 -108.1935 300
v 52.797741 -107.74229 300
l 649 650
v 47.359699 -110.2591 300
v 48.27011 -109.8454 300
l 651 652
v 42.732101 -112.1337 300
v 43.658942 -111.75824 300
l 653 654
v 38.030521 -113.8142 300
v 38.972176 -113.47762 300
l 655 656
v 33.2631 -115.2977 300
v 34.217939 -115.00058 300
l 657 658
v 28.438101 -116.5816 300
v 29.404474 -116.32445 300
l 659 660
v 23.56386 -117.6637 300
v 24.540092 -117.44697 300
l 661 662
v 18.64883 -118.5421 300
v 19.633233 -118.36617 300
l 663 664
v 13.70152 -119.2152 300
v 14.692391 -119.08039 300
l 665 666
v 8.730484 -119.682 300
v 9.726104 -119.58851 300
l 667 668
v 3.7443371 -119.9416 300
v 4.7429845 -119.8896 300
l 669 670
v -1.248292 -119.9935 300
v -0.248346 -119.9831 300
l 671 672
v -6.2387609 -119.8377 300
v -5.2392479 -119.8689 300
l 673 674
v -11.21843 -119.4745 300
v -10.221079 -119.54725 300
l 675 676
v -16.17868 -118.9044 300
v -15.185221 -119.01859 300
l 677 678
v -21.11091 -118.1284 300
v -20.123062 -118.28382 300
l 679 680
v -26.006611 -117.148 300
v -25.026079 -117.34436 300
l 681 682
v -30.857281 -115.9648 300
v -29.885766 -116.20178 300
l 683 684
v -35.65453 -114.5808 300
v -34.693715 -114.858 300
l 685 686
v -40.390049 -112.9984 300
v -39.4416 -113.31533 300
l 687 688
v -45.055649 -111.2204 300
v -44.121203 -111.5765 300
l 689 690
v -49.643261 -109.2499 300
v -48.724434 -109.64456 300
l 691 692
v -54.14492 -107.0903 300
v -53.243304 -107.52284 300
l 693 694
v -58.552841 -104.7452 300
v -57.670007 -105.21489 300
l 695 696
v -67.057152 -99.515518 300
v -66.216414 -100.05696 300
l 697 698
v -71.138802 -96.639908 300
v -70.32131 -97.215848 300
l 699 700
v -75.09729 -93.596992 300
v -74.304465 -94.206442 300
l 701 702
v -78.925781 -90.392036 300
v -78.158995 -91.033939 300
l 703 704
v -82.617638 -87.030602 300
v -81.878216 -87.703845 300
l 705 706
v -86.166473 -83.518501 300
v -85.455697 -84.22192 300
l 707 708
v -89.566132 -79.861809 300
v -88.885233 -80.594187 300
l 709 710
v -92.81073 -76.066872 300
v -92.160886 -76.82694 300
l 711 712
v -95.894661 -72.140244 300
v -95.276998 -72.926686 300
l 713 714
v -98.812576 -68.088722 300
v -98.228163 -68.900179 300
l 715 716
v -101.5594 -63.919331 300
v -101.00925 -64.754398 300
l 717 718
v -104.1305 -59.639278 300
v -103.61555 -60.4965 300
l 719 720
v -106.5212 -55.255989 300
v -106.04238 -56.1339 300
l 721 722
v -108.7276 -50.777039 300
v -108.28569 -51.6741 300
l 723 724
v -110.7457 -46.210178 300
v -110.3415 -47.124852 300
l 725 726
v -112.5722 -41.56332 300
v -112.20638 -42.494007 300
l 727 728
v -114.2037 -36.844521 300
v -113.87693 -37.789626 300
l 729 730
v -115.6375 -32.06192 300
v -115.35033 -33.0198 300
l 731 732
v -116.8711 -27.22382 300
v -116.62403 -28.192817 300
l 733 734
v -119.7663 -7.4850278 300
v -119.68318 -8.4815676 300
l 735 736
v -119.974 -2.4964499 300
v -119.9324 -3.4955843 300
l 737 738
v -119.974 2.4964499 300
v -119.974 1.4964499 300
l 739 740
v -119.7663 7.4850278 300
v -119.8079 6.4858934 300
l 741 742
v -119.3513 12.46065 300
v -119.43442 11.464111 300
l 743 744
v -118.7296 17.4147 300
v -118.85412 16.422482 300
l 745 746
v -117.9024 22.3386 300
v -118.06807 21.35242 300
l 747 748
v -116.8711 27.22382 300
v -117.07765 26.245384 300
l 749 750
v -115.6375 32.06192 300
v -115.88457 31.092923 300
l 751 752
v -114.2037 36.844521 300
v -114.49086 35.88664 300
l 753 754
v -112.5722 41.56332 300
v -112.89896 40.618215 300
l 755 756
v -110.7457 46.210178 300
v -111.11151 45.279492 300
l 757 758
v -108.7276 50.777039 300
v -109.13179 49.862365 300
l 759 760
v -106.5212 55.255989 300
v -106.96311 54.358928 300
l 761 762
v -104.1305 59.639278 300
v -104.60932 58.761367 300
l 763 764
v -101.5594 63.919331 300
v -102.07435 63.062109 300
l 765 766
v -98.812576 68.088722 300
v -99.362725 67.253655 300
l 767 768
v -95.894661 72.140244 300
v -96.479074 71.328787 300
l 769 770
v -92.81073 76.066872 300
v -93.428393 75.280429 300
l 771 772
v -89.566132 79.861809 300
v -90.215975 79.101741 300
l 773 774
v -86.166473 83.518501 300
v -86.847372 82.786123 300
l 775 776
v -82.617638 87.030602 300
v -83.328414 86.327183 300
l 777 778
v -78.925781 90.392036 300
v -79.665203 89.718793 300
l 779 780
v -75.09729 93.596992 300
v -75.864077 92.95509 300
l 781 782
v -71.138802 96.639908 300
v -71.931626 96.030458 300
l 783 784
v -67.057152 99.515518 300
v -67.874643 98.939578 300
l 785 786
v -62.859409 102.2189 300
v -63.700147 101.67746 300
l 787 788
v -58.552841 104.7452 300
v -59.415385 104.23922 300
l 789 790
v -49.643261 109.2499 300
v -50.544878 108.81736 300
l 791 792
v -45.055649 111.2204 300
v -45.974476 110.82574 300
l 793 794
v -40.390049 112.9984 300
v -41.324495 112.64229 300
l 795 796
v -35.65453 114.5808 300
v -36.602978 114.26387 300
l 797 798
v -30.857281 115.9648 300
v -31.818095 115.68761 300
l 799 800
v -26.006611 117.148 300
v -26.978126 116.91102 300
l 801 802
v -21.11091 118.1284 300
v -22.091443 117.93204 300
l 803 804
v -16.17868 118.9044 300
v -17.166529 118.74898 300
l 805 806
v -11.21843 119.4745 300
v -12.211889 119.36032 300
l 807 808
v -6.2387609 119.8377 300
v -7.2361117 119.76496 300
l 809 810
v -1.248292 119.9935 300
v -2.247805 119.9623 300
l 811 812
v 3.7443371 119.9416 300
v 2.7443911 119.95199 300
l 813 814
v 8.730484 119.682 300
v 7.7318366 119.73399 300
l 815 816
v 13.70152 119.2152 300
v 12.7059 119.30869 300
l 817 818
v 18.64883 118.5421 300
v 17.657959 118.67691 300
l 819 820
v 23.56386 117.6637 300
v 22.579457 117.83963 300
l 821 822
v 28.438101 116.5816 300
v 27.461869 116.79832 300
l 823 824
v 33.2631 115.2977 300
v 32.296727 115.55484 300
l 825 826
v 38.030521 113.8142 300
v 37.075682 114.11132 300
l 827 828
v 56.36108 105.9407 300
v 55.468658 106.3919 300
l 829 830
v 60.719269 103.5044 300
v 59.846397 103.99235 300
l 831 832
v 64.972343 100.889 300
v 64.120518 101.41283 300
l 833 834
v 69.11293 98.098953 300
v 68.283631 98.657759 300
l 835 836
v 73.133873 95.139038 300
v 72.328541 95.731863 300
l 837 838
v 77.028214 92.014427 300
v 76.248238 92.640238 300
l 839 840
v 80.7892 88.730522 300
v 80.035933 89.388237 300
l 841 842
v 84.410316 85.293007 300
v 83.685063 85.981488 300
l 843 844
v 87.885323 81.70784 300
v 87.189334 82.425892 300
l 845 846
v 91.208168 77.981216 300
v 90.542654 78.727601 300
l 847 848
v 94.373123 74.119591 300
v 93.739233 74.893013 300
l 849 850
v 97.374687 70.129662 300
v 96.773519 70.928784 300
l 851 852
v 100.2077 66.018311 300
v 99.640295 66.841748 300
l 853 854
v 102.8672 61.792679 300
v 102.33454 62.639009 300
l 855 856
v 105.3487 57.460072 300
v 104.8517 58.327821 300
l 857 858
v 107.6477 53.027988 300
v 107.18724 53.915671 300
l 859 860
v 109.7604 48.504108 300
v 109.33726 49.410172 300
l 861 862
v 111.6831 43.896252 300
v 111.29801 44.819132 300
l 863 864
v 113.4125 39.21241 300
v 113.06613 40.150508 300
l 865 866
v 114.9455 34.460678 300
v 114.63847 35.412376 300
l 867 868
v 116.2795 29.64929 300
v 116.01232 30.612937 300
l 869 870
v 117.4122 24.78657 300
v 117.18534 25.760497 300
l 871 872
v 118.3417 19.880951 300
v 118.15553 20.86347 300
l 873 874
v 119.0662 14.94091 300
v 118.92109 15.930326 300
l 875 876
v 119.5847 9.9749956 300
v 119.48085 10.969589 300
l 877 878
v 119.8961 4.9918189 300
v 119.83373 5.9898721 300
l 879 880
v 109.886 -5.0066061 250
v 109.90877 -4.0068652 250
l 881 882
v 109.5443 -10.00283 250
v 109.61253 -9.0051602 250
l 883 884
v 108.9755 -14.97833 250
v 109.08908 -13.984801 250
l 885 886
v 108.1808 -19.922779 250
v 108.33949 -18.93545 250
l 887 888
v 107.1619 -24.825939 250
v 107.36536 -23.846855 250
l 889 890
v 105.9209 -29.677641 250
v 106.16871 -28.708832 250
l 891 892
v 104.4604 -34.467838 250
v 104.75204 -33.51131 250
l 893 894
v 102.7833 -39.186588 250
v 103.11819 -38.244331 250
l 895 896
v 100.8932 -43.82412 250
v 101.27063 -42.898078 250
l 897 898
v 98.794052 -48.370819 250
v 99.213221 -47.462911 250
l 899 900
v 96.490089 -52.817261 250
v 96.950155 -51.929376 250
l 901 902
v 93.98613 -57.154228 250
v 94.486131 -56.288204 250
l 903 904
v 91.287376 -61.372749 250
v 91.826274 -60.530378 250
l 905 906
v 88.399422 -65.46405 250
v 88.976102 -64.64708 250
l 907 908
v 85.328239 -69.41967 250
v 85.941507 -68.629795 250
l 909 910
v 82.080208 -73.231407 250
v 82.72879 -72.470262 250
l 911 912
v 78.662048 -76.891373 250
v 79.3446 -76.160536 250
l 913 914
v 75.080849 -80.39196 250
v 75.795958 -79.692948 250
l 915 916
v 71.344032 -83.725922 250
v 72.090216 -83.060182 250
l 917 918
v 67.459343 -86.886353 250
v 68.235054 -86.255264 250
l 919 920
v 63.434841 -89.866692 250
v 64.238472 -89.271564 250
l 921 922
v 59.278851 -92.660767 250
v 60.108737 -92.102834 250
l 923 924
v 55 -95.262787 250
v 55.85442 -94.743204 250
l 925 926
v 50.607151 -97.667374 250
v 51.484333 -97.187216 250
l 927 928
v 46.109421 -99.869522 250
v 47.007548 -99.429787 250
l 929 930
v 41.516109 -101.8647 250
v 42.433319 -101.4663 250
l 931 932
v 36.836761 -103.6487 250
v 37.771157 -103.29246 250
l 933 934
v 32.081051 -105.2179 250
v 33.03069 -104.90456 250
l 935 936
v 27.25886 -106.569 250
v 28.221778 -106.29921 250
l 937 938
v 22.380159 -107.6992 250
v 23.35436 -107.47352 250
l 939 940
v 17.45508 -108.6063 250
v 18.438539 -108.42517 250
l 941 942
v 12.49382 -109.2882 250
v 13.484506 -109.15204 250
l 943 944
v 7.5066652 -109.7436 250
v 8.502522 -109.65266 250
l 945 946
v 2.503952 -109.9715 250
v 3.502916 -109.92599 250
l 947 948
v -2.503952 -109.9715 250
v -1.503952 -109.9715 250
l 949 950
v -7.5066652 -109.7436 250
v -6.5077012 -109.78911 250
l 951 952
v -12.49382 -109.2882 250
v -11.497963 -109.37914 250
l 953 954
v -17.45508 -108.6063 250
v -16.464394 -108.74247 250
l 955 956
v -22.380159 -107.6992 250
v -21.396701 -107.88034 250
l 957 958
v -27.25886 -106.569 250
v -26.284659 -106.79468 250
l 959 960
v -32.081051 -105.2179 250
v -31.118133 -105.4877 250
l 961 962
v -36.836761 -103.6487 250
v -35.887122 -103.96204 250
l 963 964
v -41.516109 -101.8647 250
v -40.581714 -102.22094 250
l 965 966
v -46.109421 -99.869522 250
v -45.192211 -100.26793 250
l 967 968
v -50.607151 -97.667374 250
v -49.709024 -98.107109 250
l 969 970
v -55 -95.262787 250
v -54.122818 -95.742945 250
l 971 972
v -59.278851 -92.660767 250
v -58.424431 -93.18035 250
l 973 974
v -63.434841 -89.866692 250
v -62.604955 -90.424624 250
l 975 976
v -67.459343 -86.886353 250
v -66.655712 -87.48148 250
l 977 978
v -71.344032 -83.725922 250
v -70.568321 -84.35701 250
l 979 980
v -75.080849 -80.39196 250
v -74.334665 -81.0577 250
l 981 982
v -78.662048 -76.891373 250
v -77.946939 -77.590385 250
l 983 984
v -82.080208 -73.231407 250
v -81.397656 -73.962244 250
l 985 986
v -85.328239 -69.41967 250
v -84.679658 -70.180815 250
l 987 988
v -88.399422 -65.46405 250
v -87.786155 -66.253926 250
l 989 990
v -91.287376 -61.372749 250
v -90.710696 -62.189719 250
l 991 992
v -93.98613 -57.154228 250
v -93.447232 -57.996599 250
l 993 994
v -96.490089 -52.817261 250
v -95.990088 -53.683285 250
l 995 996
v -98.794052 -48.370819 250
v -98.333987 -49.258704 250
l 997 998
v -100.8932 -43.82412 250
v -100.47403 -44.732028 250
l 999 1000
v -102.7833 -39.186588 250
v -102.40588 -40.112629 250
l 1001 1002
v -104.4604 -34.467838 250
v -104.12551 -35.410096 250
l 1003 1004
v -105.9209 -29.677641 250
v -105.62926 -30.63417 250
l 1005 1006
v -107.1619 -24.825939 250
v -106.91409 -25.794748 250
l 1007 1008
v -108.1808 -19.922779 250
v -107.97734 -20.901863 250
l 1009 1010
v -108.9755 -14.97833 250
v -108.81681 -15.965658 250
l 1011 1012
v -109.5443 -10.00283 250
v -109.43072 -10.996358 250
l 1013 1014
v -109.886 -5.0066061 250
v -109.81777 -6.0042755 250
l 1015 1016
v -110 2.796278e-13 250
v -109.97724 -0.99974087 250
l 1017 1018
v -109.886 5.0066061 250
v -109.90877 4.0068652 250
l 1019 1020
v -109.5443 10.00283 250
v -109.61253 9.0051602 250
l 1021 1022
v -108.9755 14.97833 250
v -109.08908 13.984801 250
l 1023 1024
v -108.1808 19.922779 250
v -108.33949 18.93545 250
l 1025 1026
v -107.1619 24.825939 250
v -107.36536 23.846855 250
l 1027 1028
v -105.9209 29.677641 250
v -106.16871 28.708832 250
l 1029 1030
v -104.4604 34.467838 250
v -104.75204 33.51131 250
l 1031 1032
v -102.7833 39.186588 250
v -103.11819 38.244331 250
l 1033 1034
v -100.8932 43.82412 250
v -101.27063 42.898078 250
l 1035 1036
v -98.794052 48.370819 250
v -99.213221 47.462911 250
l 1037 1038
v -96.490089 52.817261 250
v -96.950155 51.929376 250
l 1039 1040
v -93.98613 57.154228 250
v -94.486131 56.288204 250
l 1041 1042
v -91.287376 61.372749 250
v -91.826274 60.530378 250
l 1043 1044
v -88.399422 65.46405 250
v -88.976102 64.64708 250
l 1045 1046
v -85.328239 69.41967 250
v -85.941507 68.629795 250
l 1047 1048
v -82.080208 73.231407 250
v -82.72879 72.470262 250
l 1049 1050
v -78.662048 76.891373 250
v -79.3446 76.160536 250
l 1051 1052
v -75.080849 80.39196 250
v -75.795958 79.692948 250
l 1053 1054
v -71.344032 83.725922 250
v -72.090216 83.060182 250
l 1055 1056
v -67.459343 86.886353 250
v -68.235054 86.255264 250
l 1057 1058
v -63.434841 89.866692 250
v -64.238472 89.271564 250
l 1059 1060
v -59.278851 92.660767 250
v -60.108737 92.102834 250
l 1061 1062
v -55 95.262787 250
v -55.85442 94.743204 250
l 1063 1064
v -50.607151 97.667374 250
v -51.484333 97.187216 250
l 1065 1066
v -46.109421 99.869522 250
v -47.007548 99.429787 250
l 1067 1068
v -41.516109 101.8647 250
v -42.433319 101.4663 250
l 1069 1070
v -36.836761 103.6487 250
v -37.771157 103.29246 250
l 1071 1072
v -32.081051 105.2179 250
v -33.03069 104.90456 250
l 1073 1074
v -27.25886 106.569 250
v -28.221778 106.29921 250
l 1075 1076
v -22.380159 107.6992 250
v -23.35436 107.47352 250
l 1077 1078
v -17.45508 108.6063 250
v -18.438539 108.42517 250
l 1079 1080
v -12.49382 109.2882 250
v -13.484506 109.15204 250
l 1081 1082
v -7.5066652 109.7436 250
v -8.502522 109.65266 250
l 1083 1084
v -2.503952 109.9715 250
v -3.502916 109.92599 250
l 1085 1086
v 2.503952 109.9715 250
v 1.503952 109.9715 250
l 1087 1088
v 7.5066652 109.7436 250
v 6.5077012 109.78911 250
l 1089 1090
v 12.49382 109.2882 250
v 11.497963 109.37914 250
l 1091 1092
v 17.45508 108.6063 250
v 16.464394 108.74247 250
l 1093 1094
v 22.380159 107.6992 250
v 21.396701 107.88034 250
l 1095 1096
v 27.25886 106.569 250
v 26.284659 106.79468 250
l 1097 1098
v 32.081051 105.2179 250
v 31.118133 105.4877 250
l 1099 1100
v 36.836761 103.6487 250
v 35.887122 103.96204 250
l 1101 1102
v 41.516109 101.8647 250
v 40.581714 102.22094 250
l 1103 1104
v 46.109421 99.869522 250
v 45.192211 100.26793 250
l 1105 1106
v 50.607151 97.667374 250
v 49.709024 98.107109 250
l 1107 1108
v 55 95.262787 250
v 54.122818 95.742945 250
l 1109 1110
v 59.278851 92.660767 250
v 58.424431 93.18035 250
l 1111 1112
v 63.434841 89.866692 250
v 62.604955 90.424624 250
l 1113 1114
v 67.459343 86.886353 250
v 66.655712 87.48148 250
l 1115 1116
v 71.344032 83.725922 250
v 70.568321 84.35701 250
l 1117 1118
v 75.080849 80.39196 250
v 74.334665 81.0577 250
l 1119 1120
v 78.662048 76.891373 250
v 77.946939 77.590385 250
l 1121 1122
v 82.080208 73.231407 250
v 81.397656 73.962244 250
l 1123 1124
v 85.328239 69.41967 250
v 84.679658 70.180815 250
l 1125 1126
v 88.399422 65.46405 250
v 87.786155 66.253926 250
l 1127 1128
v 91.287376 61.372749 250
v 90.710696 62.189719 250
l 1129 1130
v 93.98613 57.154228 250
v 93.447232 57.996599 250
l 1131 1132
v 96.490089 52.817261 250
v 95.990088 53.683285 250
l 1133 1134
v 98.794052 48.370819 250
v 98.333987 49.258704 250
l 1135 1136
v 100.8932 43.82412 250
v 100.47403 44.732028 250
l 1137 1138
v 102.7833 39.186588 250
v 102.40588 40.112629 250
l 1139 1140
v 104.4604 34.467838 250
v 104.12551 35.410096 250
l 1141 1142
v 105.9209 29.677641 250
v 105.62926 30.63417 250
l 1143 1144
v 107.1619 24.825939 250
v 106.91409 25.794748 250
l 1145 1146
v 108.1808 19.922779 250
v 107.97734 20.901863 250
l 1147 1148
v 108.9755 14.97833 250
v 108.81681 15.965658 250
l 1149 1150
v 109.5443 10.00283 250
v 109.43072 10.996358 250
l 1151 1152
v 109.886 5.0066061 250
v 109.81777 6.0042755 250
l 1153 1154
v 110 0 250
v 109.97724 0.99974087 250
l 1155 1156
v 119.8961 -4.9918189 250
v 119.91691 -3.9920354 250
l 1157 1158
v 119.5847 -9.9749956 250
v 119.64707 -8.9769424 250
l 1159 1160
v 119.0662 -14.94091 250
v 119.17005 -13.946317 250
l 1161 1162
v 118.3417 -19.880951 250
v 118.4868 -18.891535 250
l 1163 1164
v 117.4122 -24.78657 250
v 117.59836 -23.804051 250
l 1165 1166
v 116.2795 -29.64929 250
v 116.50636 -28.675363 250
l 1167 1168
v 114.9455 -34.460678 250
v 115.21268 -33.497031 250
l 1169 1170
v 113.4125 -39.21241 250
v 113.71954 -38.260712 250
l 1171 1172
v 111.6831 -43.896252 250
v 112.02947 -42.958154 250
l 1173 1174
v 109.7604 -48.504108 250
v 110.14548 -47.581228 250
l 1175 1176
v 107.6477 -53.027988 250
v 108.07084 -52.121925 250
l 1177 1178
v 105.3487 -57.460072 250
v 105.80916 -56.572389 250
l 1179 1180
v 102.8672 -61.792679 250
v 103.36421 -60.92493 250
l 1181 1182
v 100.2077 -66.018311 250
v 100.74036 -65.17198 250
l 1183 1184
v 97.374687 -70.129662 250
v 97.942094 -69.306224 250
l 1185 1186
v 94.373123 -74.119591 250
v 94.974291 -73.320468 250
l 1187 1188
v 91.208168 -77.981216 250
v 91.842059 -77.207794 250
l 1189 1190
v 87.885323 -81.70784 250
v 88.550837 -80.961455 250
l 1191 1192
v 84.410316 -85.293007 250
v 85.106305 -84.574954 250
l 1193 1194
v 80.7892 -88.730522 250
v 81.514454 -88.042041 250
l 1195 1196
v 77.028214 -92.014427 250
v 77.78148 -91.356712 250
l 1197 1198
v 73.133873 -95.139038 250
v 73.913848 -94.513228 250
l 1199 1200
v 69.11293 -98.098953 250
v 69.918262 -97.506129 250
l 1201 1202
v 64.972343 -100.889 250
v 65.801642 -100.33019 250
l 1203 1204
v 60.719269 -103.5044 250
v 61.571095 -102.98058 250
l 1205 1206
v 56.36108 -105.9407 250
v 57.233952 -105.45275 250
l 1207 1208
v 51.905319 -108.1935 250
v 52.797741 -107.74229 250
l 1209 1210
v 47.359699 -110.2591 250
v 48.27011 -109.8454 250
l 1211 1212
v 42.732101 -112.1337 250
v 43.658942 -111.75824 250
l 1213 1214
v 38.030521 -113.8142 250
v 38.972176 -113.47762 250
l 1215 1216
v 33.2631 -115.2977 250
v 34.217939 -115.00058 250
l 1217 1218
v 28.438101 -116.5816 250
v 29.404474 -116.32445 250
l 1219 1220
v 23.56386 -117.6637 250
v 24.540092 -117.44697 250
l 1221 1222
v 18.64883 -118.5421 250
v 19.633233 -118.36617 250
l 1223 1224
v 13.70152 -119.2152 250
v 14.692391 -119.08039 250
l 1225 1226
v 8.730484 -119.682 250
v 9.726104 -119.58851 250
l 1227 1228
v 3.7443371 -119.9416 250
v 4.7429845 -119.8896 250
l 1229 1230
v -1.248292 -119.9935 250
v -0.248346 -119.9831 250
l 1231 1232
v -6.2387609 -119.8377 250
v -5.2392479 -119.8689 250
l 1233 1234
v -11.21843 -119.4745 250
v -10.221079 -119.54725 250
l 1235 1236
v -16.17868 -118.9044 250
v -15.185221 -119.01859 250
l 1237 1238
v -21.11091 -118.1284 250
v -20.123062 -118.28382 250
l 1239 1240
v -26.006611 -117.148 250
v -25.026079 -117.34436 250
l 1241 1242
v -30.857281 -115.9648 250
v -29.885766 -116.20178 250
l 1243 1244
v -35.65453 -114.5808 250
v -34.693715 -114.858 250
l 1245 1246
v -40.390049 -112.9984 250
v -39.4416 -113.31533 250
l 1247 1248
v -45.055649 -111.2204 250
v -44.121203 -111.5765 250
l 1249 1250
v -49.643261 -109.2499 250
v -48.724434 -109.64456 250
l 1251 1252
v -54.14492 -107.0903 250
v -53.243304 -107.52284 250
l 1253 1254
v -58.552841 -104.7452 250
v -57.670007 -105.21489 250
l 1255 1256
v -62.859409 -102.2189 250
v -61.996865 -102.72488 250
l 1257 1258
v -67.057152 -99.515518 250
v -66.216414 -100.05696 250
l 1259 1260
v -71.138802 -96.639908 250
v -70.32131 -97.215848 250
l 1261 1262
v -75.09729 -93.596992 250
v -74.304465 -94.206442 250
l 1263 1264
v -78.925781 -90.392036 250
v -78.158995 -91.033939 250
l 1265 1266
v -82.617638 -87.030602 250
v -81.878216 -87.703845 250
l 1267 1268
v -86.166473 -83.518501 250
v -85.455697 -84.22192 250
l 1269 1270
v -89.566132 -79.861809 250
v -88.885233 -80.594187 250
l 1271 1272
v -92.81073 -76.066872 250
v -92.160886 -76.82694 250
l 1273 1274
v -95.894661 -72.140244 250
v -95.276998 -72.926686 250
l 1275 1276
v -98.812576 -68.088722 250
v -98.228163 -68.900179 250
l 1277 1278
v -101.5594 -63.919331 250
v -101.00925 -64.754398 250
l 1279 1280
v -104.1305 -59.639278 250
v -103.61555 -60.4965 250
l 1281 1282
v -106.5212 -55.255989 250
v -106.04238 -56.1339 250
l 1283 1284
v -108.7276 -50.777039 250
v -108.28569 -51.6741 250
l 1285 1286
v -110.7457 -46.210178 250
v -110.3415 -47.124852 250
l 1287 1288
v -112.5722 -41.56332 250
v -112.20638 -42.494007 250
l 1289 1290
v -114.2037 -36.844521 250
v -113.87693 -37.789626 250
l 1291 1292
v -115.6375 -32.06192 250
v -115.35033 -33.0198 250
l 1293 1294
v -116.8711 -27.22382 250
v -116.62403 -28.192817 250
l 1295 1296
v -117.9024 -22.3386 250
v -117.69584 -23.317036 250
l 1297 1298
v -118.7296 -17.4147 250
v -118.56392 -18.40088 250
l 1299 1300
v -119.3513 -12.46065 250
v -119.22679 -13.452868 250
l 1301 1302
v -119.7663 -7.4850278 250
v -119.68318 -8.4815676 250
l 1303 1304
v -119.974 -2.4964499 250
v -119.9324 -3.4955843 250
l 1305 1306
v -119.974 2.4964499 250
v -119.974 1.4964499 250
l 1307 1308
v -119.7663 7.4850278 250
v -119.8079 6.4858934 250
l 1309 1310
v -119.3513 12.46065 250
v -119.43442 11.464111 250
l 1311 1312
v -118.7296 17.4147 250
v -118.85412 16.422482 250
l 1313 1314
v -117.9024 22.3386 250
v -118.06807 21.35242 250
l 1315 1316
v -116.8711 27.22382 250
v -117.07765 26.245384 250
l 1317 1318
v -115.6375 32.06192 250
v -115.88457 31.092923 250
l 1319 1320
v -114.2037 36.844521 250
v -114.49086 35.88664 250
l 1321 1322
v -112.5722 41.56332 250
v -112.89896 40.618215 250
l 1323 1324
v -110.7457 46.210178 250
v -111.11151 45.279492 250
l 1325 1326
v -108.7276 50.777039 250
v -109.13179 49.862365 250
l 1327 1328
v -106.5212 55.255989 250
v -106.96311 54.358928 250
l 1329 1330
v -104.1305 59.639278 250
v -104.60932 58.761367 250
l 1331 1332
v -101.5594 63.919331 250
v -102.07435 63.062109 250
l 1333 1334
v -98.812576 68.088722 250
v -99.362725 67.253655 250
l 1335 1336
v -95.894661 72.140244 250
v -96.479074 71.328787 250
l 1337 1338
v -92.81073 76.066872 250
v -93.428393 75.280429 250
l 1339 1340
v -89.566132 79.861809 250
v -90.215975 79.101741 250
l 1341 1342
v -86.166473 83.518501 250
v -86.847372 82.786123 250
l 1343 1344
v -82.617638 87.030602 250
v -83.328414 86.327183 250
l 1345 1346
v -78.925781 90.392036 250
v -79.665203 89.718793 250
l 1347 1348
v -75.09729 93.596992 250
v -75.864077 92.95509 250
l 1349 1350
v -71.138802 96.639908 250
v -71.931626 96.030458 250
l 1351 1352
v -67.057152 99.515518 250
v -67.874643 98.939578 250
l 1353 1354
v -62.859409 102.2189 250
v -63.700147 101.67746 250
l 1355 1356
v -58.552841 104.7452 250
v -59.415385 104.23922 250
l 1357 1358
v -54.14492 107.0903 250
v -55.027754 106.62062 250
l 1359 1360
v -49.643261 109.2499 250
v -50.544878 108.81736 250
l 1361 1362
v -45.055649 111.2204 250
v -45.974476 110.82574 250
l 1363 1364
v -40.390049 112.9984 250
v -41.324495 112.64229 250
l 1365 1366
v -35.65453 114.5808 250
v -36.602978 114.26387 250
l 1367 1368
v -30.857281 115.9648 250
v -31.818095 115.68761 250
l 1369 1370
v -26.006611 117.148 250
v -26.978126 116.91102 250
l 1371 1372
v -21.11091 118.1284 250
v -22.091443 117.93204 250
l 1373 1374
v -16.17868 118.9044 250
v -17.166529 118.74898 250
l 1375 1376
v -11.21843 119.4745 250
v -12.211889 119.36032 250
l 1377 1378
v -6.2387609 119.8377 250
v -7.2361117 119.76496 250
l 1379 1380
v -1.248292 119.9935 250
v -2.247805 119.9623 250
l 1381 1382
v 3.7443371 119.9416 250
v 2.7443911 119.95199 250
l 1383 1384
v 8.730484 119.682 250
v 7.7318366 119.73399 250
l 1385 1386
v 13.70152 119.2152 250
v 12.7059 119.30869 250
l 1387 1388
v 18.64883 118.5421 250
v 17.657959 118.67691 250
l 1389 1390
v 23.56386 117.6637 250
v 22.579457 117.83963 250
l 1391 1392
v 28.438101 116.5816 250
v 27.461869 116.79832 250
l 1393 1394
v 33.2631 115.2977 250
v 32.296727 115.55484 250
l 1395 1396
v 38.030521 113.8142 250
v 37.075682 114.11132 250
l 1397 1398
v 42.732101 112.1337 250
v 41.790446 112.47028 250
l 1399 1400
v 47.359699 110.2591 250
v 46.432858 110.63456 250
l 1401 1402
v 51.905319 108.1935 250
v 50.994909 108.6072 250
l 1403 1404
v 56.36108 105.9407 250
v 55.468658 106.3919 250
l 1405 1406
v 60.719269 103.5044 250
v 59.846397 103.99235 250
l 1407 1408
v 64.972343 100.889 250
v 64.120518 101.41283 250
l 1409 1410
v 69.11293 98.098953 250
v 68.283631 98.657759 250
l 1411 1412
v 73.133873 95.139038 250
v 72.328541 95.731863 250
l 1413 1414
v 77.028214 92.014427 250
v 76.248238 92.640238 250
l 1415 1416
v 80.7892 88.730522 250
v 80.035933 89.388237 250
l 1417 1418
v 84.410316 85.293007 250
v 83.685063 85.981488 250
l 1419 1420
v 87.885323 81.70784 250
v 87.189334 82.425892 250
l 1421 1422
v 91.208168 77.981216 250
v 90.542654 78.727601 250
l 1423 1424
v 94.373123 74.119591 250
v 93.739233 74.893013 250
l 1425 1426
v 97.374687 70.129662 250
v 96.773519 70.928784 250
l 1427 1428
v 100.2077 66.018311 250
v 99.640295 66.841748 250
l 1429 1430
v 102.8672 61.792679 250
v 102.33454 62.639009 250
l 1431 1432
v 105.3487 57.460072 250
v 104.8517 58.327821 250
l 1433 1434
v 107.6477 53.027988 250
v 107.18724 53.915671 250
l 1435 1436
v 109.7604 48.504108 250
v 109.33726 49.410172 250
l 1437 1438
v 111.6831 43.896252 250
v 111.29801 44.819132 250
l 1439 1440
v 113.4125 39.21241 250
v 113.06613 40.150508 250
l 1441 1442
v 114.9455 34.460678 250
v 114.63847 35.412376 250
l 1443 1444
v 116.2795 29.64929 250
v 116.01232 30.612937 250
l 1445 1446
v 117.4122 24.78657 250
v 117.18534 25.760497 250
l 1447 1448
v 118.3417 19.880951 250
v 118.15553 20.86347 250
l 1449 1450
v 119.0662 14.94091 250
v 118.92109 15.930326 250
l 1451 1452
v 119.5847 9.9749956 250
v 119.48085 10.969589 250
l 1453 1454
v 119.8961 4.9918189 250
v 119.83373 5.9898721 250
l 1455 1456
v 120 0 250
v 119.97919 0.99978347 250
l 1457 1458
